<svg width="687" height="195" viewBox="0 0 687 195" fill="none" xmlns="http://www.w3.org/2000/svg">
<path d="M0 186.559C0 190.977 3.58172 194.559 8 194.559C12.4183 194.559 16 190.977 16 186.559C16 182.14 12.4183 178.559 8 178.559C3.58172 178.559 0 182.14 0 186.559ZM374.913 102.828L375.583 104.171L374.913 102.828ZM687 8.55859L671.941 0.000805855L672.059 17.3209L687 8.55859ZM8 186.559V188.059C123.457 188.059 246.481 168.564 375.583 104.171L374.913 102.828L374.244 101.486C245.641 165.631 123.094 185.059 8 185.059V186.559ZM374.913 102.828L375.583 104.171C431.042 76.5083 468.235 53.5854 510.354 37.2266C552.352 20.915 599.168 11.1845 673.537 10.1504L673.517 8.65052L673.496 7.15067C598.849 8.18864 551.666 17.963 509.268 34.4302C466.991 50.8502 429.39 73.9802 374.244 101.486L374.913 102.828Z" fill="#E1FB40"/>
</svg>
