<svg width="80" height="95" viewBox="0 0 80 95" fill="none" xmlns="http://www.w3.org/2000/svg">
<g clip-path="url(#clip0_569_601)">
<path d="M67.3833 49.3089L69.9882 43.0408L66.5987 42.1086L63.3974 46.3517L25.0451 44.0373L34.9941 22.1151L42.7148 21.1508L41.8046 16.972L33.2052 16.2006L18.4543 9.90035L16.9478 0.257152H13.621L12.9933 7.55384L3.42095 0L0 1.06075L4.58219 6.23594L3.32679 10.5111L5.99451 11.9576L7.94037 9.67534L29.9098 19.9936L11.173 53.9376L4.04865 94.1176H9.35269L18.4543 66.1202L28.3091 94.1176H33.519L29.031 66.7309L54.8607 58.7271L48.0816 94.1176H53.5426L65.2805 61.5236L74.947 94.1176H80L67.3833 49.3089Z" fill="#E1FB40"/>
</g>
<defs>
<clipPath id="clip0_569_601">
<rect width="80" height="94.1176" fill="white"/>
</clipPath>
</defs>
</svg>
