<svg width="327" height="106" viewBox="0 0 327 106" fill="none" xmlns="http://www.w3.org/2000/svg">
<g clip-path="url(#clip0_569_856)">
<path d="M73.841 47.2129L70.283 46.24L66.8864 50.6754L26.4219 48.2431L36.9205 25.236L45.0681 24.2058L44.1207 19.8491L35.0397 19.0049L19.4813 12.4018L17.8672 2.28616H14.3794L13.6987 9.94088L3.61415 2L0 3.10171L4.84226 8.56017L3.50889 13.0314L6.32301 14.5695L8.38624 12.1586L31.5659 23.0111L11.7758 58.6592L4.28786 100.853H9.85997L19.4603 71.4505L29.8606 100.853H35.3625L30.6255 72.1015L57.8826 63.7028L50.7315 100.853H56.4931L68.8724 66.6144L79.0833 100.853H84.4027L71.1181 53.7802L73.841 47.2129Z" fill="white" fill-opacity="0.3"/>
<path d="M134.229 39.7302L138.25 33.4848L133.211 52.8505C133.366 53.1295 133.506 52.8863 133.632 52.7503C134.348 52.0206 137.169 49.0875 137.555 48.4365C138.299 47.1846 139.218 43.2785 139.85 41.5759C142.264 35.0872 145.808 28.9921 147.275 22.1672C147.127 22.0528 145.24 22.8683 144.903 23.0185C143.899 23.4621 141.19 24.6425 140.446 25.2005C139.99 25.5367 139.282 26.617 138.874 27.1392C133.141 34.5078 128.853 43.1927 125.393 51.8847L116.277 35.6166L115.765 35.4235L111.702 35.9886L111.154 64.7976C112.389 64.5543 113.863 64.6617 115.063 64.447C115.267 64.4113 115.414 64.3898 115.47 64.1537L116.193 45.7037L121.028 55.3687L123.569 61.4424C123.969 61.9646 124.958 60.9917 125.449 60.9273C127.983 53.709 130.418 46.3976 134.222 39.7445L134.229 39.7302Z" fill="white" fill-opacity="0.3"/>
<path d="M188.476 83.3271C190.335 84.7221 192.3 86.017 194.476 86.8683C195.823 86.575 197.136 85.5949 198.448 84.9796C208.013 80.4727 215.894 77.3965 223.172 69.1265C223.326 68.9477 224.512 67.5669 224.379 67.4453L220.161 68.0105C213.557 74.6637 204.764 78.2979 195.9 80.7087C195.55 80.3367 198.364 76.8957 198.764 76.4593C201.332 73.655 204.701 71.1868 207.452 68.5041C208.217 67.7601 212.75 63.0814 212.708 62.4304L211.697 58.9464C211.459 58.7104 209.185 60.2485 208.757 60.4559C200.659 64.4693 194.441 63.1601 185.921 62.831C183.753 62.7452 181.57 62.9097 179.402 62.831C179.317 64.7984 179.556 66.7514 179.928 68.6687C180.602 68.5613 181.43 68.3539 182.097 68.3181C186.946 68.0319 191.816 68.5613 196.679 68.1393C198.392 67.989 200.09 67.5455 201.802 67.4382C196.757 71.8951 188.377 75.3576 188.469 83.3199L188.476 83.3271Z" fill="white" fill-opacity="0.3"/>
<path d="M172.518 37.044C173.613 37.5877 174.617 38.296 175.536 39.1115C177.522 38.9685 179.578 38.8468 181.578 38.9542C182.224 38.9899 184.806 39.2332 185.143 39.5694C185.649 40.0773 186.259 42.2521 186.435 43.0247C187.045 45.7003 187.214 48.5619 186.926 51.3019L179.655 53.4552L179.403 58.7706C188.175 55.6443 198.751 56.1665 206.049 49.5706C206.793 48.8981 209.228 46.3013 209.277 45.4213C209.327 44.5414 208.232 41.2863 207.874 40.2848C207.621 39.5694 206.8 37.2873 206.393 36.8294C206.169 36.579 204.456 37.1013 203.944 37.1657C198.603 37.8453 192.484 35.7063 187.101 35.091C181.698 34.4686 176.273 34.6689 171.059 36.3072C170.89 36.529 172.322 36.9439 172.511 37.0369L172.518 37.044ZM204.583 43.7473C201.544 47.496 196.667 49.3631 192.084 50.2932C192.21 47.0596 191.887 43.8546 191.045 40.7426C195.473 42.0518 199.923 43.7044 204.59 43.7544L204.583 43.7473Z" fill="white" fill-opacity="0.3"/>
<path d="M116.312 100.32C116.264 100.32 116.466 100.349 116.312 100.32V100.32Z" fill="white" fill-opacity="0.3"/>
<path d="M116.199 70.0929V91.1398L103.434 71.1516L102.922 70.9656L98.4863 71.3305V100.519H103.174L103.434 80.0011L116.304 100.318C117.631 100.282 119.294 100.189 120.62 100.161L120.88 69.6493L120.627 69.2344L116.192 70.0857L116.199 70.0929Z" fill="white" fill-opacity="0.3"/>
<path d="M322.313 71.8594V92.198L321.913 91.9691L308.853 71.8594H304.256V101.04H308.853L309.112 100.776V80.7017L322.137 101.04H327V71.8594H322.313Z" fill="white" fill-opacity="0.3"/>
<path d="M233.145 83.713C235.966 77.1743 239.489 70.9361 241.566 64.0826L243.335 67.6738C244.409 69.4194 245.826 70.9146 247.293 72.3096C247.903 72.8891 250.009 74.8779 250.605 75.1426C251.033 75.3286 251.433 74.9852 251.812 74.792C252.381 74.4987 256.276 72.281 256.409 72.0449C257.209 65.4347 257.784 58.7958 258.051 52.1426C258.065 51.7206 258.227 51.3342 258.241 50.9193V40.2099C258.051 40.0024 254.739 42.077 254.409 42.4562C254.444 47.4568 254.233 52.4646 253.693 57.4294C253.349 60.5986 252.718 63.7535 252.325 66.9155C252.1 67.1516 251.209 65.8711 251.04 65.6636C249.244 63.4173 247.637 60.7417 246.514 58.0733C245.714 56.1703 245.272 54.1314 244.423 52.2428L240.612 56.1417C237.994 67.5809 231.341 76.9883 225.061 86.5531L233.131 83.7201L233.145 83.713Z" fill="white" fill-opacity="0.3"/>
<path d="M285.812 71.5682C275.727 72.2907 271.594 81.505 273.215 90.8338C275.72 105.227 296.079 105.499 299.644 91.6779C302.29 81.412 297.328 70.7455 285.805 71.5682H285.812ZM294.605 91.1414C292.079 99.4256 280.429 99.347 278.387 90.6907C276.97 84.6742 278.703 76.7834 285.805 76.1682C294.31 75.4313 296.703 84.245 294.598 91.1414H294.605Z" fill="white" fill-opacity="0.3"/>
<path d="M287.582 51.179C286.396 51.2148 285.203 51.1361 284.017 51.179C281.588 51.2506 278.108 51.086 275.855 51.3507C275.602 51.3794 275.406 51.3722 275.258 51.6226V55.2496L282.374 55.0708C281.925 61.0014 277.427 63.6627 271.89 62.654C264.879 61.3806 265.356 50.6425 267.869 45.6848C270.837 39.8329 279.511 40.212 281.799 46.4145C282.017 46.4646 285.947 45.785 286.248 45.6562C286.831 45.413 286.045 43.8176 285.827 43.3312C282.501 35.8338 270.999 34.6534 265.89 40.6556C262.002 45.2198 259.988 57.7321 262.858 63.0117C265.384 67.6617 272.823 68.0051 277.35 67.0107C284.838 65.3725 288.08 58.5333 287.589 51.1719L287.582 51.179Z" fill="white" fill-opacity="0.3"/>
<path d="M176.805 92.4587C176.665 92.287 175.808 91.264 175.935 91.1352C182.124 93.4388 180.819 87.4223 179.759 83.6164C178.356 78.6158 175.808 73.8012 174.559 68.7505C173.696 65.2522 173.394 61.6466 173.072 58.0625C167.822 60.1228 164.019 64.5726 162.44 70.0525C159.773 79.3026 163.176 89.175 168.685 96.5722L172.805 98.2104C169.878 94.6549 167.289 90.6916 165.906 86.2204C165.563 85.1044 165.106 83.8024 165.247 82.6435C166.335 83.7165 167.373 84.8469 168.454 85.92C168.952 86.4136 169.949 87.0145 170.37 87.5081C170.994 88.2307 171.668 89.7545 172.307 90.663C174.321 93.5031 177.023 96.329 179.752 98.4608C184.216 101.959 187.297 103.433 192.925 104.32C193.107 104.349 193.493 104.556 193.451 104.227C187.388 101.287 181.184 97.724 176.791 92.4587H176.805ZM172.84 85.0043C170.321 84.3246 166.538 78.0649 164.896 75.9331C165.254 72.957 166.461 69.5804 168.475 67.3483C168.636 67.1695 169.492 66.1679 169.682 66.3682C170.335 71.3903 173.907 75.8329 174.812 80.6904C175.163 82.5791 175.717 85.7697 172.84 84.9971V85.0043Z" fill="white" fill-opacity="0.3"/>
<path d="M139.542 77.1813C137.879 74.8276 136.215 76.7521 134.054 77.2314C130.608 77.9968 129.303 76.8379 129.752 73.2037C130.005 71.1505 132.545 66.1141 133.991 64.6118C134.475 64.1039 134.994 63.596 135.724 63.5459C136.798 63.646 137.128 66.7365 137.036 67.6165C137.85 66.6507 138.314 65.2843 138.917 64.1397C139.289 63.4243 140.061 62.5229 140.321 61.8504C140.7 60.8631 140.651 55.9412 140.138 54.9969C138.756 52.4286 135.268 56.5636 134.264 57.8084C130.58 62.3726 125.155 71.4367 125.583 77.4317C126.166 85.6802 132.026 83.3909 137.359 84.7216C139.991 85.3797 140.384 90.8811 139.373 92.8985C137.963 95.7029 134.215 95.6599 131.956 93.9501C130.503 92.8484 130.061 91.339 129.324 89.7579L124.889 90.9741C125.871 97.4127 131.485 101.319 137.78 100.124C142.412 99.2441 143.703 95.8674 143.465 91.4176C143.317 88.6061 141.093 79.3704 139.549 77.1884L139.542 77.1813Z" fill="white" fill-opacity="0.3"/>
<path d="M193.558 18.0981C197.502 20.6878 201.362 24.1003 204.499 27.6486C206.541 29.9594 210.892 36.7914 213.32 37.7643C217.285 39.3596 217.959 33.0427 217.783 30.3886C216.738 14.4711 194.555 -1.45362 179.551 0.105938C176.891 0.384942 174.021 1.59396 175.558 4.77031C177.796 9.37745 189.109 15.165 193.565 18.091L193.558 18.0981ZM185.614 3.99053C195.593 2.29505 215.054 17.5043 213.601 28.4284C213.482 29.337 212.983 30.1954 211.987 30.1167C210.26 29.9808 205.741 24.8586 204.239 23.485C198.583 18.2984 189.951 13.3407 185.396 7.6605C184.393 6.40856 183.207 4.39831 185.614 3.98338V3.99053Z" fill="white" fill-opacity="0.3"/>
<path d="M69.8338 27.0123C66.7741 28.1283 62.8792 27.3771 60.9072 24.6157C60.3599 23.8502 60.1914 22.9131 59.6581 22.169L54.9141 22.863C55.9667 30.7323 64.4231 33.5653 71.1953 31.3976C75.813 29.9168 78.8236 25.7603 77.5744 20.7311C76.0656 14.6717 67.5601 15.0366 63.0968 12.8403C59.2721 10.9588 61.0265 7.2173 64.6337 6.48045C68.0934 5.7722 71.6655 7.51061 72.4725 11.1663L77.6657 10.2935C76.8446 7.51777 75.5393 5.1355 73.069 3.56879C67.5039 0.0490503 56.5352 1.43692 55.9597 9.49941C55.3492 18.1199 64.5635 17.8051 70.1917 20.1159C74.1006 21.7183 73.455 25.6888 69.8479 27.0051L69.8338 27.0123Z" fill="white" fill-opacity="0.3"/>
<path d="M216.113 50.0229C216.106 50.2376 217.2 53.4282 217.355 53.6428C217.488 53.8217 217.53 53.8789 217.776 53.8288C221.137 48.9999 223.362 43.2124 223.165 37.2031L226.204 39.5066C227.088 46.3816 225.432 53.5069 222.646 59.7523C222.723 60.1243 225.706 60.5607 226.197 59.8382C226.597 59.2444 227.439 56.0394 227.671 55.1452C228.864 50.4593 229.215 46.0167 229.081 41.1807C229.067 40.5583 228.752 39.6569 228.808 39.056C228.843 38.6553 229.489 37.4249 229.643 36.8168C231.804 28.4252 226.078 15.312 219.874 9.70332C216.379 6.54127 215.228 7.17797 210.955 6.5842C209.228 6.34812 207.537 5.75434 205.811 5.54688C210.323 10.8623 215.088 16.1705 217.874 22.7092C221.685 31.6516 221.818 41.8818 216.127 50.0301L216.113 50.0229ZM221.257 15.3549C223.966 17.7443 226.955 24.1042 227.166 27.7313C227.201 28.3823 227.236 30.4354 226.639 30.7574C226.057 31.065 222.639 29.2121 222.288 28.6327C221.944 28.0675 221.418 25.6208 221.088 24.7266C220.604 23.4174 220.022 22.1512 219.495 20.8635L215.004 13.3232C217.088 14.0815 219.544 13.8383 221.257 15.3549Z" fill="white" fill-opacity="0.3"/>
<path d="M148.37 88.8805C147.023 85.1319 145.9 81.2687 145.402 77.2911C146.02 76.6759 146.476 75.8961 147.114 75.3023C148.546 73.9717 149.409 74.1005 150.553 72.0831C152.764 68.2056 153.929 62.8187 156.048 58.5764C157.634 55.4072 164.371 46.4648 164.638 44.1541C165.087 40.2337 158.132 41.4928 155.971 42.0436C154.441 42.43 149.725 44.2041 148.672 45.22C148.174 45.6922 147.311 47.6953 146.967 48.4393C142.455 58.1758 141.353 69.4361 143.374 79.9953C144.532 86.0404 146.89 91.7564 148.518 97.6584L151.444 96.9645C151.5 96.7212 151.423 96.4995 151.367 96.2634C150.799 94.0886 149.192 91.1555 148.37 88.8805ZM147.627 54.2554C147.992 53.2396 149.002 50.4138 149.564 49.6841C150.23 48.8113 156.301 46.8082 157.143 47.6666C157.683 48.7183 157.087 49.9344 156.694 50.9288C155.065 55.0209 152.399 59.206 150.553 63.2479C149.156 65.201 146.588 65.7518 145.03 67.6118C145.072 63.112 146.125 58.4691 147.627 54.2554Z" fill="white" fill-opacity="0.3"/>
<path d="M188.034 23.0072C188.574 23.2361 191.332 24.7241 191.536 24.6025C191.725 24.1017 193.002 22.7139 192.427 22.2489C191.739 21.6837 188.525 20.5033 187.529 20.1599C177.83 16.8691 166.931 16.8262 157.008 19.0582C156.728 19.2013 156.117 21.4119 155.878 21.9699C153.605 27.2137 149.57 32.1929 146.741 37.2435C146.376 37.8946 143.611 42.9381 143.822 43.2028C149.275 39.3969 156.103 35.9415 162.826 35.591C163.942 35.5337 166.567 35.8986 167.303 35.7484C167.837 35.6411 170.482 33.9885 171.275 33.5879C171.472 33.4877 173.704 32.5577 173.507 32.4146C168.398 31.4632 163.409 31.549 158.363 32.8153C156.672 33.2445 155.057 33.9527 153.366 34.3533L155.977 30.9123L159.142 27.4069C165.731 25.7472 172.742 25.8258 179.325 27.4713L183.058 25.8616C183.128 25.4109 183.016 25.5898 182.813 25.4968C182.153 25.1963 180.876 24.8601 180.139 24.6812C174.37 23.3077 167.858 23.1574 162.047 24.2734L164.938 20.0526C172.518 19.2943 180.974 20.0025 188.034 23V23.0072Z" fill="white" fill-opacity="0.3"/>
<path d="M104.782 23.7194C104.902 23.3045 105.26 22.0525 105.26 21.7306V2H100.396V21.194C100.396 21.7449 99.7436 23.2186 99.4418 23.7623C97.0277 28.1477 90.1503 28.1978 87.8274 23.7408C87.659 23.4118 87.0274 21.8021 87.0274 21.5517V2.44354C86.7467 2.00715 86.3467 2.3577 85.9045 2.36485C84.6624 2.39347 83.4062 2.32908 82.1641 2.3577V22.0811C82.1641 22.4031 82.522 23.655 82.6413 24.0699C85.5536 34.4861 101.891 34.0568 104.782 23.7194Z" fill="white" fill-opacity="0.3"/>
<path d="M115.849 30.1265V20.3972C121.092 20.1682 129.492 19.7891 132.524 14.6525C135.78 9.13685 130.825 2.8843 125.295 2.01867C123.436 1.72536 121.871 1.99721 120.109 2.00437C117.007 2.01867 113.905 1.9829 110.811 1.99721L110.986 30.4771L115.849 30.1194V30.1265ZM121.506 6.43266C122.509 6.43266 123.26 6.22519 124.404 6.46843C127.478 7.12659 129.141 10.9969 127.211 13.6581C125.134 16.5269 118.979 15.7185 115.849 15.976L115.674 6.4255C117.611 6.4255 119.555 6.4255 121.499 6.43266H121.506Z" fill="white" fill-opacity="0.3"/>
<path d="M141.203 21.4569L148.937 18.2805C148.712 16.5707 148.165 14.8752 147.288 13.4087C149.19 12.6432 151.449 12.0566 153.498 11.5987C157.548 10.6973 161.52 10.4112 165.583 9.76016C168.362 9.31662 175.766 8.50822 170.545 4.75956C164.081 0.138108 154.207 -0.283975 146.67 0.93935L136.859 1.46874C137.309 4.52348 137.666 7.64975 138.333 10.6687C139.147 14.3172 141.049 17.6367 141.203 21.4569ZM156.741 3.24292C158.116 3.35023 163.232 4.48055 163.394 6.18319C163.267 7.20621 162.172 7.32782 161.422 7.64975L145.919 10.8118C144.881 8.88738 143.358 7.07743 143.112 4.8311C147.625 4.6594 152.214 2.89238 156.741 3.24292Z" fill="white" fill-opacity="0.3"/>
<path d="M232 103.634C227.172 99.7136 221.642 96.7017 216.273 93.6542C215.74 93.3465 214.189 92.1018 213.866 92.0374C213.122 91.8871 212.462 92.2019 211.796 92.2162C209.473 92.2734 206.792 92.3378 204.49 92.2162C203.374 92.159 201.171 91.5938 200.238 91.7441C199.599 91.8514 197.129 93.1749 196.476 93.5898C193.129 95.7217 192.595 98.061 194.595 101.588C195.037 102.368 196.82 104.85 197.564 105.108L204.582 106.002L203.024 102.468C206.94 102.604 210.82 102.933 214.75 102.826C216.764 102.775 219.607 102.239 221.522 102.454C222.175 102.525 222.428 102.783 222.975 103.097C224.386 103.913 225.74 105.079 227.116 105.966L233.754 105.286C233.298 104.614 232.618 104.128 232 103.627V103.634ZM215.445 100.35C212.112 100.35 208.862 100.508 205.55 100.336C204.975 100.307 202.638 100.5 202.406 100.171L202.343 99.9139C202.588 97.4529 204.427 95.693 206.413 94.5055C209.908 96.8377 213.894 98.1039 217.614 99.9854L215.452 100.343L215.445 100.35Z" fill="white" fill-opacity="0.3"/>
<path d="M225.312 12.7578C226.147 12.2713 227.298 10.7403 228.028 10.3898C228.231 10.2968 228.358 10.2324 228.561 10.3827C228.835 10.583 231.081 15.884 231.41 16.6781C236 27.6809 238.302 38.4905 235.937 50.4591C235.593 52.1903 235.102 53.8858 234.632 55.5813C234.933 55.66 234.976 55.4525 235.151 55.3166C235.67 54.9088 237.895 52.6195 238.098 52.1259C238.421 51.3318 238.646 49.5004 238.772 48.5704C239.832 40.9586 238.962 32.8532 237.011 25.4703C235.488 19.7185 233.067 14.3173 231.158 8.70863L238.449 7.64269C238.063 6.07598 238.07 4.47349 238.105 2.87101C236 2.93539 233.867 2.78516 231.761 2.87101C229.074 2.97116 225.6 3.16432 223.08 4.1158C222.154 4.46634 221.347 5.08158 220.393 5.36058L224.575 12.9509C224.849 13.0225 225.087 12.9008 225.319 12.7649L225.312 12.7578Z" fill="white" fill-opacity="0.3"/>
<path d="M249.789 80.3264C243.038 83.5099 235.978 86.3786 228.834 88.5177C228.301 88.8396 228.245 90.5208 228.027 91.1432C228.645 91.6797 240.428 87.3373 242.091 86.9009C241.417 92.6026 243.144 98.1683 244.182 103.698L249.909 102.818C249.046 96.7018 248.288 90.5637 248.512 84.3684C252.105 82.6085 255.783 80.9703 259.614 79.8113L259.804 75.7622C259.327 75.2829 250.947 79.7899 249.796 80.3336L249.789 80.3264Z" fill="white" fill-opacity="0.3"/>
<path d="M161.318 61.6688C163.831 57.1476 167.669 53.8353 172.385 51.8823C172.701 51.3743 171.585 48.384 171.417 47.6328C155.515 54.565 152.076 73.4156 158.539 88.6106C158.988 89.6765 160.673 93.3608 161.339 94.0261C161.697 94.3838 163.746 94.8417 164.301 94.7773C157.922 85.2411 155.536 72.0921 161.318 61.6688Z" fill="white" fill-opacity="0.3"/>
<path d="M87.7227 100.703H92.586V71.3359L87.8981 71.5148L87.7227 100.703Z" fill="white" fill-opacity="0.3"/>
<path d="M263.658 74.4595C263.531 74.7099 263.468 75.3394 263.447 75.6542C263.005 80.898 263.545 87.3151 263.637 92.6305C263.686 95.5565 263.524 98.4824 263.707 101.401C264.079 101.938 267.693 101.194 268.493 101.387V73.0859C267.679 73.3649 263.973 73.8371 263.665 74.4452L263.658 74.4595Z" fill="white" fill-opacity="0.3"/>
<path d="M213.608 89.2888C216.478 86.0552 219.791 83.2437 222.738 80.1103C226.465 76.1542 229.924 71.8332 232.57 67.0401C232.914 66.4248 235.153 62.0323 234.97 61.7891C233.798 63.0195 231.545 63.9066 230.451 65.0513C229.173 66.389 227.63 69.3722 226.289 71.0677C223.475 74.6089 220.071 77.8067 216.555 80.6039C212.731 83.6515 208.513 86.1482 204.766 89.2888C204.927 89.4748 205.306 89.5321 205.545 89.5535C208.092 89.8182 211.054 89.4176 213.615 89.2817L213.608 89.2888Z" fill="white" fill-opacity="0.3"/>
</g>
<defs>
<clipPath id="clip0_569_856">
<rect width="327" height="106" fill="white"/>
</clipPath>
</defs>
</svg>
