<svg width="101" height="103" viewBox="0 0 101 103" fill="none" xmlns="http://www.w3.org/2000/svg">
<g clip-path="url(#clip0_348_5)">
<path d="M29.0101 36.4471C28.9087 37.9153 28.413 39.2367 27.523 40.4113L25.5402 38.8414C26.9034 37.1586 27.016 35.1144 25.8556 32.6976C25.3036 31.5343 24.6276 30.676 23.839 30.1113C23.0504 29.5579 22.2054 29.4901 21.3154 29.9193C20.4028 30.3597 19.862 30.9922 19.7156 31.8279C19.5691 32.6637 19.7944 33.8834 20.3916 35.4871C21.2365 37.7233 21.4956 39.4965 21.1576 40.8066C20.8197 42.1166 20.0085 43.0766 18.7129 43.6978C17.2596 44.398 15.8851 44.4093 14.567 43.743C13.2488 43.0766 12.1673 41.823 11.2885 39.9934C9.80139 36.8763 10.0154 34.1658 11.942 31.8731L13.9248 33.443C13.215 34.2561 12.8207 35.1257 12.7418 36.0518C12.663 36.9892 12.8996 38.017 13.4516 39.1689C14.0149 40.3322 14.6458 41.1228 15.3669 41.5294C16.0879 41.9472 16.8315 41.9585 17.6201 41.5858C18.3524 41.2357 18.7918 40.6146 18.9382 39.7336C19.0847 38.8527 18.8368 37.5765 18.1947 35.8937C17.4173 33.8157 17.192 32.099 17.5187 30.7437C17.8454 29.3885 18.6566 28.3946 19.9522 27.7734C20.9999 27.2652 22.0477 27.141 23.0842 27.3894C24.1206 27.6379 25.067 28.1687 25.9345 28.9932C26.802 29.8176 27.5117 30.8115 28.0638 31.9748C28.7961 33.4994 29.1115 34.9902 29.0101 36.4471Z" fill="#221F20"/>
<path d="M2.78223 9.8592L19.8279 6.32422L20.3348 8.80887L17.8225 9.32838C18.9378 9.83661 19.8729 10.5368 20.6278 11.4516C21.3826 12.3664 21.8896 13.4281 22.1374 14.6365C22.4754 16.2628 22.3853 17.8101 21.8783 19.2557C21.3713 20.7013 20.4926 21.9436 19.2646 22.9601C18.0366 23.9765 16.5269 24.6655 14.7581 25.0382C13.0119 25.3996 11.3783 25.3657 9.85735 24.9252C8.33643 24.496 7.06335 23.7168 6.0156 22.5987C4.97912 21.4806 4.29189 20.1027 3.9539 18.4764C3.69478 17.2341 3.73985 16.0369 4.06656 14.8963C4.39328 13.7443 4.99039 12.7165 5.83535 11.8017L3.2892 12.3326L2.78223 9.8592ZM18.3858 12.2422C17.6197 11.4516 16.6508 10.9095 15.5017 10.6159C14.3525 10.3222 13.1245 10.3109 11.8177 10.582C10.5108 10.8531 9.38418 11.35 8.43782 12.0841C7.50273 12.8069 6.83803 13.6878 6.44372 14.7268C6.0494 15.7659 5.97054 16.8614 6.20713 18.0247C6.44372 19.1653 6.95069 20.1253 7.71679 20.9046C8.48289 21.6839 9.44051 22.226 10.5784 22.5196C11.7163 22.8133 12.9443 22.8245 14.2511 22.5535C15.5918 22.2824 16.7184 21.7742 17.6648 21.0514C18.5999 20.3286 19.2646 19.4477 19.6701 18.4312C20.0645 17.4148 20.1433 16.3306 19.9067 15.1899C19.6589 14.0153 19.1519 13.0328 18.3858 12.2422Z" fill="#221F20"/>
<path d="M2.97466 -10.7523C3.5267 -11.7575 4.30406 -12.5367 5.29548 -13.0901C6.29817 -13.6435 7.44731 -13.8807 8.76545 -13.8129L20.3808 -13.1692L20.2456 -10.6394L9.7456 -11.2266C6.30943 -11.4186 4.49559 -9.97303 4.32659 -6.9011C4.2252 -5.11667 4.78851 -3.73882 5.99398 -2.77884C7.21072 -1.81886 8.87811 -1.27675 11.0074 -1.15252L19.6936 -0.666883L19.5584 1.86294L2.17476 0.902963L2.30996 -1.62686L5.20535 -1.46875C4.1238 -2.12379 3.31264 -2.95954 2.7606 -3.97599C2.20856 -4.99243 1.97197 -6.1444 2.03957 -7.43191C2.10717 -8.64035 2.42262 -9.75844 2.97466 -10.7523Z" fill="#221F20"/>
<path d="M99.108 93.7741C98.049 93.3336 97.1928 92.656 96.5281 91.7186C95.8634 90.7812 95.4916 89.6631 95.424 88.353L94.748 76.709L97.2717 76.5622L97.88 87.0881C98.0828 90.5327 99.7164 92.1703 102.781 91.9896C104.561 91.888 105.856 91.1765 106.679 89.8551C107.501 88.5337 107.839 86.817 107.715 84.6825L107.208 75.975L109.732 75.8281L111.298 102.843L108.774 102.99L108.053 90.4876C107.524 91.6395 106.792 92.543 105.845 93.2094C104.899 93.8757 103.783 94.2484 102.499 94.3162C101.294 94.3952 100.156 94.2145 99.108 93.7741Z" fill="#221F20"/>
<path d="M71.8213 90.5863L75.1673 73.4648L77.6459 73.9505L77.0938 76.8078C77.8937 75.8253 78.8288 75.125 79.9104 74.7185C80.9919 74.3119 82.1636 74.2328 83.4254 74.4813C84.6196 74.7185 85.6674 75.1702 86.5799 75.8591C87.4925 76.5481 88.1572 77.4177 88.5628 78.4906C88.9796 79.5635 89.0472 80.7381 88.7993 82.0256L86.5574 93.4776L84.0788 92.9919L86.1067 82.6355C86.7714 79.2473 85.5885 77.2596 82.5804 76.661C80.8342 76.3222 79.3921 76.6836 78.2768 77.7452C77.1614 78.8181 76.3953 80.3993 75.9785 82.4999L74.2998 91.0607L71.8213 90.5863Z" fill="#221F20"/>
<path d="M51.7569 81.5303C50.9345 80.2428 50.4951 78.8085 50.45 77.2273C50.405 75.6462 50.7655 74.0425 51.5429 72.4387C52.3315 70.8011 53.368 69.5136 54.6523 68.565C55.9366 67.6163 57.3449 67.0742 58.8771 66.9274C60.4093 66.7918 61.919 67.0742 63.4061 67.8083C64.5214 68.3504 65.4227 69.0958 66.1212 70.0557C66.8197 71.0157 67.2704 72.0999 67.4844 73.3084L68.5998 70.9931L70.8755 72.0999L59.1137 96.4495L56.8379 95.3427L62.1555 84.3425C61.0627 84.9411 59.9249 85.2686 58.7306 85.3138C57.5364 85.3589 56.376 85.0992 55.2381 84.5458C53.751 83.823 52.5906 82.8178 51.7569 81.5303ZM59.1362 69.2878C58.0547 69.4233 57.0407 69.8638 56.1056 70.5979C55.1706 71.332 54.4045 72.3145 53.8186 73.5456C53.2328 74.754 52.9511 75.9399 52.9511 77.1257C52.9511 78.3116 53.244 79.3619 53.8186 80.2993C54.3819 81.2367 55.1931 81.9595 56.2408 82.4677C57.3111 82.9872 58.3927 83.1792 59.4855 83.055C60.5783 82.9195 61.5922 82.4903 62.5273 81.7562C63.4624 81.0221 64.2173 80.0508 64.8031 78.8424C65.3889 77.6339 65.6818 76.4368 65.6706 75.2509C65.6706 74.0651 65.3777 72.9921 64.8031 72.0548C64.2285 71.1061 63.4061 70.3833 62.3358 69.8637C61.2881 69.3442 60.229 69.1635 59.1362 69.2878Z" fill="#221F20"/>
<path d="M41.0985 59.0452C41.3013 59.8131 41.3126 60.5811 41.1098 61.3604C40.9182 62.1397 40.5127 62.8399 39.9268 63.4385C39.386 63.9919 38.7326 64.3646 37.9552 64.5679C37.1779 64.7711 36.4005 64.7825 35.6119 64.5792C34.8345 64.3759 34.1698 64.0145 33.6178 63.4724C32.7165 62.5801 32.2771 61.5298 32.2997 60.3101C32.3222 59.0903 32.7728 58.0287 33.6629 57.1252C34.5303 56.2443 35.5781 55.7812 36.7836 55.7587C37.989 55.7361 39.0481 56.1652 39.9493 57.0574C40.5127 57.6221 40.8957 58.2885 41.0985 59.0452Z" fill="#FB4040"/>
</g>
<defs>
<clipPath id="clip0_348_5">
<rect width="101" height="103" fill="white"/>
</clipPath>
</defs>
</svg>
