<svg width="317" height="600" viewBox="0 0 317 600" fill="none" xmlns="http://www.w3.org/2000/svg">
<path d="M446.564 314.268L463.62 274.426L441.288 268.501L419.939 295.466L165.89 280.713L231.84 140.992L283.006 134.764L277.055 108.283L220 103.204L122.331 63.1197L112.209 1.69287H90.3067L86.0123 48.1862L22.6994 0L0 6.65055L30.3681 39.7823L22.0245 66.9287L39.6932 76.2999L52.638 61.6687L198.16 127.509L73.9264 343.894L26.9325 600H61.9018L122.209 421.524L187.485 600H222.025L192.27 425.453L363.436 374.486L318.528 600H354.724L432.454 392.201L496.564 600H530L446.564 314.268Z" fill="#F7F7F7"/>
</svg>
