<svg width="400" height="658" viewBox="0 0 400 658" fill="none" xmlns="http://www.w3.org/2000/svg">
<path d="M547.673 386.55L568.59 337.544L541.203 330.256L515.019 363.423L203.449 345.278L284.333 173.42L347.083 165.76L339.785 133.188L269.811 126.941L150.029 77.6372L137.614 2.08223H110.754L105.487 59.269L27.8389 0L0 8.18017L37.2439 48.9323L27.0112 82.3223L48.6804 93.8489L64.5561 75.8525L243.026 156.836L90.6644 422.989L33.0304 738H75.9174L149.878 518.474L229.934 738H272.294L235.803 523.308L445.723 460.618L390.647 738H435.039L530.368 482.407L608.994 738H650L547.673 386.55Z" fill="#F7F7F7"/>
</svg>
