<svg width="25" height="25" viewBox="0 0 25 25" fill="none" xmlns="http://www.w3.org/2000/svg">
<path d="M12.5 0C19.4035 6.44277e-06 25 5.59645 25 12.5C25 19.4035 19.4035 25 12.5 25C5.59645 25 6.44257e-06 19.4035 0 12.5C0 5.59645 5.59645 0 12.5 0ZM8.39844 7.03125C6.63662 7.03128 5.20801 8.45985 5.20801 10.2217V14.7783C5.20801 16.5401 6.63662 17.9687 8.39844 17.9688H16.6016C18.3633 17.9686 19.791 16.5401 19.791 14.7783V10.2217C19.791 8.45995 18.3633 7.03143 16.6016 7.03125H8.39844ZM17.9688 10.2217V14.7783C17.9688 15.5333 17.3565 16.1453 16.6016 16.1455H8.39844C7.64339 16.1455 7.03125 15.5334 7.03125 14.7783V10.2217C7.03125 10.1968 7.03286 10.172 7.03418 10.1475L10.5664 13.6797C11.6342 14.7473 13.3658 14.7473 14.4336 13.6797L17.9648 10.1475C17.9662 10.1721 17.9688 10.1967 17.9688 10.2217ZM16.6016 8.85449C16.6268 8.8545 16.6519 8.85607 16.6768 8.85742L13.1445 12.3906C12.7886 12.7464 12.2114 12.7464 11.8555 12.3906L8.32227 8.85742C8.34748 8.85604 8.37288 8.85449 8.39844 8.85449H16.6016Z" fill="black"/>
</svg>
