<svg width="140" height="142" viewBox="0 0 140 142" fill="none" xmlns="http://www.w3.org/2000/svg">
<g clip-path="url(#clip0_569_25)">
<path d="M29.0101 75.4393C28.9087 76.9075 28.413 78.2289 27.523 79.4035L25.5402 77.8336C26.9034 76.1508 27.016 74.1066 25.8556 71.6897C25.3036 70.5265 24.6276 69.6681 23.839 69.1035C23.0504 68.5501 22.2054 68.4823 21.3154 68.9115C20.4028 69.3519 19.862 69.9844 19.7156 70.8201C19.5691 71.6559 19.7944 72.8756 20.3916 74.4793C21.2365 76.7155 21.4956 78.4887 21.1576 79.7987C20.8197 81.1088 20.0085 82.0688 18.7129 82.69C17.2596 83.3902 15.8851 83.4015 14.567 82.7351C13.2488 82.0688 12.1673 80.8152 11.2885 78.9856C9.80139 75.8685 10.0154 73.1579 11.942 70.8653L13.9248 72.4351C13.215 73.2483 12.8207 74.1179 12.7418 75.044C12.663 75.9814 12.8996 77.0092 13.4516 78.1611C14.0149 79.3244 14.6458 80.115 15.3669 80.5216C16.0879 80.9394 16.8315 80.9507 17.6201 80.578C18.3524 80.2279 18.7918 79.6067 18.9382 78.7258C19.0847 77.8449 18.8368 76.5687 18.1947 74.8859C17.4173 72.8078 17.192 71.0912 17.5187 69.7359C17.8454 68.3806 18.6566 67.3868 19.9522 66.7656C20.9999 66.2574 22.0477 66.1332 23.0842 66.3816C24.1206 66.6301 25.067 67.1609 25.9345 67.9854C26.802 68.8098 27.5117 69.8037 28.0638 70.9669C28.7961 72.4916 29.1115 73.9824 29.0101 75.4393Z" fill="#221F20"/>
<path d="M2.7832 48.8553L19.8289 45.3203L20.3358 47.805L17.8235 48.3245C18.9388 48.8327 19.8739 49.5329 20.6287 50.4477C21.3836 51.3625 21.8906 52.4242 22.1384 53.6326C22.4764 55.2589 22.3863 56.8062 21.8793 58.2518C21.3723 59.6974 20.4936 60.9397 19.2655 61.9562C18.0375 62.9726 16.5279 63.6615 14.7591 64.0342C13.0128 64.3956 11.3793 64.3618 9.85833 63.9213C8.3374 63.4921 7.06433 62.7129 6.01658 61.5948C4.9801 60.4767 4.29286 59.0988 3.95488 57.4725C3.69576 56.2302 3.74082 55.033 4.06754 53.8924C4.39426 52.7404 4.99136 51.7126 5.83632 50.7978L3.29018 51.3286L2.7832 48.8553ZM18.3868 51.2383C17.6207 50.4477 16.6518 49.9056 15.5027 49.612C14.3535 49.3183 13.1255 49.307 11.8186 49.5781C10.5118 49.8491 9.38515 50.3461 8.4388 51.0802C7.50371 51.803 6.83901 52.6839 6.44469 53.7229C6.05038 54.762 5.97152 55.8575 6.20811 57.0208C6.44469 58.1614 6.95167 59.1214 7.71777 59.9007C8.48386 60.68 9.44148 61.2221 10.5794 61.5157C11.7172 61.8094 12.9452 61.8206 14.2521 61.5496C15.5928 61.2785 16.7194 60.7703 17.6658 60.0475C18.6008 59.3247 19.2655 58.4438 19.6711 57.4273C20.0654 56.4109 20.1443 55.3267 19.9077 54.186C19.6599 53.0114 19.1529 52.0289 18.3868 51.2383Z" fill="#221F20"/>
<path d="M2.97368 28.2438C3.52572 27.2386 4.30309 26.4594 5.2945 25.906C6.29719 25.3526 7.44634 25.1154 8.76447 25.1832L20.3798 25.8269L20.2447 28.3567L9.74462 27.7694C6.30846 27.5775 4.49461 29.0231 4.32562 32.095C4.22422 33.8794 4.78753 35.2573 5.993 36.2173C7.20975 37.1772 8.87713 37.7193 11.0064 37.8436L19.6926 38.3292L19.5574 40.859L2.17379 39.8991L2.30898 37.3692L5.20438 37.5273C4.12283 36.8723 3.31167 36.0366 2.75963 35.0201C2.20759 34.0037 1.971 32.8517 2.03859 31.5642C2.10619 30.3557 2.42164 29.2376 2.97368 28.2438Z" fill="#221F20"/>
<path d="M2.64748 -0.377738C3.00799 0.356363 3.62763 0.887173 4.50639 1.22599L8.92271 2.90878L10.3535 -0.852082L12.5053 -0.0276265L11.0858 3.73323L25.191 9.10911L24.2897 11.4808L10.1845 6.09365L9.39589 8.18301L7.24406 7.35856L8.03268 5.26919L3.6051 3.5977C2.09544 3.02172 1.04769 2.07303 0.450581 0.740356C-0.146523 -0.592319 -0.15779 -2.00405 0.416783 -3.51743L0.788565 -4.5L2.94039 -3.67555L2.56861 -2.70428C2.26443 -1.89112 2.28696 -1.11184 2.64748 -0.377738Z" fill="#221F20"/>
<path d="M17.5981 -15.1797L19.6034 -14.039C19.1302 -13.7115 18.7472 -13.271 18.443 -12.7289C17.9135 -11.8028 17.6882 -10.7864 17.7558 -9.69087C17.8234 -8.59537 18.2064 -7.53375 18.9162 -6.48342C19.626 -5.44438 20.6512 -4.54087 21.9806 -3.78419L29.236 0.326777L27.9967 2.52908L12.8438 -6.05425L14.083 -8.25655L17.1249 -6.52859C16.3362 -7.74833 15.8743 -8.97936 15.7617 -10.233C15.6377 -11.4866 15.8969 -12.6724 16.5278 -13.8018C16.8207 -14.3326 17.1812 -14.7844 17.5981 -15.1797Z" fill="#221F20"/>
<path d="M133.155 125.87C132.017 125.847 130.969 125.52 130.012 124.887C129.065 124.255 128.31 123.34 127.77 122.143L122.959 111.527L125.257 110.476L129.606 120.076C131.037 123.216 133.144 124.153 135.938 122.877C137.56 122.132 138.518 121.002 138.81 119.478C139.103 117.953 138.799 116.214 137.92 114.271L134.327 106.332L136.625 105.281L143.824 121.16L141.526 122.211L140.331 119.568C140.252 120.833 139.892 121.951 139.25 122.911C138.608 123.871 137.706 124.616 136.523 125.158C135.419 125.667 134.293 125.904 133.155 125.87Z" fill="#221F20"/>
<path d="M99.108 132.766C98.049 132.326 97.1928 131.648 96.5281 130.711C95.8634 129.773 95.4916 128.655 95.424 127.345L94.748 115.701L97.2717 115.554L97.88 126.08C98.0828 129.525 99.7164 131.163 102.781 130.982C104.561 130.88 105.856 130.169 106.679 128.847C107.501 127.526 107.839 125.809 107.715 123.675L107.208 114.967L109.732 114.82L111.298 141.835L108.774 141.982L108.053 129.48C107.524 130.632 106.792 131.535 105.845 132.202C104.899 132.868 103.783 133.241 102.499 133.308C101.294 133.387 100.156 133.207 99.108 132.766Z" fill="#221F20"/>
<path d="M71.8223 129.582L75.1683 112.461L77.6469 112.947L77.0948 115.804C77.8947 114.821 78.8298 114.121 79.9113 113.715C80.9929 113.308 82.1646 113.229 83.4264 113.477C84.6206 113.715 85.6683 114.166 86.5809 114.855C87.4934 115.544 88.1581 116.414 88.5637 117.487C88.9806 118.56 89.0482 119.734 88.8003 121.022L86.5584 132.474L84.0798 131.988L86.1077 121.632C86.7724 118.243 85.5895 116.256 82.5814 115.657C80.8352 115.318 79.3931 115.68 78.2778 116.741C77.1624 117.814 76.3963 119.395 75.9795 121.496L74.3008 130.057L71.8223 129.582Z" fill="#221F20"/>
<path d="M51.7559 120.526C50.9335 119.239 50.4941 117.805 50.4491 116.223C50.404 114.642 50.7645 113.039 51.5419 111.435C52.3305 109.797 53.367 108.51 54.6513 107.561C55.9357 106.612 57.3439 106.07 58.8761 105.923C60.4083 105.788 61.918 106.07 63.4051 106.804C64.5205 107.346 65.4217 108.092 66.1202 109.052C66.8187 110.012 67.2694 111.096 67.4835 112.304L68.5988 109.989L70.8746 111.096L59.1127 135.446L56.837 134.339L62.1546 123.339C61.0618 123.937 59.9239 124.265 58.7297 124.31C57.5355 124.355 56.375 124.095 55.2372 123.542C53.75 122.819 52.5896 121.814 51.7559 120.526ZM59.1353 108.284C58.0537 108.419 57.0398 108.86 56.1047 109.594C55.1696 110.328 54.4035 111.311 53.8176 112.542C53.2318 113.75 52.9501 114.936 52.9501 116.122C52.9501 117.308 53.2431 118.358 53.8176 119.295C54.3809 120.233 55.1921 120.956 56.2399 121.464C57.3101 121.983 58.3917 122.175 59.4845 122.051C60.5773 121.916 61.5913 121.486 62.5264 120.752C63.4614 120.018 64.2163 119.047 64.8021 117.838C65.388 116.63 65.6809 115.433 65.6696 114.247C65.6696 113.061 65.3767 111.988 64.8021 111.051C64.2275 110.102 63.4051 109.379 62.3348 108.86C61.2871 108.34 60.2281 108.16 59.1353 108.284Z" fill="#221F20"/>
<path d="M41.0985 98.0373C41.3013 98.8053 41.3126 99.5733 41.1098 100.353C40.9182 101.132 40.5127 101.832 39.9268 102.431C39.386 102.984 38.7326 103.357 37.9552 103.56C37.1779 103.763 36.4005 103.775 35.6119 103.571C34.8345 103.368 34.1698 103.007 33.6178 102.465C32.7165 101.572 32.2771 100.522 32.2997 99.3023C32.3222 98.0825 32.7728 97.0209 33.6629 96.1174C34.5303 95.2365 35.5781 94.7734 36.7836 94.7508C37.989 94.7283 39.0481 95.1574 39.9493 96.0496C40.5127 96.6143 40.8957 97.2807 41.0985 98.0373Z" fill="#FB4040"/>
</g>
<defs>
<clipPath id="clip0_569_25">
<rect width="140" height="142" fill="white"/>
</clipPath>
</defs>
</svg>
