<svg width="24" height="23" viewBox="0 0 24 23" fill="none" xmlns="http://www.w3.org/2000/svg">
<path d="M0.520335 0.927034C1.2634 0.110089 2.52834 0.0503489 3.34553 0.793245L11.9998 8.66043L20.6541 0.793245C21.4713 0.0503497 22.7363 0.110091 23.4793 0.927034C24.2222 1.74422 24.1625 3.00917 23.3455 3.75223L14.9725 11.3636L23.3455 18.9749C24.1626 19.7179 24.2222 20.9829 23.4793 21.8001C22.7363 22.6171 21.4713 22.6778 20.6541 21.9348L11.9998 14.0667L3.34553 21.9348C2.52831 22.6778 1.26338 22.6171 0.520335 21.8001C-0.222587 20.9829 -0.162903 19.7179 0.654124 18.9749L9.02619 11.3636L0.654124 3.75223C-0.162822 3.00917 -0.222562 1.74422 0.520335 0.927034Z" fill="black"/>
</svg>
