<svg width="109" height="83" viewBox="0 0 109 83" fill="none" xmlns="http://www.w3.org/2000/svg">
<path d="M91.8571 26.4945C88.7045 25.4001 85.2334 24.4609 81.5173 23.685C80.0309 23.3746 78.5036 23.0888 76.9437 22.8356C73.0397 22.1904 68.9234 21.7167 64.6683 21.4226C63.8597 21.3655 63.0512 21.3165 62.2345 21.2756L63.4024 25.1306C66.8163 25.3429 70.1404 25.6696 73.3256 26.1106C79.7287 26.9927 85.6091 28.324 90.6157 30.0636C94.2828 31.3377 97.321 32.7996 99.6323 34.3514C100.449 34.8986 101.176 35.454 101.805 36.0175C102.605 36.7362 103.25 37.4713 103.724 38.2063C104.353 39.1864 104.68 40.1747 104.68 41.1384C104.68 42.8372 103.675 44.5768 101.805 46.2674C99.4036 48.4317 95.5732 50.4981 90.6157 52.2132C87.8551 53.1687 84.8169 54.0018 81.5908 54.7124C75.5879 56.0191 68.8826 56.8848 61.8097 57.2442C59.3187 57.3667 56.7869 57.4321 54.2224 57.4321C51.6579 57.4321 49.126 57.3667 46.635 57.2442C42.437 57.0319 38.3616 56.6398 34.4903 56.0845C32.179 55.7496 29.9411 55.3657 27.785 54.9165C24.1996 54.1733 20.851 53.2668 17.8209 52.2132C12.8634 50.4899 9.03298 48.4317 6.6318 46.2674C6.1336 45.8182 5.70074 45.3609 5.32505 44.9035C4.541 43.9479 4.04279 42.976 3.85494 42.0205C3.83861 41.9551 3.82227 41.8816 3.8141 41.8163C3.78144 41.5958 3.75694 41.3671 3.75694 41.1466C3.75694 39.6928 4.50016 38.2063 5.88859 36.7444C6.11728 36.4994 6.37046 36.2625 6.63998 36.0175C7.44037 35.2988 8.4041 34.5883 9.50668 33.894C10.2417 33.4367 11.0503 32.9793 11.916 32.5464C13.6475 31.6644 15.624 30.8313 17.8291 30.0718C22.0679 28.6017 26.9274 27.4174 32.2116 26.5517C32.963 26.4292 33.7308 26.3148 34.4985 26.2005C37.8797 25.7186 41.408 25.3593 45.0424 25.1387L46.2103 21.2838C45.3936 21.3246 44.585 21.3736 43.7765 21.4308C42.0695 21.5452 40.3952 21.6922 38.7373 21.8718C37.8144 21.9699 36.8996 22.076 35.9931 22.1904C34.4658 22.3864 32.963 22.5987 31.5011 22.8437C30.717 22.9744 29.9493 23.1051 29.1898 23.2521C24.6161 24.1015 20.3691 25.1959 16.5959 26.5108C10.5766 28.6017 6.07643 31.1662 3.2914 34.0247C2.90754 34.4249 2.56452 34.8251 2.23783 35.2335C1.78863 35.8052 1.3966 36.385 1.08625 36.9731C0.906566 37.3079 0.751387 37.651 0.612544 37.994C0.204181 39.0231 0 40.0766 0 41.1547C0 43.0985 0.694222 44.977 2.00915 46.7575C2.27867 47.1168 2.56452 47.4762 2.88304 47.8274C3.16889 48.1459 3.47109 48.4562 3.79778 48.7666C6.60731 51.4291 10.9196 53.8221 16.5959 55.7986C25.1388 58.7633 36.0421 60.6009 47.8029 61.091C49.9182 61.1808 52.0662 61.2298 54.2305 61.2298C56.3949 61.2298 58.5347 61.1808 60.6582 61.091C72.419 60.6009 83.3223 58.7633 91.8652 55.7986C96.5451 54.1733 100.31 52.2622 103.063 50.1469C106.599 47.4272 108.469 44.3726 108.469 41.1547C108.469 35.4295 102.573 30.2269 91.8652 26.5108L91.8571 26.4945Z" fill="#1E1E1E"/>
<path d="M48.391 63.043L54.2224 82.2768L60.0538 63.043C58.061 63.1165 56.1009 63.1655 54.2224 63.1655C52.3439 63.1655 50.3919 63.1246 48.391 63.043Z" fill="#1E1E1E"/>
<path d="M42.9269 32.0973L27.2212 36.8588L13.0756 41.1466L44.6502 50.7105L46.0304 55.2596C46.2673 55.276 46.496 55.2923 46.7328 55.3005C49.1993 55.423 51.7148 55.4883 54.2222 55.4883C56.7295 55.4883 59.245 55.423 61.7115 55.3005C61.9484 55.2923 62.1771 55.2678 62.4139 55.2596L63.7942 50.7105L95.3688 41.1466L79.5815 36.3606L65.5175 32.0973L63.7942 31.5746L54.2303 0L44.6665 31.5746L42.9432 32.0973H42.9269Z" fill="#1E1E1E"/>
</svg>
