<svg width="440" height="440" viewBox="0 0 440 440" fill="none" xmlns="http://www.w3.org/2000/svg">
<g clip-path="url(#clip0_2084_6)">
<path d="M-152.257 512.251C-154.467 510.459 -153.618 508.379 -149.956 510.718C-141.803 515.932 -120.788 525.226 -112.423 529.568C-80.7529 546.022 -49.2407 561.335 -15.0632 573.044C30.3836 588.616 77.676 597.018 125.146 603.593C168.474 609.594 207.387 608.022 249.761 596.385C259.65 593.667 269.276 590.509 279.538 589.018C294.552 586.842 325.613 586.406 335.948 599.663C342.4 607.936 329.045 618.398 323.092 622.774C298.41 640.906 262.306 654.867 233.631 666.408C225.818 669.552 203.308 676.234 201.937 685.781C200.82 693.589 209.434 698.985 215.464 702.081C226.029 707.502 244.455 712.808 256.338 713.34C303.693 715.473 345.616 709.213 391.854 699.263C444.928 687.842 494.746 669.078 543.611 645.703C569.51 633.314 592.149 623.105 620.67 616.491C646.843 610.423 674.832 605.204 701.162 599.994C707.533 598.733 714.018 598.149 720.355 596.749L720.355 560.64C717.733 560.237 715.897 562.14 713.549 562.859C704.642 565.572 691.686 568.098 682.449 567.34C673.586 566.612 671.985 561.809 676.083 554.285C681.816 543.76 702.212 524.727 712.485 518.87C714.766 517.571 717.887 516.766 720.355 515.765L720.355 435.806C715.96 438.245 712.278 441.672 708.036 444.38C675.278 465.301 633.934 464.611 597.369 473.516C556.658 483.432 526.1 513.713 495.762 540.342C486.904 548.116 463.21 566.041 458.589 575.651C453.733 585.75 465.372 591.189 472.893 594.779C486.645 601.336 503.259 605.103 516.523 612.024C520.688 614.2 524.408 618.806 523.157 623.709C522.783 625.166 517.716 631.195 516.317 632.346C501.256 644.726 482.422 654.22 464.581 662.119C416.632 683.346 360.328 696.436 307.897 699.92C296.752 700.663 290.271 701.065 278.982 699.953C273.954 699.455 263.845 698.842 258.883 697.892C249.546 696.105 235.803 689.448 247.556 679.306C254.665 673.171 265.834 668.302 274.232 664.199C292.423 655.313 310.653 646.619 328.667 637.129C342.779 629.695 381.299 610.366 387.89 596.788C391.322 589.713 382.008 585.587 376.764 583.607C354.091 575.066 323.164 569.559 299.12 567.877C282.563 566.717 264.861 572.181 249.757 577.305C211.399 590.322 174.116 597.329 133.021 594.166C81.923 590.236 33.1686 581.594 -15.4084 565.648C-52.6633 553.417 -87.6747 536.014 -122.25 517.725C-125.164 516.181 -130.854 512.831 -130.73 509.447C-130.605 506.064 -123.487 509.611 -120.256 511.087C-116.972 512.592 -112.783 515.463 -109.322 517.174C-26.3663 558.109 49.1644 583.837 143.864 580.784C179.384 579.639 209.194 570.748 241.44 557.127C245.975 555.21 254.847 550.862 259.516 549.29C273.686 544.522 294.408 548.49 308.975 550.795C351.407 557.51 400.823 571.266 442.823 557.309C502.353 537.529 536.957 475.936 597.341 458.528C615.978 453.156 635.871 451.713 654.656 446.714C679.026 440.229 702.279 428.775 720.351 411.041L720.351 388.342C716.578 392.042 713.127 396.078 709.273 399.706C684.414 423.076 661.286 429.886 628.925 437.493C595.912 445.252 577.285 451.061 550.6 472.131C533.976 485.258 518.641 500.111 501.788 513.095C457.132 547.512 419.028 554.524 363.223 546.582C338.752 543.103 315.125 534.605 291.268 528.777C267.075 522.863 242.662 527.056 221.624 539.317C180.865 563.07 125.424 573.144 78.3231 568.893C14.9103 563.171 -48.0615 539.882 -104.02 511.868C-107.381 510.186 -112.275 507.717 -115.587 505.915C-123.386 501.669 -125.255 495.817 -114.302 499.891C-112.165 500.686 -103.79 504.295 -101.619 505.335C-77.2585 517.02 -54.0389 527.186 -28.1015 535.511C13.0888 548.734 55.0939 560.592 98.9829 558.076C124.259 556.628 159.184 538.478 182.447 527.526C220.138 509.783 241.876 493.406 285.856 506.84C310.758 514.446 333.777 526.97 359.609 532.655C402.874 542.173 447.713 539.168 485.897 515.765C525.381 491.561 553.423 450.007 596.55 431.933C621.998 421.269 649.431 418.738 673.868 404.532C679.055 401.518 686.001 394.688 690.233 392.526C691.441 391.913 693.076 392.114 693.445 391.87C693.967 391.525 693.785 389.488 694.159 388.965C694.389 388.644 695.544 388.519 696.081 388.059C701.33 383.597 705.611 378.181 710.035 373.115C713.434 369.223 716.875 365.332 720.355 361.507L720.355 324.88C718.491 326.754 716.851 329.246 715.274 331.408C700.51 351.677 688.584 369.794 667.181 384.426C646.699 398.436 621.126 404.25 599.263 415.038C552.968 437.886 525.846 484.836 480.639 508.954C430.154 535.885 378.993 528.954 328.854 505.628C299.259 491.858 270.647 471.829 236.258 476.089C212.075 479.085 194.9 487.055 174.576 499.526C149.492 514.926 120.021 536.374 90.5465 541.89C66.1812 546.448 40.3444 541.612 16.6887 536.11C-19.8232 527.612 -55.7646 516.555 -89.966 501.415C-94.7546 499.296 -103.608 495.855 -107.611 493.267C-108.368 492.778 -112.452 489.83 -113.118 489.222C-116.047 486.562 -116.455 483.811 -115.486 481.917C-114.221 479.444 -104.107 483.672 -100.785 485.416C-65.2029 504.108 -25.537 514.303 14.4118 520.342C28.1547 522.417 47.2662 522.82 60.5489 519.124C71.8567 515.98 86.4049 508.829 96.9649 503.552C111.81 496.143 124.36 489.917 138.956 481.97C157.876 471.67 172.361 456.88 193.27 448.588C207.469 442.956 233.128 437.708 247.734 442.305C252.892 443.929 262.987 447.836 267.977 449.92C297.25 462.147 321.342 483.418 349.993 497.389C410.506 526.893 466.8 519.623 516.331 474.498C539.445 453.438 559.05 427.663 583.392 407.95C600.437 394.146 620.345 384.225 638.282 372.046C649.211 364.627 659.656 356.235 668.471 346.002C678.417 334.456 685.684 322.163 694.341 309.97C701.637 299.694 709.393 289.394 720.351 282.588L720.351 254.732C717.748 255.47 715.37 256.798 712.906 257.862C677.559 273.132 666.712 303.633 642.792 329.869C621.083 353.68 595.39 373.302 573.047 397.089C558.154 412.944 545.528 430.318 531.033 446.383C513.215 466.13 493.634 484.41 468.588 494.849C441.443 506.164 407.217 506.241 380.537 493.674C354.259 481.294 327.655 465.315 306.348 446.115C294.595 435.518 273.436 408.616 260.211 404.039C245.524 398.953 224.284 401.029 216.097 385.212C213.504 380.204 215.972 370.024 217.727 364.713C224.759 343.419 242.312 330.397 256.832 314.571C266.294 304.261 274.093 293.118 285.2 284.131C312.326 262.18 332.075 268.689 364.153 266.613C383.605 265.353 401.657 258.6 420.088 253.419C454.045 243.876 505.033 233.917 520.957 198.493C525.477 188.442 524.854 176.92 519.581 167.373C505.968 142.723 477.221 138.117 452.079 131.695C440.518 128.743 429.066 125.479 417.221 123.734C359.858 115.275 301.032 129.313 247.892 101.534C225.804 89.9877 202.944 83.5125 178.344 78.8731C153.787 74.2384 150.12 70.2028 129.829 57.7462C107.146 43.8182 90.834 40.8754 66.0806 33.7916C32.0134 24.0429 5.65893 2.9736 -27.0709 -7.18722C-84.0508 -24.8728 -119.321 9.85611 -163.718 37.4533L-200 58.9492L-200 79.3236C-198.826 78.5232 -197.9 77.4783 -196.673 76.7163C-158.388 52.9725 -114.815 1.29131 -68.2131 -1.69463C-27.9384 -4.27317 -1.12378 19.0632 33.0585 34.3092C55.9424 44.5132 82.5605 46.9431 104.026 59.8119C123.679 71.5927 134.095 92.0677 156.5 101.227C170.276 106.858 187.6 107.199 200.705 113.77C209.127 117.992 217.607 125.886 225.972 130.808C239.077 138.525 253.716 141.506 268.317 144.693C290.487 149.534 312.22 150.507 334.697 153.119C353.406 155.295 365.485 157.025 384.746 156.167C408.521 155.113 450.737 156.685 470.405 171.145C489.08 184.876 476.392 201.416 461.038 210.274C445.685 219.131 405.87 229.8 388.35 231.99C372.733 233.941 358.132 229.972 342.956 230.451C320.115 231.17 277.132 255.254 262.244 272.513C248.683 288.234 240.683 301.97 224.323 315.582C201.16 334.854 183.64 348.192 164.514 372.358C157.243 381.546 147.934 398.23 135.049 400.669C110.693 405.29 98.6858 377.189 81.0074 367.071C57.505 353.623 29.1613 370.551 3.75595 364.363C-1.53604 363.074 -7.13486 360.294 -12.3166 358.77C-51.5559 347.215 -92.0224 362.068 -129.67 341.995C-141.582 335.645 -151.457 326.279 -161.58 317.652C-173.046 307.875 -184.905 297.599 -196.223 287.572L-199.99 282.574L-199.99 508.005C-196.947 509.179 -193.912 510.665 -191.055 512.223C-174.24 521.391 -157.285 530.153 -140.82 539.369C-115.146 553.743 -90.2776 569.507 -64.1628 582.912C-46.633 591.908 -28.4994 600.056 -10.4951 608.175C3.95722 614.694 19.5216 619.875 32.6461 628.487C35.8913 630.615 41.1162 634.953 40.3923 639.252C39.3426 645.478 34.9758 647.237 35.7523 655.298C37.1281 669.596 67.2838 686.883 78.7737 693.79C148.03 735.42 225.919 774.511 308.942 770.063C362.715 767.183 416.512 759.893 469.82 753.475C504.462 749.305 539.22 743.516 574.155 744.215C621.303 745.16 669.966 742.998 717.024 744.757C718.179 744.8 719.267 744.905 720.355 745.299L720.355 711.25C716.128 711.164 711.933 711.835 707.72 711.801C676.888 711.543 647.835 708.082 617.444 706.088C586.196 704.037 556.692 713.484 526.503 719.882C467.696 732.348 408.027 742.413 348.138 749.42C298.588 755.22 257.743 756.792 209.626 741.948C173.402 730.771 144.88 714.035 113.502 694.657C105.258 689.563 85.8584 675.759 88.9166 665.613C89.7507 662.838 92.924 657.853 94.712 655.567C99.6636 649.226 108.359 644.649 99.1843 637.273C88.9981 629.086 64.2495 622.841 51.355 618.557C12.8826 605.774 -22.9101 593.504 -59.3118 576.011C-91.2698 560.649 -121.919 542.341 -153.24 525.494C-161.044 521.295 -170.813 517.025 -177.979 512.572C-179.172 511.83 -183.165 510.061 -181.406 507.449C-179.738 504.971 -168.958 511.844 -161.475 515.673C-130.399 531.567 -99.831 549.08 -68.3043 564.886C-34.7836 581.69 -0.251396 593.591 35.8051 603.675C65.0068 611.842 93.7964 619.132 123.046 626.829C136.842 630.462 154.798 633.189 167.18 639.961C168.761 640.824 171.125 643.048 170.942 644.917C170.669 647.788 163.556 652.313 161.068 653.664C154.434 657.273 145.877 660.657 139.737 664.836C120.563 677.887 140.341 693.148 152.416 701.665C181.124 721.909 222.434 735.617 257.426 739.082C295.453 742.849 336.183 735.847 373.999 729.89C407.85 724.555 440.724 718.751 473.995 710.713C497.469 705.043 520.53 697.936 543.52 690.478C581.335 678.208 613.519 664.855 654.589 668.949C674.952 670.981 694.394 674.868 715.039 676.473C716.693 676.603 718.711 676.497 720.355 676.176L720.355 638.001C713.314 638.648 706.459 636.784 699.485 636.434C636.177 633.242 585.05 652.447 527.965 674.403C482.216 692.002 434.717 704.641 386.179 713.69C347.227 720.951 307.134 727.972 267.128 726.75C241.033 725.955 214.285 719.647 190.931 707.507C187.729 705.844 181.037 702.441 178.492 700.342C175.63 697.979 168.852 690.996 167.232 687.876C165.722 684.966 165.142 682.968 166.604 679.838C170.223 672.088 186.023 667.142 193.726 664.141C214.788 655.936 238.358 648.732 256.837 635.427C256.837 635.427 260.901 632.394 262.517 629.762C264.329 626.81 264.736 624.984 264.147 623.805C263.361 622.238 260.182 621.058 257.982 621.375C236.536 624.433 208.658 623.009 186.133 622.031C134.201 619.788 80.5664 605.185 29.957 594.036C25.5086 593.059 7.9358 587.763 4.12977 586.435C-30.5798 574.357 -57.4998 563.568 -87.5836 548.044C-104.864 539.13 -121.588 530.498 -138.567 521.128C-141.956 519.258 -145.829 517.447 -152.257 512.232L-152.257 512.251ZM649.508 543.966C621.811 564.872 590.73 587.552 553.96 585.941C541.665 585.404 521.776 580.223 511.955 572.747C506.6 568.673 503.47 561.905 506.394 555.358C515.415 535.137 547.215 509.903 567.123 500.015C594.306 486.509 621.735 484.52 651.483 481.716C668.001 480.159 684.754 478.165 701.44 478.821C706.915 479.037 709.939 481.831 705.913 486.619C692.759 502.277 678.456 517.212 663.634 531.523L649.513 543.97L649.508 543.966ZM-178.497 332.29C-164.404 344.152 -151.591 355.199 -134.31 362.643C-106.302 374.711 -76.4915 372.272 -47.7787 379.288C-26.6682 384.45 -9.19602 395.249 13.3381 395.086C19.6463 395.042 26.0599 393.226 32.4112 393.504C42.8898 393.959 53.2293 397.463 60.0073 405.635C77.072 426.21 62.9169 450.793 49.3993 468.775C31.3663 492.768 6.19576 498.851 -22.6609 493.971C-54.7532 488.546 -84.3097 476.895 -114 464.078C-119.671 461.629 -121.124 460.383 -124.072 457.642C-133.884 448.526 -140.935 439.117 -147.416 427.164C-149.592 423.152 -150.718 418.824 -150.263 416.241C-150.21 415.939 -149.966 415.278 -149.678 415.172C-147.842 414.511 -146.198 415.196 -143.749 416.452C-137.867 419.462 -130.332 422.884 -124.278 425.352C-107.841 432.053 -95.7469 433.893 -77.9775 433.745C-70.1258 433.682 -51.091 433.457 -66.617 423.406C-89.2662 408.74 -117.921 413.418 -141.697 402.016C-150.172 397.952 -169.902 383.688 -174.111 375.617C-181.809 360.865 -186.976 344.981 -191.477 329.016C-191.779 327.943 -192.887 327.085 -193.169 325.546C-193.457 323.969 -193.236 322.349 -193.289 320.768C-192.887 320.758 -192.474 320.71 -192.081 320.844C-191.53 321.031 -185.97 326.466 -184.776 327.468C-182.94 329.007 -180.471 330.631 -178.501 332.29L-178.497 332.29Z" fill="#FEF2CE"/>
</g>
<defs>
<clipPath id="clip0_2084_6">
<rect width="440" height="440" fill="white"/>
</clipPath>
</defs>
</svg>
