<svg width="551" height="120" viewBox="0 0 551 120" fill="none" xmlns="http://www.w3.org/2000/svg">
<path d="M0 8C0 3.58173 3.58172 0 8 0C12.4183 0 16 3.58173 16 8C16 12.4183 12.4183 16 8 16C3.58172 16 0 12.4183 0 8ZM301.422 56.4507L301.932 55.0397L301.422 56.4507ZM551 111L535.946 119.567L536.054 102.246L551 111ZM8 8V6.5C100.313 6.5 198.685 17.7773 301.932 55.0397L301.422 56.4507L300.913 57.8616C198.072 20.7453 100.06 9.5 8 9.5V8ZM301.422 56.4507L301.932 55.0397C345.95 70.9263 375.567 84.1069 408.937 93.559C442.214 102.985 479.154 108.67 537.52 109.416L537.501 110.916L537.482 112.416C478.916 111.667 441.705 105.959 408.119 96.4454C374.627 86.9586 344.671 73.6542 300.913 57.8616L301.422 56.4507Z" fill="black"/>
</svg>
