<svg width="440" height="290" viewBox="0 0 440 290" fill="none" xmlns="http://www.w3.org/2000/svg">
<g clip-path="url(#clip0_2080_3)">
<path d="M-235 217.707V231.325C-229.028 230.654 -223.032 230.26 -217.035 229.81C-186.509 227.508 -170.08 230.309 -147.799 251.733C-124.46 274.177 -111.199 303.332 -77.1711 312.758C-69.6457 314.842 -63.4525 315.334 -55.9165 316.469C-33.7165 319.822 -12.2898 325.948 9.69583 330.295C38.3175 335.953 68.1624 339.39 97.3185 341.024C113.881 341.952 130.594 341.762 146.913 345.143C169.124 349.747 191.018 355.813 213.19 360.955C226.884 364.132 237.791 366.518 250.596 372.349C275.815 383.834 300.201 399.712 329.561 395.839C353.227 392.718 376.552 375.353 399.947 376.58C409.904 377.104 418.477 378.58 428.684 378.453C431.528 378.418 436.414 378.928 438.913 378.467C439.338 378.39 439.619 378.274 439.858 377.901V369.013C437.566 368.437 435.528 369.562 433.63 369.783C425.068 370.778 413.022 367.963 404.108 367.506C390.636 366.817 382.682 372.095 370.984 376.738C356.387 382.53 339.505 389.647 323.558 389.453C290.56 389.056 265.611 366.346 235.13 357.556C221.83 353.722 207.999 351.417 194.632 348.12C177.616 343.924 161.128 338.318 144.123 334.319C129.191 330.808 114.763 330.126 99.5785 329.307C88.011 328.682 75.9022 326.222 64.3664 324.798C44.444 322.338 24.5041 320.458 4.74689 316.705C-9.86801 313.928 -24.0682 309.62 -38.6514 306.386C-57.5967 302.187 -80.3309 300.788 -96.5416 289.745C-113.663 278.085 -126.893 256.847 -140.225 241.13C-154.242 224.606 -165.047 213.964 -188.266 213.525C-200.308 213.296 -211.963 215.268 -223.844 216.561C-224.954 216.681 -226.132 216.438 -227.239 216.572C-229.847 216.888 -232.35 217.904 -235 217.7L-235 217.707Z" fill="#E1F0A3"/>
<path d="M-235 245.698V258.937C-230.937 258.663 -226.613 257.176 -222.708 256.663C-187.697 252.056 -168.041 262.806 -144.815 286.965C-127.448 305.032 -111.62 323.184 -89.6208 336.174C-76.1131 344.151 -59.6915 344.345 -44.5564 346.717C-11.9418 351.827 19.9663 358.058 53.0625 360.69C61.7197 361.379 70.4296 362.121 79.15 362.595C109.912 364.261 141.184 362.778 171.567 368.155C197.693 372.776 221.229 377.957 245.882 388.032C265.748 396.151 295.59 411.649 317.101 409.857C341.22 407.847 361.508 390.626 385.212 391.691C399.968 392.352 414.544 395.694 429.472 395.128L439.858 394.355V386.412C433.626 386.785 427.38 387.442 421.117 387.185C411.567 386.788 401.834 384.971 392.379 384.525C374.903 383.699 364.935 389.969 349.445 395.676C341.058 398.765 332.338 401.103 323.575 402.336C298.676 405.84 271.112 390.067 249.088 380.287C223.795 369.058 194.459 364.243 167.483 358.624C159.665 356.997 151.891 354.751 143.852 354.262C114.278 352.473 84.5805 352.755 54.9641 349.715C20.7045 346.2 -11.7133 337.513 -45.3719 332.403C-53.9482 331.102 -63.2556 330.586 -71.5965 328.744C-88.6331 324.98 -104.693 313.938 -116.724 301.813C-132.119 286.297 -146.383 265.035 -165.258 253.701C-185.384 241.618 -207.109 241.797 -229.854 244.595C-231.323 244.774 -233.369 245.544 -234.993 245.698H-235Z" fill="#E1F0A3"/>
<path d="M382.616 317.439C386.764 314.311 391.382 310.544 395.227 306.794C396.63 305.427 400.665 300.208 401.674 299.607C404.011 298.219 403.452 298.134 405.287 296.043C408.978 291.837 413.044 287.714 416.408 283.332C431.698 263.415 433.912 236.108 423.603 213.352C415.79 196.104 400.071 183.072 388.627 168.512C381.924 159.982 377.295 150.254 366.989 145.134C351.161 137.269 333.151 145.306 318.153 151.418C301.851 158.06 287.342 164.439 270.027 168.733C252.165 173.161 234.063 176.739 216.017 180.545C201.891 183.522 192.731 183.522 186.499 198.69C182.812 207.663 180.521 223.608 185.786 232.144C189.522 238.199 198.71 238.72 204.974 237.212C211.54 235.634 215.891 231.684 221.325 228.598C227.792 224.929 232.425 228.176 233.669 234.949C236.186 248.641 232.232 265.067 237.56 278.341C244.871 296.549 262.481 299.308 278.92 305.451C295.756 311.739 309.984 322.57 326.68 329.184C347.994 337.63 365.636 330.246 382.623 317.439H382.616ZM307.215 172.079C322.519 165.208 346.599 150.093 362.493 162.112C374.005 170.817 379.706 184.829 388.627 195.745C389.424 196.722 390.619 197.351 391.21 198.079C400.394 209.385 405.976 218.29 410.851 232.151C422.826 266.199 395.481 300.11 366.817 314.701C348.891 323.825 332.726 317.422 316.42 308.797C309.211 304.984 302.596 300.226 294.888 297.421C285.602 294.04 270.955 291.204 263.222 285.208C262.171 284.393 262.28 283.546 261.806 283.124C261.008 282.418 258.72 281.455 257.894 280.699C247.831 271.439 249.764 241.738 253.929 229.81C259.788 213.036 265.792 202.307 279.278 190.853C287.682 183.715 296.913 177.491 306.807 172.687L307.215 172.079Z" fill="#E1F0A3"/>
<path d="M439.857 177.799C437.302 175.382 435.492 172.338 433.2 169.706C425.808 161.215 417.017 153.641 408.842 146.022C394.192 132.372 383.696 118.311 361.721 115.215C342.122 112.456 322.435 122.472 303.469 120.883C288 119.587 283.04 110.6 264.703 115.38C250.412 119.105 236.581 124.352 221.769 126.158C202.261 128.541 175.928 129.747 158.666 139.847C154.73 142.153 149.313 146.742 149.31 151.698C149.303 158.498 155.148 164.336 157.468 170.419C167.074 195.618 148.68 232.031 159.257 253.739C164.768 265.045 186.044 266.405 196.043 274.074C207.674 282.997 212.982 297.926 224.792 306.607C236.169 314.968 249.22 316.967 262.229 321.371C293.508 331.96 320.098 359.639 355.282 350.446C375.194 345.244 392.22 328.649 407.32 315.481C417.302 306.775 428.019 297.954 437.39 288.81C438.156 288.061 439.196 287.622 439.857 286.74V266.88C437.629 268.099 437.762 270.672 436.528 272.816C430.205 283.788 421.661 291.277 412.754 299.919C395.787 316.384 378.42 335.446 354.516 342.113C327.423 349.665 300.418 326.776 276.995 316.82C257.909 308.708 234.535 306.361 223.614 286.223C220.145 279.827 217.393 270.176 213.59 264.476C208.908 257.454 199.407 257.106 192.005 255.043C178.944 251.406 171.176 248.232 169.77 233.398C168.828 223.466 169.945 211.963 171.334 202.06C173.51 186.54 176.652 173.501 190.68 165.141C202.978 157.809 219.066 153.49 232.756 148.489C242.588 144.897 257.818 137.366 267.912 137.5C274.911 137.591 282.552 140.859 289.859 141.309C316.295 142.943 339.588 121.537 366.772 129.462C368.881 130.077 372.786 131.479 374.547 132.657C382.779 138.16 386.652 142.529 392.793 149.969C407.081 167.281 427.098 181.532 437.108 202.112C439.861 207.767 439.144 208.994 439.091 214.849C439.006 224.443 438.81 234.445 439.091 244.004C439.115 244.897 439.46 245.726 439.502 246.622C439.576 248.26 439.418 249.919 439.488 251.56C439.509 252.024 439.2 252.966 439.868 252.882V177.796L439.857 177.799Z" fill="#E1F0A3"/>
<path d="M135.818 194.722C132.531 194.149 130.391 196.465 129.136 199.21C127.315 203.189 126.858 212.846 128.827 216.846C131.554 222.384 136.289 217.274 138.137 213.886C140.282 209.954 141.723 202.633 140.078 198.412C139.565 197.095 137.22 194.968 135.818 194.726V194.722Z" fill="#E1F0A3"/>
<path d="M-63.4175 43.1729C-68.4824 50.2052 -70.7776 59.5852 -71.5404 68.1464C-72.2223 75.7727 -68.1204 94.1672 -64.3313 100.954C-58.8059 110.854 -46.4933 120.033 -35.0453 121.221C-18.7784 122.908 1.87506 112.08 9.2036 97.4391C13.5972 88.6566 14.3002 71.5097 11.4461 62.2492C7.45319 49.295 -4.15298 37.9223 -15.4709 31.2906C-32.5462 21.2815 -52.2929 27.7269 -63.4175 43.1729Z" fill="#E1F0A3"/>
<path d="M294.464 199.421C278.872 213.946 264.946 233.56 266.609 256.098C268.148 276.935 288.925 279.262 305.107 283.043C325.775 287.869 344.007 304.917 366.562 295.154C393.971 283.289 396.407 249.814 383.257 226.081C381.521 222.947 379.162 219.935 377.37 216.839C371.447 206.597 365.244 190.392 356.463 182.52C339.124 166.976 307.997 186.822 294.468 199.425L294.464 199.421ZM300.893 216.441C311.961 204.158 335.676 189.44 347.339 209.416C352.808 218.786 353.114 236.923 347.117 246.209C338.907 258.924 314.766 262.723 301.009 259.908C293.434 258.358 287.906 253.072 287.417 245.133C286.749 234.249 294.113 223.973 300.893 216.445V216.441Z" fill="#E1F0A3"/>
<path d="M-235 203.712C-222.768 202.794 -211.109 199.08 -199.461 195.558C-187.813 192.037 -171.054 184.762 -159.261 188.688C-145.708 193.197 -142.077 207.56 -136.337 219.101C-125.951 239.984 -113.294 261.197 -95.0126 275.747C-87.0655 282.073 -78.5208 284.023 -68.8408 286.269C-49.0238 290.866 -29.4249 296.76 -9.63957 301.209C14.5991 306.66 41.5899 306.741 66.3417 310.339C78.9145 312.167 91.1674 314.796 103.684 315.818C109.389 316.286 115.353 317.699 120.981 318.872C147.571 324.411 173.226 333.433 199.342 340.753C219.408 346.38 240.104 349.483 259.126 358.136C269.506 362.859 279.217 369.192 289.727 373.687C317.498 385.562 339.044 385.882 366.552 373.441C374.541 369.828 382.239 365.639 390.228 361.935C402.643 356.182 414.164 357.123 427.545 358.81L439.858 357.282V339.126L430.122 342.82C415.272 343.414 404.976 347.037 392.158 353.655C372.45 363.833 356.742 374.769 333.368 375.813C302.444 377.194 278.655 355.408 251.39 345.828C239.418 341.621 226.796 339.583 214.695 335.995C197.83 330.994 182.421 323.146 165.293 318.44C161.163 317.305 156.804 316.687 152.66 315.565C131.22 309.763 110.524 301.873 88.9003 297.241C65.2697 292.177 43.3228 291.664 19.3793 290.349C-2.83124 289.13 -19.4215 284.512 -40.4827 279.096C-55.8674 275.139 -74.2994 272.356 -87.7438 263.566C-104.134 252.85 -117.434 229.504 -114.281 209.623C-110.102 183.244 -82.8125 175.266 -60.5281 169.562C-44.5951 165.485 -28.5532 161.651 -12.8627 156.703C2.45868 151.867 17.411 144.894 33.1366 141.422C43.1927 139.201 55.08 139.067 64.6124 135.448C72.8935 132.302 80.447 126.138 85.7791 119.183C87.1042 117.454 90.1832 113.015 90.8862 111.033C92.2851 107.09 91.3607 101.811 88.25 98.9326C79.751 91.0744 75.3996 87.3877 70.8478 76.2435C66.2187 64.9165 62.1063 54.4294 54.3806 44.6699C42.0222 29.0553 18.1878 12.2317 -0.188034 4.66867C-29.6463 -7.45612 -60.4437 5.45944 -80.8406 27.0732C-87.5892 34.225 -92.5733 40.8918 -98.1127 49.1402C-108.211 64.1855 -117.578 80.1269 -128.696 94.5888C-140.52 109.968 -155.254 123.625 -165.781 139.51C-166.344 140.361 -168.147 141.426 -168.797 142.244C-177.496 153.139 -185.38 164.621 -196.821 172.855C-203.363 177.561 -212.139 182.305 -219.654 185.201C-224.515 187.074 -230.044 188.058 -234.993 189.721V203.715L-235 203.712ZM-62.7565 23.0351C-51.5932 14.6251 -37.3579 10.3234 -23.3335 11.1633C-11.7977 11.8521 2.89452 21.1549 12.0438 27.9975C26.7641 39.0081 37.3791 52.8831 42.4827 70.9332C52.0467 104.781 29.5796 119.981 2.98592 133.212C-15.7625 142.54 -32.6761 147.597 -53.9939 148.483C-66.6018 149.006 -88.6331 148.743 -100.028 143.833C-104.074 142.09 -109.065 138.168 -109.765 133.522C-111.673 120.835 -104.854 103.357 -100.977 91.2888C-92.9529 66.3117 -84.5242 39.4299 -62.7565 23.0351Z" fill="#E1F0A3"/>
</g>
<defs>
<clipPath id="clip0_2080_3">
<rect width="440" height="290" fill="white"/>
</clipPath>
</defs>
</svg>
