<svg width="1632" height="900" viewBox="0 0 1632 900" fill="none" xmlns="http://www.w3.org/2000/svg">
<g clip-path="url(#clip0_2065_3)">
<mask id="mask0_2065_3" style="mask-type:alpha" maskUnits="userSpaceOnUse" x="6" y="-216" width="3097" height="1897">
<mask id="path-1-inside-1_2065_3" fill="white">
<path d="M1720.28 1606.26C1712.71 1607.53 1706.26 1603.25 1716.66 1600.29C1739.85 1593.7 1785.59 1571.04 1805.97 1562.91C1883.17 1532.11 1956.42 1500.02 2019.29 1458.51C2102.91 1403.32 2163.54 1335.21 2218.12 1264.3C2267.93 1199.58 2289.13 1131.92 2278.66 1044.67C2276.21 1024.3 2272.09 1003.77 2274.05 984.459C2276.92 956.209 2296.61 903.324 2348.48 904.07C2380.84 904.531 2407.11 941.33 2417.85 957.341C2462.33 1023.7 2484.93 1103.59 2504.41 1167.65C2509.71 1185.1 2516.96 1232.14 2548.3 1247.51C2573.94 1260.08 2598.05 1252.97 2612.63 1247.05C2638.16 1236.69 2668.65 1212.93 2678.55 1193.65C2718.02 1116.86 2725.43 1037.72 2723.3 946.27C2720.85 841.298 2691.36 731.757 2645.63 617.511C2621.4 556.958 2602.31 504.876 2599.38 447.813C2596.7 395.452 2598.13 341.194 2598.46 289.74C2598.54 277.292 2600.98 265.574 2600.57 252.991L2478.49 203.574C2475.34 207.436 2480.52 213.131 2481.35 218.069C2484.46 236.773 2484.17 262.041 2475.31 276.554C2466.81 290.476 2449.48 286.599 2426.84 269.402C2395.16 245.347 2344.71 184.966 2331.91 159.659C2329.08 154.04 2328.48 147.685 2326.78 142.159L2056.45 32.73C2061.7 43.4681 2070.78 54.355 2077.04 65.2022C2125.45 148.978 2094.94 217.629 2100.13 291.367C2105.92 373.469 2187.47 466.351 2256.82 553.863C2277.07 579.414 2321.53 643.831 2350.87 664.761C2381.7 686.756 2408.02 674.609 2425.28 666.861C2456.82 652.684 2480.88 629.872 2513.31 617.017C2523.51 612.983 2541.61 613.025 2557.34 621.841C2562.01 624.464 2578.94 641.245 2581.88 645.175C2613.47 687.471 2632.73 732.168 2647.28 773.011C2686.37 882.777 2692.26 995.47 2668.31 1088.5C2663.23 1108.28 2660.17 1119.74 2648.72 1137.22C2643.61 1145 2634.64 1161.18 2628.06 1168.23C2615.65 1181.5 2583.78 1195.52 2557.5 1161.86C2541.6 1141.5 2532.75 1116.03 2524.6 1096.28C2506.96 1053.5 2489.99 1010.91 2470.18 967.601C2454.66 933.672 2415.56 842.376 2374.15 812.698C2352.57 797.239 2332.27 807.27 2322.01 813.389C2277.68 839.867 2237.99 884.392 2215.92 922.564C2200.71 948.847 2207.12 986.124 2214.15 1018.56C2232.02 1100.94 2230.31 1173.3 2191.61 1238.14C2143.5 1318.78 2081.07 1389.02 1994.06 1448.97C1927.32 1494.95 1844.62 1530.07 1759.23 1563.24C1752.03 1566.03 1736.82 1571.03 1725.47 1566.19C1714.11 1561.34 1730.95 1554.22 1738.15 1550.8C1745.47 1547.33 1758.03 1544.21 1766.18 1540.72C1961.1 1457.1 2099.55 1365.17 2153.76 1201.58C2174.09 1140.22 2164.35 1077.87 2140.27 1004.95C2136.88 994.689 2128.23 973.804 2126.09 963.793C2119.63 933.415 2147.16 903.963 2164.88 882.596C2216.5 820.359 2296.68 756 2278.11 666.198C2251.8 538.918 2067.15 396.374 2049.45 270.904C2043.98 232.179 2052.66 196.718 2048.56 158.254C2043.24 108.356 2020.36 53.5361 1972.72 -1.15373L1895.98 -32.2186C1905.92 -20.8045 1917.21 -9.47174 1926.85 1.98118C1988.92 75.8105 1996.19 124.065 1999.85 188.948C2003.59 255.14 2010.53 294.446 2063.58 368.201C2096.64 414.151 2136.4 460.291 2168.81 506.431C2254.74 628.704 2252.48 702.442 2187.61 785.513C2159.17 821.944 2114.34 850.087 2078.38 882.27C2041.9 914.901 2039.44 961.736 2066.55 1013.93C2119.08 1115.05 2115.36 1222.16 2068.9 1295.63C2006.34 1394.55 1884.69 1468.68 1751.85 1524.54C1743.87 1527.89 1732.19 1532.75 1723.84 1535.86C1704.17 1543.18 1683.12 1538.32 1704.35 1525.45C1708.5 1522.94 1726.41 1513.79 1731.4 1511.55C1787.51 1486.54 1837.7 1461.36 1883.52 1429.1C1956.29 1377.86 2025 1323.37 2046.4 1246.05C2058.73 1201.52 2021.17 1117.89 1999.99 1063.74C1965.69 976.013 1925.14 917.006 2000.53 861.358C2043.21 829.849 2101.24 808.241 2138.06 772.536C2199.72 712.731 2220.11 633.14 2167.01 536.833C2112.09 437.244 1990.71 333.171 1958.99 235.838C1940.28 178.405 1950.42 128.762 1919.04 68.1845C1912.39 55.328 1894.03 34.2889 1889.61 24.2057C1888.35 21.3327 1890.15 18.8566 1889.57 17.9008C1888.76 16.549 1881.75 14.0679 1880.24 12.7235C1879.31 11.8968 1879.68 9.78157 1878.49 8.24815C1866.98 -6.69419 1851.59 -21.3119 1837.47 -35.6928C1826.63 -46.7399 1815.82 -57.8597 1805.26 -68.9522L1681.43 -119.078C1686.5 -113.375 1693.81 -107.204 1700.04 -101.591C1758.5 -48.9993 1811.63 -4.12931 1846.51 51.9246C1879.92 105.577 1882.15 156.581 1903.72 208.149C1949.42 317.349 2089.67 427.258 2140.4 536.364C2197.05 658.204 2138.76 734.841 2025.73 787.319C1959.01 818.293 1871.79 839.046 1862.77 902.764C1856.41 947.572 1871.66 987.392 1899.97 1038.67C1934.94 1101.97 1987.37 1180.93 1985.93 1238.1C1984.74 1285.35 1950.79 1322.23 1916.06 1354.52C1862.45 1404.35 1800.58 1449.72 1726.09 1486.57C1715.66 1491.73 1698 1501.93 1686.52 1505.12C1684.35 1505.73 1671.6 1508.57 1669.09 1508.86C1658.1 1510.15 1648.52 1507.07 1642.78 1502.85C1635.28 1497.33 1656.47 1486.09 1664.63 1482.89C1752.07 1448.57 1813.56 1395.75 1861.2 1336.77C1877.58 1316.48 1891.97 1284.86 1888.53 1257.44C1885.6 1234.1 1871.34 1199.83 1860.69 1174.83C1845.76 1139.7 1833.26 1110.05 1816.34 1074.61C1794.41 1028.66 1754.28 984.035 1740.5 937.491C1731.13 905.883 1730.87 855.507 1756.37 837.211C1765.37 830.752 1785.46 819.104 1795.91 813.558C1857.19 781.013 1945.52 769.568 2012.28 740.459C2153.26 678.974 2167.04 574.261 2048.23 429.127C1992.79 361.397 1919 293.118 1868.94 225.165C1833.89 177.581 1813.92 130.492 1784.97 83.6303C1767.33 55.0791 1746.07 26.0113 1717.49 -2.83182C1685.23 -35.3765 1648.62 -64.4338 1613.3 -95.6934C1583.53 -122.038 1553.99 -149.189 1538.45 -176.949C1538.45 -176.949 1443.55 -220.464 1444.27 -215.072C1444.99 -209.68 1447.86 -203.861 1449.78 -198.258C1477.32 -117.858 1573.05 -57.8547 1645.45 18.3155C1711.15 87.447 1759.98 157.551 1825.18 227.715C1868.63 274.483 1918.77 319.515 1963.2 365.902C2017.82 422.92 2066.28 480.899 2084.5 537.346C2104.26 598.528 2081.2 656.246 2020.53 683.96C1960.77 711.252 1888.62 734.166 1809.19 743.757C1765.35 749.039 1659.98 747.839 1635.5 763.837C1608.3 781.602 1600.84 820.196 1541.79 812.332C1523.09 809.843 1490.36 791.755 1473.6 781.534C1406.4 740.554 1374.33 693.184 1330.72 647.084C1302.32 617.046 1269.96 588.668 1247.14 557.673C1191.41 481.968 1226.88 457.631 1241.72 400.793C1250.71 366.324 1240.18 326.693 1235.23 288.577C1226.1 218.356 1227.18 118.895 1118.27 43.6103C1087.37 22.2463 1047.99 7.52669 1012.12 3.33655C919.508 -7.48176 884.347 34.6049 845.502 68.1377C827.642 83.5598 808.804 98.37 794.835 115.921C727.147 200.906 734.522 319.142 604.394 370.578C550.308 391.959 512.84 421.579 480.391 456.64C447.989 491.635 431.847 492.285 375.907 509.394C313.362 528.515 292.298 551.947 251.481 583.921C195.309 627.926 106.119 643.455 49.4641 684.645C-49.1549 756.358 44.2226 863.259 107.27 975.763L155.22 1066.26L224.102 1094.14C222.196 1091.07 219.294 1088.08 217.554 1084.97C163.37 988.03 18.3371 843.953 39.9981 761.419C58.7248 690.094 155.893 676.893 230.729 640.217C280.82 615.66 307.174 574.178 365.307 555.657C418.528 538.696 494.848 549.183 541.08 524.003C569.507 508.52 582.462 479.824 613.608 466.756C633.622 458.357 666.088 454.886 688.429 447.542C723.447 436.042 743.501 415.479 764.226 395.263C795.699 364.568 813.798 329.314 837.945 295.053C858.05 266.538 872.131 248.571 882.355 214.976C894.992 173.51 929.074 104.597 991.362 91.2793C1050.51 78.6346 1097.78 122.63 1117.27 160.596C1136.75 198.563 1145.69 280.186 1141.15 312.676C1137.11 341.635 1113.74 360.782 1105.02 386.984C1091.89 426.417 1144.02 531.733 1192.22 580.416C1236.13 624.758 1277.12 657.024 1311.99 703.192C1361.36 768.557 1394.52 816.304 1463.18 881.571C1489.29 906.386 1539.35 944.889 1538.82 969.918C1537.84 1017.24 1434.66 998.996 1388.41 1014.91C1326.92 1036.06 1364.84 1106.94 1326.61 1141.24C1318.64 1148.39 1305.43 1154.01 1296.75 1160.64C1230.94 1210.88 1253.58 1299.33 1160.07 1335.23C1130.48 1346.59 1092.09 1350.4 1056.02 1355.63C1015.16 1361.55 972.334 1367.45 930.724 1372.78L911.256 1372.28L1673.39 1680.8C1679.44 1677.28 1686.53 1674.21 1693.74 1671.53C1736.2 1655.77 1777.37 1639.22 1819.75 1624.12C1885.84 1600.57 1956.08 1580.28 2019.2 1554.67C2061.56 1537.47 2101.46 1518.1 2141.18 1498.9C2173.06 1483.5 2201.19 1464.39 2239.25 1454.08C2248.65 1451.53 2266.88 1448.67 2280.92 1455.77C2301.25 1466.06 2304.22 1475.82 2332.01 1485.54C2381.28 1502.79 2460.27 1475.69 2491.45 1465.8C2679.39 1406.19 2864.62 1328.58 2906.16 1182.73C2933.06 1088.27 2945.08 987.737 2959.71 889.218C2969.22 825.197 2973.33 758.764 2999.5 700.914C3034.82 622.839 3060.67 537.964 3098.68 461.157C3099.62 459.271 3100.71 457.584 3102.78 456.29L2987.67 409.693C2984.5 416.692 2983.91 424.671 2980.93 431.717C2959.04 483.263 2927.55 527.434 2900.1 575.863C2871.87 625.658 2883.7 688.252 2884.76 747.828C2886.83 863.88 2880.2 978.098 2863.08 1088.5C2848.92 1179.85 2826.4 1250.76 2743.43 1311.44C2680.96 1357.12 2604.94 1382.23 2518.05 1408.53C2495.21 1415.44 2435.32 1429.2 2403.1 1410.17C2394.29 1404.96 2379.6 1392.8 2373.09 1386.66C2355.03 1369.65 2345.48 1348.75 2314.29 1354.1C2279.67 1360.04 2241.69 1393.15 2218.42 1409C2148.99 1456.26 2083.12 1499.72 1999.17 1537.06C1925.46 1569.83 1842.68 1596.37 1764.38 1626.04C1744.87 1633.43 1723.77 1644.03 1703.84 1650C1700.51 1650.99 1691.81 1655.29 1684.18 1648.76C1676.94 1642.56 1707.52 1633.82 1725.57 1626.46C1800.47 1595.9 1880.51 1568.41 1955.43 1536.97C2035.09 1503.54 2098.85 1461.7 2157.51 1414.81C2205.02 1376.83 2249.29 1338.34 2295.24 1299.64C2316.92 1281.39 2338.38 1254.89 2369.71 1243.32C2373.71 1241.83 2382.84 1240.9 2389.03 1243.76C2398.55 1248.15 2409 1266.32 2411.87 1272.36C2419.56 1288.46 2425.16 1307.5 2435.11 1323.55C2466.17 1373.69 2531.24 1361.28 2568.26 1352.61C2656.26 1331.99 2730.76 1281.22 2766.32 1227.05C2804.96 1168.2 2809.05 1090.05 2814.67 1018.24C2819.71 953.957 2822.48 890.676 2817.98 823.668C2814.81 776.394 2806.49 727.847 2796.95 678.941C2781.23 598.492 2758.02 526.042 2799.85 462.508C2820.59 431.012 2846.98 403.603 2866.48 371.047C2868.04 368.44 2869.06 364.899 2869.1 361.692L2740.03 309.447C2737.42 322.186 2726.45 331.173 2720.51 342.435C2666.58 444.635 2696.67 556.983 2732 683.125C2760.33 784.222 2770.69 881.475 2768.2 975.567C2766.21 1051.07 2762.63 1128.17 2731.24 1193.84C2710.76 1236.68 2671.21 1273.08 2614.26 1295.77C2606.45 1298.89 2590.39 1305.5 2581.56 1306.91C2571.62 1308.49 2543.39 1310.34 2531.74 1308.8C2520.87 1307.36 2513.72 1305.6 2504.14 1298.86C2480.4 1282.16 2474.44 1248.8 2469.55 1231.72C2456.16 1185.04 2447.87 1135.5 2415.48 1086.19C2415.48 1086.19 2407.99 1075.19 2400.2 1068.87C2391.45 1061.78 2385.55 1058.6 2381.17 1057.98C2375.33 1057.15 2369.18 1060.89 2368.75 1065.03C2364.47 1105.31 2340.66 1150.29 2322.01 1186.87C2279.04 1271.22 2193.12 1341.52 2120.94 1411.46C2114.61 1417.61 2084.73 1439.94 2077.64 1444.53C2013.16 1486.43 1958.34 1516.98 1885.36 1546.38C1843.44 1563.27 1802.86 1579.61 1759.62 1595.36C1750.99 1598.51 1742.22 1602.55 1720.21 1606.23L1720.28 1606.26ZM2373.84 300.015C2425.65 375.249 2481.14 458.608 2450.64 518.302C2440.45 538.264 2409.38 564.652 2377.41 570.953C2359.99 574.391 2334.98 570.398 2314.84 556.516C2252.62 513.657 2188.98 425.592 2169.11 378.549C2141.98 314.305 2153.94 265.412 2164.73 211.498C2170.72 181.56 2175.4 150.63 2188.99 123.44C2193.45 114.521 2204.96 113.253 2218.4 126.584C2262.37 170.155 2303.12 214.671 2341.4 259.207L2373.86 300.013L2373.84 300.015ZM1093.98 1404.14C1143.69 1396.65 1189.77 1390.2 1226.71 1371.3C1286.6 1340.67 1298.66 1287.15 1341.95 1248.42C1373.79 1219.95 1422.2 1205.31 1437 1167.16C1441.16 1156.48 1439.39 1143.2 1444.65 1132.89C1453.33 1115.87 1472.22 1103.26 1504.47 1103.03C1585.66 1102.47 1659.12 1159.94 1710.71 1207.3C1779.54 1270.5 1782.95 1321.19 1746.79 1363.09C1706.58 1409.69 1647.04 1443.49 1583.48 1475.93C1571.34 1482.13 1566.14 1482.87 1554.86 1484.08C1517.35 1488.12 1480.74 1487.11 1435.91 1481.66C1420.87 1479.84 1405.47 1475.81 1397.05 1471.51C1396.06 1471.01 1393.99 1469.69 1393.83 1469.06C1392.85 1465.07 1396.28 1463.24 1402.2 1460.83C1416.38 1455.05 1433.09 1447.05 1445.56 1440.23C1479.41 1421.74 1493.87 1403.9 1505.48 1373.78C1510.62 1360.48 1522.83 1328.13 1478.27 1340.51C1413.25 1358.56 1409.54 1413.2 1354.79 1437.62C1335.27 1446.32 1273.61 1460.02 1243.45 1456.06C1188.33 1448.82 1131.11 1435.79 1074.07 1421.51C1070.24 1420.55 1066.58 1421.24 1061.19 1419.61C1055.66 1417.94 1050.33 1415.35 1044.95 1413.27C1045.19 1412.58 1045.31 1411.82 1046.03 1411.35C1047.04 1410.67 1069.2 1408.75 1073.4 1408.11C1079.86 1407.13 1087.03 1405.2 1093.98 1404.15L1093.98 1404.14Z"/>
</mask>
<path d="M1720.28 1606.26C1712.71 1607.53 1706.26 1603.25 1716.66 1600.29C1739.85 1593.7 1785.59 1571.04 1805.97 1562.91C1883.17 1532.11 1956.42 1500.02 2019.29 1458.51C2102.91 1403.32 2163.54 1335.21 2218.12 1264.3C2267.93 1199.58 2289.13 1131.92 2278.66 1044.67C2276.21 1024.3 2272.09 1003.77 2274.05 984.459C2276.92 956.209 2296.61 903.324 2348.48 904.07C2380.84 904.531 2407.11 941.33 2417.85 957.341C2462.33 1023.7 2484.93 1103.59 2504.41 1167.65C2509.71 1185.1 2516.96 1232.14 2548.3 1247.51C2573.94 1260.08 2598.05 1252.97 2612.63 1247.05C2638.16 1236.69 2668.65 1212.93 2678.55 1193.65C2718.02 1116.86 2725.43 1037.72 2723.3 946.27C2720.85 841.298 2691.36 731.757 2645.63 617.511C2621.4 556.958 2602.31 504.876 2599.38 447.813C2596.7 395.452 2598.13 341.194 2598.46 289.74C2598.54 277.292 2600.98 265.574 2600.57 252.991L2478.49 203.574C2475.34 207.436 2480.52 213.131 2481.35 218.069C2484.46 236.773 2484.17 262.041 2475.31 276.554C2466.81 290.476 2449.48 286.599 2426.84 269.402C2395.16 245.347 2344.71 184.966 2331.91 159.659C2329.08 154.04 2328.48 147.685 2326.78 142.159L2056.45 32.73C2061.7 43.4681 2070.78 54.355 2077.04 65.2022C2125.45 148.978 2094.94 217.629 2100.13 291.367C2105.92 373.469 2187.47 466.351 2256.82 553.863C2277.07 579.414 2321.53 643.831 2350.87 664.761C2381.7 686.756 2408.02 674.609 2425.28 666.861C2456.82 652.684 2480.88 629.872 2513.31 617.017C2523.51 612.983 2541.61 613.025 2557.34 621.841C2562.01 624.464 2578.94 641.245 2581.88 645.175C2613.47 687.471 2632.73 732.168 2647.28 773.011C2686.37 882.777 2692.26 995.47 2668.31 1088.5C2663.23 1108.28 2660.17 1119.74 2648.72 1137.22C2643.61 1145 2634.64 1161.18 2628.06 1168.23C2615.65 1181.5 2583.78 1195.52 2557.5 1161.86C2541.6 1141.5 2532.75 1116.03 2524.6 1096.28C2506.96 1053.5 2489.99 1010.91 2470.18 967.601C2454.66 933.672 2415.56 842.376 2374.15 812.698C2352.57 797.239 2332.27 807.27 2322.01 813.389C2277.68 839.867 2237.99 884.392 2215.92 922.564C2200.71 948.847 2207.12 986.124 2214.15 1018.56C2232.02 1100.94 2230.31 1173.3 2191.61 1238.14C2143.5 1318.78 2081.07 1389.02 1994.06 1448.97C1927.32 1494.95 1844.62 1530.07 1759.23 1563.24C1752.03 1566.03 1736.82 1571.03 1725.47 1566.19C1714.11 1561.34 1730.95 1554.22 1738.15 1550.8C1745.47 1547.33 1758.03 1544.21 1766.18 1540.72C1961.1 1457.1 2099.55 1365.17 2153.76 1201.58C2174.09 1140.22 2164.35 1077.87 2140.27 1004.95C2136.88 994.689 2128.23 973.804 2126.09 963.793C2119.63 933.415 2147.16 903.963 2164.88 882.596C2216.5 820.359 2296.68 756 2278.11 666.198C2251.8 538.918 2067.15 396.374 2049.45 270.904C2043.98 232.179 2052.66 196.718 2048.56 158.254C2043.24 108.356 2020.36 53.5361 1972.72 -1.15373L1895.98 -32.2186C1905.92 -20.8045 1917.21 -9.47174 1926.85 1.98118C1988.92 75.8105 1996.19 124.065 1999.85 188.948C2003.59 255.14 2010.53 294.446 2063.58 368.201C2096.64 414.151 2136.4 460.291 2168.81 506.431C2254.74 628.704 2252.48 702.442 2187.61 785.513C2159.17 821.944 2114.34 850.087 2078.38 882.27C2041.9 914.901 2039.44 961.736 2066.55 1013.93C2119.08 1115.05 2115.36 1222.16 2068.9 1295.63C2006.34 1394.55 1884.69 1468.68 1751.85 1524.54C1743.87 1527.89 1732.19 1532.75 1723.84 1535.86C1704.17 1543.18 1683.12 1538.32 1704.35 1525.45C1708.5 1522.94 1726.41 1513.79 1731.4 1511.55C1787.51 1486.54 1837.7 1461.36 1883.52 1429.1C1956.29 1377.86 2025 1323.37 2046.4 1246.05C2058.73 1201.52 2021.17 1117.89 1999.99 1063.74C1965.69 976.013 1925.14 917.006 2000.53 861.358C2043.21 829.849 2101.24 808.241 2138.06 772.536C2199.72 712.731 2220.11 633.14 2167.01 536.833C2112.09 437.244 1990.71 333.171 1958.99 235.838C1940.28 178.405 1950.42 128.762 1919.04 68.1845C1912.39 55.328 1894.03 34.2889 1889.61 24.2057C1888.35 21.3327 1890.15 18.8566 1889.57 17.9008C1888.76 16.549 1881.75 14.0679 1880.24 12.7235C1879.31 11.8968 1879.68 9.78157 1878.49 8.24815C1866.98 -6.69419 1851.59 -21.3119 1837.47 -35.6928C1826.63 -46.7399 1815.82 -57.8597 1805.26 -68.9522L1681.43 -119.078C1686.5 -113.375 1693.81 -107.204 1700.04 -101.591C1758.5 -48.9993 1811.63 -4.12931 1846.51 51.9246C1879.92 105.577 1882.15 156.581 1903.72 208.149C1949.42 317.349 2089.67 427.258 2140.4 536.364C2197.05 658.204 2138.76 734.841 2025.73 787.319C1959.01 818.293 1871.79 839.046 1862.77 902.764C1856.41 947.572 1871.66 987.392 1899.97 1038.67C1934.94 1101.97 1987.37 1180.93 1985.93 1238.1C1984.74 1285.35 1950.79 1322.23 1916.06 1354.52C1862.45 1404.35 1800.58 1449.72 1726.09 1486.57C1715.66 1491.73 1698 1501.93 1686.52 1505.12C1684.35 1505.73 1671.6 1508.57 1669.09 1508.86C1658.1 1510.15 1648.52 1507.07 1642.78 1502.85C1635.28 1497.33 1656.47 1486.09 1664.63 1482.89C1752.07 1448.57 1813.56 1395.75 1861.2 1336.77C1877.58 1316.48 1891.97 1284.86 1888.53 1257.44C1885.6 1234.1 1871.34 1199.83 1860.69 1174.83C1845.76 1139.7 1833.26 1110.05 1816.34 1074.61C1794.41 1028.66 1754.28 984.035 1740.5 937.491C1731.13 905.883 1730.87 855.507 1756.37 837.211C1765.37 830.752 1785.46 819.104 1795.91 813.558C1857.19 781.013 1945.52 769.568 2012.28 740.459C2153.26 678.974 2167.04 574.261 2048.23 429.127C1992.79 361.397 1919 293.118 1868.94 225.165C1833.89 177.581 1813.92 130.492 1784.97 83.6303C1767.33 55.0791 1746.07 26.0113 1717.49 -2.83182C1685.23 -35.3765 1648.62 -64.4338 1613.3 -95.6934C1583.53 -122.038 1553.99 -149.189 1538.45 -176.949C1538.45 -176.949 1443.55 -220.464 1444.27 -215.072C1444.99 -209.68 1447.86 -203.861 1449.78 -198.258C1477.32 -117.858 1573.05 -57.8547 1645.45 18.3155C1711.15 87.447 1759.98 157.551 1825.18 227.715C1868.63 274.483 1918.77 319.515 1963.2 365.902C2017.82 422.92 2066.28 480.899 2084.5 537.346C2104.26 598.528 2081.2 656.246 2020.53 683.96C1960.77 711.252 1888.62 734.166 1809.19 743.757C1765.35 749.039 1659.98 747.839 1635.5 763.837C1608.3 781.602 1600.84 820.196 1541.79 812.332C1523.09 809.843 1490.36 791.755 1473.6 781.534C1406.4 740.554 1374.33 693.184 1330.72 647.084C1302.32 617.046 1269.96 588.668 1247.14 557.673C1191.41 481.968 1226.88 457.631 1241.72 400.793C1250.71 366.324 1240.18 326.693 1235.23 288.577C1226.1 218.356 1227.18 118.895 1118.27 43.6103C1087.37 22.2463 1047.99 7.52669 1012.12 3.33655C919.508 -7.48176 884.347 34.6049 845.502 68.1377C827.642 83.5598 808.804 98.37 794.835 115.921C727.147 200.906 734.522 319.142 604.394 370.578C550.308 391.959 512.84 421.579 480.391 456.64C447.989 491.635 431.847 492.285 375.907 509.394C313.362 528.515 292.298 551.947 251.481 583.921C195.309 627.926 106.119 643.455 49.4641 684.645C-49.1549 756.358 44.2226 863.259 107.27 975.763L155.22 1066.26L224.102 1094.14C222.196 1091.07 219.294 1088.08 217.554 1084.97C163.37 988.03 18.3371 843.953 39.9981 761.419C58.7248 690.094 155.893 676.893 230.729 640.217C280.82 615.66 307.174 574.178 365.307 555.657C418.528 538.696 494.848 549.183 541.08 524.003C569.507 508.52 582.462 479.824 613.608 466.756C633.622 458.357 666.088 454.886 688.429 447.542C723.447 436.042 743.501 415.479 764.226 395.263C795.699 364.568 813.798 329.314 837.945 295.053C858.05 266.538 872.131 248.571 882.355 214.976C894.992 173.51 929.074 104.597 991.362 91.2793C1050.51 78.6346 1097.78 122.63 1117.27 160.596C1136.75 198.563 1145.69 280.186 1141.15 312.676C1137.11 341.635 1113.74 360.782 1105.02 386.984C1091.89 426.417 1144.02 531.733 1192.22 580.416C1236.13 624.758 1277.12 657.024 1311.99 703.192C1361.36 768.557 1394.52 816.304 1463.18 881.571C1489.29 906.386 1539.35 944.889 1538.82 969.918C1537.84 1017.24 1434.66 998.996 1388.41 1014.91C1326.92 1036.06 1364.84 1106.94 1326.61 1141.24C1318.64 1148.39 1305.43 1154.01 1296.75 1160.64C1230.94 1210.88 1253.58 1299.33 1160.07 1335.23C1130.48 1346.59 1092.09 1350.4 1056.02 1355.63C1015.16 1361.55 972.334 1367.45 930.724 1372.78L911.256 1372.28L1673.39 1680.8C1679.44 1677.28 1686.53 1674.21 1693.74 1671.53C1736.2 1655.77 1777.37 1639.22 1819.75 1624.12C1885.84 1600.57 1956.08 1580.28 2019.2 1554.67C2061.56 1537.47 2101.46 1518.1 2141.18 1498.9C2173.06 1483.5 2201.19 1464.39 2239.25 1454.08C2248.65 1451.53 2266.88 1448.67 2280.92 1455.77C2301.25 1466.06 2304.22 1475.82 2332.01 1485.54C2381.28 1502.79 2460.27 1475.69 2491.45 1465.8C2679.39 1406.19 2864.62 1328.58 2906.16 1182.73C2933.06 1088.27 2945.08 987.737 2959.71 889.218C2969.22 825.197 2973.33 758.764 2999.5 700.914C3034.82 622.839 3060.67 537.964 3098.68 461.157C3099.62 459.271 3100.71 457.584 3102.78 456.29L2987.67 409.693C2984.5 416.692 2983.91 424.671 2980.93 431.717C2959.04 483.263 2927.55 527.434 2900.1 575.863C2871.87 625.658 2883.7 688.252 2884.76 747.828C2886.83 863.88 2880.2 978.098 2863.08 1088.5C2848.92 1179.85 2826.4 1250.76 2743.43 1311.44C2680.96 1357.12 2604.94 1382.23 2518.05 1408.53C2495.21 1415.44 2435.32 1429.2 2403.1 1410.17C2394.29 1404.96 2379.6 1392.8 2373.09 1386.66C2355.03 1369.65 2345.48 1348.75 2314.29 1354.1C2279.67 1360.04 2241.69 1393.15 2218.42 1409C2148.99 1456.26 2083.12 1499.72 1999.17 1537.06C1925.46 1569.83 1842.68 1596.37 1764.38 1626.04C1744.87 1633.43 1723.77 1644.03 1703.84 1650C1700.51 1650.99 1691.81 1655.29 1684.18 1648.76C1676.94 1642.56 1707.52 1633.82 1725.57 1626.46C1800.47 1595.9 1880.51 1568.41 1955.43 1536.97C2035.09 1503.54 2098.85 1461.7 2157.51 1414.81C2205.02 1376.83 2249.29 1338.34 2295.24 1299.64C2316.92 1281.39 2338.38 1254.89 2369.71 1243.32C2373.71 1241.83 2382.84 1240.9 2389.03 1243.76C2398.55 1248.15 2409 1266.32 2411.87 1272.36C2419.56 1288.46 2425.16 1307.5 2435.11 1323.55C2466.17 1373.69 2531.24 1361.28 2568.26 1352.61C2656.26 1331.99 2730.76 1281.22 2766.32 1227.05C2804.96 1168.2 2809.05 1090.05 2814.67 1018.24C2819.71 953.957 2822.48 890.676 2817.98 823.668C2814.81 776.394 2806.49 727.847 2796.95 678.941C2781.23 598.492 2758.02 526.042 2799.85 462.508C2820.59 431.012 2846.98 403.603 2866.48 371.047C2868.04 368.44 2869.06 364.899 2869.1 361.692L2740.03 309.447C2737.42 322.186 2726.45 331.173 2720.51 342.435C2666.58 444.635 2696.67 556.983 2732 683.125C2760.33 784.222 2770.69 881.475 2768.2 975.567C2766.21 1051.07 2762.63 1128.17 2731.24 1193.84C2710.76 1236.68 2671.21 1273.08 2614.26 1295.77C2606.45 1298.89 2590.39 1305.5 2581.56 1306.91C2571.62 1308.49 2543.39 1310.34 2531.74 1308.8C2520.87 1307.36 2513.72 1305.6 2504.14 1298.86C2480.4 1282.16 2474.44 1248.8 2469.55 1231.72C2456.16 1185.04 2447.87 1135.5 2415.48 1086.19C2415.48 1086.19 2407.99 1075.19 2400.2 1068.87C2391.45 1061.78 2385.55 1058.6 2381.17 1057.98C2375.33 1057.15 2369.18 1060.89 2368.75 1065.03C2364.47 1105.31 2340.66 1150.29 2322.01 1186.87C2279.04 1271.22 2193.12 1341.52 2120.94 1411.46C2114.61 1417.61 2084.73 1439.94 2077.64 1444.53C2013.16 1486.43 1958.34 1516.98 1885.36 1546.38C1843.44 1563.27 1802.86 1579.61 1759.62 1595.36C1750.99 1598.51 1742.22 1602.55 1720.21 1606.23L1720.28 1606.26ZM2373.84 300.015C2425.65 375.249 2481.14 458.608 2450.64 518.302C2440.45 538.264 2409.38 564.652 2377.41 570.953C2359.99 574.391 2334.98 570.398 2314.84 556.516C2252.62 513.657 2188.98 425.592 2169.11 378.549C2141.98 314.305 2153.94 265.412 2164.73 211.498C2170.72 181.56 2175.4 150.63 2188.99 123.44C2193.45 114.521 2204.96 113.253 2218.4 126.584C2262.37 170.155 2303.12 214.671 2341.4 259.207L2373.86 300.013L2373.84 300.015ZM1093.98 1404.14C1143.69 1396.65 1189.77 1390.2 1226.71 1371.3C1286.6 1340.67 1298.66 1287.15 1341.95 1248.42C1373.79 1219.95 1422.2 1205.31 1437 1167.16C1441.16 1156.48 1439.39 1143.2 1444.65 1132.89C1453.33 1115.87 1472.22 1103.26 1504.47 1103.03C1585.66 1102.47 1659.12 1159.94 1710.71 1207.3C1779.54 1270.5 1782.95 1321.19 1746.79 1363.09C1706.58 1409.69 1647.04 1443.49 1583.48 1475.93C1571.34 1482.13 1566.14 1482.87 1554.86 1484.08C1517.35 1488.12 1480.74 1487.11 1435.91 1481.66C1420.87 1479.84 1405.47 1475.81 1397.05 1471.51C1396.06 1471.01 1393.99 1469.69 1393.83 1469.06C1392.85 1465.07 1396.28 1463.24 1402.2 1460.83C1416.38 1455.05 1433.09 1447.05 1445.56 1440.23C1479.41 1421.74 1493.87 1403.9 1505.48 1373.78C1510.62 1360.48 1522.83 1328.13 1478.27 1340.51C1413.25 1358.56 1409.54 1413.2 1354.79 1437.62C1335.27 1446.32 1273.61 1460.02 1243.45 1456.06C1188.33 1448.82 1131.11 1435.79 1074.07 1421.51C1070.24 1420.55 1066.58 1421.24 1061.19 1419.61C1055.66 1417.94 1050.33 1415.35 1044.95 1413.27C1045.19 1412.58 1045.31 1411.82 1046.03 1411.35C1047.04 1410.67 1069.2 1408.75 1073.4 1408.11C1079.86 1407.13 1087.03 1405.2 1093.98 1404.15L1093.98 1404.14Z" fill="#E1F0A3" stroke="black" stroke-width="2" mask="url(#path-1-inside-1_2065_3)"/>
</mask>
<g mask="url(#mask0_2065_3)">
<path d="M1632 900.001L1632 -0.00135883L0.00326724 -0.00127106L0.00135098 899.997L1632 900.001Z" fill="#E1F0A3"/>
</g>
</g>
<defs>
<clipPath id="clip0_2065_3">
<rect width="1632" height="900" fill="white"/>
</clipPath>
</defs>
</svg>
