<svg width="116" height="38" viewBox="0 0 116 38" fill="none" xmlns="http://www.w3.org/2000/svg">
<path d="M49.567 20.2492C49.567 25.6409 45.312 29.6141 40.0901 29.6141C34.8683 29.6141 30.6133 25.6409 30.6133 20.2492C30.6133 14.8194 34.8683 10.8843 40.0901 10.8843C45.312 10.8843 49.567 14.8194 49.567 20.2492ZM45.4185 20.2492C45.4185 16.8798 42.9524 14.5745 40.0901 14.5745C37.2279 14.5745 34.7618 16.8798 34.7618 20.2492C34.7618 23.5847 37.2279 25.9238 40.0901 25.9238C42.9524 25.9238 45.4185 23.5805 45.4185 20.2492Z" fill="#7B7B7B"/>
<path d="M70.0113 20.2492C70.0113 25.6409 65.7563 29.6141 60.5345 29.6141C55.3126 29.6141 51.0576 25.6409 51.0576 20.2492C51.0576 14.8236 55.3126 10.8843 60.5345 10.8843C65.7563 10.8843 70.0113 14.8194 70.0113 20.2492ZM65.8628 20.2492C65.8628 16.8798 63.3967 14.5745 60.5345 14.5745C57.6722 14.5745 55.2061 16.8798 55.2061 20.2492C55.2061 23.5847 57.6722 25.9238 60.5345 25.9238C63.3967 25.9238 65.8628 23.5805 65.8628 20.2492Z" fill="#7B7B7B"/>
<path d="M89.604 11.4501V28.2629C89.604 35.1789 85.4896 38.0036 80.6255 38.0036C76.0468 38.0036 73.2911 34.9678 72.2518 32.4852L75.8637 30.9947C76.5068 32.5189 78.0827 34.3176 80.6212 34.3176C83.7348 34.3176 85.6642 32.4134 85.6642 28.8287V27.4818H85.5194C84.5909 28.6176 82.802 29.6098 80.5446 29.6098C75.8211 29.6098 71.4937 25.5312 71.4937 20.2829C71.4937 14.9967 75.8211 10.8843 80.5446 10.8843C82.7977 10.8843 84.5866 11.8765 85.5194 12.9785H85.6642V11.4543H89.604V11.4501ZM85.9581 20.2829C85.9581 16.9854 83.739 14.5745 80.9151 14.5745C78.0529 14.5745 75.655 16.9854 75.655 20.2829C75.655 23.5467 78.0529 25.9238 80.9151 25.9238C83.739 25.9238 85.9581 23.5467 85.9581 20.2829Z" fill="#7B7B7B"/>
<path d="M96.0993 1.5957V29.0401H92.053V1.5957H96.0993Z" fill="#7B7B7B"/>
<path d="M111.867 23.3312L115.087 25.4592C114.048 26.9834 111.543 29.6097 107.216 29.6097C101.849 29.6097 97.8413 25.4972 97.8413 20.2448C97.8413 14.6757 101.883 10.8799 106.752 10.8799C111.654 10.8799 114.052 14.7474 114.836 16.8374L115.266 17.9014L102.637 23.0863C103.604 24.9652 105.108 25.9237 107.216 25.9237C109.329 25.9237 110.794 24.8934 111.867 23.3312ZM101.956 19.9619L110.398 16.487C109.933 15.3174 108.536 14.5025 106.892 14.5025C104.784 14.5025 101.849 16.3477 101.956 19.9619Z" fill="#7B7B7B"/>
<path d="M15.297 17.8121V13.839H28.8031C28.9352 14.5315 29.0033 15.3506 29.0033 16.2373C29.0033 19.2181 28.1813 22.9041 25.532 25.5304C22.9552 28.1904 19.6628 29.609 15.3013 29.609C7.21721 29.609 0.419434 23.0815 0.419434 15.0677C0.419434 7.05392 7.21721 0.526367 15.3013 0.526367C19.7735 0.526367 22.9594 2.26592 25.3531 4.53326L22.525 7.33681C20.8085 5.74081 18.483 4.49948 15.297 4.49948C9.39369 4.49948 4.77666 9.2157 4.77666 15.0677C4.77666 20.9197 9.39369 25.6359 15.297 25.6359C19.1261 25.6359 21.3068 24.1117 22.7039 22.7268C23.8368 21.6037 24.5822 19.9993 24.8761 17.8079L15.297 17.8121Z" fill="#7B7B7B"/>
</svg>
