<svg width="158" height="43" viewBox="0 0 158 43" fill="none" xmlns="http://www.w3.org/2000/svg">
<path d="M49.5337 20.6722C49.5337 27.7027 54.0896 32.6047 60.4028 32.6047C66.7161 32.6047 71.272 27.7027 71.272 20.6722C71.272 13.6417 66.7161 8.73975 60.4028 8.73975C54.0896 8.73975 49.5337 13.6417 49.5337 20.6722ZM67.1066 20.6722C67.1066 25.7032 64.3405 28.9605 60.4028 28.9605C56.4652 28.9605 53.6991 25.7032 53.6991 20.6722C53.6991 15.6412 56.4652 12.384 60.4028 12.384C64.3405 12.384 67.1066 15.6412 67.1066 20.6722Z" fill="#9C9C9C"/>
<path d="M83.0021 32.6046C87.7858 32.6046 90.5194 28.6056 90.5194 23.8003C90.5194 18.9951 87.7858 14.9961 83.0021 14.9961C80.7892 14.9961 79.1621 15.8668 78.0882 17.1246V15.3186H74.1831V38.0548H78.0882V30.4761C79.1621 31.7338 80.7892 32.6046 83.0021 32.6046ZM77.9906 23.3166C77.9906 20.1238 79.8129 18.3823 82.2211 18.3823C85.0523 18.3823 86.5817 20.5753 86.5817 23.8003C86.5817 27.0253 85.0523 29.2183 82.2211 29.2183C79.8129 29.2183 77.9906 27.4446 77.9906 24.3163V23.3166Z" fill="#9C9C9C"/>
<path d="M101.087 32.6046C104.504 32.6046 107.205 30.8308 108.409 27.8638L105.058 26.6061C104.537 28.3476 103.007 29.3151 101.087 29.3151C98.5816 29.3151 96.8243 27.5413 96.5314 24.6388H108.507V23.3488C108.507 18.7048 105.871 14.9961 100.925 14.9961C95.9782 14.9961 92.7891 18.8338 92.7891 23.8003C92.7891 29.0248 96.206 32.6046 101.087 32.6046ZM100.892 18.2533C103.365 18.2533 104.537 19.8658 104.569 21.7363H96.7267C97.3124 19.4466 98.8745 18.2533 100.892 18.2533Z" fill="#9C9C9C"/>
<path d="M111.437 32.2498H115.342V22.3168C115.342 19.8981 117.132 18.6081 118.889 18.6081C121.037 18.6081 121.883 20.1238 121.883 22.2201V32.2498H125.788V21.0913C125.788 17.4471 123.641 14.9961 120.061 14.9961C117.848 14.9961 116.319 15.9958 115.342 17.1246V15.3186H111.437V32.2498Z" fill="#9C9C9C"/>
<path d="M137.226 9.09473L128.374 32.2502H132.507L134.492 26.9612H144.58L146.598 32.2502H150.796L141.944 9.09473H137.226ZM139.504 13.6742L143.214 23.3492H135.859L139.504 13.6742Z" fill="#9C9C9C"/>
<path d="M157.5 9.16162H153.334V32.3171H157.5V9.16162Z" fill="#9C9C9C"/>
<path d="M39.9905 17.5993C40.9749 14.6713 40.636 11.4637 39.0617 8.80042C36.6943 4.71542 31.9349 2.61379 27.2868 3.60279C25.219 1.29423 22.2482 -0.0186131 19.1336 0.000199444C14.3824 -0.0105506 10.1668 3.02095 8.70511 7.50101C5.65291 8.12048 3.01833 10.0138 1.47664 12.6973C-0.908447 16.7715 -0.364718 21.9074 2.82172 25.4011C1.83732 28.3291 2.1763 31.5367 3.75054 34.2C6.11799 38.285 10.8773 40.3866 15.5255 39.3976C17.5919 41.7062 20.5641 43.019 23.6787 42.9989C28.4326 43.0109 32.6495 39.9768 34.1112 35.4927C37.1634 34.8732 39.798 32.9799 41.3397 30.2964C43.7221 26.2221 43.177 21.0904 39.9919 17.5966L39.9905 17.5993ZM23.6814 40.1891C21.779 40.1918 19.9363 39.532 18.476 38.324C18.5424 38.289 18.6577 38.2259 18.7322 38.1802L27.3722 33.2352C27.8143 32.9866 28.0855 32.5203 28.0827 32.0164V19.9455L31.7343 22.035C31.7736 22.0538 31.7994 22.0914 31.8048 22.1344V32.1306C31.7994 36.5757 28.1668 40.1797 23.6814 40.1891ZM6.21155 32.7944C5.25833 31.1631 4.91528 29.2509 5.24206 27.3952C5.30579 27.4329 5.41833 27.5014 5.49833 27.5471L14.1383 32.4921C14.5763 32.746 15.1187 32.746 15.558 32.4921L26.1058 26.4559V30.635C26.1085 30.678 26.0882 30.7197 26.0543 30.7465L17.3207 35.7439C13.4305 37.9638 8.4624 36.6443 6.21291 32.7944H6.21155ZM3.93765 14.1042C4.88681 12.4702 6.38511 11.2205 8.16952 10.5715C8.16952 10.6454 8.16545 10.7757 8.16545 10.8671V20.7584C8.16274 21.261 8.43393 21.7273 8.8746 21.9759L19.4224 28.0107L15.7709 30.1002C15.7343 30.1244 15.6882 30.1284 15.6475 30.1109L6.91257 25.1095C3.03054 22.8816 1.69901 17.9594 3.9363 14.1055L3.93765 14.1042ZM33.939 21.0232L23.3912 14.987L27.0427 12.8989C27.0794 12.8747 27.1255 12.8706 27.1661 12.8881L35.901 17.8855C39.7899 20.1121 41.1227 25.0423 38.876 28.8962C37.9255 30.5275 36.4285 31.7772 34.6455 32.4276V22.2406C34.6495 21.738 34.3797 21.2731 33.9404 21.0232H33.939ZM37.5729 15.6025C37.5092 15.5635 37.3966 15.4963 37.3166 15.4506L28.6766 10.5056C28.2387 10.2517 27.6963 10.2517 27.257 10.5056L16.7092 16.5418V12.3627C16.7065 12.3197 16.7268 12.278 16.7607 12.2512L25.4943 7.25779C29.3844 5.03389 34.358 6.35748 36.6007 10.214C37.5485 11.8427 37.8916 13.7494 37.5702 15.6025H37.5729ZM14.7241 23.0509L11.0712 20.9614C11.0319 20.9425 11.0061 20.9049 11.0007 20.8619V10.8658C11.0034 6.41526 14.6468 2.80864 19.1377 2.81132C21.0373 2.81132 22.876 3.47245 24.3363 4.67645C24.2699 4.71139 24.156 4.77454 24.08 4.82023L15.44 9.76523C14.998 10.0138 14.7268 10.4788 14.7295 10.9827L14.7241 23.0482V23.0509ZM16.7078 18.8127L21.4061 16.1239L26.1044 18.8114V24.1877L21.4061 26.8752L16.7078 24.1877V18.8127Z" fill="#9C9C9C"/>
</svg>
