<svg width="190" height="23" viewBox="0 0 190 23" fill="none" xmlns="http://www.w3.org/2000/svg">
<g clip-path="url(#clip0_40001767_2576)">
<path d="M44.2808 8.50391H28.2149L27.6196 8.94165V22.9963H32.0671V17.7259L32.4916 17.3518H44.2814C47.2582 17.3518 48.6538 16.5642 48.6538 14.5433V11.3163C48.6532 9.29208 47.2582 8.50391 44.2808 8.50391ZM44.2808 13.7C44.2808 14.6521 43.6403 14.8498 42.2447 14.8498H32.5403L32.0665 14.3969V11.3862L32.491 11.0042H42.2447C43.6403 11.0042 44.2808 11.1997 44.2808 12.1563V13.7Z" fill="#9C9C9C"/>
<path d="M56.7638 11.162L60.5908 16.6758L60.3788 17.2099H51.9153L49.7549 19.8234H62.353L63.2261 20.3463L65.182 22.9992H70.2717L59.1156 8.32373" fill="#9C9C9C"/>
<path d="M107.372 20.1446V16.2438L107.83 15.855H116.345V13.3711H102.85V22.9987H122.756V20.5266H107.85" fill="#9C9C9C"/>
<path d="M122.966 8.50391H102.85V11.2352H122.966V8.50391Z" fill="#9C9C9C"/>
<path d="M80.4131 11.0902H96.6194C96.3697 9.06372 95.0909 8.50146 91.8472 8.50146H80.2407C76.5804 8.50146 75.4128 9.204 75.4128 11.9279V19.5702C75.4128 22.297 76.5804 22.9995 80.2407 22.9995H91.8472C95.1385 22.9995 96.3989 22.3916 96.4848 20.2896H80.4131L79.9365 19.8485V11.3854" fill="#9C9C9C"/>
<path d="M16.8048 14.151H5.01506L4.66788 13.7752V11.2952L5.01334 11.0327H20.9068L21.124 10.5104C20.5826 9.14083 19.1807 8.50195 16.5774 8.50195H5.53697C1.87898 8.50195 0.709688 9.20449 0.709688 11.9284V13.5307C0.709688 16.258 1.87898 16.9594 5.53697 16.9594H17.3004L17.6699 17.2783V19.871L17.3686 20.2755H3.91279V20.2631H0.388289C0.388289 20.2631 -0.0150346 20.462 0.000433826 20.5549C0.301208 22.4603 1.62118 23 4.78131 23H16.8048C20.4623 23 21.6665 22.2974 21.6665 19.5707V17.5746C21.6665 14.8524 20.4623 14.151 16.8048 14.151Z" fill="#9C9C9C"/>
<path d="M135.62 8.44385H129.003L128.644 9.11596L135.993 14.3841C137.385 13.5915 138.9 12.7881 140.547 11.9954" fill="#9C9C9C"/>
<path d="M141.55 18.3678L148.01 22.9999H154.708L154.985 22.3864L145.34 15.4438C144.059 16.3684 142.793 17.3447 141.55 18.3678Z" fill="#9C9C9C"/>
<path d="M134.636 22.9893H128.648L128.142 22.2101C132.213 18.3448 150.421 1.77521 190 0C190 0 156.779 1.10197 134.636 22.9893Z" fill="#9C9C9C"/>
</g>
<defs>
<clipPath id="clip0_40001767_2576">
<rect width="190" height="23" fill="white"/>
</clipPath>
</defs>
</svg>
