<svg width="440" height="590" viewBox="0 0 440 590" fill="none" xmlns="http://www.w3.org/2000/svg">
<g clip-path="url(#clip0_2087_8)">
<mask id="mask0_2087_8" style="mask-type:alpha" maskUnits="userSpaceOnUse" x="-337" y="-14" width="847" height="767">
<mask id="path-1-inside-1_2087_8" fill="white">
<path d="M-57.53 26.4934C-55.5895 24.6581 -53.3377 25.3628 -55.8697 28.4044C-61.5148 35.1764 -71.5752 52.6299 -76.276 59.577C-94.0882 85.8806 -110.665 112.053 -123.341 140.439C-140.198 178.184 -149.294 217.462 -156.413 256.888C-162.909 292.874 -161.207 325.193 -148.609 360.387C-145.667 368.6 -142.248 376.594 -140.634 385.118C-138.279 397.587 -137.807 423.385 -152.158 431.968C-161.113 437.327 -172.44 426.235 -177.177 421.291C-196.805 400.792 -211.919 370.805 -224.413 346.99C-227.817 340.501 -235.05 321.805 -245.385 320.666C-253.837 319.739 -259.679 326.893 -263.031 331.901C-268.899 340.676 -274.643 355.979 -275.219 365.849C-277.528 405.179 -270.752 439.998 -259.98 478.401C-247.616 522.48 -227.303 563.857 -201.999 604.441C-188.587 625.951 -177.535 644.754 -170.375 668.442C-163.806 690.179 -158.156 713.425 -152.516 735.294C-151.151 740.585 -150.518 745.971 -149.003 751.235L-109.913 751.235C-109.477 749.057 -111.537 747.532 -112.315 745.581C-115.252 738.184 -117.987 727.423 -117.167 719.751C-116.378 712.39 -111.179 711.061 -103.033 714.464C-91.6393 719.226 -71.0357 736.166 -64.6954 744.697C-63.2892 746.593 -62.4176 749.184 -61.3332 751.235L25.2267 751.235C22.5857 747.584 18.8759 744.526 15.9444 741.003C-6.70343 713.796 -5.9563 679.458 -15.5966 649.09C-26.3315 615.277 -59.1125 589.897 -87.9399 564.701C-96.3556 557.343 -115.761 537.664 -126.164 533.827C-137.096 529.794 -142.985 539.46 -146.871 545.706C-153.969 557.128 -158.047 570.927 -165.539 581.943C-167.895 585.403 -172.881 588.492 -178.189 587.453C-179.766 587.142 -186.293 582.934 -187.538 581.772C-200.94 569.263 -211.219 553.621 -219.769 538.803C-242.749 498.979 -256.919 452.216 -260.691 408.67C-261.495 399.414 -261.931 394.032 -260.727 384.656C-260.188 380.48 -259.524 372.083 -258.496 367.963C-256.561 360.208 -249.354 348.793 -238.375 358.555C-231.734 364.459 -226.463 373.736 -222.021 380.711C-212.402 395.819 -202.99 410.96 -192.717 425.921C-184.669 437.641 -163.744 469.634 -149.045 475.108C-141.387 477.959 -136.919 470.223 -134.777 465.868C-125.531 447.037 -119.569 421.35 -117.748 401.381C-116.492 387.63 -122.407 372.927 -127.954 360.383C-142.046 328.525 -149.631 297.56 -146.207 263.429C-141.952 220.99 -132.597 180.497 -115.335 140.152C-102.094 109.21 -83.2546 80.1318 -63.4553 51.4156C-61.7846 48.9951 -58.1578 44.2694 -54.4947 44.3729C-50.8316 44.4764 -54.6712 50.3885 -56.2693 53.0718C-57.8984 55.7989 -61.0063 59.2784 -62.8586 62.1529C-107.174 131.051 -135.026 193.782 -131.72 272.435C-130.48 301.935 -120.856 326.694 -106.11 353.475C-104.035 357.242 -99.3286 364.611 -97.6268 368.488C-92.4642 380.257 -96.7603 397.467 -99.256 409.566C-106.525 444.807 -121.416 485.849 -106.307 520.732C-84.8942 570.175 -18.2167 598.915 0.627904 649.066C6.44422 664.544 8.00602 681.066 13.4176 696.669C20.4377 716.909 32.8382 736.222 52.0356 751.231L76.6084 751.231C72.6029 748.097 68.2341 745.231 64.3064 742.03C39.0073 721.384 31.6344 702.175 23.4003 675.298C15.0001 647.879 8.71161 632.408 -14.097 610.245C-28.3083 596.438 -44.3875 583.703 -58.4432 569.705C-95.7018 532.616 -103.293 500.97 -94.6952 454.621C-90.9284 434.297 -81.7292 414.674 -75.42 394.86C-69.0174 374.767 -73.5574 354.491 -86.8295 337.017C-112.544 303.165 -123.45 257.119 -118.848 218C-112.653 165.333 -87.4418 113.032 -57.115 66.556C-55.2938 63.7652 -52.6217 59.7004 -50.6708 56.9494C-46.0738 50.472 -39.7387 48.9194 -44.1489 58.0164C-45.0102 59.792 -48.9171 66.7471 -50.043 68.5506C-62.6926 88.7829 -73.6974 108.068 -82.7098 129.61C-97.0249 163.82 -109.861 198.707 -107.137 235.159C-105.57 256.152 -85.9215 285.158 -74.0657 304.479C-54.8579 335.783 -37.1288 353.838 -51.6722 390.365C-59.9064 411.047 -73.464 430.165 -79.6175 451.619C-89.9219 487.553 -86.6687 524.793 -61.3332 556.507C-35.1313 589.3 9.85309 612.59 29.4189 648.409C40.9634 669.545 43.7029 692.329 59.0816 712.625C62.3452 716.933 69.7388 722.701 72.0788 726.217C72.743 727.22 72.525 728.578 72.7896 728.884C73.1632 729.318 75.3683 729.167 75.9339 729.477C76.2815 729.669 76.4164 730.628 76.9145 731.074C81.745 735.433 87.608 738.988 93.0923 742.663C97.3054 745.486 101.518 748.344 105.659 751.235L145.309 751.235C143.281 749.686 140.583 748.324 138.243 747.015C116.3 734.753 96.6879 724.847 80.8474 707.071C65.6814 690.06 59.3878 668.82 47.7084 650.662C22.9748 612.212 -27.8518 589.686 -53.9603 552.14C-83.1146 510.21 -75.6119 467.719 -50.3595 426.076C-35.4529 401.496 -13.7702 377.733 -18.3827 349.172C-21.6255 329.087 -30.2541 314.822 -43.7546 297.942C-60.4253 277.108 -83.6438 252.632 -89.6158 228.152C-94.55 207.916 -89.3148 186.457 -83.3584 166.81C-74.1592 136.485 -62.1892 106.634 -45.7987 78.2288C-43.5054 74.2516 -39.7802 66.8984 -36.9784 63.5741C-36.4491 62.9451 -33.2582 59.5531 -32.5993 58.9997C-29.7196 56.5672 -26.7414 56.2289 -24.6919 57.0331C-22.0147 58.0841 -26.5909 66.4844 -28.4795 69.2433C-48.7147 98.7956 -59.7506 131.74 -66.2882 164.919C-68.5348 176.333 -68.9707 192.206 -64.9703 203.238C-61.5667 212.629 -53.8255 224.712 -48.113 233.483C-40.0915 245.812 -33.3516 256.235 -24.7491 268.358C-13.5989 284.072 2.4128 296.103 11.3889 313.469C17.4854 325.261 23.1668 346.572 18.191 358.703C16.4321 362.986 12.2035 371.371 9.94649 375.515C-3.28941 399.828 -26.3159 419.838 -41.4404 443.633C-73.3808 493.891 -65.51 540.646 -16.6602 581.784C6.1381 600.981 34.0419 617.264 55.3822 637.48C70.3251 651.638 81.0653 668.171 94.2494 683.069C102.281 692.146 111.366 700.821 122.444 708.142C134.943 716.403 148.251 722.439 161.451 729.629C172.575 735.688 183.725 742.13 191.093 751.231C191.093 751.231 222.047 753.392 221.248 751.231C220.449 749.069 219.012 747.094 217.86 745.048C201.33 715.691 168.31 706.681 139.908 686.815C114.132 668.784 92.89 647.445 67.1394 628.889C49.9758 616.52 31.1675 606.033 13.7756 593.994C-7.60107 579.196 -27.39 562.933 -38.6906 542.131C-50.9407 519.586 -51.0237 491.16 -37.4194 469.001C-24.0175 447.176 -6.71898 425.081 14.0662 407.384C25.538 397.623 54.6611 380.05 59.6161 369.066C65.1211 356.867 62.8744 339.227 79.9965 332.427C85.4185 330.273 96.4389 332.323 102.188 333.78C125.24 339.621 139.337 354.2 156.47 366.259C167.63 374.118 179.694 380.595 189.422 389.82C213.185 412.349 206.14 428.751 208.386 455.393C209.751 471.549 217.061 486.542 222.67 501.85C233 530.052 243.782 572.4 282.13 585.626C293.011 589.38 305.484 588.862 315.819 584.483C342.504 573.177 347.49 549.301 354.443 528.42C357.639 518.818 361.172 509.307 363.061 499.469C372.218 451.826 357.021 402.969 387.094 358.834C399.593 340.489 406.603 321.503 411.625 301.071C416.642 280.676 421.011 277.63 434.496 260.778C449.574 241.939 452.76 228.391 460.428 207.832C470.982 179.538 493.79 157.649 504.79 130.466C523.935 83.1416 486.34 53.8481 456.464 16.9745L433.194 -13.1591L411.137 -13.1591C412.004 -12.1837 413.135 -11.4153 413.96 -10.3961C439.664 21.4015 495.611 57.5905 498.844 96.2955C501.635 129.745 476.372 152.016 459.868 180.406C448.821 199.412 446.191 221.519 432.26 239.347C419.506 255.67 397.341 264.321 387.426 282.929C381.329 294.371 380.961 308.759 373.848 319.643C369.276 326.638 360.731 333.681 355.402 340.628C347.049 351.513 343.822 363.671 340.371 375.798C335.131 394.211 334.078 412.261 331.25 430.929C328.894 446.468 327.021 456.5 327.95 472.497C329.091 492.243 327.39 527.305 311.736 543.64C296.871 559.151 278.965 548.613 269.377 535.861C259.789 523.109 248.239 490.042 245.868 475.49C243.756 462.52 248.052 450.393 247.533 437.789C246.755 418.818 220.683 383.119 201.999 370.754C184.981 359.491 170.11 352.846 155.375 339.259C134.512 320.021 120.073 305.47 93.9121 289.585C83.9657 283.546 65.9045 275.815 63.2636 265.113C58.2619 244.885 88.6821 234.912 99.6351 220.229C114.194 200.71 95.8681 177.169 102.566 156.069C103.962 151.674 106.972 147.024 108.622 142.72C121.131 110.13 105.052 76.5209 126.781 45.2527C133.656 35.3595 143.794 27.1583 153.134 18.75C163.718 9.2271 174.842 -0.622329 185.697 -10.0219L191.108 -13.1511L-52.9329 -13.1511C-54.2041 -10.6231 -55.8126 -8.10299 -57.4989 -5.73019C-67.4245 8.23575 -76.9091 22.3172 -86.8866 35.9925C-102.447 57.3157 -119.512 77.9701 -134.024 99.6595C-143.763 114.219 -152.583 129.279 -161.373 144.233C-168.429 156.236 -174.038 169.163 -183.362 180.063C-185.665 182.759 -190.361 187.098 -195.015 186.497C-201.755 185.625 -203.659 181.998 -212.386 182.643C-227.864 183.786 -246.578 208.831 -254.055 218.374C-299.122 275.894 -341.44 340.584 -336.625 409.538C-333.507 454.199 -325.615 498.88 -318.668 543.154C-314.154 571.926 -307.886 600.794 -308.643 629.809C-309.666 668.968 -307.326 709.384 -309.23 748.468C-309.276 749.427 -309.39 750.331 -309.816 751.235L-272.957 751.235C-272.863 747.723 -273.59 744.24 -273.553 740.74C-273.273 715.133 -269.527 691.003 -267.369 665.763C-265.148 639.809 -275.375 615.305 -282.301 590.232C-295.797 541.391 -306.692 491.833 -314.278 442.092C-320.556 400.939 -322.258 367.015 -306.189 327.052C-294.09 296.967 -275.971 273.279 -254.994 247.218C-249.479 240.37 -234.536 224.258 -223.552 226.798C-220.548 227.491 -215.152 230.127 -212.677 231.612C-205.812 235.724 -200.857 242.946 -192.872 235.326C-184.01 226.866 -177.25 206.311 -172.611 195.602C-158.773 163.649 -145.491 133.921 -126.553 103.688C-109.924 77.1459 -90.1034 51.6903 -71.8658 25.6773C-67.3207 19.196 -62.6977 11.0823 -57.8776 5.13047C-57.0734 4.13914 -55.1589 0.822851 -52.3311 2.28397C-49.6487 3.66941 -57.089 12.623 -61.2346 18.8376C-78.4397 44.6476 -97.3985 70.0356 -114.51 96.2198C-132.701 124.06 -145.584 152.741 -156.501 182.687C-165.342 206.94 -173.234 230.851 -181.566 255.144C-185.499 266.602 -188.452 281.516 -195.783 291.799C-196.717 293.113 -199.124 295.075 -201.148 294.924C-204.256 294.697 -209.154 288.789 -210.617 286.723C-214.524 281.213 -218.187 274.107 -222.711 269.007C-236.84 253.082 -253.36 269.508 -262.58 279.537C-284.496 303.38 -299.335 337.69 -303.086 366.753C-307.165 398.335 -299.584 432.163 -293.135 463.571C-287.36 491.686 -281.077 518.989 -272.376 546.622C-266.238 566.118 -258.543 585.271 -250.47 604.365C-237.187 635.773 -222.732 662.502 -227.163 696.613C-229.363 713.525 -233.571 729.673 -235.309 746.819C-235.449 748.193 -235.335 749.869 -234.987 751.235L-193.661 751.235C-194.361 745.386 -192.343 739.693 -191.964 733.901C-188.509 681.321 -209.299 638.858 -233.068 591.446C-252.12 553.45 -265.802 514 -275.598 473.687C-283.458 441.336 -291.059 408.037 -289.736 374.81C-288.875 353.137 -282.047 330.922 -268.905 311.526C-267.104 308.866 -263.42 303.309 -261.148 301.195C-258.59 298.818 -251.03 293.188 -247.652 291.843C-244.503 290.589 -242.339 290.107 -238.951 291.321C-230.562 294.327 -225.207 307.449 -221.959 313.847C-213.076 331.34 -205.278 350.915 -190.875 366.263C-190.875 366.263 -187.59 369.639 -184.742 370.981C-181.546 372.485 -179.569 372.824 -178.292 372.334C-176.596 371.681 -175.319 369.042 -175.662 367.214C-178.972 349.403 -177.431 326.248 -176.373 307.541C-173.945 264.408 -158.135 219.863 -146.067 177.83C-145.008 174.135 -139.275 159.54 -137.838 156.379C-124.763 127.552 -113.083 105.193 -96.2777 80.2075C-86.6271 65.8553 -77.2826 51.965 -67.1391 37.8637C-65.1156 35.049 -63.1544 31.8322 -57.5092 26.4934L-57.53 26.4934ZM-91.8624 692.393C-114.495 669.39 -139.047 643.576 -137.303 613.036C-136.722 602.824 -131.113 586.306 -123.019 578.149C-118.609 573.702 -111.283 571.102 -104.195 573.531C-82.3052 581.023 -54.9877 607.435 -44.2839 623.968C-29.6627 646.546 -27.5093 669.326 -24.4741 694.033C-22.7878 707.752 -20.6293 721.666 -21.3402 735.525C-21.5737 740.071 -24.5985 742.583 -29.7819 739.239C-46.7327 728.315 -62.9001 716.435 -78.393 704.125L-91.8676 692.397L-91.8624 692.393ZM137.288 4.70048C124.446 16.4051 112.487 27.0469 104.429 41.399C91.3646 64.661 94.0055 89.4199 86.4095 113.267C80.8215 130.8 69.1318 145.312 69.3082 164.027C69.3549 169.266 71.3213 174.593 71.0204 179.868C70.5275 188.571 66.7347 197.158 57.8883 202.788C35.614 216.961 9.00219 205.204 -10.4651 193.978C-36.4388 179 -43.023 158.095 -37.7411 134.128C-31.8677 107.475 -19.2544 82.9266 -5.38034 58.2673C-2.72897 53.5575 -1.38 52.3512 1.5878 49.9028C11.4564 41.7533 21.6414 35.897 34.5815 30.5145C38.9243 28.707 43.6095 27.7714 46.4061 28.1496C46.733 28.1934 47.449 28.3965 47.5632 28.6353C48.2792 30.1601 47.5372 31.5256 46.1778 33.56C42.9195 38.4449 39.2149 44.7033 36.5428 49.7315C29.2892 63.383 27.2969 73.4275 27.4577 88.1858C27.5251 94.7069 27.769 110.516 38.6493 97.6211C54.5262 78.81 49.4622 55.0106 61.8056 35.264C66.2055 28.2253 81.6465 11.8387 90.3839 8.34324C106.354 1.94951 123.549 -2.34218 140.832 -6.08052C141.994 -6.33131 142.923 -7.25099 144.588 -7.48586C146.295 -7.72475 148.049 -7.54158 149.761 -7.5854C149.772 -7.25099 149.823 -6.90859 149.678 -6.58211C149.476 -6.12428 143.592 -1.50618 142.508 -0.514848C140.842 1.00993 139.083 3.06023 137.288 4.69652L137.288 4.70048Z"/>
</mask>
<path d="M-57.53 26.4934C-55.5895 24.6581 -53.3377 25.3628 -55.8697 28.4044C-61.5148 35.1764 -71.5752 52.6299 -76.276 59.577C-94.0882 85.8806 -110.665 112.053 -123.341 140.439C-140.198 178.184 -149.294 217.462 -156.413 256.888C-162.909 292.874 -161.207 325.193 -148.609 360.387C-145.667 368.6 -142.248 376.594 -140.634 385.118C-138.279 397.587 -137.807 423.385 -152.158 431.968C-161.113 437.327 -172.44 426.235 -177.177 421.291C-196.805 400.792 -211.919 370.805 -224.413 346.99C-227.817 340.501 -235.05 321.805 -245.385 320.666C-253.837 319.739 -259.679 326.893 -263.031 331.901C-268.899 340.676 -274.643 355.979 -275.219 365.849C-277.528 405.179 -270.752 439.998 -259.98 478.401C-247.616 522.48 -227.303 563.857 -201.999 604.441C-188.587 625.951 -177.535 644.754 -170.375 668.442C-163.806 690.179 -158.156 713.425 -152.516 735.294C-151.151 740.585 -150.518 745.971 -149.003 751.235L-109.913 751.235C-109.477 749.057 -111.537 747.532 -112.315 745.581C-115.252 738.184 -117.987 727.423 -117.167 719.751C-116.378 712.39 -111.179 711.061 -103.033 714.464C-91.6393 719.226 -71.0357 736.166 -64.6954 744.697C-63.2892 746.593 -62.4176 749.184 -61.3332 751.235L25.2267 751.235C22.5857 747.584 18.8759 744.526 15.9444 741.003C-6.70343 713.796 -5.9563 679.458 -15.5966 649.09C-26.3315 615.277 -59.1125 589.897 -87.9399 564.701C-96.3556 557.343 -115.761 537.664 -126.164 533.827C-137.096 529.794 -142.985 539.46 -146.871 545.706C-153.969 557.128 -158.047 570.927 -165.539 581.943C-167.895 585.403 -172.881 588.492 -178.189 587.453C-179.766 587.142 -186.293 582.934 -187.538 581.772C-200.94 569.263 -211.219 553.621 -219.769 538.803C-242.749 498.979 -256.919 452.216 -260.691 408.67C-261.495 399.414 -261.931 394.032 -260.727 384.656C-260.188 380.48 -259.524 372.083 -258.496 367.963C-256.561 360.208 -249.354 348.793 -238.375 358.555C-231.734 364.459 -226.463 373.736 -222.021 380.711C-212.402 395.819 -202.99 410.96 -192.717 425.921C-184.669 437.641 -163.744 469.634 -149.045 475.108C-141.387 477.959 -136.919 470.223 -134.777 465.868C-125.531 447.037 -119.569 421.35 -117.748 401.381C-116.492 387.63 -122.407 372.927 -127.954 360.383C-142.046 328.525 -149.631 297.56 -146.207 263.429C-141.952 220.99 -132.597 180.497 -115.335 140.152C-102.094 109.21 -83.2546 80.1318 -63.4553 51.4156C-61.7846 48.9951 -58.1578 44.2694 -54.4947 44.3729C-50.8316 44.4764 -54.6712 50.3885 -56.2693 53.0718C-57.8984 55.7989 -61.0063 59.2784 -62.8586 62.1529C-107.174 131.051 -135.026 193.782 -131.72 272.435C-130.48 301.935 -120.856 326.694 -106.11 353.475C-104.035 357.242 -99.3286 364.611 -97.6268 368.488C-92.4642 380.257 -96.7603 397.467 -99.256 409.566C-106.525 444.807 -121.416 485.849 -106.307 520.732C-84.8942 570.175 -18.2167 598.915 0.627904 649.066C6.44422 664.544 8.00602 681.066 13.4176 696.669C20.4377 716.909 32.8382 736.222 52.0356 751.231L76.6084 751.231C72.6029 748.097 68.2341 745.231 64.3064 742.03C39.0073 721.384 31.6344 702.175 23.4003 675.298C15.0001 647.879 8.71161 632.408 -14.097 610.245C-28.3083 596.438 -44.3875 583.703 -58.4432 569.705C-95.7018 532.616 -103.293 500.97 -94.6952 454.621C-90.9284 434.297 -81.7292 414.674 -75.42 394.86C-69.0174 374.767 -73.5574 354.491 -86.8295 337.017C-112.544 303.165 -123.45 257.119 -118.848 218C-112.653 165.333 -87.4418 113.032 -57.115 66.556C-55.2938 63.7652 -52.6217 59.7004 -50.6708 56.9494C-46.0738 50.472 -39.7387 48.9194 -44.1489 58.0164C-45.0102 59.792 -48.9171 66.7471 -50.043 68.5506C-62.6926 88.7829 -73.6974 108.068 -82.7098 129.61C-97.0249 163.82 -109.861 198.707 -107.137 235.159C-105.57 256.152 -85.9215 285.158 -74.0657 304.479C-54.8579 335.783 -37.1288 353.838 -51.6722 390.365C-59.9064 411.047 -73.464 430.165 -79.6175 451.619C-89.9219 487.553 -86.6687 524.793 -61.3332 556.507C-35.1313 589.3 9.85309 612.59 29.4189 648.409C40.9634 669.545 43.7029 692.329 59.0816 712.625C62.3452 716.933 69.7388 722.701 72.0788 726.217C72.743 727.22 72.525 728.578 72.7896 728.884C73.1632 729.318 75.3683 729.167 75.9339 729.477C76.2815 729.669 76.4164 730.628 76.9145 731.074C81.745 735.433 87.608 738.988 93.0923 742.663C97.3054 745.486 101.518 748.344 105.659 751.235L145.309 751.235C143.281 749.686 140.583 748.324 138.243 747.015C116.3 734.753 96.6879 724.847 80.8474 707.071C65.6814 690.06 59.3878 668.82 47.7084 650.662C22.9748 612.212 -27.8518 589.686 -53.9603 552.14C-83.1146 510.21 -75.6119 467.719 -50.3595 426.076C-35.4529 401.496 -13.7702 377.733 -18.3827 349.172C-21.6255 329.087 -30.2541 314.822 -43.7546 297.942C-60.4253 277.108 -83.6438 252.632 -89.6158 228.152C-94.55 207.916 -89.3148 186.457 -83.3584 166.81C-74.1592 136.485 -62.1892 106.634 -45.7987 78.2288C-43.5054 74.2516 -39.7802 66.8984 -36.9784 63.5741C-36.4491 62.9451 -33.2582 59.5531 -32.5993 58.9997C-29.7196 56.5672 -26.7414 56.2289 -24.6919 57.0331C-22.0147 58.0841 -26.5909 66.4844 -28.4795 69.2433C-48.7147 98.7956 -59.7506 131.74 -66.2882 164.919C-68.5348 176.333 -68.9707 192.206 -64.9703 203.238C-61.5667 212.629 -53.8255 224.712 -48.113 233.483C-40.0915 245.812 -33.3516 256.235 -24.7491 268.358C-13.5989 284.072 2.4128 296.103 11.3889 313.469C17.4854 325.261 23.1668 346.572 18.191 358.703C16.4321 362.986 12.2035 371.371 9.94649 375.515C-3.28941 399.828 -26.3159 419.838 -41.4404 443.633C-73.3808 493.891 -65.51 540.646 -16.6602 581.784C6.1381 600.981 34.0419 617.264 55.3822 637.48C70.3251 651.638 81.0653 668.171 94.2494 683.069C102.281 692.146 111.366 700.821 122.444 708.142C134.943 716.403 148.251 722.439 161.451 729.629C172.575 735.688 183.725 742.13 191.093 751.231C191.093 751.231 222.047 753.392 221.248 751.231C220.449 749.069 219.012 747.094 217.86 745.048C201.33 715.691 168.31 706.681 139.908 686.815C114.132 668.784 92.89 647.445 67.1394 628.889C49.9758 616.52 31.1675 606.033 13.7756 593.994C-7.60107 579.196 -27.39 562.933 -38.6906 542.131C-50.9407 519.586 -51.0237 491.16 -37.4194 469.001C-24.0175 447.176 -6.71898 425.081 14.0662 407.384C25.538 397.623 54.6611 380.05 59.6161 369.066C65.1211 356.867 62.8744 339.227 79.9965 332.427C85.4185 330.273 96.4389 332.323 102.188 333.78C125.24 339.621 139.337 354.2 156.47 366.259C167.63 374.118 179.694 380.595 189.422 389.82C213.185 412.349 206.14 428.751 208.386 455.393C209.751 471.549 217.061 486.542 222.67 501.85C233 530.052 243.782 572.4 282.13 585.626C293.011 589.38 305.484 588.862 315.819 584.483C342.504 573.177 347.49 549.301 354.443 528.42C357.639 518.818 361.172 509.307 363.061 499.469C372.218 451.826 357.021 402.969 387.094 358.834C399.593 340.489 406.603 321.503 411.625 301.071C416.642 280.676 421.011 277.63 434.496 260.778C449.574 241.939 452.76 228.391 460.428 207.832C470.982 179.538 493.79 157.649 504.79 130.466C523.935 83.1416 486.34 53.8481 456.464 16.9745L433.194 -13.1591L411.137 -13.1591C412.004 -12.1837 413.135 -11.4153 413.96 -10.3961C439.664 21.4015 495.611 57.5905 498.844 96.2955C501.635 129.745 476.372 152.016 459.868 180.406C448.821 199.412 446.191 221.519 432.26 239.347C419.506 255.67 397.341 264.321 387.426 282.929C381.329 294.371 380.961 308.759 373.848 319.643C369.276 326.638 360.731 333.681 355.402 340.628C347.049 351.513 343.822 363.671 340.371 375.798C335.131 394.211 334.078 412.261 331.25 430.929C328.894 446.468 327.021 456.5 327.95 472.497C329.091 492.243 327.39 527.305 311.736 543.64C296.871 559.151 278.965 548.613 269.377 535.861C259.789 523.109 248.239 490.042 245.868 475.49C243.756 462.52 248.052 450.393 247.533 437.789C246.755 418.818 220.683 383.119 201.999 370.754C184.981 359.491 170.11 352.846 155.375 339.259C134.512 320.021 120.073 305.47 93.9121 289.585C83.9657 283.546 65.9045 275.815 63.2636 265.113C58.2619 244.885 88.6821 234.912 99.6351 220.229C114.194 200.71 95.8681 177.169 102.566 156.069C103.962 151.674 106.972 147.024 108.622 142.72C121.131 110.13 105.052 76.5209 126.781 45.2527C133.656 35.3595 143.794 27.1583 153.134 18.75C163.718 9.2271 174.842 -0.622329 185.697 -10.0219L191.108 -13.1511L-52.9329 -13.1511C-54.2041 -10.6231 -55.8126 -8.10299 -57.4989 -5.73019C-67.4245 8.23575 -76.9091 22.3172 -86.8866 35.9925C-102.447 57.3157 -119.512 77.9701 -134.024 99.6595C-143.763 114.219 -152.583 129.279 -161.373 144.233C-168.429 156.236 -174.038 169.163 -183.362 180.063C-185.665 182.759 -190.361 187.098 -195.015 186.497C-201.755 185.625 -203.659 181.998 -212.386 182.643C-227.864 183.786 -246.578 208.831 -254.055 218.374C-299.122 275.894 -341.44 340.584 -336.625 409.538C-333.507 454.199 -325.615 498.88 -318.668 543.154C-314.154 571.926 -307.886 600.794 -308.643 629.809C-309.666 668.968 -307.326 709.384 -309.23 748.468C-309.276 749.427 -309.39 750.331 -309.816 751.235L-272.957 751.235C-272.863 747.723 -273.59 744.24 -273.553 740.74C-273.273 715.133 -269.527 691.003 -267.369 665.763C-265.148 639.809 -275.375 615.305 -282.301 590.232C-295.797 541.391 -306.692 491.833 -314.278 442.092C-320.556 400.939 -322.258 367.015 -306.189 327.052C-294.09 296.967 -275.971 273.279 -254.994 247.218C-249.479 240.37 -234.536 224.258 -223.552 226.798C-220.548 227.491 -215.152 230.127 -212.677 231.612C-205.812 235.724 -200.857 242.946 -192.872 235.326C-184.01 226.866 -177.25 206.311 -172.611 195.602C-158.773 163.649 -145.491 133.921 -126.553 103.688C-109.924 77.1459 -90.1034 51.6903 -71.8658 25.6773C-67.3207 19.196 -62.6977 11.0823 -57.8776 5.13047C-57.0734 4.13914 -55.1589 0.822851 -52.3311 2.28397C-49.6487 3.66941 -57.089 12.623 -61.2346 18.8376C-78.4397 44.6476 -97.3985 70.0356 -114.51 96.2198C-132.701 124.06 -145.584 152.741 -156.501 182.687C-165.342 206.94 -173.234 230.851 -181.566 255.144C-185.499 266.602 -188.452 281.516 -195.783 291.799C-196.717 293.113 -199.124 295.075 -201.148 294.924C-204.256 294.697 -209.154 288.789 -210.617 286.723C-214.524 281.213 -218.187 274.107 -222.711 269.007C-236.84 253.082 -253.36 269.508 -262.58 279.537C-284.496 303.38 -299.335 337.69 -303.086 366.753C-307.165 398.335 -299.584 432.163 -293.135 463.571C-287.36 491.686 -281.077 518.989 -272.376 546.622C-266.238 566.118 -258.543 585.271 -250.47 604.365C-237.187 635.773 -222.732 662.502 -227.163 696.613C-229.363 713.525 -233.571 729.673 -235.309 746.819C-235.449 748.193 -235.335 749.869 -234.987 751.235L-193.661 751.235C-194.361 745.386 -192.343 739.693 -191.964 733.901C-188.509 681.321 -209.299 638.858 -233.068 591.446C-252.12 553.45 -265.802 514 -275.598 473.687C-283.458 441.336 -291.059 408.037 -289.736 374.81C-288.875 353.137 -282.047 330.922 -268.905 311.526C-267.104 308.866 -263.42 303.309 -261.148 301.195C-258.59 298.818 -251.03 293.188 -247.652 291.843C-244.503 290.589 -242.339 290.107 -238.951 291.321C-230.562 294.327 -225.207 307.449 -221.959 313.847C-213.076 331.34 -205.278 350.915 -190.875 366.263C-190.875 366.263 -187.59 369.639 -184.742 370.981C-181.546 372.485 -179.569 372.824 -178.292 372.334C-176.596 371.681 -175.319 369.042 -175.662 367.214C-178.972 349.403 -177.431 326.248 -176.373 307.541C-173.945 264.408 -158.135 219.863 -146.067 177.83C-145.008 174.135 -139.275 159.54 -137.838 156.379C-124.763 127.552 -113.083 105.193 -96.2777 80.2075C-86.6271 65.8553 -77.2826 51.965 -67.1391 37.8637C-65.1156 35.049 -63.1544 31.8322 -57.5092 26.4934L-57.53 26.4934ZM-91.8624 692.393C-114.495 669.39 -139.047 643.576 -137.303 613.036C-136.722 602.824 -131.113 586.306 -123.019 578.149C-118.609 573.702 -111.283 571.102 -104.195 573.531C-82.3052 581.023 -54.9877 607.435 -44.2839 623.968C-29.6627 646.546 -27.5093 669.326 -24.4741 694.033C-22.7878 707.752 -20.6293 721.666 -21.3402 735.525C-21.5737 740.071 -24.5985 742.583 -29.7819 739.239C-46.7327 728.315 -62.9001 716.435 -78.393 704.125L-91.8676 692.397L-91.8624 692.393ZM137.288 4.70048C124.446 16.4051 112.487 27.0469 104.429 41.399C91.3646 64.661 94.0055 89.4199 86.4095 113.267C80.8215 130.8 69.1318 145.312 69.3082 164.027C69.3549 169.266 71.3213 174.593 71.0204 179.868C70.5275 188.571 66.7347 197.158 57.8883 202.788C35.614 216.961 9.00219 205.204 -10.4651 193.978C-36.4388 179 -43.023 158.095 -37.7411 134.128C-31.8677 107.475 -19.2544 82.9266 -5.38034 58.2673C-2.72897 53.5575 -1.38 52.3512 1.5878 49.9028C11.4564 41.7533 21.6414 35.897 34.5815 30.5145C38.9243 28.707 43.6095 27.7714 46.4061 28.1496C46.733 28.1934 47.449 28.3965 47.5632 28.6353C48.2792 30.1601 47.5372 31.5256 46.1778 33.56C42.9195 38.4449 39.2149 44.7033 36.5428 49.7315C29.2892 63.383 27.2969 73.4275 27.4577 88.1858C27.5251 94.7069 27.769 110.516 38.6493 97.6211C54.5262 78.81 49.4622 55.0106 61.8056 35.264C66.2055 28.2253 81.6465 11.8387 90.3839 8.34324C106.354 1.94951 123.549 -2.34218 140.832 -6.08052C141.994 -6.33131 142.923 -7.25099 144.588 -7.48586C146.295 -7.72475 148.049 -7.54158 149.761 -7.5854C149.772 -7.25099 149.823 -6.90859 149.678 -6.58211C149.476 -6.12428 143.592 -1.50618 142.508 -0.514848C140.842 1.00993 139.083 3.06023 137.288 4.69652L137.288 4.70048Z" fill="#CEFFC7" stroke="black" stroke-width="2" mask="url(#path-1-inside-1_2087_8)"/>
</mask>
<g mask="url(#mask0_2087_8)">
<path d="M-103.453 -115.074C-103.453 -115.074 -320.912 356.7 -103.453 506.991C114.006 657.282 535.429 683.558 535.429 683.558L535.429 -115.074L-103.453 -115.074Z" fill="#CEFFC7"/>
</g>
</g>
<defs>
<clipPath id="clip0_2087_8">
<rect width="440" height="590" fill="white"/>
</clipPath>
</defs>
</svg>
