<svg width="800" height="1668" viewBox="0 0 800 1668" fill="none" xmlns="http://www.w3.org/2000/svg">
<g clip-path="url(#clip0_2034_99)">
<mask id="mask0_2034_99" style="mask-type:alpha" maskUnits="userSpaceOnUse" x="-588" y="0" width="1794" height="1670">
<mask id="mask1_2034_99" style="mask-type:alpha" maskUnits="userSpaceOnUse" x="-588" y="0" width="1794" height="2214">
<mask id="path-1-inside-1_2034_99" fill="white">
<path d="M-509.531 1113.75C-511.753 1108.29 -508.5 1104.22 -504.268 1111.86C-494.853 1128.91 -466.992 1163.59 -456.46 1178.83C-416.595 1236.56 -376.011 1291.64 -327.747 1340.46C-263.569 1405.39 -190.02 1455.57 -114.584 1501.8C-45.7278 1544 22.1487 1566.38 104.669 1568.65C123.928 1569.17 143.119 1568.54 161.953 1572.05C189.502 1577.19 242.972 1596.88 249.141 1633.29C252.996 1656.01 221.097 1670.44 207.126 1676.23C149.216 1700.2 75.3973 1707.29 16.377 1713.92C0.295477 1715.73 -43.974 1715.64 -54.5963 1736C-63.2756 1752.65 -53.2321 1770.4 -45.6098 1781.31C-32.2523 1800.42 -5.35807 1824.5 14.4918 1833.59C93.584 1869.85 170.671 1883.79 258.331 1892.39C358.952 1902.25 460.376 1893.59 564.168 1874.02C619.18 1863.65 666.729 1855.96 721.215 1860.2C771.212 1864.1 823.579 1871.09 873.102 1877C885.084 1878.43 896.677 1881.44 908.722 1882.54L940.034 1802.09C935.902 1799.45 931.114 1802.47 926.476 1802.51C908.9 1802.63 884.563 1799.63 869.431 1791.8C854.914 1784.28 856.342 1772.52 869.872 1758.48C888.798 1738.84 940.165 1710.01 962.802 1703.8C967.828 1702.42 973.86 1702.7 978.948 1702.11L1048.28 1523.97C1038.66 1526.48 1029.39 1531.67 1019.79 1534.88C945.658 1559.7 875.589 1530.65 805.369 1526.17C727.184 1521.18 648.693 1568.31 573.746 1607.45C551.864 1618.88 495.821 1643.05 479.589 1661.39C462.532 1680.65 477.709 1700.52 487.451 1713.52C505.272 1737.28 530.403 1756.72 547.073 1780.96C552.306 1788.58 554.67 1801.32 548.28 1811.41C546.377 1814.41 532.488 1824.47 529.098 1826.1C492.62 1843.66 452.195 1852.29 414.85 1858.01C314.485 1873.41 206.896 1865.11 114.256 1837.99C94.5625 1832.23 83.136 1828.82 64.805 1818.83C56.6425 1814.37 39.8949 1806.28 32.2377 1800.87C17.8274 1790.67 0.110036 1766.7 28.9944 1751.92C46.4649 1742.98 69.7779 1739.57 87.6902 1736.01C126.489 1728.32 165.188 1721.08 204.207 1711.92C234.775 1704.74 317.378 1687.31 340.418 1661.44C352.419 1647.96 340.077 1632.57 332.83 1624.68C301.482 1590.56 253.394 1557.72 213.756 1537.97C186.462 1524.37 151.466 1524.77 121.206 1526.14C44.355 1529.62 -25.4487 1520.43 -92.9469 1486.04C-176.879 1443.29 -252.72 1391.6 -321.924 1323.76C-374.996 1271.72 -419.748 1209.66 -462.987 1145.91C-466.63 1140.53 -473.45 1129.28 -470.303 1121.83C-467.156 1114.37 -458.065 1127.01 -453.822 1132.45C-449.515 1137.98 -444.843 1147.17 -440.412 1153.28C-334.116 1299.67 -227.324 1407.24 -62.8097 1463.44C-1.10403 1484.52 57.5598 1484.54 124.488 1475.65C133.901 1474.4 152.837 1470.61 162.18 1470.22C190.535 1469.02 222.513 1491.65 245.414 1506.47C312.118 1549.66 384.655 1613.18 468.547 1610.03C587.452 1605.57 700.01 1491.37 818.316 1492.76C854.831 1493.19 890.084 1503.21 926.528 1504.57C973.806 1506.33 1023.49 1496.28 1069.75 1468.8L1089.43 1418.23C1079.78 1423.96 1070.38 1430.65 1060.65 1436.17C997.89 1471.7 952.452 1471.49 890.543 1466.9C827.387 1462.23 790.51 1462.78 726.628 1491.97C686.83 1510.15 647.74 1533.04 607.673 1550.76C501.499 1597.73 430.29 1588 341.79 1533.18C302.981 1509.15 269.965 1474.5 234.241 1445.64C198.018 1416.37 152.653 1409.47 106.061 1422.79C15.7955 1448.59 -87.7046 1434.15 -164.526 1393.34C-267.952 1338.41 -355.393 1244.63 -426.749 1144.99C-431.034 1139 -437.259 1130.25 -441.358 1124.03C-451.006 1109.38 -449.126 1095.1 -433.938 1111.46C-430.973 1114.66 -419.789 1128.27 -416.979 1132.03C-385.474 1174.27 -354.601 1212.37 -317.486 1248.17C-258.547 1305.03 -197.032 1359.4 -119.832 1382.99C-75.3735 1396.58 0.0622377 1379.38 49.3211 1370.45C129.131 1356 180.489 1333.98 244.013 1393.17C279.982 1426.68 308.466 1469.89 347.69 1499.74C413.389 1549.73 492.635 1572.87 578.197 1546.13C666.674 1518.48 750.638 1444.55 840.026 1432.98C892.772 1426.15 941.857 1438.76 995.945 1423.37C1007.42 1420.11 1025.22 1409.51 1034.33 1407.51C1036.92 1406.95 1039.54 1408.48 1040.39 1408.18C1041.58 1407.76 1043.03 1403.1 1044.13 1402.19C1044.8 1401.63 1046.88 1402.12 1048.2 1401.45C1061.04 1395 1073.05 1385.78 1085.01 1377.44C1094.19 1371.03 1103.45 1364.65 1112.71 1358.44L1144.47 1276.84C1139.66 1279.78 1134.7 1284.24 1130.13 1288C1087.32 1323.34 1051.22 1355.77 1001.95 1374.13C954.792 1391.71 906.039 1387.65 859.314 1397.14C760.371 1417.25 673.3 1503.8 575.115 1527.46C465.47 1553.87 384.033 1504.4 318.559 1419.07C279.914 1368.7 248.376 1305.04 185.903 1291.66C141.97 1282.24 105.702 1288.58 60.1478 1302.84C3.91855 1320.46 -65.0526 1348.64 -120.217 1341.32C-165.816 1335.26 -205.784 1307.3 -241.447 1279.3C-296.487 1236.08 -348.332 1187.53 -393.662 1131.05C-400.01 1123.14 -412.159 1109.59 -416.756 1101.16C-417.627 1099.56 -422.051 1090.28 -422.662 1088.48C-425.362 1080.61 -423.672 1074.21 -420.376 1070.63C-416.068 1065.96 -402.446 1082.11 -398.281 1088.21C-353.671 1153.52 -294.711 1202.63 -231.665 1242.66C-209.974 1256.42 -177.657 1270.04 -151.749 1270.64C-129.694 1271.16 -98.6269 1264.9 -76.0012 1260.17C-44.2012 1253.54 -17.3522 1248.02 14.4873 1240.03C55.7578 1229.67 93.3438 1206.35 136.273 1201.79C165.425 1198.69 213.835 1204.07 234.814 1224.02C242.221 1231.08 256.089 1246.49 262.81 1254.46C302.244 1301.17 324.979 1364.59 361.835 1414.78C439.683 1520.77 542.209 1542.02 666.001 1474.44C723.771 1442.9 779.633 1398.52 838.333 1370.79C879.438 1351.38 922.068 1342.52 963.288 1327.32C988.403 1318.06 1013.53 1306.31 1037.47 1289.38C1064.49 1270.28 1087.57 1247.72 1112.94 1226.32C1134.32 1208.28 1156.51 1190.49 1181.14 1182.62C1181.14 1182.62 1210.38 1120.64 1205.3 1120.55C1200.21 1120.47 1194.99 1121.84 1189.86 1122.58C1116.2 1133.08 1071.21 1193.82 1007.57 1236.36C949.817 1274.96 888.886 1301.58 830.07 1339.71C790.865 1365.13 754.217 1395.44 715.51 1421.59C667.932 1453.73 618.611 1481.42 566.749 1488.02C510.537 1495.17 451.971 1472.57 417.264 1426.82C383.084 1381.76 351.467 1328.46 331.698 1271.51C320.797 1240.08 307.96 1166.07 289.324 1147.07C268.629 1125.97 230.525 1116.46 230.246 1075.78C230.157 1062.9 243.204 1041.86 250.808 1031.19C281.293 988.43 322.589 971.096 361.13 945.497C386.243 928.824 409.237 909.186 436.014 896.554C501.414 865.695 529.527 893.335 586.156 910.052C620.498 920.185 657.21 917.149 693.206 917.868C759.522 919.2 855.31 930.932 913.246 862.605C929.688 843.221 938.614 817.136 937.881 792.358C935.987 728.384 890.846 698.998 853.441 667.963C836.239 653.693 819.495 638.803 800.763 627.036C710.049 570.026 597.327 562.166 530.585 464.923C502.843 424.505 469.384 394.87 431.359 368.168C393.404 341.505 390.635 330.074 366.755 288.823C340.062 242.702 314.732 225.294 278.564 193.044C228.788 148.66 202.011 84.1863 154.879 39.7743C72.8209 -37.5355 -17.5806 16.3725 -117.398 48.3197L-198.053 72.0728L-215.721 117.465C-213.02 116.463 -210.532 114.751 -207.774 113.869C-121.745 86.4413 -2.45191 0.288609 79.7927 24.6399C150.869 45.6894 176.466 115.52 221.672 172.228C251.938 210.186 295.328 233.308 320.859 276.259C344.236 315.58 344.285 368.127 374.638 403.438C393.302 425.15 422.617 437.433 439.32 460.791C450.054 475.802 457.703 499.03 467.732 515.561C483.441 541.471 505.878 557.852 528.071 574.667C561.767 600.201 598.072 616.828 634.225 637.601C664.317 654.895 683.464 666.786 717.128 677.688C758.681 691.157 829.477 722.745 850.555 768.045C870.569 811.062 834.538 839.47 800.614 848.989C766.691 858.507 689.386 855.789 657.54 849.013C629.154 842.969 607.639 824.413 581.283 815.385C541.619 801.791 447.265 826.852 406.85 855.398C370.039 881.4 344.453 906.681 304.686 926.122C248.384 953.649 206.871 971.71 153.225 1012.82C132.828 1028.46 102.449 1059.43 78.3101 1056.3C32.6734 1050.39 36.5166 979.793 15.0733 945.49C-13.4363 899.892 -76.5627 918.75 -114.622 888.063C-122.549 881.67 -129.708 871.752 -137.244 864.909C-194.294 813.059 -276.341 819.228 -323.286 749.462C-338.139 727.389 -346.896 699.955 -356.72 673.999C-367.839 644.588 -379.199 613.805 -389.849 583.937L-391.954 570.293L-587.437 1072.53C-583.253 1077.17 -579.355 1082.5 -575.822 1087.87C-555.031 1119.49 -533.649 1150.29 -513.497 1181.78C-482.078 1230.88 -453.24 1282.54 -420.228 1329.78C-398.066 1361.49 -374.136 1391.71 -350.403 1421.77C-331.352 1445.91 -309.241 1467.81 -294.277 1495.73C-290.575 1502.63 -285.406 1515.77 -290.371 1524.86C-297.564 1538.04 -306.554 1539.05 -312.217 1557.53C-322.263 1590.29 -285.71 1648.87 -272.06 1671.9C-189.783 1810.73 -90.5476 1949.64 55.2174 1994.96C149.628 2024.32 247.903 2043.87 344.585 2065.03C407.414 2078.79 471.844 2089.02 530.95 2113.82C610.721 2147.29 695.774 2174.85 774.682 2210.07C776.619 2210.94 778.388 2211.89 779.907 2213.49L809.432 2137.64C802.28 2134.63 794.529 2133.34 787.357 2130.46C734.882 2109.37 688.223 2082.33 638.006 2057.67C586.373 2032.31 527.751 2033.73 470.601 2027.9C359.276 2016.55 248.558 1999.28 140.114 1975.05C50.3914 1955 -20.787 1931.33 -90.1598 1866.25C-142.385 1817.25 -176.621 1760.99 -213.452 1696.94C-223.126 1680.1 -244.315 1636.45 -230.289 1615.87C-226.457 1610.25 -216.71 1601.25 -211.672 1597.35C-197.71 1586.52 -178.878 1582.1 -188.164 1559.57C-198.476 1534.55 -235.362 1504.17 -253.687 1486.05C-308.362 1431.98 -358.902 1380.83 -405.952 1317.64C-447.256 1262.15 -483.767 1200.97 -522.694 1142.6C-532.392 1128.05 -545.386 1112.04 -553.774 1097.35C-555.17 1094.9 -560.462 1088.31 -555.19 1083.66C-550.19 1079.25 -537.723 1101.73 -528.254 1115.24C-488.919 1171.32 -451.856 1230.68 -411.676 1286.87C-368.951 1346.61 -320.247 1396.09 -267.361 1442.55C-224.529 1480.17 -181.642 1515.57 -138.321 1552.17C-117.891 1569.45 -89.5639 1587.47 -74.2732 1610.79C-72.3175 1613.77 -70.2068 1620.29 -72.139 1624.34C-75.0955 1630.55 -91.1777 1635.9 -96.6021 1637.26C-111.071 1640.88 -128.63 1642.73 -142.75 1647.96C-186.841 1664.28 -166.268 1711.43 -153.015 1738.44C-121.5 1802.64 -62.7771 1860.66 -5.97082 1891.66C55.7599 1925.36 131.45 1936.85 201.254 1948.74C263.74 1959.37 324.963 1968.31 388.803 1972.54C433.842 1975.53 479.424 1975.03 525.186 1973.71C600.462 1971.54 667.051 1963.2 733.702 1999.64C766.745 2017.71 796.606 2039.31 830.503 2056.62C833.217 2058.01 836.758 2059.12 839.847 2059.5L872.95 1974.45C860.353 1971.2 850.253 1962.49 838.636 1957.07C733.195 1907.84 629.151 1916.61 512.538 1927.55C419.08 1936.32 326.933 1932.88 236.12 1920.75C163.245 1911.01 88.6276 1899.98 21.3061 1870.64C-22.6083 1851.51 -62.8575 1819.66 -92.2478 1777.08C-96.2787 1771.24 -104.766 1759.21 -107.296 1752.84C-110.138 1745.67 -115.668 1725.61 -115.732 1717.58C-115.79 1710.09 -115.048 1705.25 -109.835 1699.25C-96.929 1684.39 -65.6348 1683.88 -49.8664 1682.32C-6.74973 1678.06 39.7834 1677.69 82.906 1660.34C82.906 1660.34 92.4847 1656.28 97.5276 1651.5C103.185 1646.12 105.465 1642.33 105.479 1639.31C105.495 1635.29 101.085 1630.55 97.05 1629.79C57.7415 1622.34 11.3236 1600.62 -26.3289 1583.46C-113.15 1543.91 -192.161 1475.69 -268.999 1417.18C-275.754 1412.05 -301.199 1388.56 -306.553 1383.07C-355.407 1333.07 -392.065 1291.12 -430.025 1236.52C-451.831 1205.16 -472.932 1174.8 -493.828 1142.63C-498 1136.21 -503.049 1129.6 -509.514 1113.71L-509.531 1113.75ZM833.396 1717.81C767.927 1745.96 695.134 1775.81 633.68 1747.76C613.13 1738.38 583.628 1713.61 573.324 1690.42C567.705 1677.78 568.223 1660.62 578.898 1647.98C611.853 1608.93 688.089 1573.87 730.69 1565.08C788.866 1553.08 837.473 1566.89 890.752 1580.44C920.337 1587.96 950.701 1594.66 978.653 1607.22C987.823 1611.35 990.57 1619.58 979.535 1627.57C943.475 1653.71 906.075 1677.46 868.331 1699.49L833.401 1717.82L833.396 1717.81ZM-398.327 695.356C-384.525 731.16 -372.204 764.297 -349.121 792.376C-311.713 837.897 -258.643 852.294 -215.65 887.029C-184.043 912.574 -163.542 948.255 -124.884 962.884C-114.064 966.985 -101.527 967.205 -90.9114 972.049C-73.3957 980.035 -58.7609 994.719 -54.2617 1017.43C-42.9358 1074.63 -88.4474 1119.98 -127.146 1151.05C-178.775 1192.51 -227.072 1189.31 -272.165 1159.24C-322.315 1125.81 -362.731 1080.18 -402.367 1031.88C-409.936 1022.65 -411.338 1018.91 -413.999 1010.84C-422.866 983.999 -426.76 958.347 -427.472 927.405C-427.713 917.02 -425.885 906.628 -422.867 901.175C-422.515 900.538 -421.523 899.227 -420.94 899.183C-417.229 898.931 -415.013 901.552 -411.915 905.979C-404.472 916.598 -394.559 929.235 -386.352 938.762C-364.067 964.625 -344.991 976.771 -314.49 988.262C-301.015 993.347 -268.284 1005.51 -286.107 972.787C-312.103 925.045 -365.139 916.402 -395.89 875.182C-406.851 860.489 -428.206 815.585 -428.401 794.803C-428.767 756.815 -423.826 717.99 -417.675 679.427C-417.261 676.834 -418.409 674.186 -417.559 670.57C-416.683 666.866 -414.901 663.403 -413.62 659.845C-412.923 660.091 -412.177 660.259 -411.621 660.819C-410.841 661.602 -406.05 677.41 -404.879 680.436C-403.075 685.085 -400.264 690.347 -398.335 695.353L-398.327 695.356Z"/>
</mask>
<path d="M-509.531 1113.75C-511.753 1108.29 -508.5 1104.22 -504.268 1111.86C-494.853 1128.91 -466.992 1163.59 -456.46 1178.83C-416.595 1236.56 -376.011 1291.64 -327.747 1340.46C-263.569 1405.39 -190.02 1455.57 -114.584 1501.8C-45.7278 1544 22.1487 1566.38 104.669 1568.65C123.928 1569.17 143.119 1568.54 161.953 1572.05C189.502 1577.19 242.972 1596.88 249.141 1633.29C252.996 1656.01 221.097 1670.44 207.126 1676.23C149.216 1700.2 75.3973 1707.29 16.377 1713.92C0.295477 1715.73 -43.974 1715.64 -54.5963 1736C-63.2756 1752.65 -53.2321 1770.4 -45.6098 1781.31C-32.2523 1800.42 -5.35807 1824.5 14.4918 1833.59C93.584 1869.85 170.671 1883.79 258.331 1892.39C358.952 1902.25 460.376 1893.59 564.168 1874.02C619.18 1863.65 666.729 1855.96 721.215 1860.2C771.212 1864.1 823.579 1871.09 873.102 1877C885.084 1878.43 896.677 1881.44 908.722 1882.54L940.034 1802.09C935.902 1799.45 931.114 1802.47 926.476 1802.51C908.9 1802.63 884.563 1799.63 869.431 1791.8C854.914 1784.28 856.342 1772.52 869.872 1758.48C888.798 1738.84 940.165 1710.01 962.802 1703.8C967.828 1702.42 973.86 1702.7 978.948 1702.11L1048.28 1523.97C1038.66 1526.48 1029.39 1531.67 1019.79 1534.88C945.658 1559.7 875.589 1530.65 805.369 1526.17C727.184 1521.18 648.693 1568.31 573.746 1607.45C551.864 1618.88 495.821 1643.05 479.589 1661.39C462.532 1680.65 477.709 1700.52 487.451 1713.52C505.272 1737.28 530.403 1756.72 547.073 1780.96C552.306 1788.58 554.67 1801.32 548.28 1811.41C546.377 1814.41 532.488 1824.47 529.098 1826.1C492.62 1843.66 452.195 1852.29 414.85 1858.01C314.485 1873.41 206.896 1865.11 114.256 1837.99C94.5625 1832.23 83.136 1828.82 64.805 1818.83C56.6425 1814.37 39.8949 1806.28 32.2377 1800.87C17.8274 1790.67 0.110036 1766.7 28.9944 1751.92C46.4649 1742.98 69.7779 1739.57 87.6902 1736.01C126.489 1728.32 165.188 1721.08 204.207 1711.92C234.775 1704.74 317.378 1687.31 340.418 1661.44C352.419 1647.96 340.077 1632.57 332.83 1624.68C301.482 1590.56 253.394 1557.72 213.756 1537.97C186.462 1524.37 151.466 1524.77 121.206 1526.14C44.355 1529.62 -25.4487 1520.43 -92.9469 1486.04C-176.879 1443.29 -252.72 1391.6 -321.924 1323.76C-374.996 1271.72 -419.748 1209.66 -462.987 1145.91C-466.63 1140.53 -473.45 1129.28 -470.303 1121.83C-467.156 1114.37 -458.065 1127.01 -453.822 1132.45C-449.515 1137.98 -444.843 1147.17 -440.412 1153.28C-334.116 1299.67 -227.324 1407.24 -62.8097 1463.44C-1.10403 1484.52 57.5598 1484.54 124.488 1475.65C133.901 1474.4 152.837 1470.61 162.18 1470.22C190.535 1469.02 222.513 1491.65 245.414 1506.47C312.118 1549.66 384.655 1613.18 468.547 1610.03C587.452 1605.57 700.01 1491.37 818.316 1492.76C854.831 1493.19 890.084 1503.21 926.528 1504.57C973.806 1506.33 1023.49 1496.28 1069.75 1468.8L1089.43 1418.23C1079.78 1423.96 1070.38 1430.65 1060.65 1436.17C997.89 1471.7 952.452 1471.49 890.543 1466.9C827.387 1462.23 790.51 1462.78 726.628 1491.97C686.83 1510.15 647.74 1533.04 607.673 1550.76C501.499 1597.73 430.29 1588 341.79 1533.18C302.981 1509.15 269.965 1474.5 234.241 1445.64C198.018 1416.37 152.653 1409.47 106.061 1422.79C15.7955 1448.59 -87.7046 1434.15 -164.526 1393.34C-267.952 1338.41 -355.393 1244.63 -426.749 1144.99C-431.034 1139 -437.259 1130.25 -441.358 1124.03C-451.006 1109.38 -449.126 1095.1 -433.938 1111.46C-430.973 1114.66 -419.789 1128.27 -416.979 1132.03C-385.474 1174.27 -354.601 1212.37 -317.486 1248.17C-258.547 1305.03 -197.032 1359.4 -119.832 1382.99C-75.3735 1396.58 0.0622377 1379.38 49.3211 1370.45C129.131 1356 180.489 1333.98 244.013 1393.17C279.982 1426.68 308.466 1469.89 347.69 1499.74C413.389 1549.73 492.635 1572.87 578.197 1546.13C666.674 1518.48 750.638 1444.55 840.026 1432.98C892.772 1426.15 941.857 1438.76 995.945 1423.37C1007.42 1420.11 1025.22 1409.51 1034.33 1407.51C1036.92 1406.95 1039.54 1408.48 1040.39 1408.18C1041.58 1407.76 1043.03 1403.1 1044.13 1402.19C1044.8 1401.63 1046.88 1402.12 1048.2 1401.45C1061.04 1395 1073.05 1385.78 1085.01 1377.44C1094.19 1371.03 1103.45 1364.65 1112.71 1358.44L1144.47 1276.84C1139.66 1279.78 1134.7 1284.24 1130.13 1288C1087.32 1323.34 1051.22 1355.77 1001.95 1374.13C954.792 1391.71 906.039 1387.65 859.314 1397.14C760.371 1417.25 673.3 1503.8 575.115 1527.46C465.47 1553.87 384.033 1504.4 318.559 1419.07C279.914 1368.7 248.376 1305.04 185.903 1291.66C141.97 1282.24 105.702 1288.58 60.1478 1302.84C3.91855 1320.46 -65.0526 1348.64 -120.217 1341.32C-165.816 1335.26 -205.784 1307.3 -241.447 1279.3C-296.487 1236.08 -348.332 1187.53 -393.662 1131.05C-400.01 1123.14 -412.159 1109.59 -416.756 1101.16C-417.627 1099.56 -422.051 1090.28 -422.662 1088.48C-425.362 1080.61 -423.672 1074.21 -420.376 1070.63C-416.068 1065.96 -402.446 1082.11 -398.281 1088.21C-353.671 1153.52 -294.711 1202.63 -231.665 1242.66C-209.974 1256.42 -177.657 1270.04 -151.749 1270.64C-129.694 1271.16 -98.6269 1264.9 -76.0012 1260.17C-44.2012 1253.54 -17.3522 1248.02 14.4873 1240.03C55.7578 1229.67 93.3438 1206.35 136.273 1201.79C165.425 1198.69 213.835 1204.07 234.814 1224.02C242.221 1231.08 256.089 1246.49 262.81 1254.46C302.244 1301.17 324.979 1364.59 361.835 1414.78C439.683 1520.77 542.209 1542.02 666.001 1474.44C723.771 1442.9 779.633 1398.52 838.333 1370.79C879.438 1351.38 922.068 1342.52 963.288 1327.32C988.403 1318.06 1013.53 1306.31 1037.47 1289.38C1064.49 1270.28 1087.57 1247.72 1112.94 1226.32C1134.32 1208.28 1156.51 1190.49 1181.14 1182.62C1181.14 1182.62 1210.38 1120.64 1205.3 1120.55C1200.21 1120.47 1194.99 1121.84 1189.86 1122.58C1116.2 1133.08 1071.21 1193.82 1007.57 1236.36C949.817 1274.96 888.886 1301.58 830.07 1339.71C790.865 1365.13 754.217 1395.44 715.51 1421.59C667.932 1453.73 618.611 1481.42 566.749 1488.02C510.537 1495.17 451.971 1472.57 417.264 1426.82C383.084 1381.76 351.467 1328.46 331.698 1271.51C320.797 1240.08 307.96 1166.07 289.324 1147.07C268.629 1125.97 230.525 1116.46 230.246 1075.78C230.157 1062.9 243.204 1041.86 250.808 1031.19C281.293 988.43 322.589 971.096 361.13 945.497C386.243 928.824 409.237 909.186 436.014 896.554C501.414 865.695 529.527 893.335 586.156 910.052C620.498 920.185 657.21 917.149 693.206 917.868C759.522 919.2 855.31 930.932 913.246 862.605C929.688 843.221 938.614 817.136 937.881 792.358C935.987 728.384 890.846 698.998 853.441 667.963C836.239 653.693 819.495 638.803 800.763 627.036C710.049 570.026 597.327 562.166 530.585 464.923C502.843 424.505 469.384 394.87 431.359 368.168C393.404 341.505 390.635 330.074 366.755 288.823C340.062 242.702 314.732 225.294 278.564 193.044C228.788 148.66 202.011 84.1863 154.879 39.7743C72.8209 -37.5355 -17.5806 16.3725 -117.398 48.3197L-198.053 72.0728L-215.721 117.465C-213.02 116.463 -210.532 114.751 -207.774 113.869C-121.745 86.4413 -2.45191 0.288609 79.7927 24.6399C150.869 45.6894 176.466 115.52 221.672 172.228C251.938 210.186 295.328 233.308 320.859 276.259C344.236 315.58 344.285 368.127 374.638 403.438C393.302 425.15 422.617 437.433 439.32 460.791C450.054 475.802 457.703 499.03 467.732 515.561C483.441 541.471 505.878 557.852 528.071 574.667C561.767 600.201 598.072 616.828 634.225 637.601C664.317 654.895 683.464 666.786 717.128 677.688C758.681 691.157 829.477 722.745 850.555 768.045C870.569 811.062 834.538 839.47 800.614 848.989C766.691 858.507 689.386 855.789 657.54 849.013C629.154 842.969 607.639 824.413 581.283 815.385C541.619 801.791 447.265 826.852 406.85 855.398C370.039 881.4 344.453 906.681 304.686 926.122C248.384 953.649 206.871 971.71 153.225 1012.82C132.828 1028.46 102.449 1059.43 78.3101 1056.3C32.6734 1050.39 36.5166 979.793 15.0733 945.49C-13.4363 899.892 -76.5627 918.75 -114.622 888.063C-122.549 881.67 -129.708 871.752 -137.244 864.909C-194.294 813.059 -276.341 819.228 -323.286 749.462C-338.139 727.389 -346.896 699.955 -356.72 673.999C-367.839 644.588 -379.199 613.805 -389.849 583.937L-391.954 570.293L-587.437 1072.53C-583.253 1077.17 -579.355 1082.5 -575.822 1087.87C-555.031 1119.49 -533.649 1150.29 -513.497 1181.78C-482.078 1230.88 -453.24 1282.54 -420.228 1329.78C-398.066 1361.49 -374.136 1391.71 -350.403 1421.77C-331.352 1445.91 -309.241 1467.81 -294.277 1495.73C-290.575 1502.63 -285.406 1515.77 -290.371 1524.86C-297.564 1538.04 -306.554 1539.05 -312.217 1557.53C-322.263 1590.29 -285.71 1648.87 -272.06 1671.9C-189.783 1810.73 -90.5476 1949.64 55.2174 1994.96C149.628 2024.32 247.903 2043.87 344.585 2065.03C407.414 2078.79 471.844 2089.02 530.95 2113.82C610.721 2147.29 695.774 2174.85 774.682 2210.07C776.619 2210.94 778.388 2211.89 779.907 2213.49L809.432 2137.64C802.28 2134.63 794.529 2133.34 787.357 2130.46C734.882 2109.37 688.223 2082.33 638.006 2057.67C586.373 2032.31 527.751 2033.73 470.601 2027.9C359.276 2016.55 248.558 1999.28 140.114 1975.05C50.3914 1955 -20.787 1931.33 -90.1598 1866.25C-142.385 1817.25 -176.621 1760.99 -213.452 1696.94C-223.126 1680.1 -244.315 1636.45 -230.289 1615.87C-226.457 1610.25 -216.71 1601.25 -211.672 1597.35C-197.71 1586.52 -178.878 1582.1 -188.164 1559.57C-198.476 1534.55 -235.362 1504.17 -253.687 1486.05C-308.362 1431.98 -358.902 1380.83 -405.952 1317.64C-447.256 1262.15 -483.767 1200.97 -522.694 1142.6C-532.392 1128.05 -545.386 1112.04 -553.774 1097.35C-555.17 1094.9 -560.462 1088.31 -555.19 1083.66C-550.19 1079.25 -537.723 1101.73 -528.254 1115.24C-488.919 1171.32 -451.856 1230.68 -411.676 1286.87C-368.951 1346.61 -320.247 1396.09 -267.361 1442.55C-224.529 1480.17 -181.642 1515.57 -138.321 1552.17C-117.891 1569.45 -89.5639 1587.47 -74.2732 1610.79C-72.3175 1613.77 -70.2068 1620.29 -72.139 1624.34C-75.0955 1630.55 -91.1777 1635.9 -96.6021 1637.26C-111.071 1640.88 -128.63 1642.73 -142.75 1647.96C-186.841 1664.28 -166.268 1711.43 -153.015 1738.44C-121.5 1802.64 -62.7771 1860.66 -5.97082 1891.66C55.7599 1925.36 131.45 1936.85 201.254 1948.74C263.74 1959.37 324.963 1968.31 388.803 1972.54C433.842 1975.53 479.424 1975.03 525.186 1973.71C600.462 1971.54 667.051 1963.2 733.702 1999.64C766.745 2017.71 796.606 2039.31 830.503 2056.62C833.217 2058.01 836.758 2059.12 839.847 2059.5L872.95 1974.45C860.353 1971.2 850.253 1962.49 838.636 1957.07C733.195 1907.84 629.151 1916.61 512.538 1927.55C419.08 1936.32 326.933 1932.88 236.12 1920.75C163.245 1911.01 88.6276 1899.98 21.3061 1870.64C-22.6083 1851.51 -62.8575 1819.66 -92.2478 1777.08C-96.2787 1771.24 -104.766 1759.21 -107.296 1752.84C-110.138 1745.67 -115.668 1725.61 -115.732 1717.58C-115.79 1710.09 -115.048 1705.25 -109.835 1699.25C-96.929 1684.39 -65.6348 1683.88 -49.8664 1682.32C-6.74973 1678.06 39.7834 1677.69 82.906 1660.34C82.906 1660.34 92.4847 1656.28 97.5276 1651.5C103.185 1646.12 105.465 1642.33 105.479 1639.31C105.495 1635.29 101.085 1630.55 97.05 1629.79C57.7415 1622.34 11.3236 1600.62 -26.3289 1583.46C-113.15 1543.91 -192.161 1475.69 -268.999 1417.18C-275.754 1412.05 -301.199 1388.56 -306.553 1383.07C-355.407 1333.07 -392.065 1291.12 -430.025 1236.52C-451.831 1205.16 -472.932 1174.8 -493.828 1142.63C-498 1136.21 -503.049 1129.6 -509.514 1113.71L-509.531 1113.75ZM833.396 1717.81C767.927 1745.96 695.134 1775.81 633.68 1747.76C613.13 1738.38 583.628 1713.61 573.324 1690.42C567.705 1677.78 568.223 1660.62 578.898 1647.98C611.853 1608.93 688.089 1573.87 730.69 1565.08C788.866 1553.08 837.473 1566.89 890.752 1580.44C920.337 1587.96 950.701 1594.66 978.653 1607.22C987.823 1611.35 990.57 1619.58 979.535 1627.57C943.475 1653.71 906.075 1677.46 868.331 1699.49L833.401 1717.82L833.396 1717.81ZM-398.327 695.356C-384.525 731.16 -372.204 764.297 -349.121 792.376C-311.713 837.897 -258.643 852.294 -215.65 887.029C-184.043 912.574 -163.542 948.255 -124.884 962.884C-114.064 966.985 -101.527 967.205 -90.9114 972.049C-73.3957 980.035 -58.7609 994.719 -54.2617 1017.43C-42.9358 1074.63 -88.4474 1119.98 -127.146 1151.05C-178.775 1192.51 -227.072 1189.31 -272.165 1159.24C-322.315 1125.81 -362.731 1080.18 -402.367 1031.88C-409.936 1022.65 -411.338 1018.91 -413.999 1010.84C-422.866 983.999 -426.76 958.347 -427.472 927.405C-427.713 917.02 -425.885 906.628 -422.867 901.175C-422.515 900.538 -421.523 899.227 -420.94 899.183C-417.229 898.931 -415.013 901.552 -411.915 905.979C-404.472 916.598 -394.559 929.235 -386.352 938.762C-364.067 964.625 -344.991 976.771 -314.49 988.262C-301.015 993.347 -268.284 1005.51 -286.107 972.787C-312.103 925.045 -365.139 916.402 -395.89 875.182C-406.851 860.489 -428.206 815.585 -428.401 794.803C-428.767 756.815 -423.826 717.99 -417.675 679.427C-417.261 676.834 -418.409 674.186 -417.559 670.57C-416.683 666.866 -414.901 663.403 -413.62 659.845C-412.923 660.091 -412.177 660.259 -411.621 660.819C-410.841 661.602 -406.05 677.41 -404.879 680.436C-403.075 685.085 -400.264 690.347 -398.335 695.353L-398.327 695.356Z" fill="#CEFFC7" stroke="black" stroke-width="2" mask="url(#path-1-inside-1_2034_99)"/>
</mask>
<g mask="url(#mask1_2034_99)">
<path d="M-837.666 1094.87C-837.666 1094.87 -40.9399 1920.3 442.551 1593.16C926.042 1266.01 1317.69 419.764 1317.69 419.764L-325.904 -219.962L-837.666 1094.87Z" fill="#CEFFC7"/>
</g>
</mask>
<g mask="url(#mask0_2034_99)">
<rect y="-0.00390625" width="800" height="1668" fill="#CEFFC7"/>
</g>
</g>
<defs>
<clipPath id="clip0_2034_99">
<rect width="800" height="1668" fill="white"/>
</clipPath>
</defs>
</svg>
