<svg width="210" height="34" viewBox="0 0 210 34" fill="none" xmlns="http://www.w3.org/2000/svg">
<path d="M7.06236 12.3674C7.84504 12.3674 8.52374 12.5699 9.09844 12.9749C9.67314 13.3799 10.111 13.9382 10.412 14.6497C10.7185 15.3558 10.8718 16.1494 10.8718 17.0306C10.8718 17.9283 10.7185 18.7329 10.412 19.4444C10.1055 20.1504 9.65945 20.7087 9.07381 21.1192C8.48816 21.5243 7.78757 21.7268 6.97205 21.7268C6.33167 21.7268 5.76244 21.5872 5.26437 21.3081C4.76629 21.0234 4.35579 20.6266 4.03287 20.1176V25.4213H3.08872V12.6137H3.95077V14.0915C4.27369 13.5441 4.69788 13.12 5.22332 12.8189C5.74876 12.5179 6.36177 12.3674 7.06236 12.3674ZM6.91458 20.8237C7.54948 20.8237 8.08587 20.6595 8.52374 20.3311C8.96708 20.0027 9.30095 19.5539 9.52536 18.9846C9.74976 18.4099 9.86197 17.7586 9.86197 17.0306C9.86197 16.3027 9.7525 15.6568 9.53357 15.0931C9.31463 14.5239 8.9835 14.0778 8.54016 13.7549C8.09682 13.4319 7.54948 13.2705 6.89816 13.2705C6.26325 13.2705 5.72413 13.4292 5.28079 13.7466C4.83745 14.0641 4.50357 14.5074 4.27917 15.0767C4.06023 15.6404 3.95077 16.2917 3.95077 17.0306C3.95077 17.7695 4.06023 18.4263 4.27917 19.001C4.50357 19.5703 4.83745 20.0164 5.28079 20.3393C5.72413 20.6622 6.26872 20.8237 6.91458 20.8237ZM16.3148 21.7268C15.4555 21.7268 14.7138 21.5297 14.0899 21.1356C13.4714 20.7416 12.9979 20.1915 12.6695 19.4854C12.3466 18.7739 12.1851 17.9556 12.1851 17.0306C12.1851 16.1057 12.3493 15.2929 12.6777 14.5923C13.0116 13.8862 13.4878 13.3389 14.1063 12.9503C14.7302 12.5617 15.4664 12.3674 16.3148 12.3674C17.1796 12.3674 17.9212 12.5644 18.5397 12.9585C19.1636 13.3471 19.6371 13.8944 19.96 14.6005C20.2829 15.3011 20.4444 16.1111 20.4444 17.0306C20.4444 17.9666 20.2802 18.7876 19.9518 19.4936C19.6289 20.1997 19.1554 20.7498 18.5315 21.1439C17.913 21.5325 17.1741 21.7268 16.3148 21.7268ZM16.3148 20.8072C16.9989 20.8072 17.5736 20.6513 18.0389 20.3393C18.5041 20.0218 18.8517 19.5812 19.0815 19.0175C19.3169 18.4537 19.4346 17.7914 19.4346 17.0306C19.4346 15.8648 19.1691 14.9508 18.6382 14.2885C18.1073 13.6208 17.3328 13.2869 16.3148 13.2869C15.6251 13.2869 15.0477 13.4429 14.5825 13.7549C14.1172 14.0668 13.7697 14.5047 13.5398 15.0685C13.3099 15.6267 13.195 16.2808 13.195 17.0306C13.195 17.7969 13.3126 18.4647 13.548 19.0339C13.7888 19.5976 14.1419 20.0355 14.6071 20.3475C15.0723 20.654 15.6415 20.8072 16.3148 20.8072ZM24.705 21.4805H23.8183L21.109 12.6137H22.0778L24.3027 19.8959L26.5276 12.6137H27.4389L29.6721 19.8959L31.9052 12.6137H32.8575L30.1482 21.4805H29.2616L26.9874 14.0997L24.705 21.4805ZM34.546 17.318C34.5898 18.4291 34.8798 19.2884 35.4162 19.8959C35.9581 20.5035 36.7052 20.8072 37.6576 20.8072C38.3363 20.8072 38.9328 20.6485 39.4473 20.3311C39.9618 20.0136 40.3696 19.5539 40.6706 18.9518L41.5245 19.3294C41.1687 20.0902 40.6542 20.6814 39.981 21.1028C39.3078 21.5188 38.5388 21.7268 37.674 21.7268C36.8311 21.7268 36.0977 21.5379 35.4737 21.1603C34.8497 20.7771 34.3681 20.2353 34.0287 19.5347C33.6949 18.8341 33.5279 18.0104 33.5279 17.0635C33.5279 16.1002 33.6949 15.2655 34.0287 14.5594C34.3626 13.8534 34.8388 13.3115 35.4573 12.9339C36.0812 12.5562 36.8147 12.3674 37.6576 12.3674C38.5169 12.3674 39.253 12.5644 39.8661 12.9585C40.4791 13.3471 40.9416 13.9136 41.2535 14.658C41.571 15.4023 41.7242 16.289 41.7133 17.318H34.546ZM37.674 13.2623C36.7599 13.2623 36.0347 13.5414 35.4983 14.0997C34.9619 14.6525 34.65 15.4406 34.5624 16.4642H40.6953C40.6022 15.4188 40.2984 14.6251 39.784 14.0833C39.2695 13.5359 38.5661 13.2623 37.674 13.2623ZM45.0154 13.2294C45.2617 12.9995 45.5627 12.8244 45.9185 12.704C46.2797 12.5836 46.6382 12.5234 46.994 12.5234C47.2403 12.5234 47.4702 12.5535 47.6836 12.6137V13.5086C47.4373 13.4538 47.2047 13.4265 46.9858 13.4265C46.3947 13.4265 45.8856 13.6071 45.4587 13.9683C45.1741 14.2146 44.9607 14.5074 44.8183 14.8468C44.676 15.1807 44.583 15.5255 44.5392 15.8812C44.5009 16.237 44.4817 16.6393 44.4817 17.0881V21.4805H43.5294V12.6137H44.3914V14.0094C44.572 13.6919 44.78 13.4319 45.0154 13.2294ZM49.603 17.318C49.6468 18.4291 49.9369 19.2884 50.4732 19.8959C51.0151 20.5035 51.7622 20.8072 52.7146 20.8072C53.3933 20.8072 53.9899 20.6485 54.5044 20.3311C55.0188 20.0136 55.4266 19.5539 55.7276 18.9518L56.5815 19.3294C56.2257 20.0902 55.7112 20.6814 55.038 21.1028C54.3648 21.5188 53.5958 21.7268 52.731 21.7268C51.8881 21.7268 51.1547 21.5379 50.5307 21.1603C49.9068 20.7771 49.4251 20.2353 49.0858 19.5347C48.7519 18.8341 48.5849 18.0104 48.5849 17.0635C48.5849 16.1002 48.7519 15.2655 49.0858 14.5594C49.4196 13.8534 49.8958 13.3115 50.5143 12.9339C51.1383 12.5562 51.8717 12.3674 52.7146 12.3674C53.5739 12.3674 54.31 12.5644 54.9231 12.9585C55.5361 13.3471 55.9986 13.9136 56.3106 14.658C56.628 15.4023 56.7813 16.289 56.7703 17.318H49.603ZM52.731 13.2623C51.8169 13.2623 51.0917 13.5414 50.5553 14.0997C50.019 14.6525 49.707 15.4406 49.6194 16.4642H55.7523C55.6592 15.4188 55.3555 14.6251 54.841 14.0833C54.3265 13.5359 53.6231 13.2623 52.731 13.2623ZM64.9327 9.65807H65.8769V21.4805H65.0148V19.978C64.6919 20.5308 64.2732 20.9605 63.7587 21.267C63.2497 21.5735 62.6613 21.7268 61.9935 21.7268C61.178 21.7268 60.4774 21.5243 59.8918 21.1192C59.3061 20.7087 58.8601 20.1504 58.5535 19.4444C58.247 18.7329 58.0938 17.9283 58.0938 17.0306C58.0938 16.1494 58.2443 15.3558 58.5453 14.6497C58.8518 13.9382 59.2924 13.3799 59.8671 12.9749C60.4418 12.5699 61.1205 12.3674 61.9032 12.3674C62.5764 12.3674 63.1676 12.5069 63.6766 12.7861C64.1856 13.0597 64.6043 13.4511 64.9327 13.9601V9.65807ZM62.051 20.8237C62.6969 20.8237 63.2415 20.6622 63.6848 20.3393C64.1281 20.0164 64.4593 19.5703 64.6782 19.001C64.9026 18.4263 65.0148 17.7695 65.0148 17.0306C65.0148 16.2917 64.9026 15.6404 64.6782 15.0767C64.4593 14.5074 64.1281 14.0641 63.6848 13.7466C63.2415 13.4292 62.7023 13.2705 62.0674 13.2705C61.4161 13.2705 60.8688 13.4319 60.4254 13.7549C59.9821 14.0778 59.651 14.5239 59.432 15.0931C59.2131 15.6568 59.1036 16.3027 59.1036 17.0306C59.1036 17.7586 59.2158 18.4099 59.4402 18.9846C59.6646 19.5539 59.9958 20.0027 60.4336 20.3311C60.877 20.6595 61.4161 20.8237 62.051 20.8237ZM75.4363 12.3674C76.2189 12.3674 76.8976 12.5699 77.4723 12.9749C78.047 13.3799 78.4849 13.9382 78.7859 14.6497C79.0924 15.3558 79.2457 16.1494 79.2457 17.0306C79.2457 17.9283 79.0924 18.7329 78.7859 19.4444C78.4794 20.1504 78.0334 20.7087 77.4477 21.1192C76.8621 21.5243 76.1615 21.7268 75.3459 21.7268C74.6782 21.7268 74.0871 21.5735 73.5726 21.267C73.0636 20.9605 72.6476 20.5308 72.3247 19.978V21.4805H71.4626V9.65807H72.4068V13.9601C72.7352 13.4511 73.1539 13.0597 73.6629 12.7861C74.1719 12.5069 74.763 12.3674 75.4363 12.3674ZM75.2885 20.8237C75.9234 20.8237 76.4598 20.6595 76.8976 20.3311C77.341 20.0027 77.6749 19.5539 77.8993 18.9846C78.1237 18.4099 78.2359 17.7586 78.2359 17.0306C78.2359 16.3027 78.1264 15.6568 77.9075 15.0931C77.6885 14.5239 77.3574 14.0778 76.9141 13.7549C76.4707 13.4319 75.9234 13.2705 75.2721 13.2705C74.6372 13.2705 74.098 13.4292 73.6547 13.7466C73.2113 14.0641 72.8775 14.5074 72.6531 15.0767C72.4341 15.6404 72.3247 16.2917 72.3247 17.0306C72.3247 17.7695 72.4341 18.4263 72.6531 19.001C72.8775 19.5703 73.2113 20.0164 73.6547 20.3393C74.098 20.6622 74.6426 20.8237 75.2885 20.8237ZM83.8851 20.2243L86.6683 12.6137H87.6617L82.9492 25.4213H81.964L83.4254 21.4805L79.8212 12.6137H80.831L83.8851 20.2243Z" fill="black"/>
<path d="M125.66 15.6055C124.311 22.2033 118.472 27.1659 111.476 27.1659C104.481 27.1659 98.6447 22.2033 97.2928 15.6055C97.1024 16.5486 97 17.5251 97 18.5235C97 26.5198 103.481 33.0003 111.476 33.0003C119.472 33.0003 125.953 26.5198 125.953 18.5235C125.953 17.5251 125.853 16.5486 125.66 15.6055Z" fill="black"/>
<path d="M104.823 3.78516C104.171 4.21351 103.557 4.71523 102.984 5.28763C98.4065 9.86584 98.4065 17.2885 102.984 21.8661C105.273 24.1552 108.272 25.2995 111.274 25.2995C114.275 25.2995 117.275 24.1552 119.563 21.8661C120.136 21.2943 120.635 20.6766 121.064 20.0262C119.115 21.3139 116.864 21.9577 114.614 21.9577C111.614 21.9577 108.613 20.814 106.324 18.5249C102.32 14.5197 101.82 8.33607 104.823 3.78516Z" fill="black"/>
<path d="M114.597 0C109.278 0.000609313 104.92 4.26466 104.83 9.60452C104.737 15.0022 109.034 19.4519 114.433 19.5423C114.491 19.5436 114.548 19.5448 114.607 19.5448C115.221 19.5448 115.823 19.4876 116.404 19.3787C107.939 9.30937 116.735 0.234468 116.735 0.234468C116.101 0.092861 115.443 0.0124303 114.769 0.00121859C114.711 0.000609313 114.654 0 114.597 0Z" fill="black"/>
<path d="M135.012 23.5067V7.72848H136.984V21.5344H139.548V23.5067H135.012ZM140.731 23.5067V7.72848H142.704V23.5067H140.731ZM144.676 23.5067V7.72848H148.818V9.3063H146.648V15.2231H148.423V16.8009H146.648V23.5067H144.676ZM149.409 9.50352V7.72848H155.326V9.50352H153.354V23.5067H151.382V9.50352H149.409ZM160.849 23.5067V7.72848H162.821V21.5344H165.385V23.5067H160.849ZM166.568 23.5067V7.72848H171.104V9.3063H168.54V14.4342H170.71V16.012H168.54V21.5344H171.104V23.5067H166.568ZM172.485 23.5067V15.2231C172.485 9.72047 172.485 7.55097 175.443 7.55097C178.402 7.55097 178.402 9.72047 178.402 15.2231V23.5067H176.429V18.9704H174.457V23.5067H172.485ZM174.457 17.3926H176.429V15.2231C176.429 10.0952 176.429 9.12879 175.443 9.12879C174.457 9.12879 174.457 10.0952 174.457 15.2231V17.3926ZM180.374 23.5067V7.72848H183.332C186.291 7.72848 186.291 9.89798 186.291 15.2034C186.291 21.3174 186.291 23.5067 183.332 23.5067H180.374ZM182.346 21.5344H183.332C184.437 21.5344 184.437 20.706 184.437 15.2034C184.437 10.2727 184.437 9.3063 183.332 9.3063H182.346V21.5344ZM188.066 23.5067V7.72848H192.602V9.3063H190.038V14.4342H192.208V16.012H190.038V21.5344H192.602V23.5067H188.066ZM193.983 23.5067V7.72848H197.178C199.209 7.72848 199.9 8.97101 199.9 11.3575C199.9 13.5072 199.643 14.7301 199.032 15.3217V15.4401C199.545 15.6176 199.702 16.5445 199.9 18.8521L200.294 23.5067H198.322L198.065 18.8521C197.927 16.5051 197.572 16.012 196.981 16.012H195.955V23.5067H193.983ZM195.955 14.4342H197.178C197.868 14.4342 198.065 13.7439 198.065 11.3575C198.065 9.79937 197.769 9.3063 197.178 9.3063H195.955V14.4342ZM201.477 18.6943H203.469C203.509 21.2386 203.706 21.7316 204.416 21.7316C205.382 21.7316 205.382 20.923 205.382 18.7732C205.382 15.6176 201.477 16.4657 201.477 12.2647C201.477 9.79937 201.477 7.53125 204.436 7.53125C206.625 7.53125 207.217 8.77378 207.355 11.7519H205.382C205.304 9.60214 205.067 9.10907 204.436 9.10907C203.469 9.10907 203.469 10.1741 203.469 12.2647C203.469 15.3217 207.394 14.237 207.394 18.7732C207.394 21.5344 207.394 23.7039 204.416 23.7039C202.128 23.7039 201.596 22.343 201.477 18.6943Z" fill="black"/>
</svg>
