<svg width="1254" height="664" viewBox="0 0 1254 664" fill="none" xmlns="http://www.w3.org/2000/svg">
<g clip-path="url(#clip0_2007_3)">
<mask id="mask0_2007_3" style="mask-type:alpha" maskUnits="userSpaceOnUse" x="-1037" y="-534" width="2492" height="1842">
<mask id="path-1-inside-1_2007_3" fill="white">
<path d="M-309.425 -178.159C-304.134 -182.671 -297.006 -182.662 -303.683 -175.578C-318.573 -159.801 -343.229 -121.72 -355.172 -106.162C-400.431 -47.2477 -441.962 10.7134 -470.794 70.5255C-509.14 150.061 -523.225 227.968 -531.217 305.01C-538.507 375.329 -522.019 434.148 -471.223 492.018C-459.363 505.522 -446.12 518.346 -438.212 533.189C-426.657 554.905 -416.206 602.366 -457.075 626.503C-482.577 641.569 -521.071 627.563 -537.277 621.139C-604.43 594.502 -661.099 547.714 -707.605 510.837C-720.274 500.788 -748.911 470.358 -780.9 474.196C-807.058 477.342 -822.418 493.94 -830.914 505.135C-845.787 524.745 -857.999 556.365 -856.313 574.957C-849.636 649.055 -816.765 709.581 -770.431 774.439C-717.246 848.884 -640.709 913.756 -549.192 974.29C-500.684 1006.37 -460.338 1034.81 -430.181 1074.52C-402.512 1110.96 -377.124 1150.72 -352.249 1187.94C-346.23 1196.94 -342.414 1206.54 -335.945 1215.41L-216.462 1192.92C-215.891 1188.64 -222.719 1187.01 -225.779 1183.84C-237.338 1171.85 -249.454 1153.51 -249.627 1138.84C-249.787 1124.77 -234.361 1119.32 -208.273 1120.93C-171.783 1123.19 -102.891 1142.68 -80.5317 1154.82C-75.5721 1157.51 -72.0028 1161.81 -67.9722 1164.98L196.607 1115.18C187.26 1109.95 174.853 1106.42 164.662 1101.59C85.936 1064.28 76.229 1000.32 36.158 949.673C-8.4618 893.288 -117.523 865.186 -214.436 835.149C-242.728 826.377 -308.914 801.129 -342.051 800.012C-376.875 798.839 -391.5 820.112 -401.197 833.905C-418.904 859.121 -426.551 886.998 -445.605 911.69C-451.597 919.446 -465.759 928.031 -482.346 929.162C-487.275 929.494 -508.696 925.463 -512.908 924.029C-558.241 908.594 -595.12 885.565 -626.43 863.067C-710.577 802.602 -770.218 724.231 -796.954 645.83C-802.644 629.166 -805.856 619.458 -805.451 601.418C-805.259 593.381 -806.161 577.463 -804.46 569.248C-801.253 553.786 -783.21 528.521 -746.243 540.268C-723.882 547.371 -704.53 561.502 -688.518 571.853C-653.84 594.273 -619.784 616.873 -583.158 638.645C-554.468 655.702 -479.336 702.859 -432.495 704.532C-408.091 705.4 -397.138 688.518 -392.109 679.227C-370.423 639.066 -361.171 588.111 -362.578 550.114C-363.541 523.949 -386.755 500.149 -408.089 480.129C-462.287 429.291 -496.286 376.361 -497.738 311.241C-499.553 230.271 -485.099 149.968 -446.423 65.3897C-416.755 0.523184 -369.325 -64.1164 -318.834 -128.638C-314.572 -134.078 -305.137 -144.908 -293.904 -146.823C-282.671 -148.739 -292.343 -135.591 -296.29 -129.707C-300.318 -123.724 -308.602 -115.499 -313.26 -109.115C-424.655 43.8559 -487.881 175.946 -450.314 319.57C-436.222 373.44 -398.158 413.713 -343.734 454.783C-336.075 460.557 -319.117 471.485 -312.561 477.681C-292.672 496.485 -299.793 530.8 -303.197 554.622C-313.109 624.008 -344.294 708.512 -285.931 764.363C-203.214 843.525 10.6282 858.345 85.7415 940.296C108.925 965.59 119.468 995.261 141.457 1021.02C169.983 1054.43 214.63 1083.03 278.55 1099.75L353.66 1085.62C340.322 1082.13 325.968 1079.33 312.845 1075.67C228.305 1052.02 199.062 1020.72 164.508 975.732C129.257 929.833 104.634 904.826 27.1771 876.939C-21.0826 859.569 -74.6776 845.254 -122.528 827.44C-249.365 780.25 -283.617 726.063 -273.523 635.361C-269.107 595.59 -247.841 553.99 -235.475 513.7C-222.921 472.84 -243.879 437.935 -290.548 413.24C-380.967 365.398 -430.383 286.475 -429.976 211.448C-429.431 110.438 -370.634 -0.834022 -294.167 -104.272C-289.575 -110.483 -282.826 -119.541 -277.824 -125.753C-266.035 -140.382 -247.213 -146.899 -257.516 -127.531C-259.529 -123.75 -269.042 -108.634 -271.854 -104.649C-303.454 -59.9381 -330.357 -17.9261 -350.382 27.1165C-382.191 98.6485 -409.245 170.582 -388.19 236.46C-376.07 274.4 -305.881 316.767 -262.896 345.694C-193.254 392.565 -132.759 415.772 -164.457 491.722C-182.403 534.726 -217.168 577.897 -228.485 621.133C-247.433 693.548 -224.486 760.579 -135.97 804.684C-44.4302 850.286 101.202 867.501 173.515 922.519C216.182 954.984 232.512 995.565 286.606 1024.27C298.086 1030.36 322.7 1036.78 331.08 1041.94C333.46 1043.42 333.268 1046.05 334.184 1046.47C335.477 1047.06 342.165 1045.51 344.002 1045.76C345.131 1045.91 345.879 1047.61 347.557 1048.15C363.844 1053.43 383.006 1056.64 401.053 1060.28C414.916 1063.08 428.792 1065.95 442.457 1068.91L563.653 1046.11C556.911 1044.41 548.189 1043.44 540.579 1042.36C469.229 1032.3 405.822 1025.25 351.196 1001.47C298.9 978.723 272.246 943.045 230.206 916.167C141.178 859.253 -22.0448 846.813 -114.96 792.362C-218.714 731.552 -210.62 648.618 -147.974 557.042C-110.994 502.988 -53.0165 446.547 -77.0888 396.355C-94.0144 361.058 -125.37 339.629 -172.53 316.163C-230.761 287.206 -310.278 255.275 -337.08 213.416C-359.229 178.812 -350.72 136.097 -339.374 96.3188C-321.845 34.9191 -295.681 -27.1979 -255.501 -89.1839C-249.88 -97.8619 -241.061 -113.61 -233.658 -121.373C-232.26 -122.841 -223.691 -130.952 -221.87 -132.355C-213.918 -138.513 -204.933 -140.852 -198.388 -140.543C-189.837 -140.138 -200.892 -121.963 -205.701 -115.772C-257.232 -49.4531 -279.461 17.8503 -287.857 83.0004C-290.739 105.411 -286.528 135.031 -270.449 153.141C-256.765 168.56 -228.884 186.463 -208.361 199.405C-179.537 217.603 -155.296 233.011 -124.768 250.492C-85.1994 273.152 -32.0566 286.202 1.44397 313.17C24.1964 331.481 49.004 367.644 38.031 392.951C34.1506 401.889 24.1531 419.834 18.7016 428.801C-13.2652 481.4 -76.661 531.668 -114.581 584.395C-194.661 695.759 -154.276 777.74 9.40389 825.753C85.7929 848.158 176.77 862.234 249.058 887.363C299.677 904.961 338.279 929.375 383.779 949.355C411.499 961.529 442.298 972.354 478.714 979.528C519.803 987.622 562.59 991.134 605.446 996.844C641.564 1001.66 677.895 1007.16 703.593 1019.76C703.593 1019.76 798.965 1005.95 795.767 1002.41C792.57 998.874 787.488 996.047 783.252 992.924C722.473 948.115 618.399 950.44 524.649 930.021C439.564 911.488 367.184 884.224 281.995 864.704C225.214 851.69 164.062 843.108 106.698 830.837C36.1905 815.754 -29.9757 797.047 -71.7809 765.059C-117.097 730.392 -127.277 677.845 -93.4322 629.019C-60.089 580.929 -14.9299 530.096 42.4226 485.397C74.0786 460.736 156.96 411.469 168.27 388.295C180.837 362.558 167.81 331.211 217.771 308.781C233.591 301.677 267.992 299.131 286.073 298.52C358.575 296.065 406.756 314.93 463.334 327.387C500.191 335.508 539.326 340.553 572.283 352.024C652.786 380.039 636.977 414.441 653.147 462.443C662.959 491.549 690.541 515.085 713.03 540.181C754.454 586.421 802.197 658.572 924.031 660.983C958.598 661.67 996.543 653.537 1026.61 639.489C1104.22 603.219 1111.12 556.176 1125.08 513.541C1131.5 493.935 1138.98 474.305 1141.32 455.017C1152.67 361.598 1089.16 279.943 1165.67 180.983C1197.47 139.85 1212.26 100.688 1220.48 59.996C1228.69 19.3731 1240.98 11.2249 1276.32 -27.7132C1315.83 -71.2433 1320.83 -98.1429 1337.09 -140.593C1359.47 -199.015 1421.54 -252.635 1445.67 -309.258C1487.67 -407.833 1362.52 -440.406 1258.33 -491.445L1176.68 -533.814L1109.26 -521.126C1112.25 -519.819 1115.98 -519.048 1118.85 -517.637C1208.52 -473.59 1392.17 -438.815 1415.57 -369.061C1435.78 -308.777 1366.34 -253.038 1325.8 -191.016C1298.68 -149.496 1298.35 -107.078 1262 -66.0788C1228.72 -28.5412 1163.99 0.21596 1140.18 40.349C1125.54 65.0263 1129.44 91.8595 1111.49 116.091C1099.96 131.662 1076.3 149.609 1062.44 165.528C1040.71 190.472 1035.09 214.825 1028.78 239.247C1019.19 276.33 1022.27 310.334 1020.15 346.5C1018.38 376.606 1016.15 396.246 1024.58 425.309C1034.96 461.188 1042.01 527.041 999.862 566.269C959.842 603.518 901.432 594.32 867.671 576.242C833.91 558.164 787.06 503.625 774.732 478.066C763.748 455.281 772.644 430.373 766.657 407.35C757.654 372.698 665.495 321.644 604.068 309.513C548.117 298.464 500.344 294.724 450.559 278.059C380.072 254.468 330.854 235.851 245.345 221.509C212.834 216.056 154.928 212.14 143.119 193.859C120.767 159.309 210.267 123.358 238.619 89.891C276.304 45.3998 212.068 12.3858 225.175 -30.508C227.906 -39.4431 235.481 -49.7779 239.021 -58.6898C265.877 -126.185 204.993 -179.121 260.493 -249.474C278.052 -271.734 306.177 -292.74 331.787 -313.67C360.815 -337.378 391.377 -362.001 421.273 -385.637L436.721 -394.539L-309.217 -254.155C-312.22 -248.746 -316.257 -243.158 -320.582 -237.798C-346.044 -206.248 -370.118 -174.738 -395.84 -143.696C-435.955 -95.2914 -480.904 -47.2593 -517.688 1.21958C-542.372 33.7598 -564.073 66.6998 -585.717 99.4231C-603.094 125.691 -615.724 152.836 -640.417 178.367C-646.517 184.68 -659.354 195.41 -673.79 196.975C-694.696 199.239 -701.782 193.624 -728.232 199.837C-775.141 210.855 -823.6 267.961 -843.12 289.918C-960.788 422.269 -1067.55 566.305 -1028.75 691.116C-1003.62 771.956 -963.899 850.086 -927.203 928.009C-903.359 978.647 -874.12 1028.45 -866.304 1082.57C-855.754 1155.62 -834.488 1229.05 -826.661 1302.46C-826.468 1304.26 -826.501 1306 -827.486 1307.92L-714.822 1286.71C-715.763 1280.16 -719.2 1274.13 -720.311 1267.64C-728.396 1220.1 -725.372 1173.3 -727.589 1125.35C-729.864 1076.06 -769.679 1036.6 -799.607 994.194C-857.912 911.589 -908.521 826.163 -949.077 738.494C-982.637 665.962 -999.685 604.174 -964.524 520.989C-938.046 458.363 -890.937 404.112 -835.919 343.826C-821.452 327.984 -781.404 289.577 -746.943 287.958C-737.518 287.512 -720.104 289.284 -712.021 290.608C-689.603 294.268 -671.936 304.78 -650.189 286.088C-626.056 265.337 -612.569 223.416 -602.13 200.933C-570.992 133.852 -540.773 71.2088 -493.444 4.37619C-451.884 -54.2998 -400.19 -112.8 -353.529 -171.422C-341.9 -186.029 -330.602 -203.7 -317.947 -217.485C-315.835 -219.782 -311.142 -227.019 -301.988 -225.943C-293.305 -224.922 -312.921 -204.076 -323.422 -190.193C-366.998 -132.541 -416.083 -74.6607 -459.243 -16.3701C-505.124 45.6056 -534.487 106.082 -557.397 167.77C-575.952 217.731 -591.724 266.511 -608.711 316.253C-616.732 339.715 -620.548 369.007 -639.366 392.251C-641.762 395.219 -648.435 400.235 -654.673 401.12C-664.252 402.487 -681.286 394.374 -686.48 391.392C-700.346 383.445 -714.024 372.404 -729.634 365.57C-778.38 344.233 -823.14 384.129 -847.82 407.988C-906.483 464.711 -939.859 536.729 -941.177 592.659C-942.614 653.441 -907.631 711.671 -876.95 766.072C-849.481 814.77 -820.742 861.672 -784.496 907.795C-758.927 940.337 -728.72 971.349 -697.375 1002.03C-645.808 1052.5 -592.29 1093.64 -593.923 1159.31C-594.741 1191.86 -601.964 1224.16 -601.29 1256.89C-601.238 1259.51 -600.304 1262.54 -598.765 1264.87L-472.446 1241.1C-476.629 1230.68 -472.448 1218.99 -473.313 1208.05C-481.111 1108.78 -559.487 1042.17 -648.694 968.119C-720.198 908.776 -775.794 843.656 -819.814 774.701C-855.137 719.366 -889.999 662.128 -897.557 599.889C-902.493 559.292 -889.38 514.261 -855.982 470.813C-851.407 464.857 -842.088 452.455 -835.88 447.236C-828.891 441.367 -807.75 426.603 -797.895 422.17C-788.707 418.038 -782.262 415.902 -771.482 416.2C-744.788 416.935 -723.839 438.133 -711.677 448.102C-678.417 475.359 -647.745 507.093 -598.361 527.204C-598.361 527.204 -587.143 531.561 -577.968 532.405C-567.673 533.351 -561.512 532.84 -557.782 531.199C-552.824 529.015 -549.844 523.397 -551.529 520.213C-567.867 489.161 -571.242 445.433 -574.54 410.211C-582.179 329.009 -549.411 237.495 -527.2 152.781C-525.255 145.336 -512.827 115.034 -509.538 108.359C-479.639 47.4991 -451.748 -0.587667 -409.105 -56.485C-384.618 -88.5914 -360.906 -119.667 -334.826 -151.593C-329.623 -157.965 -324.752 -165.045 -309.362 -178.17L-309.425 -178.159ZM-181.835 1073.67C-259.046 1044.12 -343.106 1010.49 -348.441 952.977C-350.231 933.749 -338.855 899.96 -316.964 880.211C-305.036 869.446 -283.551 860.421 -261.039 860.838C-191.513 862.108 -98.7912 895.261 -60.3001 919.695C-7.72486 953.058 6.81183 993.968 24.7172 1037.94C34.6621 1062.35 46.1183 1086.85 48.785 1112.9C49.6589 1121.45 41.2904 1127.84 24.2792 1124.63C-31.3476 1114.17 -84.9136 1101.49 -136.568 1087.63L-181.85 1073.68L-181.835 1073.67ZM278.447 -330.55C243.283 -301.506 210.443 -274.937 190.826 -243.747C159.015 -193.191 175.733 -148.9 160.843 -100.407C149.885 -64.7521 119.221 -31.1781 126.296 3.34869C128.268 13.0157 136.139 21.7403 137.061 31.6736C138.594 48.0595 129.999 66.1301 104.925 81.6347C41.7905 120.671 -43.6568 114.228 -107.081 104.654C-191.702 91.8836 -219.128 56.9914 -211.352 9.60884C-202.707 -43.0861 -172.725 -95.7614 -138.929 -149.368C-132.469 -159.608 -128.767 -162.616 -120.551 -168.853C-93.2321 -189.608 -64.1455 -206.303 -26.4722 -223.706C-13.8291 -229.548 0.165084 -233.974 8.84528 -234.883C9.8597 -234.99 12.1193 -235.027 12.5516 -234.65C15.2726 -232.241 13.4815 -229.288 10.0368 -224.741C1.78297 -213.829 -7.35508 -200.118 -13.7667 -189.278C-31.1709 -159.847 -33.7533 -140.116 -28.1082 -112.902C-25.6248 -100.875 -19.3588 -71.7643 9.39505 -101.882C51.3555 -145.82 27.5662 -186.942 58.3998 -230.579C69.3905 -246.133 110.865 -285.334 136.352 -296.828C182.934 -317.845 233.993 -335.677 285.514 -352.536C288.979 -353.668 291.497 -355.904 296.506 -357.297C301.64 -358.721 307.064 -359.391 312.283 -360.457C312.431 -359.844 312.709 -359.24 312.379 -358.553C311.92 -357.589 295.549 -345.66 292.58 -343.202C288.022 -339.423 283.362 -334.617 278.446 -330.557L278.447 -330.55Z"/>
</mask>
<path d="M-309.425 -178.159C-304.134 -182.671 -297.006 -182.662 -303.683 -175.578C-318.573 -159.801 -343.229 -121.72 -355.172 -106.162C-400.431 -47.2477 -441.962 10.7134 -470.794 70.5255C-509.14 150.061 -523.225 227.968 -531.217 305.01C-538.507 375.329 -522.019 434.148 -471.223 492.018C-459.363 505.522 -446.12 518.346 -438.212 533.189C-426.657 554.905 -416.206 602.366 -457.075 626.503C-482.577 641.569 -521.071 627.563 -537.277 621.139C-604.43 594.502 -661.099 547.714 -707.605 510.837C-720.274 500.788 -748.911 470.358 -780.9 474.196C-807.058 477.342 -822.418 493.94 -830.914 505.135C-845.787 524.745 -857.999 556.365 -856.313 574.957C-849.636 649.055 -816.765 709.581 -770.431 774.439C-717.246 848.884 -640.709 913.756 -549.192 974.29C-500.684 1006.37 -460.338 1034.81 -430.181 1074.52C-402.512 1110.96 -377.124 1150.72 -352.249 1187.94C-346.23 1196.94 -342.414 1206.54 -335.945 1215.41L-216.462 1192.92C-215.891 1188.64 -222.719 1187.01 -225.779 1183.84C-237.338 1171.85 -249.454 1153.51 -249.627 1138.84C-249.787 1124.77 -234.361 1119.32 -208.273 1120.93C-171.783 1123.19 -102.891 1142.68 -80.5317 1154.82C-75.5721 1157.51 -72.0028 1161.81 -67.9722 1164.98L196.607 1115.18C187.26 1109.95 174.853 1106.42 164.662 1101.59C85.936 1064.28 76.229 1000.32 36.158 949.673C-8.4618 893.288 -117.523 865.186 -214.436 835.149C-242.728 826.377 -308.914 801.129 -342.051 800.012C-376.875 798.839 -391.5 820.112 -401.197 833.905C-418.904 859.121 -426.551 886.998 -445.605 911.69C-451.597 919.446 -465.759 928.031 -482.346 929.162C-487.275 929.494 -508.696 925.463 -512.908 924.029C-558.241 908.594 -595.12 885.565 -626.43 863.067C-710.577 802.602 -770.218 724.231 -796.954 645.83C-802.644 629.166 -805.856 619.458 -805.451 601.418C-805.259 593.381 -806.161 577.463 -804.46 569.248C-801.253 553.786 -783.21 528.521 -746.243 540.268C-723.882 547.371 -704.53 561.502 -688.518 571.853C-653.84 594.273 -619.784 616.873 -583.158 638.645C-554.468 655.702 -479.336 702.859 -432.495 704.532C-408.091 705.4 -397.138 688.518 -392.109 679.227C-370.423 639.066 -361.171 588.111 -362.578 550.114C-363.541 523.949 -386.755 500.149 -408.089 480.129C-462.287 429.291 -496.286 376.361 -497.738 311.241C-499.553 230.271 -485.099 149.968 -446.423 65.3897C-416.755 0.523184 -369.325 -64.1164 -318.834 -128.638C-314.572 -134.078 -305.137 -144.908 -293.904 -146.823C-282.671 -148.739 -292.343 -135.591 -296.29 -129.707C-300.318 -123.724 -308.602 -115.499 -313.26 -109.115C-424.655 43.8559 -487.881 175.946 -450.314 319.57C-436.222 373.44 -398.158 413.713 -343.734 454.783C-336.075 460.557 -319.117 471.485 -312.561 477.681C-292.672 496.485 -299.793 530.8 -303.197 554.622C-313.109 624.008 -344.294 708.512 -285.931 764.363C-203.214 843.525 10.6282 858.345 85.7415 940.296C108.925 965.59 119.468 995.261 141.457 1021.02C169.983 1054.43 214.63 1083.03 278.55 1099.75L353.66 1085.62C340.322 1082.13 325.968 1079.33 312.845 1075.67C228.305 1052.02 199.062 1020.72 164.508 975.732C129.257 929.833 104.634 904.826 27.1771 876.939C-21.0826 859.569 -74.6776 845.254 -122.528 827.44C-249.365 780.25 -283.617 726.063 -273.523 635.361C-269.107 595.59 -247.841 553.99 -235.475 513.7C-222.921 472.84 -243.879 437.935 -290.548 413.24C-380.967 365.398 -430.383 286.475 -429.976 211.448C-429.431 110.438 -370.634 -0.834022 -294.167 -104.272C-289.575 -110.483 -282.826 -119.541 -277.824 -125.753C-266.035 -140.382 -247.213 -146.899 -257.516 -127.531C-259.529 -123.75 -269.042 -108.634 -271.854 -104.649C-303.454 -59.9381 -330.357 -17.9261 -350.382 27.1165C-382.191 98.6485 -409.245 170.582 -388.19 236.46C-376.07 274.4 -305.881 316.767 -262.896 345.694C-193.254 392.565 -132.759 415.772 -164.457 491.722C-182.403 534.726 -217.168 577.897 -228.485 621.133C-247.433 693.548 -224.486 760.579 -135.97 804.684C-44.4302 850.286 101.202 867.501 173.515 922.519C216.182 954.984 232.512 995.565 286.606 1024.27C298.086 1030.36 322.7 1036.78 331.08 1041.94C333.46 1043.42 333.268 1046.05 334.184 1046.47C335.477 1047.06 342.165 1045.51 344.002 1045.76C345.131 1045.91 345.879 1047.61 347.557 1048.15C363.844 1053.43 383.006 1056.64 401.053 1060.28C414.916 1063.08 428.792 1065.95 442.457 1068.91L563.653 1046.11C556.911 1044.41 548.189 1043.44 540.579 1042.36C469.229 1032.3 405.822 1025.25 351.196 1001.47C298.9 978.723 272.246 943.045 230.206 916.167C141.178 859.253 -22.0448 846.813 -114.96 792.362C-218.714 731.552 -210.62 648.618 -147.974 557.042C-110.994 502.988 -53.0165 446.547 -77.0888 396.355C-94.0144 361.058 -125.37 339.629 -172.53 316.163C-230.761 287.206 -310.278 255.275 -337.08 213.416C-359.229 178.812 -350.72 136.097 -339.374 96.3188C-321.845 34.9191 -295.681 -27.1979 -255.501 -89.1839C-249.88 -97.8619 -241.061 -113.61 -233.658 -121.373C-232.26 -122.841 -223.691 -130.952 -221.87 -132.355C-213.918 -138.513 -204.933 -140.852 -198.388 -140.543C-189.837 -140.138 -200.892 -121.963 -205.701 -115.772C-257.232 -49.4531 -279.461 17.8503 -287.857 83.0004C-290.739 105.411 -286.528 135.031 -270.449 153.141C-256.765 168.56 -228.884 186.463 -208.361 199.405C-179.537 217.603 -155.296 233.011 -124.768 250.492C-85.1994 273.152 -32.0566 286.202 1.44397 313.17C24.1964 331.481 49.004 367.644 38.031 392.951C34.1506 401.889 24.1531 419.834 18.7016 428.801C-13.2652 481.4 -76.661 531.668 -114.581 584.395C-194.661 695.759 -154.276 777.74 9.40389 825.753C85.7929 848.158 176.77 862.234 249.058 887.363C299.677 904.961 338.279 929.375 383.779 949.355C411.499 961.529 442.298 972.354 478.714 979.528C519.803 987.622 562.59 991.134 605.446 996.844C641.564 1001.66 677.895 1007.16 703.593 1019.76C703.593 1019.76 798.965 1005.95 795.767 1002.41C792.57 998.874 787.488 996.047 783.252 992.924C722.473 948.115 618.399 950.44 524.649 930.021C439.564 911.488 367.184 884.224 281.995 864.704C225.214 851.69 164.062 843.108 106.698 830.837C36.1905 815.754 -29.9757 797.047 -71.7809 765.059C-117.097 730.392 -127.277 677.845 -93.4322 629.019C-60.089 580.929 -14.9299 530.096 42.4226 485.397C74.0786 460.736 156.96 411.469 168.27 388.295C180.837 362.558 167.81 331.211 217.771 308.781C233.591 301.677 267.992 299.131 286.073 298.52C358.575 296.065 406.756 314.93 463.334 327.387C500.191 335.508 539.326 340.553 572.283 352.024C652.786 380.039 636.977 414.441 653.147 462.443C662.959 491.549 690.541 515.085 713.03 540.181C754.454 586.421 802.197 658.572 924.031 660.983C958.598 661.67 996.543 653.537 1026.61 639.489C1104.22 603.219 1111.12 556.176 1125.08 513.541C1131.5 493.935 1138.98 474.305 1141.32 455.017C1152.67 361.598 1089.16 279.943 1165.67 180.983C1197.47 139.85 1212.26 100.688 1220.48 59.996C1228.69 19.3731 1240.98 11.2249 1276.32 -27.7132C1315.83 -71.2433 1320.83 -98.1429 1337.09 -140.593C1359.47 -199.015 1421.54 -252.635 1445.67 -309.258C1487.67 -407.833 1362.52 -440.406 1258.33 -491.445L1176.68 -533.814L1109.26 -521.126C1112.25 -519.819 1115.98 -519.048 1118.85 -517.637C1208.52 -473.59 1392.17 -438.815 1415.57 -369.061C1435.78 -308.777 1366.34 -253.038 1325.8 -191.016C1298.68 -149.496 1298.35 -107.078 1262 -66.0788C1228.72 -28.5412 1163.99 0.21596 1140.18 40.349C1125.54 65.0263 1129.44 91.8595 1111.49 116.091C1099.96 131.662 1076.3 149.609 1062.44 165.528C1040.71 190.472 1035.09 214.825 1028.78 239.247C1019.19 276.33 1022.27 310.334 1020.15 346.5C1018.38 376.606 1016.15 396.246 1024.58 425.309C1034.96 461.188 1042.01 527.041 999.862 566.269C959.842 603.518 901.432 594.32 867.671 576.242C833.91 558.164 787.06 503.625 774.732 478.066C763.748 455.281 772.644 430.373 766.657 407.35C757.654 372.698 665.495 321.644 604.068 309.513C548.117 298.464 500.344 294.724 450.559 278.059C380.072 254.468 330.854 235.851 245.345 221.509C212.834 216.056 154.928 212.14 143.119 193.859C120.767 159.309 210.267 123.358 238.619 89.891C276.304 45.3998 212.068 12.3858 225.175 -30.508C227.906 -39.4431 235.481 -49.7779 239.021 -58.6898C265.877 -126.185 204.993 -179.121 260.493 -249.474C278.052 -271.734 306.177 -292.74 331.787 -313.67C360.815 -337.378 391.377 -362.001 421.273 -385.637L436.721 -394.539L-309.217 -254.155C-312.22 -248.746 -316.257 -243.158 -320.582 -237.798C-346.044 -206.248 -370.118 -174.738 -395.84 -143.696C-435.955 -95.2914 -480.904 -47.2593 -517.688 1.21958C-542.372 33.7598 -564.073 66.6998 -585.717 99.4231C-603.094 125.691 -615.724 152.836 -640.417 178.367C-646.517 184.68 -659.354 195.41 -673.79 196.975C-694.696 199.239 -701.782 193.624 -728.232 199.837C-775.141 210.855 -823.6 267.961 -843.12 289.918C-960.788 422.269 -1067.55 566.305 -1028.75 691.116C-1003.62 771.956 -963.899 850.086 -927.203 928.009C-903.359 978.647 -874.12 1028.45 -866.304 1082.57C-855.754 1155.62 -834.488 1229.05 -826.661 1302.46C-826.468 1304.26 -826.501 1306 -827.486 1307.92L-714.822 1286.71C-715.763 1280.16 -719.2 1274.13 -720.311 1267.64C-728.396 1220.1 -725.372 1173.3 -727.589 1125.35C-729.864 1076.06 -769.679 1036.6 -799.607 994.194C-857.912 911.589 -908.521 826.163 -949.077 738.494C-982.637 665.962 -999.685 604.174 -964.524 520.989C-938.046 458.363 -890.937 404.112 -835.919 343.826C-821.452 327.984 -781.404 289.577 -746.943 287.958C-737.518 287.512 -720.104 289.284 -712.021 290.608C-689.603 294.268 -671.936 304.78 -650.189 286.088C-626.056 265.337 -612.569 223.416 -602.13 200.933C-570.992 133.852 -540.773 71.2088 -493.444 4.37619C-451.884 -54.2998 -400.19 -112.8 -353.529 -171.422C-341.9 -186.029 -330.602 -203.7 -317.947 -217.485C-315.835 -219.782 -311.142 -227.019 -301.988 -225.943C-293.305 -224.922 -312.921 -204.076 -323.422 -190.193C-366.998 -132.541 -416.083 -74.6607 -459.243 -16.3701C-505.124 45.6056 -534.487 106.082 -557.397 167.77C-575.952 217.731 -591.724 266.511 -608.711 316.253C-616.732 339.715 -620.548 369.007 -639.366 392.251C-641.762 395.219 -648.435 400.235 -654.673 401.12C-664.252 402.487 -681.286 394.374 -686.48 391.392C-700.346 383.445 -714.024 372.404 -729.634 365.57C-778.38 344.233 -823.14 384.129 -847.82 407.988C-906.483 464.711 -939.859 536.729 -941.177 592.659C-942.614 653.441 -907.631 711.671 -876.95 766.072C-849.481 814.77 -820.742 861.672 -784.496 907.795C-758.927 940.337 -728.72 971.349 -697.375 1002.03C-645.808 1052.5 -592.29 1093.64 -593.923 1159.31C-594.741 1191.86 -601.964 1224.16 -601.29 1256.89C-601.238 1259.51 -600.304 1262.54 -598.765 1264.87L-472.446 1241.1C-476.629 1230.68 -472.448 1218.99 -473.313 1208.05C-481.111 1108.78 -559.487 1042.17 -648.694 968.119C-720.198 908.776 -775.794 843.656 -819.814 774.701C-855.137 719.366 -889.999 662.128 -897.557 599.889C-902.493 559.292 -889.38 514.261 -855.982 470.813C-851.407 464.857 -842.088 452.455 -835.88 447.236C-828.891 441.367 -807.75 426.603 -797.895 422.17C-788.707 418.038 -782.262 415.902 -771.482 416.2C-744.788 416.935 -723.839 438.133 -711.677 448.102C-678.417 475.359 -647.745 507.093 -598.361 527.204C-598.361 527.204 -587.143 531.561 -577.968 532.405C-567.673 533.351 -561.512 532.84 -557.782 531.199C-552.824 529.015 -549.844 523.397 -551.529 520.213C-567.867 489.161 -571.242 445.433 -574.54 410.211C-582.179 329.009 -549.411 237.495 -527.2 152.781C-525.255 145.336 -512.827 115.034 -509.538 108.359C-479.639 47.4991 -451.748 -0.587667 -409.105 -56.485C-384.618 -88.5914 -360.906 -119.667 -334.826 -151.593C-329.623 -157.965 -324.752 -165.045 -309.362 -178.17L-309.425 -178.159ZM-181.835 1073.67C-259.046 1044.12 -343.106 1010.49 -348.441 952.977C-350.231 933.749 -338.855 899.96 -316.964 880.211C-305.036 869.446 -283.551 860.421 -261.039 860.838C-191.513 862.108 -98.7912 895.261 -60.3001 919.695C-7.72486 953.058 6.81183 993.968 24.7172 1037.94C34.6621 1062.35 46.1183 1086.85 48.785 1112.9C49.6589 1121.45 41.2904 1127.84 24.2792 1124.63C-31.3476 1114.17 -84.9136 1101.49 -136.568 1087.63L-181.85 1073.68L-181.835 1073.67ZM278.447 -330.55C243.283 -301.506 210.443 -274.937 190.826 -243.747C159.015 -193.191 175.733 -148.9 160.843 -100.407C149.885 -64.7521 119.221 -31.1781 126.296 3.34869C128.268 13.0157 136.139 21.7403 137.061 31.6736C138.594 48.0595 129.999 66.1301 104.925 81.6347C41.7905 120.671 -43.6568 114.228 -107.081 104.654C-191.702 91.8836 -219.128 56.9914 -211.352 9.60884C-202.707 -43.0861 -172.725 -95.7614 -138.929 -149.368C-132.469 -159.608 -128.767 -162.616 -120.551 -168.853C-93.2321 -189.608 -64.1455 -206.303 -26.4722 -223.706C-13.8291 -229.548 0.165084 -233.974 8.84528 -234.883C9.8597 -234.99 12.1193 -235.027 12.5516 -234.65C15.2726 -232.241 13.4815 -229.288 10.0368 -224.741C1.78297 -213.829 -7.35508 -200.118 -13.7667 -189.278C-31.1709 -159.847 -33.7533 -140.116 -28.1082 -112.902C-25.6248 -100.875 -19.3588 -71.7643 9.39505 -101.882C51.3555 -145.82 27.5662 -186.942 58.3998 -230.579C69.3905 -246.133 110.865 -285.334 136.352 -296.828C182.934 -317.845 233.993 -335.677 285.514 -352.536C288.979 -353.668 291.497 -355.904 296.506 -357.297C301.64 -358.721 307.064 -359.391 312.283 -360.457C312.431 -359.844 312.709 -359.24 312.379 -358.553C311.92 -357.589 295.549 -345.66 292.58 -343.202C288.022 -339.423 283.362 -334.617 278.446 -330.557L278.447 -330.55Z" fill="#E1F0A3" stroke="black" stroke-width="2" mask="url(#path-1-inside-1_2007_3)"/>
</mask>
<g mask="url(#mask0_2007_3)">
<path d="M-498.701 -247.663C-498.701 -247.663 -997.941 750.327 -281.785 903.308C434.372 1056.29 1729.84 862.484 1729.84 862.484L1451.36 -615.18L-498.701 -247.663Z" fill="#E1F0A3"/>
</g>
</g>
<defs>
<clipPath id="clip0_2007_3">
<rect width="1254" height="664" fill="white"/>
</clipPath>
</defs>
</svg>
