<svg width="38" height="46" viewBox="0 0 38 46" fill="none" xmlns="http://www.w3.org/2000/svg">
<g clip-path="url(#clip0_725_205)">
<path d="M36.7864 15.683C36.5157 15.89 31.7359 18.5445 31.7359 24.4468C31.7359 31.2739 37.818 33.6892 38 33.749C37.972 33.8962 37.0338 37.0567 34.7933 40.277C32.7955 43.1109 30.709 45.9402 27.5349 45.9402C24.3609 45.9402 23.544 44.123 19.8799 44.123C16.2157 44.123 15.0394 46 12.1361 46C9.23277 46 7.20698 43.3777 4.87778 40.1574C2.17983 36.3758 0 30.501 0 24.9253C0 15.982 5.90001 11.2389 11.7067 11.2389C14.792 11.2389 17.364 13.2355 19.3011 13.2355C21.2382 13.2355 24.0201 11.1193 27.5303 11.1193C28.8606 11.1193 33.6403 11.2389 36.7864 15.683ZM25.8639 7.33313C27.3156 5.63556 28.3425 3.28013 28.3425 0.924693C28.3425 0.59806 28.3145 0.266827 28.2538 0C25.8919 0.0874087 23.0819 1.55036 21.3875 3.48715C20.0572 4.9777 18.8156 7.33313 18.8156 9.72077C18.8156 10.0796 18.8763 10.4384 18.9043 10.5535C19.0537 10.5811 19.2964 10.6133 19.5391 10.6133C21.6583 10.6133 24.3235 9.21472 25.8639 7.33313Z" fill="black"/>
</g>
<defs>
<clipPath id="clip0_725_205">
<rect width="38" height="46" fill="white"/>
</clipPath>
</defs>
</svg>
