<svg width="146" height="32" viewBox="0 0 146 32" fill="none" xmlns="http://www.w3.org/2000/svg">
<path d="M133.334 5.64482C134.697 4.75586 136.458 4.67311 137.995 5.09681C138.008 6.01155 137.996 6.92712 138.001 7.84228C137.271 7.52004 136.412 7.31006 135.644 7.62607C135.035 7.86806 134.672 8.49424 134.577 9.12084C134.463 9.91542 134.537 10.7204 134.518 11.5195C136.077 11.5233 137.637 11.5204 139.196 11.5212C139.208 10.5071 139.184 9.49172 139.209 8.47761C140.27 8.17491 141.318 7.83604 142.373 7.51754C142.382 8.8539 142.361 10.1911 142.385 11.5283C143.439 11.5133 144.494 11.5245 145.549 11.5212V14.1228C144.49 14.0792 143.431 14.1112 142.372 14.1078C142.377 15.6034 142.373 17.099 142.374 18.5955C142.391 19.4237 142.33 20.2566 142.426 21.0823C142.485 21.5688 142.662 22.1081 143.117 22.3601C143.88 22.7879 144.848 22.6012 145.549 22.1314V24.7588C144.635 25.1563 143.614 25.2773 142.626 25.207C141.688 25.1376 140.716 24.7958 140.104 24.0486C139.398 23.2041 139.215 22.0611 139.201 20.9917C139.193 18.6961 139.202 16.4009 139.198 14.1045C137.637 14.1037 136.077 14.1029 134.518 14.1053C134.516 17.7078 134.517 21.3102 134.517 24.9126H131.319C131.319 21.311 131.314 17.7107 131.321 14.1091C130.579 14.095 129.837 14.1128 129.095 14.0974C129.098 13.2426 129.102 12.3865 129.094 11.5308C129.832 11.5137 130.57 11.5208 131.31 11.5262C131.365 10.389 131.191 9.21938 131.531 8.11171C131.817 7.11173 132.455 6.20946 133.334 5.64565L133.334 5.64482Z" fill="#777777"/>
<path d="M64.869 5.83123C65.5135 5.73352 66.2116 5.95388 66.639 6.45949C67.1399 7.01291 67.2321 7.89355 66.8611 8.54052C66.4506 9.27024 65.5326 9.60911 64.7325 9.43365C63.902 9.28438 63.2102 8.511 63.2475 7.64907C63.2235 6.74139 63.9809 5.93268 64.869 5.83123Z" fill="#777777"/>
<path d="M40.3623 6.22829H45.0129C46.4605 9.91096 47.9184 13.5895 49.3676 17.2721C49.7378 18.1931 50.0844 19.1245 50.4724 20.0384C52.3346 15.4368 54.2233 10.8469 56.0713 6.2391C57.5625 6.21498 59.054 6.23369 60.546 6.23037C60.5423 12.4573 60.5443 18.6842 60.5452 24.9115C59.469 24.909 58.3933 24.9202 57.318 24.9052C57.3297 20.3099 57.3172 15.7146 57.3234 11.1184C57.3251 10.9122 57.318 10.7055 57.3039 10.4993C57.2408 10.5953 57.1848 10.6951 57.1363 10.7983C55.2882 15.5021 53.4049 20.1927 51.5676 24.9007C50.8023 24.9281 50.0358 24.9023 49.2693 24.9148C47.3627 20.2109 45.4802 15.4963 43.5832 10.7891C43.5334 10.6914 43.4803 10.5962 43.4226 10.5043C43.3836 12.5176 43.4164 14.5329 43.4056 16.5462C43.4064 19.3345 43.4039 22.1228 43.4064 24.9111C42.3913 24.9136 41.3766 24.9111 40.3623 24.9119C40.3615 18.6842 40.3606 12.456 40.3623 6.22829Z" fill="#777777"/>
<path d="M73.6683 11.5074C75.2117 11.0671 76.8759 11.085 78.4185 11.5216C78.7364 11.6105 79.0448 11.734 79.3307 11.9024C79.3129 12.9228 79.3307 13.9444 79.3207 14.9656C78.2898 14.1764 76.9817 13.6762 75.6711 13.8417C74.6303 13.9361 73.6376 14.477 73.015 15.3194C72.2149 16.3639 72.0302 17.751 72.168 19.0287C72.2709 20.0287 72.6839 21.0278 73.4599 21.6906C74.2663 22.4087 75.3968 22.6631 76.4518 22.5829C77.4943 22.4627 78.4783 22.0207 79.3212 21.4033C79.3299 22.3704 79.3166 23.3375 79.3282 24.3047C78.0209 25.0839 76.4538 25.2851 74.9573 25.2111C73.4263 25.13 71.8999 24.5492 70.7914 23.471C69.587 22.308 68.9338 20.6499 68.8562 18.9888C68.7782 17.262 69.1289 15.4604 70.1207 14.018C70.952 12.7877 72.2518 11.9166 73.6683 11.5074Z" fill="#777777"/>
<path d="M102.704 14.647C102.149 13.4104 101.148 12.3772 99.9112 11.8188C98.4869 11.1693 96.8679 11.082 95.3336 11.2778C93.7217 11.4816 92.1526 12.2412 91.1296 13.5289C90.1954 14.6786 89.7405 16.1555 89.6538 17.6207C89.5251 19.3475 89.8127 21.1803 90.8249 22.6219C91.6873 23.8655 93.0486 24.7208 94.519 25.0355C95.7478 25.2946 97.0339 25.2954 98.2628 25.0393C99.7004 24.7428 101.043 23.9457 101.934 22.7695C102.804 21.6618 103.241 20.2652 103.34 18.871C103.44 17.4432 103.296 15.9642 102.704 14.6478L102.704 14.647ZM99.6157 20.7928C99.3103 21.4813 98.7508 22.0635 98.0449 22.3391C97.219 22.6568 96.2911 22.6755 95.4386 22.4539C94.5708 22.2252 93.835 21.5969 93.4345 20.7974C92.9195 19.767 92.8423 18.5758 92.949 17.4461C93.0457 16.4187 93.4026 15.3617 94.184 14.6524C94.7505 14.1222 95.5233 13.8632 96.2878 13.8204C97.2485 13.7572 98.2715 14.0295 98.9625 14.7297C99.7012 15.4574 99.9872 16.5135 100.066 17.5205C100.123 18.6228 100.078 19.7716 99.6161 20.7928H99.6157Z" fill="#777777"/>
<path d="M108.599 11.3051C110.078 11.0444 111.625 11.2356 113.025 11.767C113.027 12.7491 113.025 13.7304 113.026 14.7121C112.048 14.0385 110.854 13.6763 109.667 13.7183C109.07 13.7416 108.413 13.9948 108.14 14.5645C107.923 15.1274 108.074 15.8659 108.604 16.2031C109.51 16.8106 110.592 17.0688 111.531 17.6135C112.271 18.0297 112.989 18.5744 113.363 19.359C114.068 20.8288 113.769 22.7709 112.531 23.867C111.349 24.9738 109.647 25.2798 108.082 25.2212C106.97 25.1493 105.852 24.9293 104.83 24.474C104.835 23.4412 104.824 22.4092 104.836 21.3768C105.695 22.0021 106.687 22.45 107.737 22.6312C108.468 22.7506 109.263 22.756 109.944 22.4283C110.596 22.1036 110.713 21.1756 110.325 20.608C109.963 20.1702 109.431 19.929 108.929 19.6924C107.987 19.2679 106.997 18.9132 106.17 18.2771C105.588 17.8226 105.147 17.1819 104.975 16.4592C104.719 15.3944 104.799 14.194 105.418 13.2635C106.123 12.1791 107.35 11.5284 108.599 11.3051H108.599Z" fill="#777777"/>
<path d="M128.316 15.0338C127.824 13.7045 126.839 12.5552 125.569 11.9191C124.113 11.1823 122.419 11.0746 120.823 11.2733C119.536 11.4388 118.271 11.9282 117.289 12.7922C116.091 13.8271 115.387 15.3485 115.18 16.9044C114.983 18.4603 115.05 20.0994 115.683 21.5559C116.291 22.9845 117.489 24.145 118.931 24.7134C120.355 25.2747 121.937 25.3379 123.435 25.0951C124.967 24.8415 126.419 24.0344 127.367 22.7924C128.38 21.5093 128.816 19.8495 128.814 18.232C128.836 17.1493 128.701 16.0512 128.316 15.0346L128.316 15.0338ZM125.432 19.5734C125.309 20.2781 125.066 20.9808 124.605 21.5388C124.141 22.0993 123.45 22.4411 122.737 22.5459C121.971 22.6606 121.165 22.6053 120.449 22.2968C119.676 21.9696 119.078 21.2993 118.763 20.5289C118.383 19.6108 118.308 18.5938 118.383 17.6117C118.456 16.6608 118.725 15.6845 119.352 14.9452C119.924 14.255 120.801 13.8733 121.686 13.8234C122.589 13.7602 123.553 13.9693 124.248 14.5806C124.888 15.1128 125.242 15.9098 125.405 16.7123C125.588 17.6537 125.586 18.6279 125.431 19.5734H125.432Z" fill="#777777"/>
<path d="M86.4825 11.7254C87.3652 11.1944 88.4866 11.1499 89.4502 11.4747C89.4456 12.5433 89.4502 13.6119 89.4477 14.6804C88.8173 14.2713 88.0305 14.0958 87.2863 14.1715C86.3787 14.2746 85.6595 14.9732 85.2864 15.774C84.8813 16.6218 84.805 17.581 84.8307 18.5082C84.8307 20.6425 84.8315 22.7772 84.8307 24.9114H81.6783C81.6758 20.4504 81.682 15.9885 81.6758 11.5275C82.7283 11.5142 83.7803 11.5196 84.8328 11.525C84.8282 12.2909 84.8328 13.0572 84.8303 13.8239C85.1723 12.9902 85.6811 12.1807 86.4829 11.7258L86.4825 11.7254Z" fill="#777777"/>
<path d="M63.5371 11.5243C64.5975 11.5197 65.6587 11.5094 66.719 11.5297C66.7066 15.9899 66.7182 20.4505 66.7136 24.9107H63.5388C63.5363 20.4489 63.5396 15.987 63.5371 11.5243Z" fill="#777777"/>
<path d="M0 0H14.7857C14.7848 4.93794 14.7857 9.87547 14.7848 14.8134H0V0Z" fill="#F25022"/>
<path d="M16.2951 0H31.0808C31.0808 4.93794 31.0816 9.87547 31.08 14.8134C26.1521 14.8126 21.2238 14.8134 16.296 14.8134C16.2943 9.87547 16.2951 4.93794 16.2951 0Z" fill="#80BA01"/>
<path d="M0 16.3242C4.92869 16.3259 9.85696 16.3234 14.7857 16.3259C14.7865 21.2638 14.7857 26.2005 14.7857 31.1385H0V16.3242Z" fill="#02A4EF"/>
<path d="M16.2977 16.3272C21.2256 16.3255 26.1538 16.3264 31.0825 16.3264V31.1398H16.2969C16.2977 26.2018 16.296 21.2643 16.2977 16.3272Z" fill="#FFB902"/>
</svg>
