<svg width="74" height="20" viewBox="0 0 74 20" fill="none" xmlns="http://www.w3.org/2000/svg">
<g clip-path="url(#clip0_711_18)">
<path d="M57.1496 18.04C58.1898 18.1199 59.2285 18.2049 60.2657 18.2972V0.00155571H57.1496V18.04ZM7.01989 11.2519L2.96156 0.00155571H0V19.8815C1.03662 19.7337 2.07532 19.5926 3.11609 19.4573V8.64664L6.72482 19.0134C7.85997 18.8817 8.99668 18.7572 10.136 18.64V0.00155571H7.01989V11.2519ZM13.1328 18.3501C16.0046 18.0893 18.8905 17.8741 21.7888 17.7071V14.6361C19.937 14.743 18.0903 14.87 16.2489 15.0147V10.3662C17.4572 10.3543 19.0476 10.3175 20.4571 10.3346V7.26414C19.3313 7.26154 17.5215 7.27969 16.2489 7.29629V3.10001H21.7888V0.00207428H13.1328V18.3501ZM23.7863 3.0995H27.0476V17.4577C28.0847 17.4188 29.1234 17.3861 30.1637 17.3591V3.0995H33.425V0.00155571H23.7863V3.0995ZM35.423 17.2751H38.5391V10.1852H42.7634V7.11479H38.5391V3.10001H44.122V0.00207428H35.423V17.2757V17.2751ZM74 0.00155571H70.5774L68.3211 5.23134L66.2935 0.00155571H62.9223L66.545 9.34671L62.5899 18.5145C63.6841 18.6213 64.7757 18.7349 65.8652 18.8552L68.1656 13.5248L70.4436 19.4008C71.6301 19.5532 72.814 19.7124 73.9953 19.881L74 19.8789L69.9406 9.40946L74 0.00155571ZM49.2357 0H46.1196V17.4276C48.9515 17.5251 51.7715 17.6677 54.5801 17.8554V14.785C52.8034 14.6662 51.0216 14.5661 49.2357 14.4826V0Z" fill="#E50914"/>
</g>
<defs>
<clipPath id="clip0_711_18">
<rect width="74" height="19.882" fill="white"/>
</clipPath>
</defs>
</svg>
