<svg width="69" height="23" viewBox="0 0 69 23" fill="none" xmlns="http://www.w3.org/2000/svg">
<path d="M29.528 11.9353C29.528 15.1985 26.9716 17.6031 23.8343 17.6031C20.697 17.6031 18.1406 15.1985 18.1406 11.9353C18.1406 8.64916 20.697 6.26758 23.8343 6.26758C26.9716 6.26758 29.528 8.64916 29.528 11.9353ZM27.0356 11.9353C27.0356 9.89617 25.554 8.50095 23.8343 8.50095C22.1147 8.50095 20.6331 9.89617 20.6331 11.9353C20.6331 13.9541 22.1147 15.3697 23.8343 15.3697C25.554 15.3697 27.0356 13.9515 27.0356 11.9353Z" fill="#EA4335"/>
<path d="M41.8113 11.9353C41.8113 15.1985 39.2548 17.6031 36.1175 17.6031C32.9802 17.6031 30.4238 15.1985 30.4238 11.9353C30.4238 8.65172 32.9802 6.26758 36.1175 6.26758C39.2548 6.26758 41.8113 8.64916 41.8113 11.9353ZM39.3188 11.9353C39.3188 9.89617 37.8372 8.50095 36.1175 8.50095C34.3979 8.50095 32.9163 9.89617 32.9163 11.9353C32.9163 13.9541 34.3979 15.3697 36.1175 15.3697C37.8372 15.3697 39.3188 13.9515 39.3188 11.9353Z" fill="#FBBC05"/>
<path d="M53.5819 6.60999V16.7854C53.5819 20.971 51.11 22.6806 48.1876 22.6806C45.4367 22.6806 43.7811 20.8433 43.1567 19.3407L45.3267 18.4387C45.7131 19.3612 46.6599 20.4498 48.185 20.4498C50.0557 20.4498 51.2149 19.2973 51.2149 17.1278V16.3126H51.1279C50.57 17 49.4952 17.6005 48.139 17.6005C45.3011 17.6005 42.7012 15.1321 42.7012 11.9558C42.7012 8.75649 45.3011 6.26758 48.139 6.26758C49.4927 6.26758 50.5675 6.86808 51.1279 7.53503H51.2149V6.61255H53.5819V6.60999ZM51.3914 11.9558C51.3914 9.96006 50.0582 8.50095 48.3616 8.50095C46.642 8.50095 45.2013 9.96006 45.2013 11.9558C45.2013 13.9311 46.642 15.3697 48.3616 15.3697C50.0582 15.3697 51.3914 13.9311 51.3914 11.9558Z" fill="#4285F4"/>
<path d="M57.4857 0.646484V17.2562H55.0547V0.646484H57.4857Z" fill="#34A853"/>
<path d="M66.9579 13.8013L68.8925 15.0892C68.2681 16.0117 66.7635 17.6011 64.1635 17.6011C60.9392 17.6011 58.5312 15.1122 58.5312 11.9334C58.5312 8.56288 60.9597 6.26562 63.8846 6.26562C66.83 6.26562 68.2707 8.60632 68.7415 9.87122L69 10.5152L61.4127 13.6531C61.9935 14.7903 62.8969 15.3703 64.1635 15.3703C65.4328 15.3703 66.3131 14.7468 66.9579 13.8013ZM61.0032 11.7622L66.0751 9.65913C65.7962 8.95129 64.9568 8.45811 63.9691 8.45811C62.7024 8.45811 60.9392 9.5748 61.0032 11.7622Z" fill="#EA4335"/>
<path d="M8.93849 10.4616V8.05701H17.053C17.1323 8.47609 17.1733 8.97182 17.1733 9.50845C17.1733 11.3125 16.6794 13.5433 15.0877 15.1328C13.5395 16.7426 11.5614 17.6012 8.94105 17.6012C4.08412 17.6012 0 13.6507 0 8.80062C0 3.95057 4.08412 0 8.94105 0C11.628 0 13.5421 1.0528 14.9802 2.42502L13.2811 4.12177C12.2498 3.15585 10.8526 2.40458 8.93849 2.40458C5.39175 2.40458 2.61783 5.2589 2.61783 8.80062C2.61783 12.3423 5.39175 15.1966 8.93849 15.1966C11.239 15.1966 12.5492 14.2742 13.3885 13.436C14.0692 12.7563 14.517 11.7853 14.6936 10.459L8.93849 10.4616Z" fill="#4285F4"/>
</svg>
