<svg width="87" height="18" viewBox="0 0 87 18" fill="none" xmlns="http://www.w3.org/2000/svg">
<g clip-path="url(#clip0_2014_4)">
<path d="M2.85044 11.7743C2.85044 12.8006 3.07161 13.5886 3.3607 14.0654C3.73971 14.6898 4.30503 14.9543 4.88136 14.9543C5.62471 14.9543 6.30475 14.7664 7.61525 12.9203C8.66513 11.4405 9.90221 9.36351 10.7346 8.06138L12.1442 5.85535C13.1234 4.32327 14.2568 2.62014 15.5563 1.46571C16.6172 0.523466 17.7616 0 18.9133 0C20.847 0 22.6888 1.14134 24.0984 3.28195C25.6411 5.62633 26.39 8.57924 26.39 11.6266C26.39 13.4381 26.0394 14.7692 25.4429 15.8208C24.8666 16.8379 23.7433 17.8539 21.8537 17.8539V14.9543C23.4716 14.9543 23.8754 13.44 23.8754 11.707C23.8754 9.23731 23.3101 6.49659 22.0648 4.53827C21.181 3.14921 20.0357 2.30045 18.7757 2.30045C17.4128 2.30045 16.3162 3.34738 15.0837 5.2141C14.4284 6.20588 13.7557 7.41453 13.0004 8.77835L12.169 10.2786C10.4987 13.2951 10.0757 13.9822 9.24054 15.116C7.77677 17.1015 6.52683 17.8539 4.88136 17.8539C2.92937 17.8539 1.69503 16.993 0.93057 15.6956C0.306519 14.6384 0 13.2512 0 11.6705L2.85044 11.7743Z" fill="#0081FB"/>
<path d="M2.24805 3.48666C3.55488 1.43486 5.4408 0 7.60387 0C8.85656 0 10.1019 0.377644 11.4023 1.45916C12.8248 2.64164 14.3409 4.58874 16.2323 7.79778L16.9105 8.94941C18.5477 11.7275 19.4792 13.1568 20.0243 13.8307C20.7255 14.6963 21.2164 14.9543 21.8542 14.9543C23.4722 14.9543 23.876 13.44 23.876 11.707L26.3905 11.6266C26.3905 13.4381 26.04 14.7692 25.4435 15.8208C24.8671 16.8379 23.7438 17.8539 21.8542 17.8539C20.6796 17.8539 19.6389 17.5941 18.488 16.4883C17.6034 15.6395 16.5691 14.1317 15.7734 12.7763L13.4066 8.74937C12.2191 6.72841 11.1298 5.22158 10.4993 4.5392C9.82109 3.80541 8.94925 2.91926 7.55798 2.91926C6.43194 2.91926 5.47567 3.72409 4.67542 4.95517L2.24805 3.48666Z" fill="url(#paint0_linear_2014_4)"/>
<path d="M7.55744 2.91926C6.43139 2.91926 5.47513 3.72409 4.67487 4.95517C3.54332 6.69476 2.85044 9.28592 2.85044 11.7743C2.85044 12.8006 3.07161 13.5886 3.3607 14.0654L0.93057 15.6956C0.306519 14.6384 0 13.2512 0 11.6705C0 8.79611 0.774557 5.8002 2.2475 3.48666C3.55434 1.43486 5.44025 0 7.60332 0L7.55744 2.91926Z" fill="url(#paint1_linear_2014_4)"/>
<path d="M31.9316 0.564453H35.229L40.8354 10.8954L46.4427 0.564453H49.6685V17.5397H46.9786V4.52971L42.0615 13.5389H39.5377L34.6215 4.52971V17.5397H31.9316V0.564453ZM58.0968 6.89372C56.1678 6.89372 55.0059 8.37252 54.7278 10.2037H61.2749C61.14 8.31737 60.0717 6.89372 58.0968 6.89372ZM52.0609 11.2469C52.0609 7.39382 54.5058 4.58954 58.1436 4.58954C61.7218 4.58954 63.8583 7.3583 63.8583 11.4526V12.205H54.7278C55.0518 14.197 56.3495 15.5393 58.4419 15.5393C60.1112 15.5393 61.1547 15.0205 62.144 14.0718L63.5729 15.8543C62.2266 17.1153 60.5141 17.8426 58.3464 17.8426C54.4085 17.8426 52.0609 14.9177 52.0609 11.2469ZM67.1199 7.13676H64.6438V4.89333H67.1199V1.18327H69.7152V4.89333H73.4769V7.13676H69.7152V12.8229C69.7152 14.7644 70.3245 15.4543 71.8223 15.4543C72.506 15.4543 72.8978 15.3944 73.4769 15.2963V17.5154C72.7556 17.7229 72.0673 17.8183 71.3221 17.8183C68.5203 17.8183 67.1199 16.2591 67.1199 13.1379V7.13676ZM84.4051 9.31849C83.8839 7.97805 82.7211 6.99094 81.0123 6.99094C78.7914 6.99094 77.3699 8.59592 77.3699 11.2105C77.3699 13.7595 78.6786 15.4421 80.9059 15.4421C82.6569 15.4421 83.9068 14.4045 84.4051 13.1136V9.31849ZM87.0005 17.5397H84.4529V15.7693C83.7407 16.8115 82.4449 17.8426 80.3461 17.8426C76.9707 17.8426 74.7149 14.9645 74.7149 11.2105C74.7149 7.42093 77.0248 4.58954 80.4892 4.58954C82.2017 4.58954 83.5452 5.28687 84.4529 6.51795V4.89333H87.0005V17.5397Z" fill="#192830"/>
</g>
<defs>
<linearGradient id="paint0_linear_2014_4" x1="337.308" y1="998.638" x2="2152.38" y2="1088.64" gradientUnits="userSpaceOnUse">
<stop stop-color="#0064E1"/>
<stop offset="0.4" stop-color="#0064E1"/>
<stop offset="0.83" stop-color="#0073EE"/>
<stop offset="1" stop-color="#0082FB"/>
</linearGradient>
<linearGradient id="paint1_linear_2014_4" x1="412.975" y1="1299.32" x2="412.975" y2="616.943" gradientUnits="userSpaceOnUse">
<stop stop-color="#0082FB"/>
<stop offset="1" stop-color="#0064E0"/>
</linearGradient>
<clipPath id="clip0_2014_4">
<rect width="87" height="18" fill="white"/>
</clipPath>
</defs>
</svg>
