<svg width="107" height="14" viewBox="0 0 107 14" fill="none" xmlns="http://www.w3.org/2000/svg">
<path d="M91.4121 5.52344V13.9367H94.1102V8.33516H103.93V13.9367H106.626V5.53803L91.4121 5.52344Z" fill="#E82127"/>
<path d="M93.8105 2.80002H104.185C105.626 2.51359 106.698 1.24192 107 0.0117188H90.9961C91.2952 1.2423 92.3826 2.51359 93.8105 2.80002Z" fill="#E82127"/>
<path d="M83.2403 13.9411C84.6007 13.3644 85.3325 12.3669 85.6128 11.1996H73.5116L73.5193 0.0195312L70.8066 0.0272062V13.9411H83.2403Z" fill="#E82127"/>
<path d="M50.6357 2.76531H60.217C61.6614 2.34564 62.8744 1.24522 63.17 0.0253906H47.9499V8.24784H60.4071V11.1333L50.6357 11.141C49.1045 11.5679 47.8059 12.5962 47.1582 13.9542L47.9499 13.9396H63.0836V5.51406H50.6357V2.76531Z" fill="#E82127"/>
<path d="M26.982 2.78945H37.3531C38.796 2.50186 39.8684 1.23135 40.169 0H24.166C24.4647 1.23135 25.5529 2.50186 26.982 2.78945Z" fill="#E82127"/>
<path d="M26.982 8.2883H37.3531C38.796 8.00379 39.8684 6.73212 40.169 5.5H24.166C24.4647 6.7325 25.5529 8.00379 26.982 8.2883Z" fill="#E82127"/>
<path d="M26.982 13.9391H37.3531C38.796 13.6523 39.8684 12.381 40.169 11.1504H24.166C24.4647 12.3814 25.5529 13.6523 26.982 13.9391Z" fill="#E82127"/>
<path d="M0 0.0366455C0.311774 1.25264 1.36459 2.49551 2.80904 2.8069H7.17464L7.39733 2.89483V13.911H10.1234V2.89483L10.3711 2.8069H14.7405C16.2011 2.43062 17.2313 1.25264 17.5377 0.0366455V0.00976562H0V0.0366455Z" fill="#E82127"/>
</svg>
