<svg width="76" height="23" viewBox="0 0 76 23" fill="none" xmlns="http://www.w3.org/2000/svg">
<path fill-rule="evenodd" clip-rule="evenodd" d="M47.1496 17.9021C42.733 21.1555 36.3316 22.8914 30.8201 22.8914C23.0922 22.8914 16.135 20.0347 10.8716 15.2834C10.4581 14.9099 10.8286 14.4006 11.3248 14.6916C17.0051 17.9947 24.0284 19.9818 31.2834 19.9818C36.1761 19.9818 41.5587 18.9701 46.5078 16.8705C47.2554 16.5531 47.8807 17.3598 47.1496 17.9021Z" fill="#FF9900"/>
<path fill-rule="evenodd" clip-rule="evenodd" d="M48.9841 15.8015C48.4217 15.0808 45.2524 15.461 43.8299 15.6296C43.3965 15.6826 43.3303 15.3055 43.7207 15.0344C46.2448 13.2589 50.3868 13.7715 50.8698 14.3666C51.3527 14.965 50.744 19.1146 48.3721 21.095C48.0082 21.3992 47.6608 21.2373 47.8229 20.8339C48.3554 19.5047 49.5498 16.5257 48.9841 15.8015Z" fill="#FF9900"/>
<path fill-rule="evenodd" clip-rule="evenodd" d="M43.9299 2.49962V0.773721C43.9299 0.512535 44.1284 0.33736 44.3665 0.33736H52.0979C52.346 0.33736 52.5446 0.515814 52.5446 0.773721V2.25155C52.5412 2.49949 52.3327 2.82348 51.9622 3.33602L47.9559 9.05273C49.4447 9.01628 51.0161 9.23787 52.3659 9.99835C52.6701 10.1702 52.7529 10.4215 52.776 10.6695V12.5111C52.776 12.7624 52.4981 13.0567 52.207 12.9046C49.8284 11.6582 46.6691 11.5226 44.0389 12.9178C43.7711 13.0633 43.4899 12.7724 43.4899 12.521V10.7721C43.4899 10.4911 43.4932 10.0116 43.7743 9.58519L48.4159 2.9327H44.3765C44.1284 2.9327 43.9299 2.7574 43.9299 2.49962ZM15.7273 13.2684H13.3752C13.1502 13.252 12.9715 13.0833 12.955 12.8684V0.803485C12.955 0.562099 13.1569 0.370276 13.4082 0.370276H15.6016C15.8299 0.38024 16.0117 0.555415 16.0284 0.773721V2.3508H16.0713C16.6437 0.826564 17.7189 0.115774 19.1679 0.115774C20.64 0.115774 21.5597 0.826564 22.2214 2.3508C22.7903 0.826564 24.0839 0.115774 25.4701 0.115774C26.4558 0.115774 27.5343 0.522372 28.1927 1.43495C28.937 2.45005 28.7849 3.9246 28.7849 5.21742L28.7816 12.832C28.7816 13.0733 28.5797 13.2684 28.3283 13.2684H25.9795C25.7446 13.252 25.556 13.0635 25.556 12.832V6.43734C25.556 5.92821 25.6023 4.65847 25.4899 4.17582C25.3145 3.36578 24.7885 3.13764 24.107 3.13764C23.5379 3.13764 22.9425 3.51788 22.701 4.12626C22.4595 4.73452 22.4827 5.7529 22.4827 6.43734V12.8319C22.4827 13.0732 22.2808 13.2683 22.0294 13.2683H19.6806C19.4425 13.2519 19.2571 13.0633 19.2571 12.8319L19.2538 6.43734C19.2538 5.09168 19.4755 3.11115 17.8048 3.11115C16.1143 3.11115 16.1806 5.04199 16.1806 6.43734V12.8319C16.1806 13.0732 15.9787 13.2684 15.7273 13.2684ZM59.2007 0.115774C62.6908 0.115774 64.5798 3.11128 64.5798 6.92023C64.5798 10.6003 62.4923 13.5198 59.2007 13.5198C55.7733 13.5198 53.9075 10.5241 53.9075 6.79122C53.9075 3.03523 55.7965 0.115774 59.2007 0.115774ZM59.2205 2.57894C57.4869 2.57894 57.3778 4.93971 57.3778 6.41098C57.3778 7.88565 57.3547 11.0334 59.2007 11.0334C61.0234 11.0334 61.1095 8.49403 61.1095 6.94672C61.1095 5.92833 61.0665 4.71157 60.7587 3.74615C60.4941 2.90622 59.9681 2.57894 59.2205 2.57894ZM69.1055 13.2684H66.7631C66.5282 13.252 66.3396 13.0635 66.3396 12.832L66.3363 0.763758C66.3562 0.542172 66.5513 0.370276 66.7896 0.370276H68.9697C69.1747 0.38024 69.3435 0.519093 69.3899 0.70751V2.55259H69.4328C70.0911 0.902612 71.0142 0.115774 72.6384 0.115774C73.6939 0.115774 74.7227 0.495888 75.3843 1.53748C75.9997 2.5029 75.9997 4.12639 75.9997 5.29346V12.8882C75.9732 13.0998 75.778 13.2684 75.5464 13.2684H73.1876C72.9726 13.252 72.7939 13.0931 72.7708 12.8882V6.33493C72.7708 5.01576 72.923 3.08492 71.2987 3.08492C70.7263 3.08492 70.2004 3.46831 69.9389 4.05034C69.6082 4.78761 69.5652 5.52161 69.5652 6.33493V12.832C69.5619 13.0733 69.3568 13.2684 69.1055 13.2684ZM37.7666 7.50554C37.7666 8.42127 37.7898 9.18502 37.3267 9.99847C36.9528 10.6597 36.3573 11.0664 35.699 11.0664C34.7959 11.0664 34.2665 10.3787 34.2665 9.3636C34.2665 7.36 36.0629 6.99628 37.7667 6.99628L37.7666 7.50554ZM40.1386 13.2354C39.9832 13.3742 39.7582 13.3842 39.5829 13.2916C38.8021 12.6435 38.6599 12.3426 38.2331 11.7244C36.943 13.0403 36.0266 13.4337 34.3559 13.4337C32.3742 13.4337 30.8359 12.2137 30.8359 9.77033C30.8359 7.86257 31.8681 6.5632 33.3436 5.92833C34.6206 5.36623 36.4036 5.26698 37.7667 5.11161V4.80741C37.7667 4.24872 37.8096 3.58737 37.4789 3.10472C37.1943 2.67151 36.6452 2.49306 36.159 2.49306C35.2623 2.49306 34.465 2.95263 34.2699 3.9048C34.2302 4.11642 34.0747 4.32477 33.8596 4.33461L31.5803 4.08994C31.3885 4.04706 31.1733 3.89156 31.2296 3.59733C31.7523 0.833248 34.2533 0 36.4897 0C37.6342 0 39.1295 0.304192 40.0328 1.17036C41.1774 2.23843 41.0683 3.66342 41.0683 5.21414V8.87755C41.0683 9.97855 41.5248 10.4613 41.9548 11.0565C42.1037 11.2681 42.1368 11.5227 41.9449 11.6814C41.4652 12.0814 40.6117 12.8254 40.1419 13.2419L40.1386 13.2354ZM6.93069 7.50554C6.93069 8.42127 6.9539 9.18502 6.4908 9.99847C6.11691 10.6597 5.52471 11.0664 4.86299 11.0664C3.96 11.0664 3.43392 10.3787 3.43392 9.3636C3.43392 7.36 5.23032 6.99628 6.93069 6.99628V7.50554ZM9.30274 13.2354C9.14728 13.3742 8.92229 13.3842 8.74689 13.2916C7.96617 12.6435 7.82724 12.3426 7.3972 11.7244C6.10694 13.0403 5.19398 13.4337 3.51998 13.4337C1.54162 13.4337 0 12.2137 0 9.77033C0 7.86257 1.03549 6.5632 2.50758 5.92833C3.7846 5.36623 5.56774 5.26698 6.93069 5.11161V4.80741C6.93069 4.24872 6.97371 3.58737 6.64626 3.10472C6.35843 2.67151 5.80926 2.49306 5.32635 2.49306C4.42966 2.49306 3.62913 2.95263 3.43392 3.9048C3.3943 4.11642 3.23871 4.32477 3.0271 4.33461L0.744376 4.08994C0.552572 4.04706 0.340705 3.89156 0.393577 3.59733C0.919776 0.833248 3.41739 0 5.6538 0C6.79832 0 8.29363 0.304192 9.19687 1.17036C10.3415 2.23843 10.2324 3.66342 10.2324 5.21414V8.87755C10.2324 9.97855 10.6889 10.4613 11.119 11.0565C11.2711 11.2681 11.3042 11.5227 11.1123 11.6814C10.6326 12.0814 9.7791 12.8254 9.30931 13.2419L9.30274 13.2354Z" fill="#221F1F"/>
</svg>
