<svg width="440" height="177" viewBox="0 0 440 177" fill="none" xmlns="http://www.w3.org/2000/svg">
<g clip-path="url(#clip0_2081_5)">
<path d="M733.257 258.159C735.467 259.951 734.618 262.031 730.956 259.692C722.802 254.478 701.788 245.185 693.423 240.842C661.753 224.388 630.241 209.075 596.063 197.366C550.616 181.794 503.324 173.393 455.854 166.817C412.526 160.816 373.613 162.388 331.238 174.025C321.35 176.743 311.724 179.901 301.461 181.392C286.448 183.568 255.387 184.004 245.052 170.747C238.6 162.474 251.954 152.012 257.908 147.636C282.59 129.504 318.694 115.543 347.368 104.002C355.182 100.858 377.692 94.1765 379.063 84.6292C380.18 76.8216 371.566 71.4248 365.536 68.3287C354.971 62.908 336.545 57.6023 324.662 57.0703C277.307 54.9374 235.383 61.1969 189.146 71.1469C136.072 82.5682 86.2539 101.332 37.3893 124.707C11.4902 137.096 -11.1494 147.305 -39.6705 153.919C-65.8428 159.987 -93.8319 165.206 -120.162 170.416C-126.533 171.677 -133.019 172.261 -139.355 173.661V209.77C-136.733 210.173 -134.898 208.27 -132.549 207.551C-123.642 204.838 -110.686 202.313 -101.449 203.07C-92.5856 203.798 -90.9846 208.601 -95.083 216.126C-100.816 226.651 -121.212 245.683 -131.485 251.54C-133.766 252.839 -136.887 253.644 -139.355 254.646V334.605C-134.96 332.165 -131.278 328.738 -127.036 326.03C-94.2777 305.109 -52.934 305.8 -16.3695 296.894C24.3415 286.978 54.8998 256.697 85.2377 230.068C94.096 222.294 117.79 204.369 122.411 194.759C127.267 184.661 115.628 179.221 108.107 175.631C94.3549 169.074 77.7407 165.307 64.4772 158.386C60.3117 156.21 56.5919 151.604 57.843 146.701C58.2169 145.244 63.2836 139.215 64.6833 138.065C79.7444 125.685 98.5779 116.19 116.419 108.291C164.368 87.0639 220.672 73.9746 273.103 70.4902C284.248 69.7473 290.729 69.3447 302.018 70.4567C307.046 70.9551 317.155 71.5686 322.117 72.5176C331.454 74.3054 345.197 80.9626 333.443 91.1042C326.335 97.2391 315.166 102.109 306.768 106.211C288.577 115.097 270.347 123.791 252.333 133.281C238.221 140.715 199.701 160.044 193.11 173.623C189.678 180.697 198.991 184.823 204.236 186.803C226.909 195.344 257.836 200.851 281.88 202.533C298.437 203.693 316.139 198.229 331.243 193.105C369.601 180.088 406.884 173.081 447.979 176.244C499.077 180.174 547.831 188.816 596.408 204.762C633.663 216.993 668.675 234.396 703.25 252.685C706.164 254.229 711.854 257.579 711.73 260.963C711.605 264.346 704.487 260.8 701.256 259.323C697.972 257.818 693.783 254.948 690.322 253.237C607.366 212.301 531.836 186.573 437.136 189.626C401.616 190.771 371.806 199.662 339.56 213.283C335.025 215.201 326.153 219.548 321.484 221.12C307.314 225.889 286.592 221.92 272.025 219.615C229.593 212.9 180.177 199.145 138.177 213.101C78.6467 232.881 44.0426 294.474 -16.3407 311.882C-34.9777 317.254 -54.8706 318.697 -73.6562 323.696C-98.0262 330.181 -121.279 341.636 -139.351 359.369V382.068C-135.578 378.368 -132.127 374.332 -128.273 370.704C-103.414 347.334 -80.2856 340.524 -47.9249 332.917C-14.9122 325.158 3.71518 319.349 30.4004 298.28C47.0242 285.152 62.3585 270.299 79.2123 257.315C123.868 222.898 161.972 215.886 217.777 223.828C242.248 227.307 265.875 235.805 289.732 241.633C313.924 247.547 338.338 243.354 359.376 231.094C400.135 207.34 455.576 197.266 502.677 201.517C566.09 207.24 629.061 230.528 685.02 258.542C688.381 260.224 693.275 262.693 696.587 264.495C704.386 268.741 706.255 274.593 695.302 270.519C693.164 269.724 684.79 266.115 682.619 265.075C658.258 253.39 635.039 243.224 609.101 234.899C567.911 221.676 525.906 209.818 482.017 212.334C456.741 213.782 421.816 231.932 398.553 242.884C360.862 260.627 339.124 277.004 295.144 263.57C270.242 255.964 247.223 243.44 221.391 237.756C178.126 228.237 133.287 231.242 95.1026 254.646C55.6189 278.849 27.5771 320.403 -15.5498 338.477C-40.9983 349.141 -68.4313 351.672 -92.8684 365.878C-98.0549 368.893 -105.001 375.722 -109.233 377.884C-110.441 378.497 -112.076 378.296 -112.445 378.541C-112.967 378.886 -112.785 380.923 -113.159 381.445C-113.389 381.766 -114.544 381.891 -115.081 382.351C-120.33 386.813 -124.611 392.229 -129.035 397.295C-132.434 401.187 -135.875 405.079 -139.355 408.903V445.53C-137.491 443.656 -135.851 441.164 -134.274 439.002C-119.511 418.733 -107.584 400.616 -86.1815 385.984C-65.699 371.974 -40.1259 366.161 -18.2629 355.372C28.0324 332.524 55.1539 285.574 100.361 261.456C150.846 234.525 202.007 241.456 252.146 264.782C281.741 278.552 310.353 298.582 344.742 294.321C368.925 291.325 386.1 283.355 406.424 270.884C431.508 255.484 460.978 234.036 490.453 228.52C514.819 223.962 540.656 228.798 564.311 234.3C600.823 242.798 636.765 253.855 670.966 268.995C675.755 271.114 684.608 274.555 688.611 277.143C689.368 277.632 693.452 280.58 694.118 281.188C697.047 283.848 697.455 286.599 696.486 288.493C695.221 290.966 685.107 286.738 681.785 284.994C646.203 266.302 606.537 256.107 566.588 250.068C552.845 247.993 533.734 247.591 520.451 251.286C509.143 254.43 494.595 261.581 484.035 266.858C469.19 274.267 456.64 280.493 442.044 288.44C423.124 298.74 408.639 313.53 387.729 321.822C373.531 327.454 347.872 332.702 333.266 328.105C328.108 326.481 318.013 322.575 313.023 320.49C283.75 308.263 259.658 286.993 231.007 273.021C170.494 243.517 114.2 250.787 64.6689 295.912C41.5548 316.972 21.9495 342.748 -2.39169 362.461C-19.4373 376.264 -39.3446 386.185 -57.2817 398.364C-68.2108 405.783 -78.6558 414.175 -87.471 424.408C-97.4174 435.954 -104.684 448.248 -113.341 460.441C-120.637 470.716 -128.393 481.016 -139.351 487.822V515.678C-136.748 514.94 -134.37 513.612 -131.906 512.548C-96.5594 497.278 -85.7118 466.777 -61.7924 440.541C-40.0827 416.73 -14.3898 397.108 7.95261 373.321C22.8459 357.466 35.4719 340.092 49.9673 324.027C67.7847 304.28 87.366 286 112.412 275.562C139.557 264.246 173.783 264.169 200.463 276.736C226.741 289.116 253.345 305.095 274.652 324.295C286.405 334.892 307.564 361.794 320.789 366.372C335.476 371.457 356.716 369.381 364.903 385.198C367.496 390.206 365.028 400.386 363.273 405.697C356.241 426.991 338.688 440.014 324.168 455.84C314.706 466.149 306.907 477.292 295.8 486.279C268.674 508.23 248.925 501.721 216.847 503.797C197.395 505.057 179.343 511.81 160.912 516.991C126.955 526.534 75.9671 536.493 60.0432 571.917C55.523 581.968 56.1461 593.49 61.4189 603.037C75.0324 627.687 103.779 632.293 128.921 638.715C140.482 641.668 151.934 644.931 163.779 646.676C221.142 655.135 279.968 641.097 333.108 668.876C355.196 680.422 378.056 686.898 402.656 691.537C427.213 696.172 430.88 700.207 451.171 712.664C473.854 726.592 490.166 729.535 514.919 736.619C548.987 746.367 575.341 767.436 608.071 777.597C665.051 795.283 700.321 760.554 744.718 732.957L781 711.461V691.087C779.826 691.887 778.9 692.932 777.673 693.694C739.388 717.438 695.815 769.119 649.213 772.105C608.938 774.683 582.124 751.347 547.942 736.101C525.058 725.897 498.439 723.467 476.974 710.598C457.321 698.817 446.905 678.342 424.5 669.183C410.724 663.552 393.4 663.211 380.295 656.64C371.873 652.418 363.393 644.524 355.028 639.602C341.923 631.885 327.284 628.904 312.683 625.717C290.513 620.876 268.78 619.903 246.303 617.291C227.594 615.115 215.515 613.385 196.254 614.243C172.479 615.297 130.263 613.725 110.595 599.265C91.9198 585.534 104.608 568.994 119.962 560.136C135.315 551.279 175.13 540.61 192.65 538.42C208.267 536.469 222.868 540.438 238.044 539.959C260.885 539.24 303.868 515.156 318.756 497.897C332.317 482.176 340.317 468.44 356.677 454.828C379.839 435.556 397.36 422.218 416.485 398.052C423.757 388.864 433.066 372.18 445.951 369.741C470.307 365.121 482.314 393.221 499.993 403.339C523.495 416.787 551.839 399.859 577.244 406.047C582.536 407.336 588.135 410.116 593.317 411.64C632.556 423.195 673.022 408.342 710.67 428.415C722.582 434.765 732.457 444.131 742.58 452.758C754.046 462.535 765.905 472.811 777.223 482.838L780.99 487.837L780.99 262.405C777.947 261.231 774.912 259.745 772.055 258.187C755.24 249.019 738.285 240.257 721.82 231.041C696.146 216.667 671.278 200.903 645.163 187.498C627.633 178.502 609.499 170.354 591.495 162.235C577.043 155.717 561.478 150.536 548.354 141.923C545.109 139.795 539.884 135.457 540.608 131.158C541.657 124.932 546.024 123.173 545.248 115.112C543.872 100.815 513.716 83.5268 502.226 76.6203C432.97 34.9897 355.081 -4.10077 272.058 0.346985C218.285 3.22748 164.488 10.5174 111.18 16.9351C76.5375 21.1048 41.7801 26.8945 6.84531 26.1948C-40.3032 25.2505 -88.9665 27.4121 -136.024 25.6531C-137.179 25.61 -138.267 25.5047 -139.355 25.1116V59.16C-135.128 59.2462 -130.933 58.5752 -126.72 58.6088C-95.8883 58.8676 -66.8351 62.328 -36.4445 64.3218C-5.19588 66.3732 24.3079 56.9265 54.4972 50.528C113.303 38.0619 172.973 27.9969 232.862 20.9897C282.412 15.1904 323.257 13.6184 371.374 28.4619C407.598 39.6387 436.12 56.3754 467.498 75.7528C475.742 80.8476 495.142 94.6509 492.083 104.797C491.249 107.572 488.076 112.557 486.288 114.843C481.336 121.184 472.641 125.761 481.816 133.137C492.002 141.324 516.75 147.569 529.645 151.854C568.117 164.636 603.91 176.906 640.312 194.4C672.27 209.761 702.919 228.069 734.24 244.916C742.043 249.115 751.813 253.385 758.979 257.838C760.172 258.581 764.165 260.349 762.406 262.961C760.738 265.439 749.958 258.566 742.475 254.737C711.399 238.844 680.831 221.331 649.304 205.524C615.784 188.72 581.251 176.819 545.195 166.735C515.993 158.568 487.204 151.278 457.954 143.581C444.158 139.948 426.202 137.221 413.82 130.449C412.239 129.586 409.875 127.362 410.057 125.493C410.331 122.622 417.444 118.098 419.932 116.746C426.566 113.137 435.122 109.753 441.263 105.574C460.437 92.5229 440.659 77.2625 428.584 68.7456C399.876 48.5007 358.566 34.7932 323.574 31.3279C285.547 27.5608 244.817 34.563 207.001 40.5206C173.15 45.855 140.276 51.6591 107.005 59.6967C83.5312 65.3666 60.4698 72.4744 37.4804 79.9321C-0.335312 92.2018 -32.5187 105.555 -73.5891 101.462C-93.9517 99.4294 -113.394 95.5424 -134.04 93.9368C-135.693 93.8074 -137.711 93.9128 -139.355 94.234V132.409C-132.314 131.762 -125.459 133.626 -118.485 133.976C-55.1774 137.168 -4.05025 117.963 53.0352 96.0073C98.784 78.408 146.283 65.7693 194.821 56.7204C233.773 49.4592 273.865 42.4377 313.872 43.6599C339.967 44.4555 366.715 50.7629 390.069 62.9032C393.271 64.5663 399.962 67.9692 402.508 70.0684C405.369 72.4313 412.147 79.4145 413.768 82.5346C415.278 85.4439 415.858 87.4425 414.396 90.5722C410.776 98.3223 394.977 103.268 387.274 106.269C366.212 114.474 342.642 121.678 324.163 134.983C324.163 134.983 320.098 138.017 318.483 140.648C316.671 143.6 316.264 145.426 316.853 146.605C317.639 148.173 320.817 149.352 323.018 149.035C344.464 145.978 372.342 147.401 394.867 148.379C446.799 150.622 500.434 165.226 551.043 176.374C555.491 177.352 573.064 182.648 576.87 183.975C611.58 196.053 638.5 206.842 668.584 222.366C685.864 231.281 702.588 239.912 719.567 249.282C722.956 251.152 726.829 252.963 733.257 258.178V258.159ZM-68.508 226.445C-40.8113 205.538 -9.7305 182.858 27.0402 184.469C39.3354 185.006 59.2235 190.187 69.0453 197.663C74.3997 201.737 77.5298 208.505 74.6058 215.052C65.5845 235.273 33.7846 260.507 13.8773 270.395C-13.3064 283.901 -40.7347 285.89 -70.4829 288.694C-87.0012 290.252 -103.754 292.245 -120.44 291.589C-125.915 291.373 -128.939 288.579 -124.913 283.791C-111.759 268.133 -97.4558 253.198 -82.6344 238.887L-68.5128 226.44L-68.508 226.445ZM759.497 438.12C745.404 426.258 732.591 415.211 715.31 407.767C687.302 395.699 657.491 398.138 628.779 391.122C607.668 385.96 590.196 375.162 567.662 375.325C561.354 375.368 554.94 377.184 548.589 376.906C538.11 376.451 527.771 372.947 520.993 364.776C503.928 344.2 518.083 319.617 531.601 301.635C549.634 277.642 574.804 271.56 603.661 276.439C635.753 281.864 665.31 293.516 695 306.332C700.671 308.781 702.123 310.027 705.071 312.768C714.884 321.884 721.935 331.293 728.416 343.246C730.592 347.258 731.718 351.586 731.263 354.169C731.21 354.471 730.966 355.132 730.678 355.238C728.842 355.899 727.198 355.214 724.749 353.958C718.867 350.948 711.332 347.526 705.278 345.058C688.841 338.357 676.747 336.517 658.977 336.665C651.126 336.728 632.091 336.953 647.617 347.004C670.266 361.67 698.921 356.992 722.697 368.394C731.172 372.458 750.902 386.722 755.11 394.793C762.809 409.545 767.976 425.429 772.477 441.394C772.779 442.467 773.886 443.325 774.169 444.864C774.457 446.441 774.236 448.061 774.289 449.642C773.886 449.652 773.474 449.7 773.081 449.566C772.53 449.379 766.97 443.944 765.776 442.942C763.94 441.403 761.471 439.779 759.501 438.12H759.497Z" fill="#FCFECE"/>
</g>
<defs>
<clipPath id="clip0_2081_5">
<rect width="440" height="177" fill="white"/>
</clipPath>
</defs>
</svg>
