<svg width="440" height="250" viewBox="0 0 440 250" fill="none" xmlns="http://www.w3.org/2000/svg">
<g clip-path="url(#clip0_2086_7)">
<path d="M-216.016 197.912L-216.016 183.267C-209.589 183.988 -203.132 184.411 -196.681 184.895C-163.822 187.37 -146.141 184.357 -122.161 161.319C-97.042 137.179 -82.7654 105.826 -46.1441 95.6902C-38.0458 93.4512 -31.3769 92.9186 -23.2664 91.6962C0.628869 88.0896 23.6883 81.4995 47.3534 76.8277C78.1598 70.746 110.281 67.0425 141.669 65.2875C159.495 64.2891 177.484 64.4948 195.05 60.8579C218.957 55.9077 242.519 49.3842 266.384 43.8532C281.121 40.4401 292.86 37.8683 306.646 31.5989C333.794 19.2478 360.039 2.17051 391.639 6.33999C417.109 9.69857 442.216 28.3735 467.402 27.0543C478.123 26.4915 487.348 24.906 498.335 25.0391C501.394 25.0754 506.652 24.5308 509.347 25.021C509.801 25.1057 510.11 25.2267 510.365 25.6322L510.365 35.1935C507.899 35.8108 505.707 34.6065 503.659 34.3645C494.44 33.2933 481.478 36.3251 471.884 36.8153C457.383 37.5536 448.818 31.8773 436.232 26.8848C420.52 20.6518 402.348 13.0027 385.182 13.2084C349.67 13.6381 322.812 38.0619 290.001 47.5143C275.682 51.6414 260.8 54.1165 246.414 57.6627C228.097 62.1771 210.35 68.2044 192.052 72.507C175.982 76.2831 160.452 77.0153 144.11 77.8989C131.662 78.5706 118.627 81.2151 106.21 82.7461C84.7681 85.3906 63.3078 87.4179 42.0413 91.4542C26.311 94.4376 11.0289 99.073 -4.67109 102.553C-25.0593 107.067 -49.53 108.574 -66.9806 120.447C-85.4063 132.986 -99.6465 155.83 -113.996 172.732C-129.084 190.505 -140.714 201.948 -165.705 202.42C-178.668 202.662 -191.212 200.544 -203.998 199.153C-205.198 199.019 -206.464 199.286 -207.651 199.14C-210.461 198.802 -213.151 197.712 -216.004 197.924L-216.016 197.912Z" fill="#FECEE7"/>
<path d="M498.898 5.12761C499.818 18.0511 487.325 27.6511 477.642 33.9898C444.613 55.6011 406.452 74.3988 369.571 88.3407C356.255 93.3779 342.547 97.5526 329.358 102.91C318.544 107.298 307.985 112.447 297.228 116.983C272.174 127.54 243.569 137.566 220.077 150.843C187.38 169.316 167.223 199.804 208.125 224.067C237.5 241.503 285.672 243.712 319.005 240.371C396.227 232.627 459.655 187.089 529.65 158.394C535.97 155.8 542.074 152.866 548.69 151.593L568.302 124.963C565.439 125.241 562.609 125.844 559.839 126.96C506.443 150.363 456.082 180.291 401.667 201.449C372.078 212.954 343.357 220.267 311.593 222.379C285.909 224.091 244.397 222.602 225.133 203.311C198.205 176.337 254.627 149.787 273.735 140.453C293.611 130.734 315.044 120.561 335.38 111.92C350.461 105.51 366.224 100.72 381.515 94.8873C414.228 82.421 445.466 66.7692 477.435 52.6069C491.33 46.4557 506.517 41.6043 519.555 33.7045C538.31 22.3288 536.219 12.5138 523.531 -1.61699L477.975 -35.1673C485.427 -23.8955 498.235 -4.3908 498.91 5.15182L498.898 5.12761Z" fill="#FECEE7"/>
<path d="M508.032 67.416C469.514 71.4279 434.704 89.3015 399.034 103.003C385.997 108.011 372.659 112.237 359.644 117.277C343.513 123.529 327.5 131.941 312.533 140.639C299.278 148.346 252.595 174.065 280.15 190.32C301.018 202.634 349.074 194.667 371.926 188.902C412.027 178.797 457.548 157.696 493.064 136.44C509.641 126.523 527.635 115.563 542.988 103.898C551.15 97.7038 569.593 85.3346 557.358 74.4035C546.763 64.9221 521.448 65.9998 508.022 67.4088L508.032 67.416ZM448.757 125.965C441.14 132.303 429.872 138.175 420.914 142.513C407.794 148.866 375.73 163.484 362.22 154.305C356.801 150.632 360.242 144.44 363.951 140.986C373.224 132.359 407.085 122.407 420.32 118.589C427.07 116.633 447.685 110.537 453.646 113.596C459.578 116.634 451.586 123.603 448.747 125.958L448.757 125.965Z" fill="#FECEE7"/>
</g>
<defs>
<clipPath id="clip0_2086_7">
<rect width="440" height="250" fill="white"/>
</clipPath>
</defs>
</svg>
