<svg width="1920" height="800" viewBox="0 0 1920 800" fill="none" xmlns="http://www.w3.org/2000/svg">
<g clip-path="url(#clip0_2032_92)">
<path d="M-346.01 801.908C-349.136 758.127 -306.657 725.605 -273.732 704.131C-161.419 630.918 -31.6542 567.237 93.7578 520.006C139.038 502.941 185.65 488.798 230.498 470.65C267.27 455.784 303.176 438.339 339.754 422.972C424.947 387.208 522.216 353.244 602.101 308.265C713.283 245.682 781.825 142.401 642.742 60.2035C542.853 1.13572 379.05 -6.35022 265.701 4.97002C3.11406 31.2056 -212.566 185.473 -450.579 282.685C-472.071 291.471 -492.825 301.413 -515.325 305.725L-582.013 395.94C-572.279 395 -562.653 392.956 -553.233 389.176C-371.666 309.89 -200.419 208.505 -15.3848 136.827C85.2303 97.8494 182.895 73.0771 290.905 65.9222C378.242 60.1228 519.403 65.1663 584.908 130.519C676.474 221.898 484.614 311.843 419.638 343.462C352.052 376.389 279.17 410.852 210.022 440.126C158.738 461.84 105.138 478.069 53.1418 497.828C-58.0972 540.06 -164.319 593.084 -273.026 641.062C-320.274 661.9 -371.919 678.336 -416.253 705.098C-480.026 743.636 -472.915 776.886 -429.772 824.757L-274.861 938.416C-300.203 900.23 -343.756 834.154 -346.052 801.826L-346.01 801.908Z" fill="#FECEE7"/>
<path d="M-377.066 590.896C-246.088 577.305 -127.72 516.754 -6.42677 470.338C37.9035 453.372 83.2596 439.054 127.514 421.982C182.368 400.8 236.818 372.302 287.714 342.836C332.783 316.729 491.528 229.6 397.828 174.531C326.868 132.817 163.456 159.806 85.7507 179.336C-50.6103 213.569 -205.402 285.053 -326.17 357.061C-382.538 390.658 -443.728 427.787 -495.934 467.307C-523.687 488.289 -586.4 530.193 -544.796 567.224C-508.769 599.345 -422.689 595.694 -377.033 590.921L-377.066 590.896ZM-175.507 392.547C-149.605 371.077 -111.29 351.183 -80.83 336.49C-36.2171 314.967 72.8144 265.446 118.756 296.54C137.18 308.983 125.48 329.96 112.869 341.661C81.3377 370.887 -33.8064 404.6 -78.8102 417.537C-101.762 424.162 -171.862 444.815 -192.132 434.451C-212.302 424.161 -185.127 400.551 -175.473 392.571L-175.507 392.547Z" fill="#FECEE7"/>
<mask id="mask0_2032_92" style="mask-type:alpha" maskUnits="userSpaceOnUse" x="-385" y="133" width="2470" height="667">
<path d="M2085 148.837V198.449C2063.15 196.009 2041.19 194.574 2019.26 192.934C1907.52 184.549 1847.4 194.759 1765.85 272.805C1680.44 354.583 1631.89 460.797 1507.36 495.136C1479.83 502.721 1457.15 504.525 1429.57 508.666C1348.32 520.885 1269.91 543.21 1189.43 559.037C1084.68 579.64 975.455 592.186 868.722 598.132C808.106 601.514 746.934 600.817 687.203 613.138C605.908 629.908 525.787 652.008 444.636 670.745C394.524 682.308 354.607 691.02 307.729 712.259C215.415 754.101 126.169 811.954 18.7161 797.829C-67.8931 786.452 -153.266 723.186 -238.908 727.655C-275.364 729.562 -306.733 734.933 -344.095 734.482C-354.496 734.359 -372.374 736.204 -381.54 734.544C-383.085 734.257 -384.135 733.847 -385 732.473V700.082C-376.617 697.991 -369.161 702.07 -362.2 702.89C-330.851 706.519 -286.774 696.248 -254.149 694.588C-204.841 692.087 -175.717 711.316 -132.917 728.229C-79.4889 749.345 -17.6988 775.258 40.6723 774.561C161.431 773.106 252.757 690.364 364.329 658.342C413.02 644.361 463.626 635.976 512.543 623.963C574.828 608.669 635.176 588.25 697.399 573.674C752.042 560.882 804.852 558.401 860.422 555.408C902.748 553.132 947.072 544.174 989.296 538.987C1062.21 530.028 1135.18 523.16 1207.5 509.486C1260.99 499.379 1312.95 483.676 1366.34 471.888C1435.67 456.594 1518.88 451.49 1578.22 411.267C1640.87 368.79 1689.3 291.399 1738.09 234.141C1789.4 173.93 1828.94 135.163 1913.92 133.564C1958 132.744 2000.66 139.919 2044.14 144.634C2048.21 145.085 2052.52 144.183 2056.56 144.675C2066.11 145.823 2075.26 149.514 2084.96 148.796L2085 148.837Z" fill="#FECEE7"/>
</mask>
<g mask="url(#mask0_2032_92)">
<rect y="254" width="1920" height="546" fill="#FECEE7"/>
</g>
</g>
<defs>
<clipPath id="clip0_2032_92">
<rect width="1920" height="800" fill="white"/>
</clipPath>
</defs>
</svg>
