<svg width="1788" height="800" viewBox="0 0 1788 800" fill="none" xmlns="http://www.w3.org/2000/svg">
<g clip-path="url(#clip0_2044_108)">
<mask id="mask0_2044_108" style="mask-type:luminance" maskUnits="userSpaceOnUse" x="0" y="0" width="1920" height="800">
<path d="M1920 0H0V800H1920V0Z" fill="white"/>
</mask>
<g mask="url(#mask0_2044_108)">
<path d="M-346.011 801.91C-349.137 758.129 -306.658 725.607 -273.733 704.133C-161.42 630.92 -31.6549 567.239 93.7571 520.008C139.037 502.943 185.649 488.8 230.497 470.652C267.269 455.786 303.175 438.341 339.753 422.974C424.946 387.21 522.215 353.246 602.1 308.267C713.282 245.684 781.824 142.403 642.741 60.2054C542.852 1.13761 379.049 -6.34833 265.7 4.97191C3.11337 31.2075 -212.567 185.475 -450.58 282.687C-472.072 291.473 -492.826 301.415 -515.326 305.727L-582.014 395.942C-572.28 395.002 -562.654 392.958 -553.234 389.178C-371.667 309.892 -200.42 208.507 -15.3855 136.829C85.2296 97.8513 182.894 73.079 290.904 65.9241C378.241 60.1247 519.402 65.1682 584.907 130.521C676.473 221.9 484.613 311.845 419.637 343.464C352.051 376.391 279.169 410.854 210.021 440.128C158.737 461.842 105.137 478.071 53.1411 497.83C-58.0979 540.062 -164.32 593.086 -273.027 641.064C-320.275 661.902 -371.92 678.338 -416.254 705.1C-480.027 743.638 -472.916 776.888 -429.773 824.759L-274.862 938.418C-300.204 900.232 -343.757 834.156 -346.053 801.828L-346.011 801.91Z" fill="#FECEE7"/>
<path d="M-377.066 590.899C-246.088 577.308 -127.72 516.757 -6.42676 470.341C37.9035 453.375 83.2596 439.057 127.514 421.985C182.368 400.803 236.818 372.305 287.714 342.839C332.783 316.732 491.528 229.603 397.828 174.534C326.868 132.82 163.456 159.809 85.7507 179.339C-50.6103 213.572 -205.402 285.056 -326.17 357.064C-382.538 390.661 -443.728 427.79 -495.934 467.31C-523.687 488.292 -586.4 530.196 -544.796 567.227C-508.769 599.348 -422.689 595.697 -377.033 590.924L-377.066 590.899ZM-175.507 392.55C-149.605 371.08 -111.29 351.186 -80.83 336.493C-36.2171 314.97 72.8144 265.449 118.756 296.543C137.18 308.986 125.48 329.963 112.869 341.664C81.3377 370.89 -33.8064 404.603 -78.8102 417.54C-101.762 424.165 -171.862 444.818 -192.132 434.454C-212.302 424.164 -185.127 400.554 -175.473 392.574L-175.507 392.55Z" fill="#FECEE7"/>
<mask id="mask1_2044_108" style="mask-type:alpha" maskUnits="userSpaceOnUse" x="-385" y="133" width="2470" height="667">
<path d="M2085 148.838V198.45C2063.15 196.01 2041.19 194.575 2019.26 192.935C1907.52 184.55 1847.4 194.76 1765.85 272.806C1680.44 354.584 1631.89 460.798 1507.36 495.137C1479.83 502.722 1457.15 504.526 1429.57 508.667C1348.32 520.886 1269.91 543.211 1189.43 559.038C1084.68 579.641 975.455 592.187 868.722 598.133C808.106 601.515 746.934 600.818 687.203 613.139C605.908 629.909 525.787 652.009 444.636 670.746C394.524 682.309 354.607 691.021 307.729 712.26C215.415 754.102 126.169 811.955 18.7161 797.83C-67.8931 786.453 -153.266 723.187 -238.908 727.656C-275.364 729.563 -306.733 734.934 -344.095 734.483C-354.496 734.36 -372.374 736.205 -381.54 734.545C-383.085 734.258 -384.135 733.848 -385 732.474V700.083C-376.617 697.992 -369.161 702.071 -362.2 702.891C-330.851 706.52 -286.774 696.249 -254.149 694.589C-204.841 692.088 -175.717 711.317 -132.917 728.23C-79.4889 749.346 -17.6988 775.259 40.6723 774.562C161.431 773.107 252.757 690.365 364.329 658.343C413.02 644.362 463.626 635.977 512.543 623.964C574.828 608.67 635.176 588.251 697.399 573.675C752.042 560.883 804.852 558.402 860.422 555.409C902.748 553.133 947.072 544.175 989.296 538.988C1062.21 530.029 1135.18 523.161 1207.5 509.487C1260.99 499.38 1312.95 483.677 1366.34 471.889C1435.67 456.595 1518.88 451.491 1578.22 411.268C1640.87 368.791 1689.3 291.4 1738.09 234.142C1789.4 173.931 1828.94 135.164 1913.92 133.565C1958 132.745 2000.66 139.92 2044.14 144.635C2048.21 145.086 2052.52 144.184 2056.56 144.676C2066.11 145.824 2075.26 149.515 2084.96 148.797L2085 148.838Z" fill="#FECEE7"/>
</mask>
<g mask="url(#mask1_2044_108)">
<path d="M1920 254H0V800H1920V254Z" fill="#FECEE7"/>
</g>
</g>
</g>
<defs>
<clipPath id="clip0_2044_108">
<rect width="1788" height="800" fill="white"/>
</clipPath>
</defs>
</svg>
