<svg width="440" height="383" viewBox="0 0 440 383" fill="none" xmlns="http://www.w3.org/2000/svg">
<g clip-path="url(#clip0_2081_4)">
<path d="M439.867 165.293V151.675C433.895 152.346 427.899 152.74 421.903 153.19C391.376 155.492 374.947 152.691 352.666 131.267C329.328 108.823 316.066 79.6678 282.038 70.2421C274.513 68.158 268.32 67.666 260.784 66.5309C238.584 63.1781 217.157 57.0525 195.171 52.7051C166.55 47.0469 136.705 43.6098 107.549 41.9756C90.9866 41.0478 74.2733 41.2375 57.9537 37.8567C35.7431 33.2528 13.8489 27.1869 -8.32297 22.0452C-22.017 18.8682 -32.9237 16.4819 -45.7284 10.6515C-70.9477 -0.833665 -95.334 -16.7118 -124.694 -12.8389C-148.36 -9.71813 -171.684 7.64665 -195.079 6.42011C-205.037 5.89646 -213.61 4.4204 -223.817 4.54692C-226.661 4.58207 -231.546 4.07248 -234.045 4.53287C-234.471 4.61018 -234.752 4.72616 -234.991 5.09869V13.9867C-232.699 14.563 -230.661 13.4384 -228.763 13.217C-220.2 12.2224 -208.155 15.0375 -199.241 15.4944C-185.768 16.1832 -177.814 10.9045 -166.117 6.26196C-151.519 0.470189 -134.637 -6.64652 -118.69 -6.45323C-85.6926 -6.0561 -60.744 16.6541 -30.2629 25.4437C-16.9626 29.2779 -3.13147 31.5834 10.2356 34.8799C27.2512 39.0762 43.7395 44.6817 60.7445 48.6811C75.6758 52.192 90.1044 52.8738 105.289 53.6927C116.856 54.3182 128.965 56.7783 140.501 58.2017C160.423 60.6618 180.363 62.542 200.12 66.2954C214.735 69.0718 228.935 73.3805 243.519 76.6137C262.464 80.8135 285.198 82.2122 301.409 93.2546C318.53 104.915 331.76 126.153 345.092 141.87C359.109 158.394 369.914 169.036 393.133 169.475C405.175 169.704 416.831 167.732 428.711 166.439C429.822 166.319 430.999 166.562 432.106 166.428C434.714 166.112 437.217 165.096 439.867 165.3L439.867 165.293Z" fill="#E1F0A3"/>
<path d="M439.867 137.302V124.063C435.804 124.337 431.481 125.824 427.576 126.337C392.564 130.944 372.909 120.194 349.682 96.0355C332.315 77.9678 316.488 59.8158 294.488 46.8265C280.98 38.8487 264.559 38.6554 249.424 36.2832C216.809 31.1732 184.901 24.9421 151.805 22.3098C143.148 21.621 134.438 20.8794 125.717 20.405C94.9549 18.7392 63.683 20.2222 33.3003 14.8452C7.17416 10.2237 -16.3615 5.04343 -41.015 -5.03242C-60.8811 -13.1508 -90.7225 -28.6494 -112.234 -26.857C-136.353 -24.8468 -156.641 -7.62607 -180.345 -8.69094C-195.101 -9.35166 -209.677 -12.6939 -224.604 -12.1281L-234.991 -11.3549V-3.41227C-228.759 -3.7848 -222.513 -4.442 -216.25 -4.18545C-206.7 -3.78832 -196.967 -1.97136 -187.512 -1.52503C-170.036 -0.699137 -160.068 -6.96887 -144.578 -12.6763C-136.191 -15.7655 -127.471 -18.1026 -118.708 -19.3361C-93.8085 -22.84 -66.2448 -7.06728 -44.2205 2.71337C-18.9274 13.942 10.4079 18.7567 37.3846 24.3763C45.2017 26.0035 52.9767 28.2492 61.0152 28.7377C90.5894 30.5265 120.287 30.2454 149.903 33.2854C184.163 36.7998 216.581 45.4875 250.239 50.5974C258.815 51.8978 268.123 52.4144 276.464 54.256C293.5 58.0199 309.56 69.0622 321.591 81.187C336.986 96.7032 351.25 117.965 370.125 129.299C390.251 141.382 411.977 141.203 434.721 138.405C436.191 138.226 438.236 137.456 439.86 137.302H439.867Z" fill="#E1F0A3"/>
<path d="M-177.749 65.5608C-181.896 68.6887 -186.515 72.4561 -190.36 76.206C-191.763 77.5731 -195.798 82.7921 -196.807 83.393C-199.144 84.7812 -198.585 84.8656 -200.42 86.9567C-204.111 91.1634 -208.177 95.2858 -211.541 99.6683C-226.831 119.585 -229.045 146.892 -218.736 169.648C-210.922 186.896 -195.204 199.928 -183.759 214.488C-177.056 223.018 -172.427 232.746 -162.122 237.866C-146.294 245.731 -128.284 237.694 -113.286 231.582C-96.9838 224.94 -82.4743 218.561 -65.16 214.267C-47.2974 209.839 -29.1957 206.261 -11.1503 202.455C2.97603 199.478 12.1358 199.478 18.3677 184.31C22.0548 175.337 24.3465 159.392 19.0812 150.856C15.3449 144.801 6.15702 144.28 -0.10651 145.788C-6.67232 147.366 -11.0238 151.316 -16.4578 154.402C-22.9252 158.071 -27.5578 154.824 -28.802 148.051C-31.3187 134.359 -27.3644 117.933 -32.693 104.659C-40.004 86.4506 -57.6136 83.6917 -74.0527 77.5485C-90.889 71.2612 -105.117 60.4298 -121.813 53.8156C-143.127 45.3704 -160.768 52.7543 -177.756 65.5608H-177.749ZM-102.348 210.921C-117.651 217.792 -141.732 232.907 -157.626 220.888C-169.137 212.183 -174.839 198.171 -183.759 187.255C-184.557 186.278 -185.752 185.649 -186.343 184.921C-195.527 173.615 -201.109 164.71 -205.984 150.849C-217.959 116.801 -190.613 82.8905 -161.949 68.2986C-144.024 59.1751 -127.859 65.5784 -111.553 74.2028C-104.344 78.016 -97.729 82.7745 -90.0208 85.579C-80.7345 88.9599 -66.0879 91.796 -58.3552 97.7916C-57.3042 98.607 -57.4132 99.4539 -56.9387 99.8757C-56.1408 100.582 -53.8527 101.545 -53.0267 102.301C-42.9635 111.561 -44.8967 141.262 -49.0619 153.19C-54.9212 169.964 -60.9246 180.693 -74.4112 192.147C-82.8153 199.285 -92.0454 205.509 -101.94 210.313L-102.348 210.921Z" fill="#E1F0A3"/>
<path d="M-234.99 205.201C-232.435 207.618 -230.624 210.662 -228.333 213.294C-220.941 221.785 -212.15 229.359 -203.975 236.978C-189.324 250.628 -178.829 264.689 -156.854 267.785C-137.255 270.544 -117.568 260.528 -98.6018 262.117C-83.1328 263.413 -78.1733 272.4 -59.8361 267.62C-45.5446 263.895 -31.7135 258.648 -16.9018 256.842C2.60585 254.459 28.9394 253.253 46.201 243.153C50.1377 240.847 55.5541 236.258 55.5576 231.302C55.5646 224.502 49.7194 218.664 47.3996 212.581C37.7934 187.382 56.1868 150.969 45.6105 129.261C40.0991 117.955 18.8236 116.595 8.8237 108.926C-2.80706 100.003 -8.11455 85.0739 -19.9246 76.3933C-31.3022 68.0325 -44.353 66.0327 -57.3616 61.6292C-88.6406 51.0402 -115.231 23.3606 -150.415 32.5543C-170.327 37.7557 -187.353 54.3508 -202.453 67.5194C-212.435 76.2246 -223.152 85.0458 -232.522 94.1903C-233.289 94.9389 -234.329 95.3782 -234.99 96.2603V116.12C-232.761 114.901 -232.895 112.328 -231.661 110.184C-225.338 99.2125 -216.793 91.7232 -207.887 83.0812C-190.92 66.6161 -173.553 47.5539 -149.648 40.887C-122.556 33.3345 -95.5509 56.224 -72.1277 66.1804C-53.0418 74.2917 -29.6678 76.6393 -18.7471 96.777C-15.2779 103.173 -12.5257 112.824 -8.72263 118.524C-4.04079 125.546 5.45995 125.894 12.8623 127.957C25.9236 131.594 33.6915 134.768 35.0975 149.602C36.0395 159.534 34.9217 171.037 33.5333 180.94C31.3576 196.46 28.2153 209.499 14.1874 217.859C1.88884 225.191 -14.1988 229.51 -27.8893 234.511C-37.7204 238.103 -52.9505 245.634 -63.0452 245.5C-70.0433 245.409 -77.6847 242.141 -84.9921 241.691C-111.428 240.057 -134.721 261.463 -161.905 253.538C-164.014 252.923 -167.919 251.521 -169.68 250.343C-177.912 244.84 -181.785 240.471 -187.926 233.031C-202.214 215.719 -222.231 201.468 -232.241 180.888C-234.993 175.233 -234.276 174.006 -234.224 168.151C-234.139 158.557 -233.942 148.555 -234.224 138.996C-234.248 138.103 -234.593 137.274 -234.635 136.378C-234.709 134.74 -234.551 133.081 -234.621 131.44C-234.642 130.976 -234.333 130.034 -235 130.118V205.204L-234.99 205.201Z" fill="#E1F0A3"/>
<path d="M69.0495 188.278C72.336 188.851 74.4765 186.535 75.7313 183.79C77.5521 179.811 78.009 170.154 76.0407 166.154C73.3131 160.616 68.5786 165.726 66.7297 169.114C64.5857 173.046 63.1445 180.367 64.7895 184.588C65.3027 185.905 67.6471 188.032 69.0495 188.274V188.278Z" fill="#E1F0A3"/>
<path d="M268.285 339.827C273.35 332.795 275.645 323.415 276.408 314.854C277.089 307.227 272.988 288.833 269.199 282.046C263.673 272.146 251.36 262.967 239.912 261.779C223.646 260.092 202.992 270.92 195.664 285.561C191.27 294.343 190.567 311.49 193.421 320.751C197.414 333.705 209.02 345.078 220.338 351.709C237.413 361.718 257.16 355.273 268.285 339.827Z" fill="#E1F0A3"/>
<path d="M439.867 179.287C427.635 180.205 415.977 183.919 404.328 187.441C392.68 190.962 375.921 198.237 364.128 194.311C350.575 189.802 346.944 175.439 341.204 163.898C330.818 143.015 318.161 121.802 299.88 107.252C291.933 100.926 283.388 98.9756 273.708 96.7299C253.891 92.133 234.292 86.2393 214.507 81.7901C190.268 76.3392 163.277 76.2584 138.525 72.6596C125.953 70.8321 113.7 68.2033 101.183 67.1806C95.4786 66.7132 89.5139 65.3004 83.8865 64.1265C57.2964 58.5878 31.6413 49.5663 5.52567 42.2457C-14.5408 36.6191 -35.2365 33.5159 -54.2591 24.8634C-64.6385 20.14 -74.3501 13.807 -84.8596 9.31204C-112.631 -2.56321 -134.177 -2.88302 -161.684 9.55805C-169.674 13.1709 -177.371 17.3601 -185.361 21.0643C-197.775 26.8174 -209.297 25.8755 -222.678 24.1886L-234.991 25.7174V43.8729L-225.255 40.1793C-210.404 39.5853 -200.109 35.9619 -187.29 29.3443C-167.583 19.1665 -151.874 8.2296 -128.5 7.18581C-97.5765 5.80464 -73.7878 27.5906 -46.5228 37.1709C-34.5511 41.3777 -21.9291 43.416 -9.82736 47.0043C7.03705 52.0053 22.4464 59.853 39.5744 64.5588C43.7044 65.694 48.0628 66.3125 52.2068 67.4336C73.6477 73.2359 94.3433 81.1258 115.967 85.7579C139.597 90.8221 161.544 91.3352 185.488 92.6496C207.698 93.8691 224.289 98.4871 245.35 103.903C260.735 107.86 279.167 110.644 292.611 119.433C309.001 130.149 322.301 153.495 319.148 173.376C314.969 199.755 287.68 207.733 265.395 213.437C249.462 217.514 233.42 221.348 217.73 226.296C202.409 231.132 187.456 238.105 171.731 241.577C161.674 243.798 149.787 243.932 140.255 247.551C131.974 250.697 124.42 256.861 119.088 263.816C117.763 265.545 114.684 269.984 113.981 271.966C112.582 275.909 113.507 281.188 116.617 284.066C125.116 291.925 129.468 295.611 134.019 306.756C138.648 318.083 142.761 328.57 150.487 338.329C162.845 353.944 186.679 370.767 205.055 378.33C234.513 390.455 265.311 377.54 285.708 355.926C292.456 348.774 297.44 342.107 302.98 333.859C313.078 318.814 322.445 302.872 333.563 288.41C345.387 273.031 360.121 259.374 370.649 243.489C371.211 242.638 373.014 241.573 373.664 240.755C382.364 229.86 390.248 218.378 401.688 210.144C408.23 205.438 417.006 200.694 424.521 197.798C429.382 195.925 434.911 194.941 439.86 193.278V179.284L439.867 179.287ZM267.624 359.964C256.46 368.374 242.225 372.676 228.201 371.836C216.665 371.147 201.973 361.844 192.823 355.002C178.103 343.991 167.488 330.116 162.384 312.066C152.82 278.218 175.288 263.018 201.881 249.787C220.63 240.459 237.543 235.402 258.861 234.516C271.469 233.993 293.5 234.256 304.896 239.166C308.941 240.909 313.932 244.831 314.632 249.477C316.54 262.164 309.721 279.642 305.845 291.71C297.82 316.687 289.391 343.569 267.624 359.964Z" fill="#E1F0A3"/>
</g>
<defs>
<clipPath id="clip0_2081_4">
<rect width="440" height="383" fill="white"/>
</clipPath>
</defs>
</svg>
