<svg width="66" height="50" viewBox="0 0 66 50" fill="none" xmlns="http://www.w3.org/2000/svg">
<path d="M55.4946 16.0084C53.59 15.3472 51.493 14.7798 49.248 14.3111C48.35 14.1236 47.4273 13.9509 46.4848 13.7979C44.1263 13.4081 41.6395 13.1219 39.0688 12.9443C38.5803 12.9097 38.0918 12.8801 37.5984 12.8555L38.304 15.1844C40.3665 15.3127 42.3747 15.5101 44.299 15.7765C48.1674 16.3094 51.72 17.1137 54.7447 18.1646C56.9601 18.9344 58.7956 19.8176 60.192 20.7551C60.6854 21.0857 61.1245 21.4212 61.5045 21.7617C61.988 22.1959 62.3778 22.6399 62.664 23.084C63.0439 23.6761 63.2413 24.2731 63.2413 24.8554C63.2413 25.8817 62.6344 26.9327 61.5045 27.954C60.0538 29.2616 57.7397 30.5099 54.7447 31.5461C53.0769 32.1234 51.2414 32.6267 49.2924 33.056C45.6658 33.8454 41.6148 34.3685 37.3418 34.5856C35.8369 34.6596 34.3073 34.6991 32.758 34.6991C31.2086 34.6991 29.6791 34.6596 28.1741 34.5856C25.638 34.4573 23.1758 34.2204 20.837 33.8849C19.4406 33.6826 18.0887 33.4507 16.7861 33.1793C14.62 32.7303 12.5969 32.1826 10.7664 31.5461C7.77133 30.505 5.45719 29.2616 4.00655 27.954C3.70556 27.6827 3.44405 27.4063 3.21708 27.13C2.7434 26.5527 2.44242 25.9656 2.32893 25.3883C2.31906 25.3488 2.30919 25.3044 2.30426 25.2649C2.28452 25.1317 2.26972 24.9935 2.26972 24.8603C2.26972 23.982 2.71873 23.084 3.55754 22.2008C3.6957 22.0528 3.84866 21.9097 4.01148 21.7617C4.49503 21.3274 5.07726 20.8982 5.74338 20.4788C6.18745 20.2025 6.67593 19.9261 7.19896 19.6646C8.245 19.1317 9.43907 18.6285 10.7713 18.1696C13.3321 17.2814 16.268 16.566 19.4604 16.0429C19.9143 15.9689 20.3781 15.8999 20.8419 15.8308C22.8847 15.5397 25.0163 15.3226 27.212 15.1893L27.9176 12.8604C27.4241 12.8851 26.9357 12.9147 26.4472 12.9492C25.4159 13.0183 24.4044 13.1071 23.4028 13.2157C22.8452 13.2749 22.2926 13.339 21.7449 13.4081C20.8222 13.5265 19.9143 13.6548 19.0311 13.8028C18.5574 13.8818 18.0936 13.9607 17.6347 14.0495C14.8716 14.5627 12.3058 15.2239 10.0262 16.0183C6.38976 17.2814 3.67102 18.8308 1.98847 20.5577C1.75656 20.7995 1.54933 21.0413 1.35197 21.288C1.08059 21.6334 0.843744 21.9837 0.656246 22.3389C0.547694 22.5413 0.453944 22.7485 0.370063 22.9557C0.123354 23.5774 0 24.2139 0 24.8652C0 26.0396 0.419408 27.1744 1.21381 28.2501C1.37664 28.4672 1.54933 28.6843 1.74176 28.8965C1.91446 29.0889 2.09703 29.2764 2.29439 29.4639C3.99175 31.0724 6.59699 32.5181 10.0262 33.7122C15.1874 35.5033 21.7745 36.6135 28.8797 36.9096C30.1577 36.9638 31.4553 36.9934 32.7629 36.9934C34.0705 36.9934 35.3632 36.9638 36.6461 36.9096C43.7513 36.6135 50.3384 35.5033 55.4996 33.7122C58.3269 32.7303 60.6015 31.5757 62.2643 30.2978C64.4008 28.6547 65.5307 26.8093 65.5307 24.8652C65.5307 21.4064 61.9683 18.2633 55.4996 16.0183L55.4946 16.0084Z" fill="#1E1E1E"/>
<path d="M29.2344 38.0859L32.7574 49.7059L36.2804 38.0859C35.0764 38.1303 33.8922 38.1599 32.7574 38.1599C31.6225 38.1599 30.4432 38.1353 29.2344 38.0859Z" fill="#1E1E1E"/>
<path d="M25.9348 19.3913L16.4464 22.2679L7.90039 24.8584L26.9759 30.6363L27.8098 33.3846C27.9529 33.3945 28.091 33.4043 28.2341 33.4093C29.7242 33.4833 31.244 33.5228 32.7588 33.5228C34.2735 33.5228 35.7933 33.4833 37.2834 33.4093C37.4265 33.4043 37.5646 33.3895 37.7077 33.3846L38.5416 30.6363L57.6171 24.8584L48.0794 21.9669L39.5827 19.3913L38.5416 19.0755L32.7637 0L26.9858 19.0755L25.9447 19.3913H25.9348Z" fill="#1E1E1E"/>
</svg>
