<svg width="115" height="246" viewBox="0 0 115 246" fill="none" xmlns="http://www.w3.org/2000/svg">
<g clip-path="url(#clip0_569_539)">
<path d="M80.5788 79.4771C80.6991 77.7238 81.2872 76.1459 82.3433 74.7432L84.696 76.6179C83.0785 78.6274 82.9448 81.0686 84.3217 83.9547C84.9767 85.3439 85.7787 86.3689 86.7145 87.0432C87.6502 87.7041 88.6528 87.785 89.7088 87.2725C90.7916 86.7465 91.4332 85.9913 91.607 84.9932C91.7808 83.9952 91.5134 82.5386 90.805 80.6235C89.8024 77.9531 89.4949 75.8357 89.896 74.2712C90.297 72.7067 91.2595 71.5603 92.7967 70.8186C94.5211 69.9824 96.152 69.9689 97.716 70.7646C99.28 71.5603 100.563 73.0574 101.606 75.2422C103.37 78.9646 103.116 82.2015 100.831 84.9393L98.4779 83.0646C99.3201 82.0936 99.788 81.0551 99.8815 79.9491C99.9751 78.8297 99.6944 77.6024 99.0394 76.2268C98.371 74.8376 97.6224 73.8936 96.7669 73.408C95.9114 72.909 95.0291 72.8955 94.0934 73.3406C93.2245 73.7587 92.7032 74.5005 92.5294 75.5524C92.3556 76.6044 92.6497 78.1284 93.4116 80.138C94.334 82.6195 94.6013 84.6695 94.2137 86.288C93.826 87.9064 92.8636 89.0932 91.3263 89.835C90.0831 90.4419 88.8399 90.5903 87.6101 90.2936C86.3803 89.9969 85.2574 89.363 84.2281 88.3784C83.1988 87.3939 82.3566 86.207 81.7016 84.8179C80.8327 82.9972 80.4584 81.2169 80.5788 79.4771Z" fill="white"/>
<path d="M111.699 111.228L91.4741 115.449L90.8725 112.482L93.8535 111.862C92.5301 111.255 91.4206 110.419 90.525 109.326C89.6293 108.234 89.0278 106.966 88.7337 105.523C88.3327 103.581 88.4396 101.733 89.0412 100.007C89.6427 98.2805 90.6854 96.7969 92.1424 95.5831C93.5995 94.3693 95.3908 93.5466 97.4895 93.1015C99.5615 92.6699 101.5 92.7104 103.304 93.2364C105.109 93.7489 106.62 94.6795 107.863 96.0147C109.093 97.3499 109.908 98.9953 110.309 100.937C110.616 102.421 110.563 103.851 110.175 105.213C109.788 106.588 109.079 107.816 108.077 108.908L111.098 108.274L111.699 111.228ZM93.1851 108.382C94.0941 109.326 95.2437 109.974 96.6072 110.324C97.9707 110.675 99.4278 110.688 100.978 110.365C102.529 110.041 103.866 109.448 104.989 108.571C106.098 107.708 106.887 106.656 107.355 105.415C107.823 104.174 107.916 102.866 107.635 101.477C107.355 100.115 106.753 98.9683 105.844 98.0377C104.935 97.1071 103.799 96.4598 102.449 96.1091C101.099 95.7584 99.6417 95.745 98.091 96.0686C96.5003 96.3923 95.1635 96.9992 94.0406 97.8624C92.9311 98.7256 92.1425 99.7775 91.6612 100.991C91.1934 102.205 91.0998 103.5 91.3805 104.862C91.6746 106.265 92.2761 107.438 93.1851 108.382Z" fill="white"/>
<path d="M111.473 135.839C110.818 137.04 109.895 137.97 108.719 138.631C107.529 139.292 106.166 139.575 104.602 139.494L90.8199 138.726L90.9803 135.705L103.439 136.406C107.516 136.635 109.668 134.909 109.869 131.24C109.989 129.109 109.321 127.464 107.89 126.318C106.447 125.171 104.468 124.524 101.942 124.376L91.6354 123.796L91.7958 120.775L112.422 121.921L112.262 124.942L108.826 124.753C110.109 125.535 111.072 126.534 111.727 127.747C112.382 128.961 112.663 130.337 112.582 131.874C112.502 133.317 112.128 134.653 111.473 135.839Z" fill="white"/>
<path d="M111.86 170.015C111.432 169.138 110.697 168.504 109.654 168.1L104.414 166.09L102.716 170.581L100.163 169.597L101.847 165.106L85.111 158.686L86.1804 155.854L102.917 162.287L103.852 159.792L106.406 160.776L105.47 163.271L110.723 165.267C112.515 165.955 113.758 167.088 114.466 168.68C115.175 170.271 115.188 171.957 114.506 173.764L114.065 174.938L111.512 173.953L111.953 172.793C112.314 171.822 112.287 170.891 111.86 170.015Z" fill="white"/>
<path d="M94.1206 187.695L91.7412 186.333C92.3026 185.942 92.7571 185.416 93.118 184.769C93.7463 183.663 94.0137 182.449 93.9335 181.141C93.8532 179.833 93.3987 178.565 92.5566 177.31C91.7144 176.07 90.498 174.991 88.9206 174.087L80.3119 169.178L81.7823 166.548L99.7617 176.798L98.2913 179.428L94.682 177.364C95.6178 178.821 96.1658 180.291 96.2995 181.788C96.4466 183.285 96.1391 184.701 95.3905 186.05C95.043 186.684 94.6152 187.223 94.1206 187.695Z" fill="white"/>
<path d="M76.9568 207.969L61.5708 194.077L63.5759 191.825L65.8484 193.875C65.5409 192.445 65.5543 191.043 65.8751 189.667C66.2093 188.291 66.8643 187.051 67.8402 185.945C69.1502 184.461 70.6874 183.45 72.4252 182.91C74.163 182.371 75.9543 182.33 77.799 182.802C79.6304 183.261 81.3548 184.218 82.9589 185.662C84.5363 187.091 85.6591 188.683 86.3141 190.449C86.9692 192.216 87.1429 193.996 86.8087 195.79C86.4746 197.584 85.6591 199.216 84.3491 200.699C83.3465 201.832 82.1836 202.641 80.8602 203.127C79.5368 203.626 78.1332 203.788 76.6761 203.613L78.9753 205.689L76.9568 207.969ZM68.2144 191.272C68.0006 192.58 68.161 193.889 68.6957 195.197C69.2304 196.505 70.0859 197.705 71.2623 198.771C72.4386 199.836 73.7085 200.564 75.072 200.956C76.4221 201.347 77.7322 201.36 78.9887 201.01C80.2453 200.659 81.3548 199.944 82.2905 198.892C83.2129 197.854 83.7743 196.68 83.9748 195.399C84.1753 194.104 84.0149 192.81 83.4936 191.501C82.9723 190.193 82.1167 189.006 80.9404 187.941C79.7373 186.848 78.454 186.12 77.1039 185.729C75.7538 185.338 74.4437 185.324 73.2006 185.662C71.944 185.999 70.8612 186.7 69.9389 187.739C69.0031 188.777 68.4283 189.964 68.2144 191.272Z" fill="white"/>
<path d="M57.4265 222.316C56.0898 222.505 54.7931 222.316 53.5633 221.763C52.3335 221.196 51.2775 220.266 50.4086 218.957L42.7489 207.372L45.2487 205.686L52.1731 216.166C54.4456 219.591 57.0924 220.293 60.1268 218.256C61.8913 217.069 62.8003 215.559 62.8404 213.698C62.8939 211.85 62.2121 209.854 60.8085 207.736L55.0872 199.078L57.5869 197.392L69.043 214.723L66.5432 216.408L64.6317 213.522C64.7787 215.033 64.5648 216.408 64.0034 217.663C63.442 218.917 62.5196 219.969 61.2497 220.832C60.0466 221.628 58.7767 222.127 57.4265 222.316Z" fill="white"/>
<path d="M34.3678 211.742C36.159 212.106 37.7498 212.929 39.14 214.224C40.5302 215.519 41.5863 217.164 42.3081 219.174C43.03 221.183 43.2572 223.139 43.0032 225.027C42.7492 226.915 42.0541 228.574 40.9045 229.99C39.7549 231.42 38.2577 232.458 36.3996 233.132C34.8223 233.699 33.3251 233.861 31.9081 233.604C30.4912 233.348 29.0742 232.768 27.6573 231.851L29.1544 229.464C31.213 230.961 33.3251 231.312 35.4906 230.529C36.7873 230.057 37.8433 229.302 38.6454 228.25C39.4475 227.212 39.9287 225.971 40.0757 224.568C40.2361 223.152 40.0356 221.696 39.5009 220.185C38.9662 218.675 38.1909 217.434 37.1883 216.436C36.1858 215.438 35.0361 214.804 33.7662 214.507C32.4963 214.21 31.1997 214.305 29.903 214.777C28.5796 215.262 27.5637 215.883 26.8686 216.652C26.1734 217.42 25.6387 218.378 25.2645 219.524L22.5107 218.769C23.0187 217.299 23.8208 215.977 24.9169 214.804C26.013 213.63 27.3364 212.767 28.8871 212.201C30.7452 211.54 32.5765 211.378 34.3678 211.742Z" fill="white"/>
<path d="M19.984 241.644C20.5053 242.035 20.8262 242.575 20.9331 243.249C21.04 243.897 20.9064 244.477 20.5321 245.003C20.1578 245.529 19.6365 245.852 18.9681 245.96C18.3264 246.068 17.7383 245.933 17.2035 245.556C16.6688 245.178 16.348 244.652 16.2277 243.978C16.1208 243.33 16.2678 242.737 16.6555 242.197C17.0431 241.658 17.5511 241.321 18.1928 241.226C18.8611 241.105 19.4627 241.253 19.984 241.644ZM15.6796 216.424L19.0215 236.978L16.0673 237.463L12.7254 216.909L15.6796 216.424Z" fill="white"/>
<path d="M3.34127 218.554C4.83844 219.43 5.97468 220.671 6.75 222.249L4.04975 223.544C2.99371 221.184 0.881638 219.983 -2.29984 219.929C-3.82375 219.902 -5.09366 220.172 -6.1096 220.712C-7.12554 221.251 -7.63351 222.128 -7.64687 223.315C-7.66024 224.528 -7.27258 225.445 -6.47053 226.052C-5.66848 226.659 -4.25151 227.064 -2.233 227.28C0.587556 227.563 2.59269 228.224 3.80914 229.289C5.01222 230.341 5.60039 231.73 5.57366 233.457C5.54692 235.385 4.83844 236.869 3.43485 237.921C2.04462 238.973 0.133051 239.472 -2.27311 239.431C-6.36359 239.364 -9.11731 237.692 -10.5343 234.414L-7.82065 233.119C-7.33941 234.32 -6.63094 235.196 -5.68184 235.776C-4.73274 236.356 -3.51629 236.653 -2.00575 236.68C-0.481851 236.707 0.694492 236.437 1.50991 235.884C2.32534 235.331 2.73973 234.536 2.7531 233.497C2.76647 232.513 2.35207 231.717 1.48318 231.096C0.627658 230.476 -0.856148 230.058 -2.98159 229.842C-5.60164 229.559 -7.53993 228.885 -8.79649 227.819C-10.053 226.74 -10.6813 225.351 -10.6546 223.625C-10.6278 222.236 -10.2268 221.035 -9.41139 220.064C-8.59597 219.093 -7.52656 218.351 -6.20317 217.866C-4.86642 217.38 -3.43609 217.151 -1.91218 217.178C0.0929522 217.205 1.8441 217.664 3.34127 218.554Z" fill="white"/>
<path d="M-2.59318 11.0187C-1.33663 11.5446 -0.320691 12.3538 0.467996 13.4732C1.25668 14.5927 1.69782 15.9279 1.77802 17.4923L2.58008 31.3973L-0.414258 31.5726L-1.13611 19.0029C-1.37673 14.8894 -3.31503 12.9338 -6.95102 13.1496C-9.06309 13.271 -10.6004 14.1206 -11.5762 15.6986C-12.552 17.2765 -12.9531 19.3265 -12.806 21.8756L-12.2045 32.2739L-15.1988 32.4492L-17.0569 0.188722L-14.0626 0.0133872L-13.207 14.9433C-12.5788 13.5676 -11.7099 12.4887 -10.587 11.693C-9.46411 10.8973 -8.14073 10.4522 -6.61683 10.3713C-5.1865 10.2769 -3.83637 10.4927 -2.59318 11.0187Z" fill="white"/>
<path d="M29.7832 14.8235L25.813 35.2695L22.8722 34.6896L23.5272 31.2774C22.5781 32.4508 21.4686 33.287 20.1853 33.7725C18.902 34.258 17.5118 34.3525 16.0146 34.0557C14.5976 33.7725 13.3544 33.233 12.2717 32.4103C11.1889 31.5876 10.4002 30.5492 9.91898 29.2679C9.42438 27.9867 9.34417 26.584 9.63826 25.0465L12.2984 11.3709L15.2393 11.9508L12.8331 24.3182C12.0444 28.3643 13.448 30.738 17.0172 31.4528C19.0891 31.8574 20.8002 31.4258 22.1236 30.158C23.447 28.8768 24.356 26.9886 24.8506 24.4801L26.8423 14.257L29.7832 14.8235Z" fill="white"/>
<path d="M53.5914 25.6395C54.5672 27.177 55.0886 28.8899 55.142 30.778C55.1955 32.6662 54.7677 34.5813 53.8454 36.4964C52.9096 38.452 51.6798 39.9895 50.1559 41.1224C48.632 42.2553 46.9611 42.9027 45.1431 43.078C43.3251 43.2398 41.5338 42.9027 39.7693 42.026C38.4459 41.3787 37.3765 40.4885 36.5477 39.3422C35.7189 38.1958 35.1842 36.901 34.9302 35.458L33.6069 38.2228L30.9066 36.9011L44.8624 7.82341L47.5626 9.14513L41.2531 22.2813C42.5498 21.5665 43.8999 21.1754 45.3169 21.1214C46.7338 21.0675 48.1107 21.3777 49.4608 22.0385C51.2253 22.9017 52.6022 24.102 53.5914 25.6395ZM44.8356 40.2593C46.1189 40.0974 47.322 39.5714 48.4315 38.6948C49.541 37.8181 50.45 36.6448 51.1451 35.1747C51.8402 33.7316 52.1744 32.3155 52.1744 30.8994C52.1744 29.4833 51.8269 28.229 51.1451 27.1096C50.4767 25.9902 49.5143 25.127 48.2711 24.5201C47.0012 23.8997 45.7179 23.6704 44.4212 23.8188C43.1246 23.9806 41.9215 24.4932 40.812 25.3698C39.7025 26.2464 38.8068 27.4063 38.1117 28.8494C37.4166 30.2925 37.0691 31.7221 37.0824 33.1382C37.0824 34.5543 37.43 35.8356 38.1117 36.955C38.7935 38.0879 39.7693 38.951 41.0392 39.5714C42.2824 40.1918 43.539 40.4076 44.8356 40.2593Z" fill="white"/>
<path d="M66.2367 52.4923C65.9961 51.5752 65.9827 50.6581 66.2233 49.7275C66.4506 48.7969 66.9318 47.9607 67.6269 47.2459C68.2686 46.5851 69.0439 46.14 69.9662 45.8973C70.8886 45.6545 71.811 45.641 72.7467 45.8838C73.669 46.1265 74.4577 46.5581 75.1127 47.2055C76.1822 48.2709 76.7035 49.5252 76.6768 50.9818C76.65 52.4384 76.1153 53.7061 75.0593 54.7851C74.03 55.8371 72.7868 56.39 71.3565 56.417C69.9261 56.4439 68.6696 55.9315 67.6002 54.866C66.9318 54.1917 66.4773 53.3959 66.2367 52.4923Z" fill="#FB4040"/>
</g>
<defs>
<clipPath id="clip0_569_539">
<rect width="229" height="246" fill="white" transform="translate(115 246) rotate(180)"/>
</clipPath>
</defs>
</svg>
