<svg width="24" height="44" viewBox="0 0 24 44" fill="none" xmlns="http://www.w3.org/2000/svg">
<path d="M13.5 2C13.5 1.17157 12.8284 0.5 12 0.5C11.1716 0.5 10.5 1.17157 10.5 2H12H13.5ZM10.9393 43.0607C11.5251 43.6464 12.4749 43.6464 13.0607 43.0607L22.6066 33.5147C23.1924 32.9289 23.1924 31.9792 22.6066 31.3934C22.0208 30.8076 21.0711 30.8076 20.4853 31.3934L12 39.8787L3.51472 31.3934C2.92893 30.8076 1.97918 30.8076 1.3934 31.3934C0.807612 31.9792 0.807612 32.9289 1.3934 33.5147L10.9393 43.0607ZM12 2H10.5L10.5 42H12H13.5L13.5 2H12Z" fill="#1E1E1E"/>
</svg>
