<svg width="80" height="61" viewBox="0 0 80 61" fill="none" xmlns="http://www.w3.org/2000/svg">
<path d="M67.7479 19.5405C65.4228 18.7333 62.8627 18.0406 60.122 17.4684C59.0257 17.2395 57.8993 17.0287 56.7487 16.8419C53.8694 16.3661 50.8335 16.0167 47.6952 15.7998C47.0989 15.7577 46.5025 15.7215 45.9002 15.6914L46.7615 18.5346C49.2794 18.6912 51.731 18.9321 54.0803 19.2574C58.8028 19.908 63.1398 20.8898 66.8323 22.1728C69.5369 23.1125 71.7777 24.1908 73.4824 25.3353C74.0848 25.7388 74.6209 26.1484 75.0847 26.5641C75.675 27.0942 76.1509 27.6363 76.5003 28.1784C76.9641 28.9013 77.205 29.6301 77.205 30.3409C77.205 31.5938 76.4641 32.8769 75.0847 34.1238C73.3138 35.72 70.4887 37.244 66.8323 38.509C64.7963 39.2137 62.5555 39.8281 60.1762 40.3522C55.7488 41.316 50.8034 41.9545 45.5869 42.2195C43.7497 42.3099 41.8824 42.3581 39.991 42.3581C38.0996 42.3581 36.2322 42.3099 34.395 42.2195C31.2989 42.0629 28.293 41.7738 25.4378 41.3642C23.7332 41.1172 22.0827 40.8341 20.4924 40.5028C17.8481 39.9546 15.3784 39.286 13.1436 38.509C9.48724 37.238 6.66215 35.72 4.8912 34.1238C4.52375 33.7925 4.20451 33.4551 3.92742 33.1178C3.34915 32.413 2.9817 31.6962 2.84316 30.9915C2.83111 30.9433 2.81906 30.8891 2.81304 30.8409C2.78895 30.6782 2.77088 30.5096 2.77088 30.3469C2.77088 29.2747 3.31903 28.1784 4.34305 27.1002C4.51171 26.9195 4.69844 26.7448 4.89722 26.5641C5.48754 26.034 6.19833 25.5099 7.01152 24.9979C7.55365 24.6606 8.14999 24.3233 8.78849 24.004C10.0655 23.3535 11.5232 22.7391 13.1496 22.1789C16.2759 21.0946 19.86 20.2212 23.7572 19.5827C24.3114 19.4923 24.8776 19.408 25.4439 19.3237C27.9377 18.9683 30.5399 18.7032 33.2204 18.5406L34.0818 15.6974C33.4794 15.7275 32.8831 15.7637 32.2867 15.8059C31.0278 15.8902 29.7929 15.9986 28.5701 16.1311C27.8895 16.2034 27.2148 16.2817 26.5462 16.3661C25.4198 16.5106 24.3114 16.6672 23.2332 16.8479C22.6549 16.9443 22.0887 17.0407 21.5285 17.1491C18.1553 17.7756 15.023 18.5828 12.24 19.5526C7.80062 21.0946 4.48159 22.986 2.42753 25.0943C2.14442 25.3895 1.89143 25.6846 1.65048 25.9858C1.31918 26.4075 1.03004 26.8351 0.801146 27.2688C0.668625 27.5158 0.554175 27.7688 0.451773 28.0218C0.150591 28.7808 0 29.5578 0 30.353C0 31.7866 0.512014 33.172 1.48182 34.4852C1.6806 34.7502 1.89142 35.0153 2.12635 35.2743C2.33717 35.5092 2.56005 35.7381 2.801 35.967C4.87313 37.9307 8.05362 39.6956 12.24 41.1533C18.5408 43.3399 26.5823 44.6952 35.2564 45.0567C36.8165 45.1229 38.4007 45.1591 39.997 45.1591C41.5933 45.1591 43.1714 45.1229 44.7376 45.0567C53.4116 44.6952 61.4532 43.3399 67.7539 41.1533C71.2055 39.9546 73.9824 38.5451 76.0124 36.985C78.6206 34.9791 80 32.7263 80 30.353C80 26.1304 75.6509 22.2933 67.7539 19.5526L67.7479 19.5405Z" fill="#1E1E1E"/>
<path d="M35.6914 46.4961L39.9923 60.6818L44.2932 46.4961C42.8234 46.5503 41.3777 46.5864 39.9923 46.5864C38.6069 46.5864 37.1672 46.5563 35.6914 46.4961Z" fill="#1E1E1E"/>
<path d="M31.6609 23.6729L20.0775 27.1847L9.64453 30.3471L32.9319 37.4008L33.9499 40.756C34.1246 40.768 34.2933 40.7801 34.468 40.7861C36.2871 40.8764 38.1424 40.9246 39.9917 40.9246C41.8409 40.9246 43.6962 40.8764 45.5153 40.7861C45.69 40.7801 45.8587 40.762 46.0334 40.756L47.0514 37.4008L70.3388 30.3471L58.6951 26.8173L48.3223 23.6729L47.0514 23.2874L39.9977 0L32.944 23.2874L31.673 23.6729H31.6609Z" fill="#1E1E1E"/>
</svg>
