<svg width="234" height="232" viewBox="0 0 234 232" fill="none" xmlns="http://www.w3.org/2000/svg">
<g clip-path="url(#clip0_569_567)">
<path d="M168.963 129.279L163.182 127.716L157.672 134.82L91.9869 130.925L109.023 94.0755L122.257 92.4296L120.726 85.4435L105.986 84.0936L80.7313 73.5196L78.1058 57.3093H72.4427L71.336 69.5647L54.9707 56.8594L49.0957 58.6118L56.9487 67.3505L54.7823 74.5143L59.3505 76.989L62.706 73.1289L100.323 90.5114L68.2042 147.597L55.7125 213.835C58.1143 215.41 60.5867 216.89 63.118 218.287L80.696 168.082L102.465 231.336C104.443 231.608 106.433 231.833 108.446 231.999L98.8273 169.124L143.072 155.672L129.521 231.845C131.793 231.62 134.054 231.324 136.291 230.969L160.909 160.338L178.405 215.232C180.618 213.859 182.785 212.402 184.904 210.887L164.559 139.77L168.974 129.255L168.963 129.279Z" fill="#1E1E1E"/>
<path d="M41.1132 172.534L43.2796 175.849L26.0548 187.229L23.8885 183.901L30.4581 168.78L18.9671 176.37L16.8008 173.055L34.0255 161.676L36.1919 164.991L29.6222 180.112L41.1132 172.522V172.534Z" fill="#1E1E1E"/>
<path d="M24.206 147.561L27.5732 146.176L32.6712 158.692L13.6097 166.554L8.5 154.038L11.8672 152.653L15.4935 161.545L19.5672 159.864L16.5885 152.57L19.9557 151.185L22.9344 158.479L27.8322 156.454L24.206 147.561Z" fill="#1E1E1E"/>
<path d="M17.0004 147.703C10.7251 149.005 5.72131 146.128 4.47331 140.042C3.22531 133.944 6.68674 129.326 12.9738 128.023C19.2609 126.721 24.2529 129.598 25.5127 135.684C26.7607 141.77 23.2993 146.4 17.0122 147.703H17.0004ZM13.798 132.084C9.59482 132.961 7.32252 135.424 8.05248 139.307C8.79421 143.179 11.9613 144.529 16.1645 143.653C20.3676 142.777 22.6399 140.314 21.91 136.442C21.1683 132.57 18.0012 131.22 13.798 132.096V132.084Z" fill="#1E1E1E"/>
<path d="M20.8392 98.73L24.4537 99.1208L23.0055 112.56L2.53125 110.322L3.9794 96.8828L7.59389 97.2736L6.55782 106.829L10.9376 107.303L11.7853 99.4641L15.3998 99.8667L14.5521 107.705L19.8149 108.286L20.8509 98.73H20.8392Z" fill="#1E1E1E"/>
<path d="M26.0191 92.6207L24.8535 96.4217L5.14453 90.3236L6.31012 86.5226L22.0749 81.9757L8.93563 77.9142L10.1012 74.1133L29.7984 80.2114L28.6328 84.0123L12.868 88.5593L26.0073 92.6207H26.0191Z" fill="#1E1E1E"/>
<path d="M33.4368 73.0591L18.4725 65.0191L15.4114 70.7856L12.209 69.0687L20.1679 54.0898L23.3703 55.8068L20.3092 61.5733L35.2734 69.6134L33.4368 73.0709V73.0591Z" fill="#1E1E1E"/>
<path d="M49.413 49.9082L46.6462 53.3658L38.2987 51.6726L35.8263 54.763L41.713 59.5231L39.2759 62.5781L23.2285 49.5885L28.6797 42.7681C28.9269 42.4603 29.4332 41.8682 29.8453 41.5012C32.6003 38.9672 35.5908 39.2751 38.181 41.3709C39.9823 42.8274 41.2539 45.385 40.4768 48.0966L49.4247 49.9082H49.413ZM28.4913 48.8307L32.9888 52.4777L35.8969 48.8426C36.1441 48.5347 36.5091 48.1203 36.6151 47.7177C37.0389 46.0244 36.4738 45.0535 35.7085 44.4377C34.955 43.822 33.6481 43.2891 32.3295 44.2483C31.9881 44.4851 31.6466 44.8758 31.3876 45.1837L28.4795 48.8189L28.4913 48.8307Z" fill="#1E1E1E"/>
<path d="M58.9741 36.778L61.3524 39.5488L51.1564 48.3821L37.6992 32.681L47.8951 23.8477L50.2734 26.6184L43.0327 32.8942L45.9054 36.257L51.8511 31.1062L54.2293 33.877L48.2837 39.0278L51.7451 43.0655L58.9859 36.7898L58.9741 36.778Z" fill="#1E1E1E"/>
<path d="M63.5177 37.9384L53.0156 20.1059L60.5036 15.6419C60.8451 15.4406 61.5279 15.0617 62.0342 14.8604C65.5074 13.4631 68.2624 14.9314 70.0285 17.9272C71.7945 20.9229 71.7239 24.0726 68.8629 26.4527C68.439 26.8079 67.7679 27.246 67.4383 27.4355L63.3057 29.8984L66.8614 35.9373L63.5177 37.9384ZM61.4455 26.7487L65.4368 24.3687C65.7782 24.1674 66.2138 23.8713 66.4964 23.5635C67.6266 22.3912 67.2146 20.8874 66.6494 19.9283C66.0843 18.9573 64.9776 17.8798 63.3999 18.3179C62.9996 18.4245 62.5405 18.6613 62.199 18.8744L58.2078 21.2545L61.4455 26.7487Z" fill="#1E1E1E"/>
<path d="M94.2242 23.5743L90.0682 25.0663L83.8399 19.2287L80.1195 20.5549L82.6626 27.7187L79.001 29.033L72.0781 9.50727L80.2725 6.57071C80.6493 6.44046 81.391 6.20364 81.9326 6.09708C85.606 5.39846 87.9842 7.23381 89.1027 10.3717C89.8798 12.5622 89.6325 15.4041 87.5486 17.3105L94.236 23.5625L94.2242 23.5743ZM76.9642 11.6505L78.9068 17.1329L83.2748 15.5698C83.6516 15.4396 84.1696 15.2738 84.4639 14.9896C85.7002 13.77 85.7237 12.6451 85.4058 11.7215C85.0762 10.7979 84.252 9.66121 82.6273 9.79146C82.2152 9.81514 81.7207 9.96907 81.3439 10.0993L76.9759 11.6623L76.9642 11.6505Z" fill="#1E1E1E"/>
<path d="M109.223 17.4317L109.8 21.0432L96.5191 23.1864L93.2578 2.72525L106.538 0.582031L107.115 4.19353L97.6729 5.72101L98.3676 10.1022L106.115 8.85886L106.691 12.4704L98.9445 13.7255L99.7804 18.9829L109.223 17.4554V17.4317Z" fill="#1E1E1E"/>
<path d="M116.405 20.8401L112.461 20.7217L113.073 0L117.017 0.11841L125.565 14.2092L125.977 0.390752L129.921 0.509161L129.309 21.2309L125.365 21.1124L116.817 7.03353L116.405 20.8519V20.8401Z" fill="#1E1E1E"/>
<path d="M146.428 21.1945L145.639 24.7586L132.512 21.822L136.986 1.59766L150.113 4.53422L149.324 8.09835L140 6.01434L139.046 10.3363L146.699 12.0532L145.91 15.6174L138.257 13.9004L137.103 19.0986L146.428 21.1826V21.1945Z" fill="#1E1E1E"/>
<path d="M151.29 18.3295L156.388 6.46484L160.026 8.01601L154.928 19.8688C153.844 22.3791 154.939 24.8302 157.2 25.813C159.508 26.8195 162.004 25.8603 163.063 23.4093L168.161 11.5565L171.787 13.1313L166.678 25.0196C164.712 29.5902 160.32 31.1888 155.74 29.1995C151.16 27.2102 149.323 22.8883 151.29 18.3295Z" fill="#1E1E1E"/>
<path d="M179.607 43.1621L176.004 40.6163L177.134 32.1381L173.908 29.8528L169.564 36.0693L166.373 33.8195L178.206 16.8633L185.329 21.8839C185.658 22.1088 186.27 22.5825 186.671 22.9732C189.367 25.5782 189.249 28.5977 187.342 31.3211C186.011 33.2275 183.562 34.6603 180.819 34.0682L179.607 43.1621ZM179.312 22.097L175.992 26.8571L179.783 29.5331C180.113 29.7581 180.537 30.1015 180.937 30.1725C182.644 30.4804 183.574 29.8528 184.128 29.0476C184.681 28.2424 185.128 26.9044 184.092 25.6493C183.833 25.3177 183.421 24.998 183.092 24.773L179.3 22.097H179.312Z" fill="#1E1E1E"/>
<path d="M185.175 39.6654L188.424 42.1994C187.106 44.2715 187.53 46.616 189.119 48.2856C190.45 49.671 192.498 50.488 193.734 49.2921C194.335 48.7119 194.594 47.9067 193.829 46.4029L191.25 41.4179C190.473 39.9377 189.072 37.013 191.898 34.2778C194.888 31.3886 198.762 32.4779 201.67 35.5684C204.59 38.7063 205.119 42.3414 203.024 45.7635L199.598 43.2058C200.728 41.4771 200.257 39.4523 199.009 38.0669C197.785 36.6933 195.924 36.0894 194.876 37.1077C193.911 38.0432 194.523 39.4404 195.194 40.6363L196.972 43.9163C198.032 45.8464 199.762 49.1618 196.772 52.0629C193.57 55.1534 189.225 53.6851 186.305 50.6301C183.126 47.3028 182.585 43.0401 185.163 39.6654H185.175Z" fill="#1E1E1E"/>
<path d="M193.828 58.212L211.241 47.1289L213.325 50.4325L206.167 54.9913L211.088 62.8182L218.247 58.2594L220.33 61.563L202.917 72.6462L200.833 69.3426L208.015 64.7719L203.094 56.9451L195.912 61.5157L193.828 58.212Z" fill="#1E1E1E"/>
<path d="M204.236 76.1721L223.098 67.8242L224.664 71.412L205.802 79.7599L204.236 76.1721Z" fill="#1E1E1E"/>
<path d="M207.426 83.1719L227.241 77.4883L229.619 85.8954C229.725 86.2861 229.913 87.0321 229.984 87.5886C230.443 91.3185 228.336 93.6275 225.004 94.5866C221.672 95.5457 218.658 94.6695 217.104 91.283C216.868 90.7857 216.621 90.016 216.527 89.6489L215.208 84.9954L208.497 86.9137L207.426 83.1483V83.1719ZM218.705 84.0126L219.976 88.5004C220.082 88.8911 220.259 89.3766 220.471 89.7318C221.319 91.1291 222.861 91.1172 223.932 90.8094C225.004 90.5015 226.322 89.7082 226.311 88.0623C226.311 87.6478 226.193 87.1387 226.087 86.7479L224.815 82.272L218.705 84.0245V84.0126Z" fill="#1E1E1E"/>
<path d="M223.675 110.916C230.08 111.176 234.248 115.19 233.989 121.395C233.8 126.143 231.139 129.376 227.078 130.536L226.147 126.546C228.667 125.871 230.198 124.118 230.315 121.241C230.48 117.298 227.784 115.202 223.487 115.024C219.201 114.847 216.34 116.718 216.175 120.661C216.058 123.538 217.447 125.409 219.896 126.285L218.648 130.181C214.692 128.689 212.314 125.255 212.514 120.507C212.773 114.29 217.247 110.643 223.651 110.904L223.675 110.916Z" fill="#1E1E1E"/>
<path d="M211.841 132.559L231.939 137.2L231.068 141.013L214.514 137.188L212.524 145.892L208.98 145.074L211.841 132.559Z" fill="#1E1E1E"/>
<path d="M215.632 149.835L227.43 154.962L225.887 158.621L214.102 153.494C211.606 152.405 209.169 153.506 208.192 155.779C207.191 158.1 208.133 160.622 210.582 161.676L222.379 166.803L220.813 170.45L208.992 165.311C204.448 163.334 202.858 158.917 204.836 154.311C206.814 149.717 211.111 147.858 215.644 149.835H215.632Z" fill="#1E1E1E"/>
<path d="M196.547 181.285C193.51 179.166 192.58 176.028 194.982 172.547L200.185 165.004L217.116 176.821L212.418 183.63C209.899 187.265 206.378 186.981 204.141 185.418C202.599 184.34 201.893 182.955 201.975 181.522C200.221 182.659 198.172 182.41 196.547 181.273V181.285ZM198.219 174.323C197.325 175.625 197.536 177.176 198.902 178.124C200.103 178.964 201.516 178.834 202.54 177.342L205.272 173.399L200.951 170.38L198.219 174.323ZM211.877 178.005L208.25 175.483L205.837 178.988C205.083 180.077 205.072 181.262 206.32 182.126C207.356 182.848 208.615 182.742 209.463 181.51L211.877 178.005Z" fill="#1E1E1E"/>
<path d="M26.8819 127.332L0.00585938 145.148L2.20886 148.51L29.0849 130.694L26.8819 127.332Z" fill="#1E1E1E"/>
</g>
<defs>
<clipPath id="clip0_569_567">
<rect width="234" height="232" fill="white"/>
</clipPath>
</defs>
</svg>
