<svg width="128" height="128" viewBox="0 0 128 128" fill="none" xmlns="http://www.w3.org/2000/svg">
<path d="M27.0928 10.2822L27.9746 0.370117H32.4912L34.5811 13.4688L54.7266 22.0186L66.4854 23.1123L67.7119 28.7529L57.1621 30.0869L43.5674 59.8779L95.9629 63.0273L100.361 57.2842L104.969 58.5439L101.442 67.0479L118.645 128H111.757L98.5352 83.666L82.5059 128H75.0449L84.3047 79.8955L49.0107 90.7705L55.1445 128H48.0205L34.5537 89.9277L22.123 128H14.9072L24.6035 73.3652L50.2285 27.2061L20.2148 13.1543L17.543 16.2754L13.8994 14.2842L15.625 8.49414L9.35547 1.42676L14.0352 0L27.0928 10.2822Z" fill="#E1FB40"/>
</svg>
