<svg width="1147" height="1040" viewBox="0 0 1147 1040" fill="none" xmlns="http://www.w3.org/2000/svg">
<mask id="mask0_40001703_885" style="mask-type:alpha" maskUnits="userSpaceOnUse" x="0" y="0" width="1147" height="1040">
<rect width="1147" height="1040" fill="#D9D9D9"/>
</mask>
<g mask="url(#mask0_40001703_885)">
<mask id="mask1_40001703_885" style="mask-type:alpha" maskUnits="userSpaceOnUse" x="-735" y="-378" width="1875" height="1738">
<mask id="path-2-inside-1_40001703_885" fill="white">
<path d="M12.601 -293.136C17.1338 -296.514 21.4735 -294.304 15.3491 -288.498C1.6977 -275.574 -24.3792 -240.898 -36.1716 -227.308C-80.8486 -175.856 -122.978 -124.311 -157.909 -66.7923C-204.363 9.69191 -235.567 91.8546 -262.808 174.938C-287.669 250.773 -294.708 321.177 -280.573 401.114C-277.271 419.77 -272.929 438.097 -272.422 457.02C-271.691 484.7 -279.107 540.628 -311.01 554.817C-330.919 563.676 -350.299 536.243 -358.304 524.108C-391.473 473.804 -412.403 404.36 -430.021 349.058C-434.82 333.989 -443.425 291.359 -464.025 285.749C-480.872 281.169 -495.047 294.86 -503.473 304.668C-518.227 321.855 -534.848 353.197 -539.221 374.362C-556.672 458.704 -554.227 536.059 -544.84 622.379C-534.064 721.46 -506.283 817.117 -468.118 912.581C-447.889 963.178 -431.571 1007.2 -424.734 1060.61C-418.463 1109.61 -414.545 1161.6 -410.202 1210.6C-409.151 1222.46 -409.615 1234.3 -408.25 1246.14L-328.941 1258.05C-327.35 1253.47 -331.034 1249.55 -331.98 1245.09C-335.537 1228.2 -337.591 1204.1 -333.438 1187.76C-329.448 1172.08 -318.469 1170.79 -303.046 1180.63C-281.475 1194.4 -245.173 1237.3 -235.078 1257.68C-232.841 1262.21 -231.914 1268.08 -230.379 1272.84L-54.7612 1299.21C-58.9342 1290.51 -65.4684 1282.77 -70.2722 1274.26C-107.39 1208.53 -94.7271 1134.5 -104.428 1065.9C-115.232 989.518 -173.501 924.653 -223.808 861.389C-238.494 842.917 -271.476 794.454 -291.336 782.987C-312.207 770.936 -327.293 790.045 -337.205 802.368C-355.314 824.904 -368.067 853.5 -386.843 875.038C-392.746 881.801 -403.865 886.963 -414.296 883.1C-417.396 881.948 -429.272 870.86 -431.421 867.967C-454.551 836.837 -470.327 799.883 -482.865 765.237C-516.561 672.125 -530.129 566.692 -523.646 471.382C-522.273 451.122 -521.41 439.35 -515.924 419.443C-513.474 410.577 -509.401 392.624 -505.979 384.027C-499.535 367.847 -481.208 345.361 -462.102 369.813C-450.545 384.603 -442.861 406.266 -436.114 422.701C-421.502 458.301 -407.321 493.907 -391.335 529.387C-378.813 557.182 -346.744 632.735 -318.698 649.048C-304.086 657.545 -292.512 642.179 -286.75 633.414C-261.879 595.511 -241.445 541.783 -231.268 499.157C-224.256 469.805 -231.484 436.212 -238.665 407.397C-256.914 334.218 -262.252 264.95 -244.225 192.19C-221.817 101.718 -189.693 17.0086 -141.573 -64.9738C-104.665 -127.847 -57.0027 -184.987 -7.51077 -241.051C-3.33539 -245.776 5.55691 -254.89 12.9552 -253.55C20.3535 -252.211 10.6444 -240.596 6.5311 -235.281C2.34043 -229.88 -5.09445 -223.303 -9.78558 -217.651C-122.06 -82.1673 -198.932 44.9962 -217.758 216.076C-224.818 280.243 -213.329 336.712 -192.105 399.114C-189.117 407.89 -181.961 425.258 -179.767 434.161C-173.113 461.18 -187.417 497.087 -196.407 522.489C-222.595 596.479 -266.13 680.69 -246.8 760.721C-219.406 874.154 -93.4561 956.608 -71.5028 1070.79C-64.727 1106.03 -66.9216 1142.23 -61.007 1177.62C-53.3346 1223.52 -34.445 1269.06 -0.368228 1307.36L49.4865 1314.85C42.377 1306.85 34.4439 1299.32 27.5142 1291.21C-17.1121 1238.86 -25.835 1195.07 -33.8162 1134.45C-41.9585 1072.6 -49.6948 1037.23 -88.7759 982.363C-113.127 948.18 -141.615 915.743 -165.588 881.194C-229.141 789.648 -234.269 718.906 -201.78 621.302C-187.54 578.502 -162.506 538.872 -143.274 497.948C-123.761 456.451 -126.39 411.224 -147.645 369.398C-188.827 288.367 -196.007 185.477 -173.971 102.29C-144.305 -9.70705 -76.1779 -115.12 0.438043 -206.381C5.03888 -211.861 11.7798 -219.836 16.6308 -225.191C28.0602 -237.797 41.4173 -239.225 29.5165 -220.897C27.1927 -217.32 17.0083 -203.471 14.1385 -199.914C-18.0935 -160.017 -46.6808 -121.669 -71.9588 -77.8326C-112.107 -8.21843 -149.476 63.3096 -155.782 142.96C-159.417 188.831 -128.969 257.538 -111.187 302.927C-82.3786 376.467 -52.2696 420.907 -93.6335 495.462C-117.053 537.676 -150.766 574.886 -170.215 619.404C-202.786 693.967 -208.274 775.483 -167.167 851.776C-124.652 930.666 -40.9455 994.728 -12.8765 1078.14C3.68439 1127.36 1.8463 1177.46 26.4592 1226.03C31.6821 1236.34 44.8101 1251.07 48.4165 1259.38C49.4382 1261.75 48.5554 1264.62 48.9928 1265.37C49.6099 1266.42 54.1329 1266.76 55.1795 1267.61C55.8227 1268.12 55.785 1270.24 56.6508 1271.36C65.0361 1282.25 75.7772 1291.73 85.7112 1301.34C93.3426 1308.73 100.962 1316.19 108.425 1323.71L188.87 1335.78C185.257 1331.82 180.225 1328.05 175.902 1324.5C135.365 1291.31 98.7895 1263.91 72.4217 1220.65C47.1743 1179.25 41.3001 1131.4 23.4988 1088.58C-14.2006 997.907 -110.009 933.719 -150.791 844.578C-196.33 745.032 -167.315 655.437 -102.563 573.082C-64.3403 524.472 -12.6349 479.691 -12.7218 416.528C-12.7811 372.109 -25.6566 338.636 -47.5676 298.024C-74.6272 247.897 -113.789 187.899 -117.959 133.146C-121.4 87.8849 -103.813 43.0788 -85.3504 2.40927C-56.8426 -60.361 -22.8672 -121.263 19.6079 -177.693C25.5518 -185.595 35.4968 -200.361 42.2604 -206.695C43.5383 -207.894 51.1133 -214.257 52.6298 -215.253C59.2618 -219.636 65.4141 -219.46 69.3111 -217.097C74.4018 -214.009 62.3904 -197.239 57.6631 -191.848C7.01551 -134.109 -26.0692 -66.2339 -50.1035 3.51945C-58.3668 27.5162 -64.4038 61.7062 -59.8688 86.7792C-56.0119 108.124 -44.2284 136.609 -35.4855 157.314C-23.2136 186.418 -12.9226 211.008 0.595492 239.842C18.1165 277.216 46.6966 308.108 59.2706 348.393C67.8116 375.749 72.4203 423.561 58.3874 448.277C53.4282 457.004 42.1272 473.846 36.2027 482.12C1.45652 530.661 -51.7565 566.915 -90.1664 613.762C-171.284 712.71 -170.492 816.207 -84.737 920.039C-44.7142 968.494 6.61291 1012.2 43.3469 1062.42C69.0683 1097.58 85.4916 1136.6 107.404 1172.83C120.753 1194.91 136.369 1216.43 156.467 1235.64C179.144 1257.31 204.186 1274.41 228.632 1293.98C249.235 1310.47 269.766 1327.79 281.759 1349.72C281.759 1349.72 343.86 1363.82 342.941 1358.9C342.022 1353.99 339.747 1349.28 338.074 1344.5C314.066 1275.99 249.998 1246.45 198.823 1194.84C152.38 1148 116.21 1095.39 69.9895 1047.42C39.1823 1015.45 4.42684 987.042 -26.9507 955.712C-65.5173 917.203 -100.387 876.009 -116.562 827.587C-134.097 775.105 -125.038 713.614 -90.2433 669.842C-55.9679 626.731 -13.699 584.222 34.2157 552.287C60.6592 534.673 125.45 505.544 139.069 483.302C154.198 458.602 155.366 419.773 192.312 410.284C204.011 407.278 225.705 415.068 236.895 419.97C281.77 439.62 305.638 475.439 336.483 506.733C356.575 527.125 378.947 544.806 395.69 567.715C436.589 623.669 416.97 656.991 412.879 715.285C410.403 750.634 420.369 785.281 426.779 820.09C438.583 884.22 446.71 979.074 520.22 1019.35C541.076 1030.78 566.55 1033.46 588.941 1027.14C646.751 1010.82 664.617 960.714 685.502 917.679C695.103 897.888 705.359 878.398 712.385 857.702C746.43 757.471 731.457 647.197 806.797 560.921C838.111 525.059 858.496 486.139 875.319 443.49C892.119 400.916 901.971 395.661 934.8 363.327C971.507 327.184 982.368 298.859 1004.6 256.739C1035.2 198.772 1088.58 158.388 1119.72 102.959C1173.92 6.45896 1107.16 -68.3344 1058.51 -157.167L1021.08 -229.414L976.334 -236.132C977.775 -233.759 979.821 -231.753 981.163 -229.298C1022.99 -152.712 1124.75 -57.4182 1118.75 27.2597C1113.55 100.44 1055.07 140.902 1012.37 197.264C983.785 234.997 971.272 281.999 937.22 316.306C906.047 347.717 858.268 359.672 832.111 396.889C816.028 419.774 810.61 450.773 792.644 472.143C781.1 485.876 761.476 498.502 748.41 511.901C727.928 532.893 717.434 558.201 706.497 583.372C689.888 621.591 681.891 660.301 670.094 699.806C660.271 732.688 653.214 753.812 649.906 788.684C645.812 831.731 630.977 907.029 593.915 937.582C558.721 966.594 525.814 938.353 510.5 907.859C495.186 877.365 482.488 802.344 482.401 770.157C482.327 741.467 494.979 716.554 498.018 689.141C502.597 647.883 461.289 562.748 427.396 530.319C396.525 500.782 368.512 481.885 343.027 448.015C306.943 400.064 282.371 364.201 234.452 321.885C216.232 305.796 182.098 283.577 180.214 259.632C176.633 214.368 241.589 202.069 268.577 173.656C304.451 135.882 274.913 79.3978 295.352 35.8121C299.611 26.7333 307.226 17.5949 311.97 8.7915C347.929 -57.8688 326.217 -135.441 380.453 -196.435C397.613 -215.733 420.844 -230.379 442.522 -245.716C467.088 -263.084 492.855 -280.994 517.928 -298.013L529.923 -303.131L34.7971 -377.461C31.3974 -372.382 27.316 -367.422 23.1245 -362.805C-1.54677 -335.629 -25.3608 -308.069 -50.043 -281.537C-88.5347 -240.169 -129.862 -200.705 -166.346 -158.225C-190.831 -129.709 -213.615 -99.8292 -236.302 -70.1721C-254.515 -46.3662 -270.09 -20.1221 -292.545 0.608569C-298.094 5.73497 -309.03 13.6882 -318.277 10.9707C-331.668 7.0326 -334.354 -1.38979 -352.27 -2.65327C-384.042 -4.89666 -430.142 43.5602 -448.409 61.9179C-558.516 172.569 -665.372 299.562 -677.987 450.131C-686.158 547.652 -684.651 646.671 -684.928 744.524C-685.11 808.114 -681.764 872.444 -692.72 934.953C-707.506 1019.32 -715.878 1107.42 -732.429 1191.36C-732.835 1193.42 -733.359 1195.34 -734.516 1197.16L-659.734 1208.39C-658.405 1200.82 -658.748 1193.07 -657.538 1185.51C-648.657 1130.23 -633.224 1079.19 -620.651 1025.27C-607.721 969.826 -620.514 913.725 -626.428 857.398C-637.954 747.676 -643.973 637.197 -643.216 527.33C-642.594 436.43 -635.035 362.558 -589.461 281.038C-555.146 219.668 -510.697 173.965 -459.677 124.002C-446.265 110.875 -410.717 80.5867 -389.257 89.4245C-383.387 91.8374 -373.294 99.18 -368.755 103.145C-356.163 114.128 -348.455 131.254 -329.78 117.209C-309.054 101.614 -288.665 59.227 -275.778 37.4825C-237.331 -27.3959 -200.732 -87.6311 -152.495 -147.237C-110.141 -199.566 -61.6653 -248.573 -16.2195 -299.267C-4.89408 -311.898 7.11912 -328.034 18.8306 -339.436C20.784 -341.335 25.7448 -347.922 31.0076 -343.902C36.0001 -340.089 17.9983 -322.994 7.57009 -310.819C-35.715 -260.249 -82.4213 -211.126 -125.638 -159.719C-171.583 -105.059 -207.031 -46.9664 -238.9 14.463C-264.711 64.2141 -288.484 113.514 -313.276 163.506C-324.974 187.084 -335.805 218.433 -354.018 238.436C-356.339 240.992 -361.861 244.503 -365.917 243.56C-372.149 242.122 -380.168 227.855 -382.466 222.942C-388.604 209.837 -393.729 193.355 -401.253 180.95C-424.748 142.212 -463.598 172.699 -485.559 191.576C-537.764 236.458 -579.008 306.128 -596.053 367.829C-614.579 434.879 -610.181 510.336 -607.292 580.214C-604.702 642.767 -600.817 703.719 -592.134 766.122C-586.01 810.148 -576.616 853.908 -566.435 897.654C-549.682 969.613 -529.031 1031.81 -549.094 1104.22C-559.047 1140.12 -572.826 1173.76 -581.919 1210.31C-582.649 1213.23 -582.961 1216.89 -582.699 1219.95L-498.853 1232.54C-498.376 1219.68 -492.433 1207.98 -489.784 1195.57C-465.705 1082.93 -494.102 984.779 -526.934 875.019C-553.254 787.055 -568.207 697.585 -574.995 607.43C-580.441 535.082 -585.054 460.764 -571.583 389.319C-562.8 342.716 -541.736 296.759 -508.775 258.82C-504.259 253.618 -494.981 242.723 -489.684 238.844C-483.723 234.483 -466.558 224.613 -459.268 222.732C-452.471 220.98 -447.925 220.597 -441.446 224.255C-425.4 233.31 -418.795 263.315 -414.283 278.138C-401.939 318.67 -392.472 363.374 -368.232 400.947C-368.232 400.947 -362.664 409.248 -357.321 413.016C-351.325 417.244 -347.424 418.578 -344.675 417.908C-341.021 417.013 -337.575 411.694 -337.676 407.638C-338.61 368.115 -327.968 318.516 -319.747 278.386C-300.819 185.86 -254.284 94.3528 -216.154 7.13836C-212.807 -0.528089 -196.437 -30.3411 -192.495 -36.7387C-156.61 -95.0916 -125.656 -139.881 -83.4493 -188.79C-59.2106 -216.885 -35.7428 -244.074 -10.5854 -271.476C-5.5663 -276.946 -0.54311 -283.305 12.6431 -293.13L12.601 -293.136ZM-273.217 1136.31C-311.668 1079.67 -353.101 1016.38 -339.65 950.872C-335.156 928.967 -318.415 894.958 -299.345 879.785C-288.954 871.512 -273.246 868.122 -259.655 875.532C-217.675 898.401 -170.825 963.831 -154.475 1002.84C-132.14 1056.12 -135.166 1106.03 -137.028 1160.38C-138.061 1190.56 -138.198 1221.3 -144.139 1251.05C-146.089 1260.81 -153.041 1265.33 -162.472 1256.51C-193.317 1227.73 -222.262 1197.12 -249.699 1165.78L-273.229 1136.32L-273.217 1136.31ZM414.934 -280.922C385.081 -259.524 357.362 -240.156 336.355 -211.576C302.297 -165.255 299.618 -110.913 276.466 -61.6607C259.437 -25.4502 231.01 2.36795 225.292 42.891C223.686 54.2342 225.947 66.3515 223.624 77.6663C219.799 96.3347 209.316 113.748 189.54 123.227C139.748 147.089 89.5728 113.562 53.7208 83.3566C5.88575 43.0598 -0.68655 -4.14983 17.8097 -54.3652C38.3784 -110.211 71.9377 -159.45 108.091 -208.547C114.999 -217.923 118.128 -220.121 124.944 -224.511C147.611 -239.127 170.176 -248.688 198.177 -256.386C207.575 -258.972 217.384 -259.568 222.935 -257.898C223.584 -257.704 224.971 -257.047 225.125 -256.495C226.083 -252.98 224.134 -250.253 220.716 -246.268C212.519 -236.698 202.972 -224.294 195.918 -214.235C176.77 -186.925 169.467 -165.812 165.003 -133.851C163.023 -119.729 158.386 -85.4701 184.646 -110.04C222.964 -145.88 220.416 -198.885 251.869 -237.824C263.081 -251.704 299.728 -282.434 318.59 -287.331C353.067 -296.293 389.345 -300.336 425.624 -303.155C428.063 -303.344 430.246 -305.049 433.701 -305.05C437.242 -305.047 440.741 -304.116 444.229 -303.69C444.141 -302.963 444.135 -302.207 443.734 -301.545C443.175 -300.617 429.739 -292.423 427.217 -290.61C423.343 -287.82 419.109 -283.922 414.935 -280.931L414.934 -280.922Z"/>
</mask>
<path d="M12.601 -293.136C17.1338 -296.514 21.4735 -294.304 15.3491 -288.498C1.6977 -275.574 -24.3792 -240.898 -36.1716 -227.308C-80.8486 -175.856 -122.978 -124.311 -157.909 -66.7923C-204.363 9.69191 -235.567 91.8546 -262.808 174.938C-287.669 250.773 -294.708 321.177 -280.573 401.114C-277.271 419.77 -272.929 438.097 -272.422 457.02C-271.691 484.7 -279.107 540.628 -311.01 554.817C-330.919 563.676 -350.299 536.243 -358.304 524.108C-391.473 473.804 -412.403 404.36 -430.021 349.058C-434.82 333.989 -443.425 291.359 -464.025 285.749C-480.872 281.169 -495.047 294.86 -503.473 304.668C-518.227 321.855 -534.848 353.197 -539.221 374.362C-556.672 458.704 -554.227 536.059 -544.84 622.379C-534.064 721.46 -506.283 817.117 -468.118 912.581C-447.889 963.178 -431.571 1007.2 -424.734 1060.61C-418.463 1109.61 -414.545 1161.6 -410.202 1210.6C-409.151 1222.46 -409.615 1234.3 -408.25 1246.14L-328.941 1258.05C-327.35 1253.47 -331.034 1249.55 -331.98 1245.09C-335.537 1228.2 -337.591 1204.1 -333.438 1187.76C-329.448 1172.08 -318.469 1170.79 -303.046 1180.63C-281.475 1194.4 -245.173 1237.3 -235.078 1257.68C-232.841 1262.21 -231.914 1268.08 -230.379 1272.84L-54.7612 1299.21C-58.9342 1290.51 -65.4684 1282.77 -70.2722 1274.26C-107.39 1208.53 -94.7271 1134.5 -104.428 1065.9C-115.232 989.518 -173.501 924.653 -223.808 861.389C-238.494 842.917 -271.476 794.454 -291.336 782.987C-312.207 770.936 -327.293 790.045 -337.205 802.368C-355.314 824.904 -368.067 853.5 -386.843 875.038C-392.746 881.801 -403.865 886.963 -414.296 883.1C-417.396 881.948 -429.272 870.86 -431.421 867.967C-454.551 836.837 -470.327 799.883 -482.865 765.237C-516.561 672.125 -530.129 566.692 -523.646 471.382C-522.273 451.122 -521.41 439.35 -515.924 419.443C-513.474 410.577 -509.401 392.624 -505.979 384.027C-499.535 367.847 -481.208 345.361 -462.102 369.813C-450.545 384.603 -442.861 406.266 -436.114 422.701C-421.502 458.301 -407.321 493.907 -391.335 529.387C-378.813 557.182 -346.744 632.735 -318.698 649.048C-304.086 657.545 -292.512 642.179 -286.75 633.414C-261.879 595.511 -241.445 541.783 -231.268 499.157C-224.256 469.805 -231.484 436.212 -238.665 407.397C-256.914 334.218 -262.252 264.95 -244.225 192.19C-221.817 101.718 -189.693 17.0086 -141.573 -64.9738C-104.665 -127.847 -57.0027 -184.987 -7.51077 -241.051C-3.33539 -245.776 5.55691 -254.89 12.9552 -253.55C20.3535 -252.211 10.6444 -240.596 6.5311 -235.281C2.34043 -229.88 -5.09445 -223.303 -9.78558 -217.651C-122.06 -82.1673 -198.932 44.9962 -217.758 216.076C-224.818 280.243 -213.329 336.712 -192.105 399.114C-189.117 407.89 -181.961 425.258 -179.767 434.161C-173.113 461.18 -187.417 497.087 -196.407 522.489C-222.595 596.479 -266.13 680.69 -246.8 760.721C-219.406 874.154 -93.4561 956.608 -71.5028 1070.79C-64.727 1106.03 -66.9216 1142.23 -61.007 1177.62C-53.3346 1223.52 -34.445 1269.06 -0.368228 1307.36L49.4865 1314.85C42.377 1306.85 34.4439 1299.32 27.5142 1291.21C-17.1121 1238.86 -25.835 1195.07 -33.8162 1134.45C-41.9585 1072.6 -49.6948 1037.23 -88.7759 982.363C-113.127 948.18 -141.615 915.743 -165.588 881.194C-229.141 789.648 -234.269 718.906 -201.78 621.302C-187.54 578.502 -162.506 538.872 -143.274 497.948C-123.761 456.451 -126.39 411.224 -147.645 369.398C-188.827 288.367 -196.007 185.477 -173.971 102.29C-144.305 -9.70705 -76.1779 -115.12 0.438043 -206.381C5.03888 -211.861 11.7798 -219.836 16.6308 -225.191C28.0602 -237.797 41.4173 -239.225 29.5165 -220.897C27.1927 -217.32 17.0083 -203.471 14.1385 -199.914C-18.0935 -160.017 -46.6808 -121.669 -71.9588 -77.8326C-112.107 -8.21843 -149.476 63.3096 -155.782 142.96C-159.417 188.831 -128.969 257.538 -111.187 302.927C-82.3786 376.467 -52.2696 420.907 -93.6335 495.462C-117.053 537.676 -150.766 574.886 -170.215 619.404C-202.786 693.967 -208.274 775.483 -167.167 851.776C-124.652 930.666 -40.9455 994.728 -12.8765 1078.14C3.68439 1127.36 1.8463 1177.46 26.4592 1226.03C31.6821 1236.34 44.8101 1251.07 48.4165 1259.38C49.4382 1261.75 48.5554 1264.62 48.9928 1265.37C49.6099 1266.42 54.1329 1266.76 55.1795 1267.61C55.8227 1268.12 55.785 1270.24 56.6508 1271.36C65.0361 1282.25 75.7772 1291.73 85.7112 1301.34C93.3426 1308.73 100.962 1316.19 108.425 1323.71L188.87 1335.78C185.257 1331.82 180.225 1328.05 175.902 1324.5C135.365 1291.31 98.7895 1263.91 72.4217 1220.65C47.1743 1179.25 41.3001 1131.4 23.4988 1088.58C-14.2006 997.907 -110.009 933.719 -150.791 844.578C-196.33 745.032 -167.315 655.437 -102.563 573.082C-64.3403 524.472 -12.6349 479.691 -12.7218 416.528C-12.7811 372.109 -25.6566 338.636 -47.5676 298.024C-74.6272 247.897 -113.789 187.899 -117.959 133.146C-121.4 87.8849 -103.813 43.0788 -85.3504 2.40927C-56.8426 -60.361 -22.8672 -121.263 19.6079 -177.693C25.5518 -185.595 35.4968 -200.361 42.2604 -206.695C43.5383 -207.894 51.1133 -214.257 52.6298 -215.253C59.2618 -219.636 65.4141 -219.46 69.3111 -217.097C74.4018 -214.009 62.3904 -197.239 57.6631 -191.848C7.01551 -134.109 -26.0692 -66.2339 -50.1035 3.51945C-58.3668 27.5162 -64.4038 61.7062 -59.8688 86.7792C-56.0119 108.124 -44.2284 136.609 -35.4855 157.314C-23.2136 186.418 -12.9226 211.008 0.595492 239.842C18.1165 277.216 46.6966 308.108 59.2706 348.393C67.8116 375.749 72.4203 423.561 58.3874 448.277C53.4282 457.004 42.1272 473.846 36.2027 482.12C1.45652 530.661 -51.7565 566.915 -90.1664 613.762C-171.284 712.71 -170.492 816.207 -84.737 920.039C-44.7142 968.494 6.61291 1012.2 43.3469 1062.42C69.0683 1097.58 85.4916 1136.6 107.404 1172.83C120.753 1194.91 136.369 1216.43 156.467 1235.64C179.144 1257.31 204.186 1274.41 228.632 1293.98C249.235 1310.47 269.766 1327.79 281.759 1349.72C281.759 1349.72 343.86 1363.82 342.941 1358.9C342.022 1353.99 339.747 1349.28 338.074 1344.5C314.066 1275.99 249.998 1246.45 198.823 1194.84C152.38 1148 116.21 1095.39 69.9895 1047.42C39.1823 1015.45 4.42684 987.042 -26.9507 955.712C-65.5173 917.203 -100.387 876.009 -116.562 827.587C-134.097 775.105 -125.038 713.614 -90.2433 669.842C-55.9679 626.731 -13.699 584.222 34.2157 552.287C60.6592 534.673 125.45 505.544 139.069 483.302C154.198 458.602 155.366 419.773 192.312 410.284C204.011 407.278 225.705 415.068 236.895 419.97C281.77 439.62 305.638 475.439 336.483 506.733C356.575 527.125 378.947 544.806 395.69 567.715C436.589 623.669 416.97 656.991 412.879 715.285C410.403 750.634 420.369 785.281 426.779 820.09C438.583 884.22 446.71 979.074 520.22 1019.35C541.076 1030.78 566.55 1033.46 588.941 1027.14C646.751 1010.82 664.617 960.714 685.502 917.679C695.103 897.888 705.359 878.398 712.385 857.702C746.43 757.471 731.457 647.197 806.797 560.921C838.111 525.059 858.496 486.139 875.319 443.49C892.119 400.916 901.971 395.661 934.8 363.327C971.507 327.184 982.368 298.859 1004.6 256.739C1035.2 198.772 1088.58 158.388 1119.72 102.959C1173.92 6.45896 1107.16 -68.3344 1058.51 -157.167L1021.08 -229.414L976.334 -236.132C977.775 -233.759 979.821 -231.753 981.163 -229.298C1022.99 -152.712 1124.75 -57.4182 1118.75 27.2597C1113.55 100.44 1055.07 140.902 1012.37 197.264C983.785 234.997 971.272 281.999 937.22 316.306C906.047 347.717 858.268 359.672 832.111 396.889C816.028 419.774 810.61 450.773 792.644 472.143C781.1 485.876 761.476 498.502 748.41 511.901C727.928 532.893 717.434 558.201 706.497 583.372C689.888 621.591 681.891 660.301 670.094 699.806C660.271 732.688 653.214 753.812 649.906 788.684C645.812 831.731 630.977 907.029 593.915 937.582C558.721 966.594 525.814 938.353 510.5 907.859C495.186 877.365 482.488 802.344 482.401 770.157C482.327 741.467 494.979 716.554 498.018 689.141C502.597 647.883 461.289 562.748 427.396 530.319C396.525 500.782 368.512 481.885 343.027 448.015C306.943 400.064 282.371 364.201 234.452 321.885C216.232 305.796 182.098 283.577 180.214 259.632C176.633 214.368 241.589 202.069 268.577 173.656C304.451 135.882 274.913 79.3978 295.352 35.8121C299.611 26.7333 307.226 17.5949 311.97 8.7915C347.929 -57.8688 326.217 -135.441 380.453 -196.435C397.613 -215.733 420.844 -230.379 442.522 -245.716C467.088 -263.084 492.855 -280.994 517.928 -298.013L529.923 -303.131L34.7971 -377.461C31.3974 -372.382 27.316 -367.422 23.1245 -362.805C-1.54677 -335.629 -25.3608 -308.069 -50.043 -281.537C-88.5347 -240.169 -129.862 -200.705 -166.346 -158.225C-190.831 -129.709 -213.615 -99.8292 -236.302 -70.1721C-254.515 -46.3662 -270.09 -20.1221 -292.545 0.608569C-298.094 5.73497 -309.03 13.6882 -318.277 10.9707C-331.668 7.0326 -334.354 -1.38979 -352.27 -2.65327C-384.042 -4.89666 -430.142 43.5602 -448.409 61.9179C-558.516 172.569 -665.372 299.562 -677.987 450.131C-686.158 547.652 -684.651 646.671 -684.928 744.524C-685.11 808.114 -681.764 872.444 -692.72 934.953C-707.506 1019.32 -715.878 1107.42 -732.429 1191.36C-732.835 1193.42 -733.359 1195.34 -734.516 1197.16L-659.734 1208.39C-658.405 1200.82 -658.748 1193.07 -657.538 1185.51C-648.657 1130.23 -633.224 1079.19 -620.651 1025.27C-607.721 969.826 -620.514 913.725 -626.428 857.398C-637.954 747.676 -643.973 637.197 -643.216 527.33C-642.594 436.43 -635.035 362.558 -589.461 281.038C-555.146 219.668 -510.697 173.965 -459.677 124.002C-446.265 110.875 -410.717 80.5867 -389.257 89.4245C-383.387 91.8374 -373.294 99.18 -368.755 103.145C-356.163 114.128 -348.455 131.254 -329.78 117.209C-309.054 101.614 -288.665 59.227 -275.778 37.4825C-237.331 -27.3959 -200.732 -87.6311 -152.495 -147.237C-110.141 -199.566 -61.6653 -248.573 -16.2195 -299.267C-4.89408 -311.898 7.11912 -328.034 18.8306 -339.436C20.784 -341.335 25.7448 -347.922 31.0076 -343.902C36.0001 -340.089 17.9983 -322.994 7.57009 -310.819C-35.715 -260.249 -82.4213 -211.126 -125.638 -159.719C-171.583 -105.059 -207.031 -46.9664 -238.9 14.463C-264.711 64.2141 -288.484 113.514 -313.276 163.506C-324.974 187.084 -335.805 218.433 -354.018 238.436C-356.339 240.992 -361.861 244.503 -365.917 243.56C-372.149 242.122 -380.168 227.855 -382.466 222.942C-388.604 209.837 -393.729 193.355 -401.253 180.95C-424.748 142.212 -463.598 172.699 -485.559 191.576C-537.764 236.458 -579.008 306.128 -596.053 367.829C-614.579 434.879 -610.181 510.336 -607.292 580.214C-604.702 642.767 -600.817 703.719 -592.134 766.122C-586.01 810.148 -576.616 853.908 -566.435 897.654C-549.682 969.613 -529.031 1031.81 -549.094 1104.22C-559.047 1140.12 -572.826 1173.76 -581.919 1210.31C-582.649 1213.23 -582.961 1216.89 -582.699 1219.95L-498.853 1232.54C-498.376 1219.68 -492.433 1207.98 -489.784 1195.57C-465.705 1082.93 -494.102 984.779 -526.934 875.019C-553.254 787.055 -568.207 697.585 -574.995 607.43C-580.441 535.082 -585.054 460.764 -571.583 389.319C-562.8 342.716 -541.736 296.759 -508.775 258.82C-504.259 253.618 -494.981 242.723 -489.684 238.844C-483.723 234.483 -466.558 224.613 -459.268 222.732C-452.471 220.98 -447.925 220.597 -441.446 224.255C-425.4 233.31 -418.795 263.315 -414.283 278.138C-401.939 318.67 -392.472 363.374 -368.232 400.947C-368.232 400.947 -362.664 409.248 -357.321 413.016C-351.325 417.244 -347.424 418.578 -344.675 417.908C-341.021 417.013 -337.575 411.694 -337.676 407.638C-338.61 368.115 -327.968 318.516 -319.747 278.386C-300.819 185.86 -254.284 94.3528 -216.154 7.13836C-212.807 -0.528089 -196.437 -30.3411 -192.495 -36.7387C-156.61 -95.0916 -125.656 -139.881 -83.4493 -188.79C-59.2106 -216.885 -35.7428 -244.074 -10.5854 -271.476C-5.5663 -276.946 -0.54311 -283.305 12.6431 -293.13L12.601 -293.136ZM-273.217 1136.31C-311.668 1079.67 -353.101 1016.38 -339.65 950.872C-335.156 928.967 -318.415 894.958 -299.345 879.785C-288.954 871.512 -273.246 868.122 -259.655 875.532C-217.675 898.401 -170.825 963.831 -154.475 1002.84C-132.14 1056.12 -135.166 1106.03 -137.028 1160.38C-138.061 1190.56 -138.198 1221.3 -144.139 1251.05C-146.089 1260.81 -153.041 1265.33 -162.472 1256.51C-193.317 1227.73 -222.262 1197.12 -249.699 1165.78L-273.229 1136.32L-273.217 1136.31ZM414.934 -280.922C385.081 -259.524 357.362 -240.156 336.355 -211.576C302.297 -165.255 299.618 -110.913 276.466 -61.6607C259.437 -25.4502 231.01 2.36795 225.292 42.891C223.686 54.2342 225.947 66.3515 223.624 77.6663C219.799 96.3347 209.316 113.748 189.54 123.227C139.748 147.089 89.5728 113.562 53.7208 83.3566C5.88575 43.0598 -0.68655 -4.14983 17.8097 -54.3652C38.3784 -110.211 71.9377 -159.45 108.091 -208.547C114.999 -217.923 118.128 -220.121 124.944 -224.511C147.611 -239.127 170.176 -248.688 198.177 -256.386C207.575 -258.972 217.384 -259.568 222.935 -257.898C223.584 -257.704 224.971 -257.047 225.125 -256.495C226.083 -252.98 224.134 -250.253 220.716 -246.268C212.519 -236.698 202.972 -224.294 195.918 -214.235C176.77 -186.925 169.467 -165.812 165.003 -133.851C163.023 -119.729 158.386 -85.4701 184.646 -110.04C222.964 -145.88 220.416 -198.885 251.869 -237.824C263.081 -251.704 299.728 -282.434 318.59 -287.331C353.067 -296.293 389.345 -300.336 425.624 -303.155C428.063 -303.344 430.246 -305.049 433.701 -305.05C437.242 -305.047 440.741 -304.116 444.229 -303.69C444.141 -302.963 444.135 -302.207 443.734 -301.545C443.175 -300.617 429.739 -292.423 427.217 -290.61C423.343 -287.82 419.109 -283.922 414.935 -280.931L414.934 -280.922Z" fill="#E1F0A3" stroke="black" stroke-width="2" mask="url(#path-2-inside-1_40001703_885)"/>
</mask>
<g mask="url(#mask1_40001703_885)">
<path d="M-34.664 -613.192C-34.664 -613.192 -629.004 340.711 -236.598 731.925C155.809 1123.14 1002.29 1308.31 1002.29 1308.31L1261.54 -418.601L-34.664 -613.192Z" fill="#E1F0A3"/>
</g>
</g>
</svg>
