<svg width="1147" height="1040" fill="none" xmlns="http://www.w3.org/2000/svg"><mask id="a" style="mask-type:alpha" maskUnits="userSpaceOnUse" x="0" y="0" width="1147" height="1040"><path fill="#D9D9D9" d="M0 0h1147v1040H0z"/></mask><g mask="url(#a)"><mask id="c" style="mask-type:alpha" maskUnits="userSpaceOnUse" x="-735" y="-378" width="1875" height="1738"><mask id="b" fill="#fff"><path d="M13-293c4-4 8-1 2 5-13 12-39 47-51 61-45 51-87 103-122 160-46 77-78 159-105 242-25 76-32 146-18 226 4 19 8 37 9 56 0 28-7 84-39 98-20 9-39-19-47-31-33-50-54-120-72-175-5-15-13-58-34-63-17-5-31 9-39 19-15 17-32 48-36 69-18 85-15 162-6 248 11 99 39 195 77 291 20 50 36 94 43 148 7 49 10 101 15 150 1 11 0 23 2 35l79 12c2-5-2-8-3-13-4-17-6-41-1-57 4-16 15-17 30-7 22 13 58 56 68 77l5 15 175 26-15-25c-37-65-25-139-34-208-11-76-70-141-120-205-14-18-47-67-67-78-21-12-36 7-46 19-18 23-31 52-50 73-6 7-17 12-27 8-3-1-15-12-17-15-24-31-39-68-52-103-34-93-47-198-41-294 2-20 3-32 8-52l10-35c6-16 25-39 44-14 11 15 19 36 26 53 14 35 29 71 45 106 12 28 44 104 72 120 15 9 26-7 32-16 25-37 46-91 56-134 7-29 0-63-8-92-18-73-23-142-5-215 22-90 54-175 102-257 37-63 85-120 134-176 5-5 14-14 21-13 7 2-2 13-6 19l-17 17C-122-82-199 45-218 216c-7 64 5 121 26 183 3 9 10 26 12 35 7 27-7 63-16 88-27 74-70 159-51 239 28 113 154 196 175 310 7 35 5 71 11 107 8 46 27 91 61 129l49 8-21-24c-45-52-54-96-62-157s-16-97-55-152c-24-34-53-66-77-101-63-91-68-162-36-260 14-42 39-82 59-123 19-42 17-87-5-129-41-81-48-184-26-267A830 830 0 0 1 17-225c11-13 24-14 13 4l-16 21c-32 40-61 78-86 122-40 70-77 141-84 221-3 46 27 115 45 160 29 73 59 118 17 192-23 43-57 80-76 124-33 75-38 156 3 233 42 79 126 143 154 226 17 49 15 99 39 148 6 10 19 25 22 33l1 6 6 3 2 3a1607 1607 0 0 1 52 52l80 13-13-11c-41-34-77-61-104-104-25-42-31-90-49-132-37-91-133-155-174-244-45-100-16-190 48-272 39-49 90-93 90-156 0-45-13-78-35-119-27-50-66-110-70-165-3-45 14-90 33-131 28-62 62-123 105-180 6-8 15-22 22-29l11-8c6-5 12-4 16-2 5 3-7 20-11 25C7-134-26-66-50 4c-8 24-14 58-10 83 4 21 16 50 25 70 12 29 22 54 36 83 17 37 46 68 58 108 9 28 13 76-1 100l-22 34C1 531-52 567-90 614c-81 99-80 202 5 306 40 48 92 92 128 142 26 36 42 75 64 111 14 22 29 43 49 63 23 21 48 38 73 58 20 16 41 34 53 56 0 0 62 14 61 9l-5-14c-24-69-88-99-139-150-47-47-83-100-129-148-31-32-66-60-97-91-39-39-73-80-90-128-17-53-8-114 27-158 34-43 76-86 124-118 27-17 91-46 105-69 15-24 16-63 53-73 12-3 34 5 45 10 45 20 69 55 99 87 21 20 43 38 60 61 41 56 21 89 17 147-3 36 7 70 14 105 12 64 20 159 93 199 21 12 47 14 69 8 58-16 76-66 97-109 9-20 19-40 26-60 34-101 19-211 95-297 31-36 51-75 68-118 17-42 27-47 60-80 37-36 47-64 70-106 30-58 84-99 115-154 54-97-13-171-61-260l-38-72-45-7 5 7c42 76 144 172 138 256-5 73-64 114-107 170-28 38-41 85-75 119-31 32-79 44-105 81-16 23-21 54-39 75-12 14-32 27-45 40-20 21-31 46-42 71-16 39-24 77-36 117-10 33-17 54-20 89-4 43-19 118-56 149-35 29-68 0-83-30-16-31-29-106-29-138 0-29 13-53 16-81 5-41-37-126-71-159-30-29-58-48-84-82-36-48-61-84-109-126-18-16-52-38-54-62-3-46 62-58 89-86 35-38 6-95 26-138l17-27c36-67 14-144 68-205 18-20 41-34 63-50l75-52 12-5-495-74-12 14c-25 27-48 55-73 81-39 42-80 81-116 124-25 28-48 58-70 88-19 24-34 50-57 71-5 5-16 13-25 10-14-4-16-12-34-14-32-2-78 47-96 65-111 111-217 238-230 388-8 98-7 197-7 295 0 63 3 127-8 190-15 84-23 172-39 256l-3 6 75 11c2-7 1-15 2-22 9-56 25-107 37-161 13-55 0-111-5-168-12-109-18-220-17-330 0-91 8-164 54-246 34-61 78-107 129-157 14-13 49-43 71-35l20 14c13 11 21 28 39 14 21-15 41-58 54-80 39-64 75-125 124-184 42-53 90-102 136-152 11-13 23-29 35-40 2-2 7-9 12-5s-13 21-23 33l-134 151c-46 55-81 113-113 174-26 50-49 100-74 150-12 23-23 54-41 74-2 3-8 7-12 6-6-2-14-16-16-21-7-13-12-30-19-42-24-39-63-8-85 11-52 44-93 114-110 176-19 67-14 142-11 212a1484 1484 0 0 0 41 317c16 73 37 135 17 207-10 36-24 70-33 106l-1 10 84 13c1-13 7-25 9-37 24-113-4-211-37-321a1288 1288 0 0 1-45-486c9-46 30-92 63-130l19-20c6-5 23-14 31-16 7-2 11-2 18 1 16 9 22 39 27 54 12 41 22 85 46 123 0 0 5 8 11 12s10 6 12 5c4-1 7-6 7-10-1-40 10-89 18-130 19-92 66-184 104-271 3-8 20-37 24-44 35-58 66-103 109-152l72-82c5-6 10-12 24-22Zm-286 1429c-39-56-80-120-67-185 5-22 22-56 41-71 10-8 26-12 39-4 42 22 89 88 106 127 22 53 19 103 17 157-1 31-1 61-7 91-2 10-9 14-18 6-31-29-60-60-88-91l-23-30ZM415-281c-30 21-58 41-79 69-34 47-36 101-60 150-17 37-45 64-51 105-1 11 1 23-1 35-4 18-15 36-34 45-50 24-100-9-136-40C6 43-1-4 18-54c20-56 54-105 90-155 7-9 10-11 17-16 23-14 45-24 73-31 10-3 19-4 25-2l2 2c1 3-1 6-4 10l-25 32c-19 27-27 48-31 80-2 14-7 49 20 24 38-36 35-89 67-128 11-14 48-44 67-49 34-9 70-13 107-16l8-2 10 1v2l-17 11-12 10Z"/></mask><path d="M13-293c4-4 8-1 2 5-13 12-39 47-51 61-45 51-87 103-122 160-46 77-78 159-105 242-25 76-32 146-18 226 4 19 8 37 9 56 0 28-7 84-39 98-20 9-39-19-47-31-33-50-54-120-72-175-5-15-13-58-34-63-17-5-31 9-39 19-15 17-32 48-36 69-18 85-15 162-6 248 11 99 39 195 77 291 20 50 36 94 43 148 7 49 10 101 15 150 1 11 0 23 2 35l79 12c2-5-2-8-3-13-4-17-6-41-1-57 4-16 15-17 30-7 22 13 58 56 68 77l5 15 175 26-15-25c-37-65-25-139-34-208-11-76-70-141-120-205-14-18-47-67-67-78-21-12-36 7-46 19-18 23-31 52-50 73-6 7-17 12-27 8-3-1-15-12-17-15-24-31-39-68-52-103-34-93-47-198-41-294 2-20 3-32 8-52l10-35c6-16 25-39 44-14 11 15 19 36 26 53 14 35 29 71 45 106 12 28 44 104 72 120 15 9 26-7 32-16 25-37 46-91 56-134 7-29 0-63-8-92-18-73-23-142-5-215 22-90 54-175 102-257 37-63 85-120 134-176 5-5 14-14 21-13 7 2-2 13-6 19l-17 17C-122-82-199 45-218 216c-7 64 5 121 26 183 3 9 10 26 12 35 7 27-7 63-16 88-27 74-70 159-51 239 28 113 154 196 175 310 7 35 5 71 11 107 8 46 27 91 61 129l49 8-21-24c-45-52-54-96-62-157s-16-97-55-152c-24-34-53-66-77-101-63-91-68-162-36-260 14-42 39-82 59-123 19-42 17-87-5-129-41-81-48-184-26-267A830 830 0 0 1 17-225c11-13 24-14 13 4l-16 21c-32 40-61 78-86 122-40 70-77 141-84 221-3 46 27 115 45 160 29 73 59 118 17 192-23 43-57 80-76 124-33 75-38 156 3 233 42 79 126 143 154 226 17 49 15 99 39 148 6 10 19 25 22 33l1 6 6 3 2 3a1607 1607 0 0 1 52 52l80 13-13-11c-41-34-77-61-104-104-25-42-31-90-49-132-37-91-133-155-174-244-45-100-16-190 48-272 39-49 90-93 90-156 0-45-13-78-35-119-27-50-66-110-70-165-3-45 14-90 33-131 28-62 62-123 105-180 6-8 15-22 22-29l11-8c6-5 12-4 16-2 5 3-7 20-11 25C7-134-26-66-50 4c-8 24-14 58-10 83 4 21 16 50 25 70 12 29 22 54 36 83 17 37 46 68 58 108 9 28 13 76-1 100l-22 34C1 531-52 567-90 614c-81 99-80 202 5 306 40 48 92 92 128 142 26 36 42 75 64 111 14 22 29 43 49 63 23 21 48 38 73 58 20 16 41 34 53 56 0 0 62 14 61 9l-5-14c-24-69-88-99-139-150-47-47-83-100-129-148-31-32-66-60-97-91-39-39-73-80-90-128-17-53-8-114 27-158 34-43 76-86 124-118 27-17 91-46 105-69 15-24 16-63 53-73 12-3 34 5 45 10 45 20 69 55 99 87 21 20 43 38 60 61 41 56 21 89 17 147-3 36 7 70 14 105 12 64 20 159 93 199 21 12 47 14 69 8 58-16 76-66 97-109 9-20 19-40 26-60 34-101 19-211 95-297 31-36 51-75 68-118 17-42 27-47 60-80 37-36 47-64 70-106 30-58 84-99 115-154 54-97-13-171-61-260l-38-72-45-7 5 7c42 76 144 172 138 256-5 73-64 114-107 170-28 38-41 85-75 119-31 32-79 44-105 81-16 23-21 54-39 75-12 14-32 27-45 40-20 21-31 46-42 71-16 39-24 77-36 117-10 33-17 54-20 89-4 43-19 118-56 149-35 29-68 0-83-30-16-31-29-106-29-138 0-29 13-53 16-81 5-41-37-126-71-159-30-29-58-48-84-82-36-48-61-84-109-126-18-16-52-38-54-62-3-46 62-58 89-86 35-38 6-95 26-138l17-27c36-67 14-144 68-205 18-20 41-34 63-50l75-52 12-5-495-74-12 14c-25 27-48 55-73 81-39 42-80 81-116 124-25 28-48 58-70 88-19 24-34 50-57 71-5 5-16 13-25 10-14-4-16-12-34-14-32-2-78 47-96 65-111 111-217 238-230 388-8 98-7 197-7 295 0 63 3 127-8 190-15 84-23 172-39 256l-3 6 75 11c2-7 1-15 2-22 9-56 25-107 37-161 13-55 0-111-5-168-12-109-18-220-17-330 0-91 8-164 54-246 34-61 78-107 129-157 14-13 49-43 71-35l20 14c13 11 21 28 39 14 21-15 41-58 54-80 39-64 75-125 124-184 42-53 90-102 136-152 11-13 23-29 35-40 2-2 7-9 12-5s-13 21-23 33l-134 151c-46 55-81 113-113 174-26 50-49 100-74 150-12 23-23 54-41 74-2 3-8 7-12 6-6-2-14-16-16-21-7-13-12-30-19-42-24-39-63-8-85 11-52 44-93 114-110 176-19 67-14 142-11 212a1484 1484 0 0 0 41 317c16 73 37 135 17 207-10 36-24 70-33 106l-1 10 84 13c1-13 7-25 9-37 24-113-4-211-37-321a1288 1288 0 0 1-45-486c9-46 30-92 63-130l19-20c6-5 23-14 31-16 7-2 11-2 18 1 16 9 22 39 27 54 12 41 22 85 46 123 0 0 5 8 11 12s10 6 12 5c4-1 7-6 7-10-1-40 10-89 18-130 19-92 66-184 104-271 3-8 20-37 24-44 35-58 66-103 109-152l72-82c5-6 10-12 24-22Zm-286 1429c-39-56-80-120-67-185 5-22 22-56 41-71 10-8 26-12 39-4 42 22 89 88 106 127 22 53 19 103 17 157-1 31-1 61-7 91-2 10-9 14-18 6-31-29-60-60-88-91l-23-30ZM415-281c-30 21-58 41-79 69-34 47-36 101-60 150-17 37-45 64-51 105-1 11 1 23-1 35-4 18-15 36-34 45-50 24-100-9-136-40C6 43-1-4 18-54c20-56 54-105 90-155 7-9 10-11 17-16 23-14 45-24 73-31 10-3 19-4 25-2l2 2c1 3-1 6-4 10l-25 32c-19 27-27 48-31 80-2 14-7 49 20 24 38-36 35-89 67-128 11-14 48-44 67-49 34-9 70-13 107-16l8-2 10 1v2l-17 11-12 10Z" fill="#E1F0A3" stroke="#000" stroke-width="2" mask="url(#b)"/></mask><g mask="url(#c)"><path d="M-35-613S-629 341-237 732c393 391 1239 576 1239 576l260-1727L-35-613Z" fill="#E1F0A3"/></g></g></svg>