<svg width="440" height="469" viewBox="0 0 440 469" fill="none" xmlns="http://www.w3.org/2000/svg">
<g clip-path="url(#clip0_2110_892)">
<mask id="mask0_2110_892" style="mask-type:alpha" maskUnits="userSpaceOnUse" x="-404" y="-277" width="992" height="920">
<mask id="path-1-inside-1_2110_892" fill="white">
<path d="M-8.61128 -231.651C-6.21443 -233.437 -3.91966 -232.268 -7.15814 -229.198C-14.3768 -222.364 -28.1657 -204.028 -34.4013 -196.842C-58.0257 -169.635 -80.3027 -142.379 -98.7738 -111.964C-123.338 -71.5209 -139.838 -28.0748 -154.242 15.8581C-167.389 55.9583 -171.11 93.1863 -163.636 135.456C-161.89 145.321 -159.594 155.012 -159.326 165.018C-158.939 179.654 -162.861 209.228 -179.731 216.731C-190.258 221.416 -200.506 206.909 -204.739 200.493C-222.278 173.893 -233.345 137.172 -242.661 107.929C-245.199 99.9612 -249.749 77.4196 -260.642 74.4531C-269.55 72.0312 -277.046 79.2704 -281.502 84.4571C-289.303 93.5448 -298.092 110.118 -300.404 121.31C-309.632 165.908 -308.339 206.812 -303.375 252.456C-297.677 304.849 -282.987 355.43 -262.806 405.91C-252.11 432.665 -243.481 455.944 -239.865 484.182C-236.55 510.095 -234.478 537.584 -232.181 563.497C-231.626 569.767 -231.871 576.028 -231.149 582.29L-189.212 588.585C-188.371 586.166 -190.319 584.09 -190.819 581.734C-192.7 572.804 -193.786 560.059 -191.59 551.419C-189.48 543.129 -183.675 542.446 -175.52 547.65C-164.113 554.93 -144.917 577.617 -139.579 588.393C-138.396 590.787 -137.906 593.89 -137.095 596.409L-44.2311 610.35C-46.4378 605.751 -49.8929 601.657 -52.4331 597.157C-72.06 562.4 -65.3644 523.258 -70.4939 486.982C-76.2067 446.593 -107.018 412.293 -133.62 378.84C-141.386 369.073 -158.826 343.446 -169.328 337.383C-180.364 331.011 -188.341 341.115 -193.582 347.631C-203.157 359.548 -209.901 374.669 -219.83 386.058C-222.951 389.634 -228.83 392.363 -234.346 390.321C-235.985 389.711 -242.266 383.849 -243.402 382.319C-255.633 365.858 -263.974 346.317 -270.604 327.997C-288.422 278.761 -295.597 223.01 -292.169 172.612C-291.443 161.899 -290.986 155.674 -288.085 145.148C-286.79 140.46 -284.636 130.966 -282.827 126.42C-279.419 117.865 -269.728 105.974 -259.625 118.904C-253.514 126.725 -249.451 138.18 -245.883 146.871C-238.157 165.695 -230.658 184.523 -222.205 203.284C-215.583 217.981 -198.626 257.932 -183.796 266.559C-176.069 271.051 -169.949 262.926 -166.903 258.291C-153.751 238.249 -142.946 209.839 -137.564 187.299C-133.857 171.778 -137.679 154.015 -141.476 138.778C-151.126 100.082 -153.949 63.4545 -144.416 24.9809C-132.567 -22.8592 -115.58 -67.6519 -90.1357 -111.003C-70.6192 -144.249 -45.4164 -174.463 -19.246 -204.109C-17.0382 -206.607 -12.3361 -211.427 -8.424 -210.718C-4.51192 -210.01 -9.64591 -203.868 -11.8209 -201.058C-14.0369 -198.202 -17.9683 -194.724 -20.4489 -191.736C-79.8176 -120.094 -120.466 -52.8526 -130.421 37.6109C-134.154 71.5416 -128.079 101.401 -116.856 134.398C-115.276 139.039 -111.492 148.222 -110.332 152.93C-106.814 167.218 -114.377 186.205 -119.131 199.636C-132.979 238.761 -155.999 283.29 -145.778 325.609C-131.292 385.59 -64.6923 429.19 -53.0838 489.568C-49.5009 508.204 -50.6613 527.346 -47.5338 546.057C-43.4768 570.331 -33.4883 594.41 -15.4692 614.664L10.8931 618.621C7.13367 614.394 2.93879 610.412 -0.725505 606.12C-24.323 578.438 -28.9355 555.287 -33.1558 523.23C-37.4613 490.526 -41.5521 471.824 -62.2175 442.809C-75.0937 424.734 -90.1577 407.582 -102.834 389.313C-136.44 340.905 -139.151 303.498 -121.972 251.887C-114.442 229.255 -101.205 208.299 -91.0348 186.66C-80.7169 164.717 -82.1071 140.802 -93.3465 118.685C-115.123 75.837 -118.919 21.4309 -107.267 -22.5568C-91.5803 -81.7787 -55.5559 -137.519 -15.0428 -185.776C-12.61 -188.674 -9.04555 -192.891 -6.48039 -195.722C-0.436755 -202.388 6.62622 -203.143 0.333305 -193.452C-0.895494 -191.56 -6.2808 -184.237 -7.79827 -182.356C-24.8419 -161.26 -39.9584 -140.982 -53.3249 -117.802C-74.5547 -80.9915 -94.3143 -43.1689 -97.649 -1.05116C-99.5714 23.2044 -83.4706 59.5355 -74.0679 83.5363C-58.8347 122.423 -42.9136 145.922 -64.7861 185.345C-77.17 207.667 -94.9965 227.343 -105.281 250.883C-122.504 290.311 -125.406 333.415 -103.669 373.757C-81.1882 415.473 -36.9257 449.348 -22.0833 493.454C-13.3262 519.48 -14.2982 545.973 -1.28337 571.657C1.47845 577.108 8.42025 584.894 10.3273 589.291C10.8675 590.545 10.4007 592.062 10.632 592.455C10.9583 593.012 13.35 593.194 13.9034 593.64C14.2435 593.914 14.2236 595.033 14.6814 595.623C19.1154 601.386 24.7951 606.395 30.048 611.48C34.0833 615.386 38.1126 619.333 42.0584 623.304L84.5964 629.69C82.6858 627.593 80.025 625.602 77.7394 623.727C56.3041 606.173 36.9635 591.688 23.0208 568.812C9.67039 546.918 6.56424 521.619 -2.84873 498.976C-22.7835 451.029 -73.4449 417.087 -95.0098 369.951C-119.09 317.313 -103.747 269.937 -69.5077 226.389C-49.2964 200.685 -21.9556 177.006 -22.0015 143.606C-22.0328 120.119 -28.8412 102.419 -40.4273 80.9436C-54.7359 54.4375 -75.4439 22.7117 -77.6487 -6.24091C-79.4687 -30.1739 -70.1688 -53.8665 -60.4061 -75.3718C-45.3317 -108.564 -27.3662 -140.767 -4.9062 -170.607C-1.76318 -174.785 3.49557 -182.593 7.07201 -185.942C7.74775 -186.576 11.7533 -189.941 12.5552 -190.467C16.0621 -192.785 19.3153 -192.692 21.3759 -191.443C24.0678 -189.81 17.7164 -180.942 15.2167 -178.091C-11.5648 -147.56 -29.0594 -111.669 -41.7682 -74.7847C-46.1377 -62.0957 -49.33 -44.0167 -46.9319 -30.7586C-44.8925 -19.472 -38.6616 -4.40967 -34.0385 6.53864C-27.5494 21.9284 -22.1077 34.9313 -14.9596 50.1779C-5.69478 69.9408 9.41782 86.276 16.0667 107.578C20.583 122.043 23.02 147.326 15.5997 160.394C12.9774 165.009 7.00161 173.915 3.86885 178.29C-14.5043 203.958 -42.6423 223.128 -62.9528 247.9C-105.846 300.222 -105.428 354.949 -60.0818 409.853C-38.9185 435.475 -11.7777 458.588 7.64653 485.14C21.2475 503.734 29.9319 524.369 41.5188 543.526C48.5774 555.198 56.8349 566.581 67.4623 576.736C79.4537 588.195 92.6953 597.239 105.622 607.586C116.516 616.306 127.373 625.467 133.715 637.06C133.715 637.06 166.552 644.517 166.066 641.916C165.58 639.316 164.377 636.827 163.493 634.301C150.797 598.072 116.92 582.452 89.8595 555.163C65.3009 530.395 46.1752 502.575 21.7346 477.21C5.4444 460.303 -12.9336 445.283 -29.5255 428.717C-49.9188 408.354 -68.3572 386.571 -76.9101 360.966C-86.1823 333.215 -81.392 300.7 -62.9934 277.554C-44.8692 254.758 -22.5183 232.28 2.81815 215.393C16.801 206.079 51.0613 190.676 58.2626 178.915C66.2624 165.854 66.8801 145.322 86.4163 140.305C92.6028 138.715 104.074 142.834 109.991 145.426C133.72 155.817 146.341 174.757 162.651 191.305C173.276 202.088 185.106 211.437 193.959 223.551C215.586 253.139 205.211 270.759 203.048 301.583C201.739 320.275 207.008 338.596 210.398 357.002C216.64 390.913 220.937 441.07 259.808 462.368C270.836 468.413 284.307 469.83 296.147 466.488C326.715 457.857 336.163 431.361 347.206 408.605C352.283 398.141 357.706 387.835 361.421 376.891C379.424 323.891 371.506 265.58 411.345 219.958C427.903 200.995 438.682 180.416 447.577 157.863C456.461 135.351 461.671 132.572 479.03 115.475C498.44 96.3627 504.183 81.385 515.939 59.113C532.118 28.461 560.345 7.10701 576.811 -22.2031C605.475 -73.2304 570.169 -112.78 544.447 -159.753L524.655 -197.956L500.992 -201.508C501.754 -200.253 502.836 -199.192 503.546 -197.894C525.664 -157.397 579.474 -107.007 576.298 -62.2314C573.551 -23.5351 542.625 -2.13938 520.046 27.6634C504.932 47.6161 498.316 72.4701 480.31 90.6107C463.826 107.22 438.561 113.542 424.73 133.222C416.226 145.323 413.361 161.715 403.861 173.014C397.756 180.276 387.379 186.952 380.47 194.038C369.64 205.138 364.091 218.52 358.308 231.83C349.525 252.039 345.297 272.509 339.059 293.398C333.864 310.786 330.133 321.955 328.383 340.395C326.218 363.158 318.374 402.974 298.777 419.13C280.167 434.471 262.766 419.538 254.668 403.413C246.57 387.288 239.856 347.619 239.81 330.599C239.771 315.428 246.461 302.254 248.068 287.759C250.49 265.943 228.646 220.925 210.725 203.777C194.4 188.158 179.588 178.166 166.112 160.256C147.031 134.9 134.038 115.937 108.699 93.5607C99.065 85.0533 81.0157 73.3042 80.0194 60.6428C78.1256 36.7081 112.473 30.2045 126.744 15.1804C145.714 -4.79373 130.094 -34.6617 140.902 -57.709C143.154 -62.5097 147.181 -67.3419 149.689 -71.997C168.704 -107.246 157.223 -148.264 185.902 -180.517C194.976 -190.721 207.26 -198.466 218.723 -206.576C231.713 -215.76 245.338 -225.23 258.596 -234.229L264.939 -236.936L3.12557 -276.24C1.32787 -273.554 -0.8303 -270.932 -3.04666 -268.49C-16.0924 -254.12 -28.6848 -239.547 -41.7363 -225.517C-62.0899 -203.642 -83.9429 -182.775 -103.235 -160.312C-116.182 -145.233 -128.23 -129.434 -140.226 -113.751C-149.857 -101.163 -158.093 -87.286 -169.967 -76.324C-172.901 -73.6132 -178.683 -69.4077 -183.573 -70.8446C-190.654 -72.9271 -192.075 -77.3807 -201.548 -78.0488C-218.348 -79.235 -242.725 -53.6119 -252.385 -43.9047C-310.607 14.6056 -367.111 81.7571 -373.781 161.375C-378.102 212.942 -377.305 265.302 -377.451 317.044C-377.548 350.669 -375.779 384.686 -381.572 417.74C-389.39 462.35 -393.817 508.939 -402.569 553.321C-402.784 554.41 -403.061 555.425 -403.673 556.39L-364.129 562.326C-363.426 558.326 -363.608 554.226 -362.968 550.231C-358.272 520.997 -350.111 494.01 -343.463 465.497C-336.626 436.18 -343.391 406.515 -346.518 376.73C-352.612 318.711 -355.795 260.292 -355.395 202.196C-355.066 154.13 -351.069 115.068 -326.97 71.9619C-308.825 39.5104 -285.321 15.3435 -258.343 -11.0761C-251.251 -18.0174 -232.454 -34.0331 -221.106 -29.3598C-218.002 -28.0839 -212.665 -24.2013 -210.265 -22.1048C-203.607 -16.2969 -199.531 -7.24139 -189.656 -14.6681C-178.697 -22.914 -167.915 -45.3276 -161.101 -56.8257C-140.77 -91.1322 -121.418 -122.983 -95.9111 -154.502C-73.5149 -182.173 -47.8819 -208.086 -23.851 -234.893C-17.8624 -241.571 -11.51 -250.104 -5.31722 -256.133C-4.28428 -257.137 -1.66112 -260.621 1.12174 -258.495C3.76173 -256.478 -5.75728 -247.439 -11.2715 -241.001C-34.1599 -214.261 -58.8573 -188.285 -81.7096 -161.102C-106.004 -132.199 -124.748 -101.481 -141.6 -68.998C-155.248 -42.6906 -167.819 -16.6217 -180.929 9.81312C-187.115 22.2806 -192.842 38.8573 -202.472 49.4346C-203.7 50.7864 -206.62 52.6428 -208.765 52.1439C-212.06 51.3839 -216.3 43.8398 -217.515 41.2416C-220.761 34.3123 -223.471 25.5968 -227.449 19.0369C-239.873 -1.44692 -260.416 14.6743 -272.029 24.6561C-299.634 48.3889 -321.443 85.2289 -330.456 117.855C-340.252 153.31 -337.927 193.21 -336.399 230.16C-335.029 263.237 -332.975 295.467 -328.384 328.465C-325.145 351.745 -320.178 374.884 -314.794 398.017C-305.936 436.067 -295.016 468.958 -305.625 507.247C-310.888 526.23 -318.174 544.015 -322.982 563.341C-323.368 564.889 -323.533 566.824 -323.395 568.441L-279.059 575.097C-278.806 568.297 -275.664 562.113 -274.263 555.551C-261.531 495.988 -276.546 444.087 -293.907 386.048C-307.825 339.534 -315.732 292.224 -319.321 244.552C-322.201 206.295 -324.64 166.997 -317.517 129.219C-312.873 104.576 -301.734 80.2747 -284.305 60.2136C-281.917 57.4627 -277.011 51.7013 -274.21 49.6502C-271.058 47.3445 -261.981 42.1254 -258.127 41.1308C-254.533 40.2041 -252.129 40.0018 -248.702 41.9359C-240.218 46.7239 -236.726 62.59 -234.339 70.4283C-227.812 91.8608 -222.806 115.499 -209.989 135.368C-209.989 135.368 -207.045 139.757 -204.219 141.749C-201.048 143.985 -198.986 144.69 -197.532 144.336C-195.6 143.863 -193.778 141.05 -193.831 138.906C-194.325 118.006 -188.698 91.7795 -184.351 70.5597C-174.342 21.6334 -149.735 -26.7538 -129.573 -72.8711C-127.803 -76.925 -119.147 -92.6896 -117.062 -96.0725C-98.0868 -126.928 -81.7191 -150.612 -59.4009 -176.474C-46.5839 -191.33 -34.1746 -205.708 -20.8718 -220.197C-18.2178 -223.09 -15.5616 -226.452 -8.58905 -231.647L-8.61128 -231.651ZM-159.747 524.213C-180.079 494.265 -201.987 460.795 -194.875 426.157C-192.499 414.575 -183.646 396.591 -173.562 388.568C-168.068 384.193 -159.762 382.401 -152.575 386.319C-130.377 398.412 -105.603 433.01 -96.9582 453.638C-85.1476 481.808 -86.7478 508.202 -87.7325 536.941C-88.2783 552.899 -88.3511 569.157 -91.4925 584.888C-92.5234 590.049 -96.1998 592.434 -101.187 587.776C-117.497 572.555 -132.802 556.367 -147.31 539.797L-159.753 524.216L-159.747 524.213ZM204.135 -225.192C188.349 -213.877 173.692 -203.636 162.584 -188.523C144.575 -164.029 143.158 -135.294 130.915 -109.251C121.911 -90.1033 106.879 -75.3936 103.856 -53.9658C103.007 -47.9677 104.202 -41.5604 102.974 -35.5773C100.951 -25.7058 95.4078 -16.4978 84.9509 -11.4859C58.6217 1.1322 32.0899 -16.5961 13.1321 -32.5684C-12.1622 -53.8765 -15.6375 -78.8401 -5.85703 -105.393C5.01928 -134.923 22.7648 -160.96 41.8821 -186.921C45.5349 -191.879 47.1892 -193.041 50.7934 -195.363C62.7795 -203.092 74.7114 -208.147 89.5178 -212.218C94.4871 -213.585 99.6742 -213.9 102.61 -213.017C102.953 -212.915 103.686 -212.567 103.767 -212.276C104.274 -210.417 103.243 -208.975 101.436 -206.868C97.1017 -201.807 92.0531 -195.248 88.3233 -189.929C78.1983 -175.488 74.3366 -164.324 71.9759 -147.424C70.9289 -139.956 68.4768 -121.841 82.3629 -134.833C102.625 -153.784 101.277 -181.812 117.909 -202.403C123.838 -209.742 143.216 -225.992 153.19 -228.581C171.42 -233.32 190.604 -235.458 209.787 -236.948C211.077 -237.048 212.231 -237.95 214.058 -237.95C215.931 -237.949 217.781 -237.457 219.625 -237.231C219.579 -236.847 219.576 -236.447 219.364 -236.097C219.068 -235.606 211.963 -231.274 210.63 -230.315C208.581 -228.84 206.342 -226.779 204.135 -225.197L204.135 -225.192Z"/>
</mask>
<path d="M-8.61128 -231.651C-6.21443 -233.437 -3.91966 -232.268 -7.15814 -229.198C-14.3768 -222.364 -28.1657 -204.028 -34.4013 -196.842C-58.0257 -169.635 -80.3027 -142.379 -98.7738 -111.964C-123.338 -71.5209 -139.838 -28.0748 -154.242 15.8581C-167.389 55.9583 -171.11 93.1863 -163.636 135.456C-161.89 145.321 -159.594 155.012 -159.326 165.018C-158.939 179.654 -162.861 209.228 -179.731 216.731C-190.258 221.416 -200.506 206.909 -204.739 200.493C-222.278 173.893 -233.345 137.172 -242.661 107.929C-245.199 99.9612 -249.749 77.4196 -260.642 74.4531C-269.55 72.0312 -277.046 79.2704 -281.502 84.4571C-289.303 93.5448 -298.092 110.118 -300.404 121.31C-309.632 165.908 -308.339 206.812 -303.375 252.456C-297.677 304.849 -282.987 355.43 -262.806 405.91C-252.11 432.665 -243.481 455.944 -239.865 484.182C-236.55 510.095 -234.478 537.584 -232.181 563.497C-231.626 569.767 -231.871 576.028 -231.149 582.29L-189.212 588.585C-188.371 586.166 -190.319 584.09 -190.819 581.734C-192.7 572.804 -193.786 560.059 -191.59 551.419C-189.48 543.129 -183.675 542.446 -175.52 547.65C-164.113 554.93 -144.917 577.617 -139.579 588.393C-138.396 590.787 -137.906 593.89 -137.095 596.409L-44.2311 610.35C-46.4378 605.751 -49.8929 601.657 -52.4331 597.157C-72.06 562.4 -65.3644 523.258 -70.4939 486.982C-76.2067 446.593 -107.018 412.293 -133.62 378.84C-141.386 369.073 -158.826 343.446 -169.328 337.383C-180.364 331.011 -188.341 341.115 -193.582 347.631C-203.157 359.548 -209.901 374.669 -219.83 386.058C-222.951 389.634 -228.83 392.363 -234.346 390.321C-235.985 389.711 -242.266 383.849 -243.402 382.319C-255.633 365.858 -263.974 346.317 -270.604 327.997C-288.422 278.761 -295.597 223.01 -292.169 172.612C-291.443 161.899 -290.986 155.674 -288.085 145.148C-286.79 140.46 -284.636 130.966 -282.827 126.42C-279.419 117.865 -269.728 105.974 -259.625 118.904C-253.514 126.725 -249.451 138.18 -245.883 146.871C-238.157 165.695 -230.658 184.523 -222.205 203.284C-215.583 217.981 -198.626 257.932 -183.796 266.559C-176.069 271.051 -169.949 262.926 -166.903 258.291C-153.751 238.249 -142.946 209.839 -137.564 187.299C-133.857 171.778 -137.679 154.015 -141.476 138.778C-151.126 100.082 -153.949 63.4545 -144.416 24.9809C-132.567 -22.8592 -115.58 -67.6519 -90.1357 -111.003C-70.6192 -144.249 -45.4164 -174.463 -19.246 -204.109C-17.0382 -206.607 -12.3361 -211.427 -8.424 -210.718C-4.51192 -210.01 -9.64591 -203.868 -11.8209 -201.058C-14.0369 -198.202 -17.9683 -194.724 -20.4489 -191.736C-79.8176 -120.094 -120.466 -52.8526 -130.421 37.6109C-134.154 71.5416 -128.079 101.401 -116.856 134.398C-115.276 139.039 -111.492 148.222 -110.332 152.93C-106.814 167.218 -114.377 186.205 -119.131 199.636C-132.979 238.761 -155.999 283.29 -145.778 325.609C-131.292 385.59 -64.6923 429.19 -53.0838 489.568C-49.5009 508.204 -50.6613 527.346 -47.5338 546.057C-43.4768 570.331 -33.4883 594.41 -15.4692 614.664L10.8931 618.621C7.13367 614.394 2.93879 610.412 -0.725505 606.12C-24.323 578.438 -28.9355 555.287 -33.1558 523.23C-37.4613 490.526 -41.5521 471.824 -62.2175 442.809C-75.0937 424.734 -90.1577 407.582 -102.834 389.313C-136.44 340.905 -139.151 303.498 -121.972 251.887C-114.442 229.255 -101.205 208.299 -91.0348 186.66C-80.7169 164.717 -82.1071 140.802 -93.3465 118.685C-115.123 75.837 -118.919 21.4309 -107.267 -22.5568C-91.5803 -81.7787 -55.5559 -137.519 -15.0428 -185.776C-12.61 -188.674 -9.04555 -192.891 -6.48039 -195.722C-0.436755 -202.388 6.62622 -203.143 0.333305 -193.452C-0.895494 -191.56 -6.2808 -184.237 -7.79827 -182.356C-24.8419 -161.26 -39.9584 -140.982 -53.3249 -117.802C-74.5547 -80.9915 -94.3143 -43.1689 -97.649 -1.05116C-99.5714 23.2044 -83.4706 59.5355 -74.0679 83.5363C-58.8347 122.423 -42.9136 145.922 -64.7861 185.345C-77.17 207.667 -94.9965 227.343 -105.281 250.883C-122.504 290.311 -125.406 333.415 -103.669 373.757C-81.1882 415.473 -36.9257 449.348 -22.0833 493.454C-13.3262 519.48 -14.2982 545.973 -1.28337 571.657C1.47845 577.108 8.42025 584.894 10.3273 589.291C10.8675 590.545 10.4007 592.062 10.632 592.455C10.9583 593.012 13.35 593.194 13.9034 593.64C14.2435 593.914 14.2236 595.033 14.6814 595.623C19.1154 601.386 24.7951 606.395 30.048 611.48C34.0833 615.386 38.1126 619.333 42.0584 623.304L84.5964 629.69C82.6858 627.593 80.025 625.602 77.7394 623.727C56.3041 606.173 36.9635 591.688 23.0208 568.812C9.67039 546.918 6.56424 521.619 -2.84873 498.976C-22.7835 451.029 -73.4449 417.087 -95.0098 369.951C-119.09 317.313 -103.747 269.937 -69.5077 226.389C-49.2964 200.685 -21.9556 177.006 -22.0015 143.606C-22.0328 120.119 -28.8412 102.419 -40.4273 80.9436C-54.7359 54.4375 -75.4439 22.7117 -77.6487 -6.24091C-79.4687 -30.1739 -70.1688 -53.8665 -60.4061 -75.3718C-45.3317 -108.564 -27.3662 -140.767 -4.9062 -170.607C-1.76318 -174.785 3.49557 -182.593 7.07201 -185.942C7.74775 -186.576 11.7533 -189.941 12.5552 -190.467C16.0621 -192.785 19.3153 -192.692 21.3759 -191.443C24.0678 -189.81 17.7164 -180.942 15.2167 -178.091C-11.5648 -147.56 -29.0594 -111.669 -41.7682 -74.7847C-46.1377 -62.0957 -49.33 -44.0167 -46.9319 -30.7586C-44.8925 -19.472 -38.6616 -4.40967 -34.0385 6.53864C-27.5494 21.9284 -22.1077 34.9313 -14.9596 50.1779C-5.69478 69.9408 9.41782 86.276 16.0667 107.578C20.583 122.043 23.02 147.326 15.5997 160.394C12.9774 165.009 7.00161 173.915 3.86885 178.29C-14.5043 203.958 -42.6423 223.128 -62.9528 247.9C-105.846 300.222 -105.428 354.949 -60.0818 409.853C-38.9185 435.475 -11.7777 458.588 7.64653 485.14C21.2475 503.734 29.9319 524.369 41.5188 543.526C48.5774 555.198 56.8349 566.581 67.4623 576.736C79.4537 588.195 92.6953 597.239 105.622 607.586C116.516 616.306 127.373 625.467 133.715 637.06C133.715 637.06 166.552 644.517 166.066 641.916C165.58 639.316 164.377 636.827 163.493 634.301C150.797 598.072 116.92 582.452 89.8595 555.163C65.3009 530.395 46.1752 502.575 21.7346 477.21C5.4444 460.303 -12.9336 445.283 -29.5255 428.717C-49.9188 408.354 -68.3572 386.571 -76.9101 360.966C-86.1823 333.215 -81.392 300.7 -62.9934 277.554C-44.8692 254.758 -22.5183 232.28 2.81815 215.393C16.801 206.079 51.0613 190.676 58.2626 178.915C66.2624 165.854 66.8801 145.322 86.4163 140.305C92.6028 138.715 104.074 142.834 109.991 145.426C133.72 155.817 146.341 174.757 162.651 191.305C173.276 202.088 185.106 211.437 193.959 223.551C215.586 253.139 205.211 270.759 203.048 301.583C201.739 320.275 207.008 338.596 210.398 357.002C216.64 390.913 220.937 441.07 259.808 462.368C270.836 468.413 284.307 469.83 296.147 466.488C326.715 457.857 336.163 431.361 347.206 408.605C352.283 398.141 357.706 387.835 361.421 376.891C379.424 323.891 371.506 265.58 411.345 219.958C427.903 200.995 438.682 180.416 447.577 157.863C456.461 135.351 461.671 132.572 479.03 115.475C498.44 96.3627 504.183 81.385 515.939 59.113C532.118 28.461 560.345 7.10701 576.811 -22.2031C605.475 -73.2304 570.169 -112.78 544.447 -159.753L524.655 -197.956L500.992 -201.508C501.754 -200.253 502.836 -199.192 503.546 -197.894C525.664 -157.397 579.474 -107.007 576.298 -62.2314C573.551 -23.5351 542.625 -2.13938 520.046 27.6634C504.932 47.6161 498.316 72.4701 480.31 90.6107C463.826 107.22 438.561 113.542 424.73 133.222C416.226 145.323 413.361 161.715 403.861 173.014C397.756 180.276 387.379 186.952 380.47 194.038C369.64 205.138 364.091 218.52 358.308 231.83C349.525 252.039 345.297 272.509 339.059 293.398C333.864 310.786 330.133 321.955 328.383 340.395C326.218 363.158 318.374 402.974 298.777 419.13C280.167 434.471 262.766 419.538 254.668 403.413C246.57 387.288 239.856 347.619 239.81 330.599C239.771 315.428 246.461 302.254 248.068 287.759C250.49 265.943 228.646 220.925 210.725 203.777C194.4 188.158 179.588 178.166 166.112 160.256C147.031 134.9 134.038 115.937 108.699 93.5607C99.065 85.0533 81.0157 73.3042 80.0194 60.6428C78.1256 36.7081 112.473 30.2045 126.744 15.1804C145.714 -4.79373 130.094 -34.6617 140.902 -57.709C143.154 -62.5097 147.181 -67.3419 149.689 -71.997C168.704 -107.246 157.223 -148.264 185.902 -180.517C194.976 -190.721 207.26 -198.466 218.723 -206.576C231.713 -215.76 245.338 -225.23 258.596 -234.229L264.939 -236.936L3.12557 -276.24C1.32787 -273.554 -0.8303 -270.932 -3.04666 -268.49C-16.0924 -254.12 -28.6848 -239.547 -41.7363 -225.517C-62.0899 -203.642 -83.9429 -182.775 -103.235 -160.312C-116.182 -145.233 -128.23 -129.434 -140.226 -113.751C-149.857 -101.163 -158.093 -87.286 -169.967 -76.324C-172.901 -73.6132 -178.683 -69.4077 -183.573 -70.8446C-190.654 -72.9271 -192.075 -77.3807 -201.548 -78.0488C-218.348 -79.235 -242.725 -53.6119 -252.385 -43.9047C-310.607 14.6056 -367.111 81.7571 -373.781 161.375C-378.102 212.942 -377.305 265.302 -377.451 317.044C-377.548 350.669 -375.779 384.686 -381.572 417.74C-389.39 462.35 -393.817 508.939 -402.569 553.321C-402.784 554.41 -403.061 555.425 -403.673 556.39L-364.129 562.326C-363.426 558.326 -363.608 554.226 -362.968 550.231C-358.272 520.997 -350.111 494.01 -343.463 465.497C-336.626 436.18 -343.391 406.515 -346.518 376.73C-352.612 318.711 -355.795 260.292 -355.395 202.196C-355.066 154.13 -351.069 115.068 -326.97 71.9619C-308.825 39.5104 -285.321 15.3435 -258.343 -11.0761C-251.251 -18.0174 -232.454 -34.0331 -221.106 -29.3598C-218.002 -28.0839 -212.665 -24.2013 -210.265 -22.1048C-203.607 -16.2969 -199.531 -7.24139 -189.656 -14.6681C-178.697 -22.914 -167.915 -45.3276 -161.101 -56.8257C-140.77 -91.1322 -121.418 -122.983 -95.9111 -154.502C-73.5149 -182.173 -47.8819 -208.086 -23.851 -234.893C-17.8624 -241.571 -11.51 -250.104 -5.31722 -256.133C-4.28428 -257.137 -1.66112 -260.621 1.12174 -258.495C3.76173 -256.478 -5.75728 -247.439 -11.2715 -241.001C-34.1599 -214.261 -58.8573 -188.285 -81.7096 -161.102C-106.004 -132.199 -124.748 -101.481 -141.6 -68.998C-155.248 -42.6906 -167.819 -16.6217 -180.929 9.81312C-187.115 22.2806 -192.842 38.8573 -202.472 49.4346C-203.7 50.7864 -206.62 52.6428 -208.765 52.1439C-212.06 51.3839 -216.3 43.8398 -217.515 41.2416C-220.761 34.3123 -223.471 25.5968 -227.449 19.0369C-239.873 -1.44692 -260.416 14.6743 -272.029 24.6561C-299.634 48.3889 -321.443 85.2289 -330.456 117.855C-340.252 153.31 -337.927 193.21 -336.399 230.16C-335.029 263.237 -332.975 295.467 -328.384 328.465C-325.145 351.745 -320.178 374.884 -314.794 398.017C-305.936 436.067 -295.016 468.958 -305.625 507.247C-310.888 526.23 -318.174 544.015 -322.982 563.341C-323.368 564.889 -323.533 566.824 -323.395 568.441L-279.059 575.097C-278.806 568.297 -275.664 562.113 -274.263 555.551C-261.531 495.988 -276.546 444.087 -293.907 386.048C-307.825 339.534 -315.732 292.224 -319.321 244.552C-322.201 206.295 -324.64 166.997 -317.517 129.219C-312.873 104.576 -301.734 80.2747 -284.305 60.2136C-281.917 57.4627 -277.011 51.7013 -274.21 49.6502C-271.058 47.3445 -261.981 42.1254 -258.127 41.1308C-254.533 40.2041 -252.129 40.0018 -248.702 41.9359C-240.218 46.7239 -236.726 62.59 -234.339 70.4283C-227.812 91.8608 -222.806 115.499 -209.989 135.368C-209.989 135.368 -207.045 139.757 -204.219 141.749C-201.048 143.985 -198.986 144.69 -197.532 144.336C-195.6 143.863 -193.778 141.05 -193.831 138.906C-194.325 118.006 -188.698 91.7795 -184.351 70.5597C-174.342 21.6334 -149.735 -26.7538 -129.573 -72.8711C-127.803 -76.925 -119.147 -92.6896 -117.062 -96.0725C-98.0868 -126.928 -81.7191 -150.612 -59.4009 -176.474C-46.5839 -191.33 -34.1746 -205.708 -20.8718 -220.197C-18.2178 -223.09 -15.5616 -226.452 -8.58905 -231.647L-8.61128 -231.651ZM-159.747 524.213C-180.079 494.265 -201.987 460.795 -194.875 426.157C-192.499 414.575 -183.646 396.591 -173.562 388.568C-168.068 384.193 -159.762 382.401 -152.575 386.319C-130.377 398.412 -105.603 433.01 -96.9582 453.638C-85.1476 481.808 -86.7478 508.202 -87.7325 536.941C-88.2783 552.899 -88.3511 569.157 -91.4925 584.888C-92.5234 590.049 -96.1998 592.434 -101.187 587.776C-117.497 572.555 -132.802 556.367 -147.31 539.797L-159.753 524.216L-159.747 524.213ZM204.135 -225.192C188.349 -213.877 173.692 -203.636 162.584 -188.523C144.575 -164.029 143.158 -135.294 130.915 -109.251C121.911 -90.1033 106.879 -75.3936 103.856 -53.9658C103.007 -47.9677 104.202 -41.5604 102.974 -35.5773C100.951 -25.7058 95.4078 -16.4978 84.9509 -11.4859C58.6217 1.1322 32.0899 -16.5961 13.1321 -32.5684C-12.1622 -53.8765 -15.6375 -78.8401 -5.85703 -105.393C5.01928 -134.923 22.7648 -160.96 41.8821 -186.921C45.5349 -191.879 47.1892 -193.041 50.7934 -195.363C62.7795 -203.092 74.7114 -208.147 89.5178 -212.218C94.4871 -213.585 99.6742 -213.9 102.61 -213.017C102.953 -212.915 103.686 -212.567 103.767 -212.276C104.274 -210.417 103.243 -208.975 101.436 -206.868C97.1017 -201.807 92.0531 -195.248 88.3233 -189.929C78.1983 -175.488 74.3366 -164.324 71.9759 -147.424C70.9289 -139.956 68.4768 -121.841 82.3629 -134.833C102.625 -153.784 101.277 -181.812 117.909 -202.403C123.838 -209.742 143.216 -225.992 153.19 -228.581C171.42 -233.32 190.604 -235.458 209.787 -236.948C211.077 -237.048 212.231 -237.95 214.058 -237.95C215.931 -237.949 217.781 -237.457 219.625 -237.231C219.579 -236.847 219.576 -236.447 219.364 -236.097C219.068 -235.606 211.963 -231.274 210.63 -230.315C208.581 -228.84 206.342 -226.779 204.135 -225.197L204.135 -225.192Z" fill="#E1F0A3" stroke="black" stroke-width="2" mask="url(#path-1-inside-1_2110_892)"/>
</mask>
<g mask="url(#mask0_2110_892)">
<path d="M-33.6893 -400.903C-33.6893 -400.903 -347.965 103.503 -140.468 310.369C67.0293 517.236 514.632 615.152 514.632 615.152L651.719 -298.007L-33.6893 -400.903Z" fill="#E1F0A3"/>
</g>
</g>
<defs>
<clipPath id="clip0_2110_892">
<rect width="440" height="469" fill="white"/>
</clipPath>
</defs>
</svg>
