<svg width="800" height="762" viewBox="0 0 800 762" fill="none" xmlns="http://www.w3.org/2000/svg">
<g clip-path="url(#clip0_40002150_89)">
<path d="M-120.801 160.564C-83.2883 156.285 -45.5756 157.815 -7.92941 156.352C43.3297 154.356 90.2877 148.481 139.729 134.646C204.734 116.422 304.192 71.3263 369.863 95.8695C417.441 113.651 419.725 169.699 432.407 211.602C447.483 261.42 479.631 290.286 510.537 329.595C539.647 366.643 545.9 390.787 521.733 433.444C480.606 506.12 410.169 562.345 391.302 647.082C382.744 685.505 386.136 719.315 420.058 743.348C462.781 773.634 515.481 759.555 562.062 747.694C611.88 734.99 642.72 716.987 661.986 667.546C674.934 634.29 679.568 591.433 723.112 587.243C734.751 586.112 751.402 594.249 763.019 597.708C771.511 600.213 781.975 603.76 790.777 603.206C793.748 603.029 796.941 601.809 800 602.031V578.863C796.808 579.306 792.773 579.927 789.602 580.038C779.16 580.437 767.808 578.242 757.676 575.714C739.119 571.081 729.829 563.454 709.654 568.442C663.96 579.772 657.087 637.615 634.073 671.138C609.087 707.587 571.086 717.542 529.227 723.173C479.986 729.802 423.871 713.085 422.009 655.219C420.257 600.124 475.862 532.747 507.367 489.736C527.852 461.756 569.778 415.153 572.372 380.633C575.897 334.029 535.657 317.601 506.701 290.619C480.185 265.92 464.51 243.816 454.422 208.586C437.728 150.277 447.173 84.0746 370.439 70.9051C288.584 56.8487 200.544 103.474 122.169 122.386C36.1463 143.116 -47.8814 131.831 -134.525 123.627C-168.602 120.391 -202.967 118.972 -236.933 123.539V179.786C-233.807 178.966 -230.68 178.146 -227.532 177.392C-192.391 169.033 -156.63 164.621 -120.779 160.542L-120.801 160.564Z" fill="#FCFECE"/>
<path d="M84.1233 85.6018C153.341 78.5958 215.53 46.4259 281.267 26.6272C317.805 15.6083 355.606 8.38059 393.74 5.38752C439.124 1.84018 504.528 -0.110857 517.587 55.0503C528.894 102.784 504.794 179.939 546.143 216.055C583.323 248.536 634.294 225.678 672.317 252.105C715.417 282.08 694.887 358.459 678.37 398.766C669.479 420.471 661.72 431.401 646.289 448.695C621.878 476.076 576.406 515.252 583.656 556.49C585.03 564.36 588.666 569.859 597.513 568.684C611.902 566.755 633.363 541.103 644.205 530.993C654.891 521.016 686.063 493.28 698.878 489.977C709.564 487.228 737.522 493.591 749.782 494.965C766.455 496.85 783.305 497.581 799.933 495.032V457.009C780.312 462.773 760.025 460.889 740.781 454.636C718.056 447.254 716.06 435.614 716.703 413.288C718.145 362.672 746.944 294.274 734.13 247.339C716.615 183.198 633.496 215.302 589.088 201.024C521.976 179.473 557.184 88.0628 545.987 37.9122C542.374 21.7053 533.816 9.11224 520.025 0H329.267C312.24 4.63372 295.19 9.2896 278.429 14.8323C200.831 40.5284 132.921 78.8841 47.8517 76.6891C-18.927 74.9598 -80.1409 50.2836 -143.771 33.5667C-174.345 25.5409 -205.517 18.1358 -237 13.236V29.2434C-203.544 33.7884 -170.487 41.3487 -137.852 49.6185C-60.5862 69.1954 1.66977 93.9159 84.1012 85.5797L84.1233 85.6018Z" fill="#FCFECE"/>
<path d="M81.6846 112.874C186.065 100.658 283.329 33.3689 391.301 48.8442C444.09 56.4266 461.583 81.5906 468.256 132.34C474.863 182.535 473.334 225.214 513.485 262.416C551.686 297.823 622.632 299.287 613.853 368.704C608.62 409.986 569.356 448.364 544.746 480.268C516.855 516.451 467.68 583.318 467.702 629.677C467.746 691.601 550.71 692.222 590.773 670.095C645.712 639.743 645.646 557.711 712.691 543.011C725.949 540.107 747.011 549.441 761.201 551.946C773.971 554.185 786.985 554.784 799.955 554.496V529.531C790.643 528.8 780.999 529.531 771.732 528.933C754.372 527.824 737.278 521.705 719.963 520.087C710.097 519.178 706.239 520.774 697.348 524.676C662.252 540.04 643.606 574.339 621.324 603.183C607.756 620.743 588.888 638.213 565.498 640.076C544.657 641.738 518.828 626.507 517.055 604.159C513.751 562.389 550.555 508.779 575.918 477.563C612.101 433.066 658.594 396.395 654.337 332.543C650.08 268.536 574.898 275.941 534.703 246.564C476.193 203.774 505.481 128.438 484.53 70.9042C465.729 19.2682 387.665 24.9883 343.235 29.7772C245.86 40.2419 161.544 95.6913 62.1298 101.079C-40.2554 106.622 -135.879 60.5061 -237 51.8816V79.0853C-200.063 79.4179 -162.994 85.8696 -127.032 92.9421C-55.9746 106.91 8.18802 121.498 81.6624 112.896L81.6846 112.874Z" fill="#FCFECE"/>
</g>
<defs>
<clipPath id="clip0_40002150_89">
<rect width="800" height="762" fill="white"/>
</clipPath>
</defs>
</svg>
