<svg width="440" height="440" viewBox="0 0 440 440" fill="none" xmlns="http://www.w3.org/2000/svg">
<g clip-path="url(#clip0_2087_9)">
<path d="M-582.849 422.225C-585.54 420.039 -584.507 417.503 -580.046 420.355C-570.115 426.713 -544.519 438.045 -534.331 443.339C-495.756 463.402 -457.374 482.073 -415.746 496.35C-360.391 515.337 -302.788 525.581 -244.97 533.599C-192.196 540.916 -144.799 538.999 -93.187 524.81C-81.1422 521.496 -69.4186 517.645 -56.9184 515.828C-38.6323 513.175 -0.798889 512.643 11.7889 528.807C19.6475 538.894 3.38147 551.651 -3.86993 556.987C-33.9323 579.095 -77.9077 596.118 -112.833 610.19C-122.35 614.024 -149.768 622.17 -151.438 633.811C-152.798 643.331 -142.306 649.912 -134.961 653.687C-122.093 660.296 -99.6502 666.766 -85.1766 667.414C-27.4983 670.015 23.5651 662.383 79.8831 650.251C144.527 636.324 205.206 613.445 264.724 584.944C296.269 569.838 323.844 557.39 358.583 549.325C390.461 541.927 424.552 535.563 456.623 529.21C464.382 527.674 472.282 526.961 480 525.254V481.226C476.806 480.735 474.57 483.055 471.709 483.931C460.861 487.239 445.08 490.319 433.829 489.396C423.034 488.507 421.084 482.652 426.076 473.477C433.059 460.643 457.901 437.437 470.413 430.296C473.192 428.712 476.993 427.73 480 426.509V329.014C474.646 331.988 470.162 336.167 464.995 339.469C425.095 364.978 374.738 364.136 330.202 374.994C280.616 387.085 243.396 424.008 206.444 456.477C195.654 465.955 166.795 487.812 161.166 499.529C155.252 511.842 169.428 518.475 178.588 522.852C195.339 530.847 215.575 535.44 231.73 543.879C236.804 546.532 241.335 552.148 239.811 558.126C239.355 559.903 233.184 567.255 231.479 568.657C213.135 583.752 190.195 595.329 168.464 604.96C110.062 630.843 41.4834 646.803 -22.3779 651.051C-35.9524 651.957 -43.8461 652.448 -57.5956 651.092C-63.7202 650.484 -76.0336 649.736 -82.0764 648.579C-93.4498 646.399 -110.189 638.282 -95.8727 625.916C-87.2143 618.436 -73.6106 612.499 -63.3816 607.496C-41.2245 596.661 -19.0208 586.061 2.92023 574.49C20.1087 565.426 67.0267 541.857 75.0546 525.301C79.235 516.675 67.8908 511.643 61.5035 509.23C33.8875 498.816 -3.78238 492.101 -33.0682 490.05C-53.2343 488.636 -74.7958 495.298 -93.1929 501.545C-139.912 517.417 -185.324 525.961 -235.377 522.104C-297.616 517.312 -356.999 506.776 -416.166 487.333C-461.543 472.419 -504.187 451.199 -546.3 428.899C-549.85 427.017 -556.78 422.932 -556.628 418.806C-556.476 414.68 -547.806 419.005 -543.871 420.805C-539.872 422.64 -534.769 426.141 -530.553 428.227C-429.513 478.14 -337.516 509.51 -222.171 505.788C-178.908 504.391 -142.598 493.551 -103.323 476.942C-97.7994 474.604 -86.9924 469.304 -81.3057 467.387C-64.0472 461.572 -38.8074 466.411 -21.0643 469.222C30.618 477.41 90.8069 494.182 141.964 477.164C214.472 453.046 256.62 377.945 330.167 356.72C352.867 350.169 377.097 348.41 399.978 342.315C429.661 334.408 457.983 320.441 479.994 298.818V271.141C475.399 275.653 471.196 280.573 466.501 284.997C436.223 313.492 408.052 321.797 368.637 331.071C328.427 340.532 305.739 347.615 273.236 373.305C252.988 389.312 234.311 407.422 213.783 423.254C159.391 465.219 112.981 473.769 45.0098 464.085C15.2044 459.843 -13.5735 449.481 -42.6316 442.375C-72.0984 435.164 -101.834 440.277 -127.459 455.226C-177.103 484.189 -244.631 496.473 -302 491.289C-379.238 484.311 -455.938 455.916 -524.096 421.758C-528.189 419.706 -534.15 416.697 -538.184 414.499C-547.684 409.322 -549.961 402.186 -536.62 407.154C-534.016 408.124 -523.816 412.524 -521.171 413.792C-491.5 428.04 -463.218 440.435 -431.626 450.586C-381.456 466.709 -330.294 481.167 -276.836 478.099C-246.05 476.334 -203.511 454.203 -175.177 440.85C-129.269 419.215 -102.791 399.247 -49.2233 415.627C-18.8924 424.902 9.14404 440.172 40.6076 447.103C93.3057 458.709 147.919 455.045 194.428 426.509C242.52 396.997 276.675 346.33 329.204 324.292C360.2 311.289 393.614 308.204 423.378 290.882C429.696 287.206 438.156 278.879 443.311 276.243C444.782 275.495 446.773 275.74 447.223 275.442C447.859 275.022 447.637 272.538 448.093 271.901C448.373 271.509 449.78 271.357 450.434 270.796C456.827 265.356 462.041 258.752 467.43 252.575C471.569 247.83 475.761 243.084 480 238.421V193.761C477.729 196.046 475.732 199.085 473.811 201.721C455.829 226.435 441.303 248.525 415.234 266.367C390.286 283.449 359.138 290.537 332.508 303.692C276.12 331.55 243.086 388.798 188.023 418.204C126.533 451.042 64.2184 442.591 3.14792 414.149C-32.8989 397.359 -67.7487 372.937 -109.634 378.132C-139.089 381.785 -160.008 391.503 -184.764 406.709C-215.316 425.486 -251.211 451.638 -287.112 458.364C-316.789 463.922 -348.259 458.025 -377.071 451.316C-421.543 440.955 -465.32 427.473 -506.978 409.012C-512.81 406.429 -523.594 402.233 -528.469 399.077C-529.392 398.481 -534.366 394.887 -535.178 394.145C-538.745 390.901 -539.241 387.547 -538.062 385.239C-536.52 382.223 -524.201 387.378 -520.155 389.505C-476.816 412.296 -428.503 424.726 -379.845 432.09C-363.106 434.62 -339.828 435.111 -323.649 430.605C-309.876 426.772 -292.157 418.053 -279.294 411.618C-261.213 402.584 -245.928 394.992 -228.149 385.303C-205.105 372.744 -187.461 354.71 -161.993 344.6C-144.7 337.733 -113.447 331.334 -95.6567 336.938C-89.3745 338.919 -77.0787 343.682 -71.0008 346.224C-35.3452 361.132 -6.00098 387.068 28.8956 404.103C102.601 440.078 171.168 431.213 231.497 376.192C259.65 350.514 283.529 319.085 313.177 295.049C333.939 278.218 358.186 266.121 380.034 251.272C393.345 242.225 406.067 231.992 416.804 219.516C428.919 205.438 437.77 190.448 448.315 175.581C457.201 163.051 466.647 150.493 479.994 142.194V108.229C476.824 109.129 473.928 110.748 470.927 112.045C427.874 130.664 414.662 167.855 385.528 199.845C359.085 228.878 327.791 252.803 300.578 281.806C282.438 301.138 267.059 322.323 249.403 341.912C227.702 365.989 203.852 388.278 173.345 401.006C140.282 414.803 98.5954 414.897 66.0984 399.574C34.0919 384.479 1.68829 364.995 -24.2638 341.584C-38.5797 328.663 -64.3508 295.861 -80.4592 290.28C-98.3483 284.08 -124.219 286.61 -134.191 267.325C-137.349 261.218 -134.342 248.806 -132.206 242.33C-123.641 216.366 -102.26 200.488 -84.5753 181.191C-73.0501 168.621 -63.5509 155.033 -50.0231 144.076C-16.9832 117.311 7.07138 125.247 46.1425 122.716C69.8351 121.179 91.8228 112.945 114.272 106.628C155.632 94.9925 217.735 82.8488 237.131 39.6561C242.637 27.4013 241.878 13.3524 235.455 1.71124C218.874 -28.3442 183.861 -33.9603 153.238 -41.7912C139.155 -45.3911 125.207 -49.3708 110.78 -51.498C40.9112 -61.8126 -30.7386 -44.6956 -95.464 -78.5672C-122.368 -92.6453 -150.211 -100.541 -180.175 -106.197C-210.085 -111.849 -214.552 -116.769 -239.266 -131.958C-266.893 -148.94 -286.762 -152.528 -316.912 -161.166C-358.406 -173.052 -390.506 -198.742 -430.371 -211.132C-499.773 -232.696 -542.732 -190.351 -596.808 -156.701L-641 -130.491V-105.648C-639.57 -106.624 -638.443 -107.898 -636.948 -108.827C-590.316 -137.778 -537.244 -200.794 -480.483 -204.434C-431.428 -207.579 -398.767 -179.124 -357.133 -160.535C-329.26 -148.093 -296.839 -145.13 -270.694 -129.439C-246.757 -115.074 -234.07 -90.1091 -206.781 -78.9413C-190.001 -72.0746 -168.9 -71.6597 -152.938 -63.6476C-142.68 -58.4991 -132.352 -48.8741 -122.163 -42.8723C-106.201 -33.4636 -88.3703 -29.8286 -70.5863 -25.9424C-43.5833 -20.04 -17.1116 -18.8537 10.265 -15.6687C33.0526 -13.0155 47.7656 -10.9059 71.2246 -11.952C100.183 -13.2376 151.603 -11.3208 175.558 6.31044C198.305 23.0534 182.851 43.2209 164.15 54.0205C145.449 64.8202 96.9548 77.8289 75.6151 80.4995C56.5934 82.878 38.8093 78.0392 20.3247 78.6236C-7.49567 79.5002 -59.8493 108.866 -77.9836 129.91C-94.5007 149.078 -104.245 165.827 -124.172 182.424C-152.383 205.923 -173.723 222.186 -197.018 251.652C-205.875 262.854 -217.214 283.197 -232.908 286.172C-262.573 291.805 -277.198 257.542 -298.731 245.206C-327.357 228.807 -361.88 249.448 -392.824 241.904C-399.269 240.332 -406.089 236.942 -412.4 235.084C-460.194 220.994 -509.482 239.105 -555.338 214.63C-569.846 206.887 -581.874 195.468 -594.205 184.949C-608.17 173.027 -622.615 160.497 -636.399 148.272L-640.988 142.177V417.047C-637.281 418.479 -633.585 420.291 -630.105 422.19C-609.624 433.37 -588.973 444.052 -568.918 455.29C-537.647 472.816 -507.357 492.037 -475.549 508.383C-454.198 519.352 -432.111 529.286 -410.182 539.186C-392.578 547.134 -373.621 553.451 -357.635 563.953C-353.683 566.547 -347.319 571.836 -348.2 577.078C-349.479 584.67 -354.798 586.814 -353.852 596.644C-352.176 614.076 -315.446 635.156 -301.451 643.577C-217.097 694.337 -122.228 742.001 -21.1052 736.578C44.3909 733.065 109.916 724.177 174.846 716.352C217.041 711.267 259.375 704.208 301.926 705.061C359.354 706.212 418.626 703.577 475.942 705.722C477.349 705.774 478.675 705.903 480 706.382V664.866C474.85 664.761 469.742 665.579 464.61 665.538C427.057 665.223 391.67 661.003 354.654 658.572C316.593 656.071 280.657 667.59 243.886 675.391C172.259 690.591 99.5821 702.864 26.6361 711.408C-33.7162 718.479 -83.4659 720.396 -142.073 702.297C-186.194 688.669 -220.933 668.262 -259.152 644.635C-269.194 638.422 -292.822 621.592 -289.097 609.22C-288.081 605.836 -284.216 599.759 -282.039 596.971C-276.007 589.24 -265.416 583.659 -276.591 574.665C-288.998 564.683 -319.142 557.069 -334.848 551.844C-381.707 536.258 -425.303 521.298 -469.641 499.967C-508.566 481.237 -545.897 458.913 -584.046 438.372C-593.551 433.253 -605.449 428.046 -614.178 422.617C-615.632 421.711 -620.495 419.554 -618.353 416.37C-616.321 413.348 -603.19 421.728 -594.076 426.398C-556.225 445.776 -518.993 467.13 -480.594 486.404C-439.765 506.892 -397.705 521.403 -353.788 533.699C-318.22 543.657 -283.154 552.545 -247.527 561.931C-230.724 566.361 -208.853 569.686 -193.772 577.943C-191.846 578.995 -188.967 581.707 -189.189 583.986C-189.522 587.487 -198.186 593.003 -201.216 594.651C-209.297 599.052 -219.719 603.178 -227.198 608.273C-250.552 624.187 -226.462 642.794 -211.755 653.178C-176.788 677.863 -126.472 694.577 -83.8513 698.802C-37.5346 703.396 12.075 694.858 58.1347 687.594C99.3661 681.089 139.406 674.012 179.931 664.212C208.522 657.298 236.611 648.632 264.613 639.539C310.672 624.578 349.872 608.297 399.896 613.288C424.698 615.765 448.379 620.505 473.525 622.463C475.539 622.62 477.997 622.492 480 622.1V575.553C471.423 576.342 463.074 574.069 454.579 573.642C377.47 569.75 315.197 593.167 245.667 619.938C189.944 641.397 132.091 656.808 72.9703 667.841C25.5268 676.695 -23.3062 685.256 -72.0342 683.766C-103.819 682.796 -136.398 675.105 -164.843 660.302C-168.743 658.274 -176.893 654.125 -179.994 651.565C-183.479 648.684 -191.735 640.17 -193.708 636.365C-195.547 632.818 -196.254 630.381 -194.473 626.565C-190.065 617.115 -170.821 611.084 -161.439 607.426C-135.785 597.421 -107.077 588.638 -84.5694 572.415C-84.5694 572.415 -79.6184 568.716 -77.6508 565.507C-75.4439 561.907 -74.9476 559.681 -75.6657 558.243C-76.6232 556.332 -80.4942 554.895 -83.1741 555.28C-109.295 559.009 -143.252 557.273 -170.687 556.081C-233.941 553.346 -299.268 535.539 -360.911 521.946C-366.329 520.754 -387.733 514.297 -392.368 512.678C-434.645 497.951 -467.434 484.796 -504.076 465.868C-525.124 454.998 -545.494 444.473 -566.174 433.048C-570.302 430.769 -575.019 428.56 -582.849 422.202V422.225ZM393.707 460.895C359.973 486.386 322.116 514.039 277.329 512.076C262.353 511.421 238.129 505.104 226.166 495.988C219.645 491.02 215.832 482.768 219.394 474.786C230.382 450.13 269.114 419.362 293.361 407.306C326.471 390.837 359.879 388.412 396.113 384.993C416.232 383.094 436.638 380.663 456.961 381.464C463.629 381.726 467.313 385.133 462.409 390.972C446.388 410.064 428.966 428.274 410.913 445.724L393.713 460.9L393.707 460.895ZM-614.809 202.796C-597.643 217.26 -582.037 230.73 -560.99 239.806C-526.875 254.521 -490.566 251.546 -455.593 260.102C-429.88 266.396 -408.599 279.562 -381.153 279.364C-373.469 279.311 -365.657 277.096 -357.921 277.435C-345.158 277.99 -332.565 282.262 -324.309 292.226C-303.524 317.314 -320.765 347.288 -337.23 369.215C-359.194 398.469 -389.852 405.885 -425 399.936C-464.088 393.321 -500.088 379.114 -536.252 363.487C-543.159 360.501 -544.928 358.982 -548.518 355.639C-560.47 344.524 -569.058 333.052 -576.952 318.477C-579.603 313.586 -580.975 308.309 -580.42 305.159C-580.356 304.791 -580.058 303.984 -579.708 303.856C-577.472 303.049 -575.469 303.885 -572.485 305.416C-565.322 309.086 -556.144 313.259 -548.77 316.268C-528.749 324.438 -514.019 326.682 -492.376 326.501C-482.812 326.425 -459.628 326.15 -478.538 313.896C-506.125 296.013 -541.028 301.717 -569.987 287.814C-580.309 282.858 -604.34 265.467 -609.466 255.625C-618.843 237.638 -625.137 218.271 -630.619 198.805C-630.987 197.496 -632.336 196.45 -632.68 194.574C-633.031 192.651 -632.762 190.676 -632.826 188.747C-632.336 188.735 -631.834 188.677 -631.355 188.841C-630.683 189.069 -623.911 195.696 -622.457 196.917C-620.221 198.793 -617.214 200.774 -614.814 202.796H-614.809Z" fill="#E1FB40"/>
</g>
<defs>
<clipPath id="clip0_2087_9">
<rect width="440" height="440" fill="white"/>
</clipPath>
</defs>
</svg>
