<svg width="440" height="440" viewBox="0 0 440 440" fill="none" xmlns="http://www.w3.org/2000/svg">
<g clip-path="url(#clip0_2087_10)">
<path d="M-261.849 659.225C-264.54 657.039 -263.507 654.503 -259.046 657.355C-249.115 663.713 -223.519 675.045 -213.331 680.339C-174.756 700.402 -136.374 719.073 -94.7455 733.35C-39.3909 752.337 18.2115 762.581 76.03 770.599C128.804 777.916 176.201 775.999 227.813 761.81C239.858 758.496 251.581 754.645 264.082 752.828C282.368 750.175 320.201 749.643 332.789 765.807C340.647 775.894 324.381 788.651 317.13 793.987C287.068 816.095 243.092 833.118 208.167 847.19C198.65 851.024 171.232 859.17 169.562 870.811C168.202 880.331 178.694 886.912 186.039 890.687C198.907 897.296 221.35 903.766 235.823 904.414C293.502 907.015 344.565 899.383 400.883 887.251C465.527 873.324 526.206 850.445 585.724 821.944C617.269 806.838 644.844 794.39 679.583 786.325C711.461 778.927 745.552 772.563 777.623 766.21C785.382 764.674 793.282 763.961 801 762.254V718.226C797.806 717.735 795.57 720.055 792.709 720.931C781.861 724.239 766.08 727.319 754.829 726.396C744.034 725.507 742.084 719.652 747.076 710.477C754.059 697.643 778.901 674.437 791.413 667.296C794.192 665.712 797.993 664.73 801 663.509V566.014C795.646 568.988 791.162 573.167 785.995 576.469C746.095 601.978 695.738 601.136 651.202 611.994C601.616 624.085 564.396 661.008 527.444 693.477C516.654 702.955 487.795 724.812 482.166 736.529C476.252 748.842 490.428 755.475 499.588 759.852C516.339 767.847 536.575 772.44 552.73 780.879C557.804 783.532 562.335 789.148 560.811 795.126C560.355 796.903 554.184 804.255 552.479 805.657C534.135 820.752 511.195 832.329 489.464 841.96C431.062 867.843 362.483 883.803 298.622 888.051C285.048 888.957 277.154 889.448 263.404 888.092C257.28 887.484 244.966 886.736 238.924 885.579C227.55 883.399 210.811 875.282 225.127 862.916C233.786 855.436 247.389 849.499 257.618 844.496C279.775 833.661 301.979 823.061 323.92 811.49C341.109 802.426 388.027 778.857 396.055 762.301C400.235 753.675 388.891 748.643 382.504 746.23C354.888 735.816 317.218 729.101 287.932 727.05C267.766 725.636 246.204 732.298 227.807 738.545C181.088 754.417 135.676 762.961 85.6226 759.104C23.3844 754.312 -35.9988 743.776 -95.166 724.333C-140.543 709.419 -183.187 688.199 -225.3 665.899C-228.85 664.017 -235.78 659.932 -235.628 655.806C-235.476 651.68 -226.806 656.005 -222.871 657.805C-218.872 659.64 -213.769 663.141 -209.553 665.227C-108.513 715.14 -16.5158 746.51 98.8292 742.788C142.092 741.391 178.402 730.551 217.677 713.942C223.201 711.604 234.008 706.304 239.694 704.387C256.953 698.572 282.193 703.411 299.936 706.222C351.618 714.41 411.807 731.182 462.964 714.164C535.472 690.046 577.62 614.945 651.167 593.72C673.867 587.169 698.097 585.41 720.978 579.315C750.661 571.408 778.983 557.441 800.994 535.818V508.141C796.399 512.653 792.196 517.573 787.501 521.997C757.223 550.492 729.052 558.797 689.637 568.071C649.427 577.532 626.739 584.615 594.236 610.305C573.988 626.312 555.311 644.422 534.783 660.254C480.391 702.219 433.981 710.769 366.01 701.085C336.204 696.843 307.427 686.481 278.368 679.375C248.902 672.164 219.166 677.277 193.541 692.226C143.897 721.189 76.3686 733.473 18.9997 728.289C-58.2375 721.311 -134.938 692.916 -203.096 658.758C-207.189 656.706 -213.15 653.697 -217.184 651.499C-226.684 646.322 -228.961 639.186 -215.62 644.154C-213.016 645.124 -202.816 649.524 -200.171 650.792C-170.5 665.04 -142.218 677.435 -110.626 687.586C-60.4562 703.709 -9.29358 718.167 44.1635 715.099C74.9498 713.334 117.489 691.203 145.823 677.85C191.731 656.215 218.209 636.247 271.777 652.627C302.108 661.902 330.144 677.172 361.608 684.103C414.306 695.709 468.919 692.045 515.428 663.509C563.52 633.997 597.675 583.33 650.204 561.292C681.2 548.289 714.614 545.204 744.378 527.882C750.696 524.206 759.156 515.879 764.311 513.243C765.782 512.495 767.773 512.74 768.223 512.442C768.859 512.022 768.637 509.538 769.093 508.901C769.373 508.509 770.78 508.357 771.434 507.796C777.827 502.356 783.041 495.752 788.43 489.575C792.569 484.83 796.761 480.084 801 475.421V430.761C798.729 433.046 796.732 436.085 794.811 438.721C776.829 463.435 762.303 485.525 736.234 503.367C711.286 520.449 680.138 527.537 653.508 540.692C597.12 568.55 564.086 625.798 509.023 655.204C447.533 688.042 385.218 679.591 324.148 651.149C288.101 634.359 253.251 609.937 211.366 615.132C181.911 618.785 160.992 628.503 136.236 643.709C105.684 662.486 69.7887 688.638 33.8879 695.364C4.21088 700.922 -27.2585 695.025 -56.0715 688.316C-100.543 677.955 -144.32 664.473 -185.978 646.012C-191.81 643.429 -202.594 639.233 -207.469 636.077C-208.392 635.481 -213.366 631.887 -214.178 631.145C-217.745 627.901 -218.241 624.547 -217.062 622.239C-215.52 619.223 -203.201 624.378 -199.155 626.505C-155.816 649.296 -107.503 661.726 -58.8447 669.09C-42.1058 671.62 -18.8278 672.111 -2.64935 667.605C11.1237 663.772 28.8434 655.053 41.7056 648.618C59.7874 639.584 75.0724 631.992 92.8506 622.303C115.895 609.744 133.539 591.71 159.007 581.6C176.3 574.733 207.553 568.334 225.343 573.938C231.626 575.919 243.921 580.682 249.999 583.224C285.655 598.132 314.999 624.068 349.896 641.103C423.601 677.078 492.168 668.213 552.497 613.192C580.65 587.514 604.529 556.085 634.177 532.049C654.939 515.218 679.186 503.121 701.034 488.272C714.345 479.225 727.067 468.992 737.804 456.516C749.919 442.438 758.77 427.448 769.315 412.581C778.201 400.051 787.647 387.493 800.994 379.194V345.229C797.824 346.129 794.928 347.748 791.927 349.045C748.874 367.664 735.662 404.855 706.528 436.845C680.085 465.878 648.791 489.803 621.578 518.806C603.438 538.138 588.059 559.323 570.403 578.912C548.702 602.989 524.852 625.278 494.345 638.006C461.282 651.803 419.595 651.897 387.098 636.574C355.092 621.479 322.688 601.995 296.736 578.584C282.42 565.663 256.649 532.861 240.541 527.28C222.652 521.08 196.781 523.61 186.809 504.325C183.651 498.218 186.658 485.806 188.794 479.33C197.359 453.366 218.74 437.488 236.425 418.191C247.95 405.621 257.449 392.033 270.977 381.076C304.017 354.311 328.071 362.247 367.142 359.716C390.835 358.179 412.823 349.945 435.272 343.628C476.632 331.992 538.735 319.849 558.131 276.656C563.637 264.401 562.878 250.352 556.455 238.711C539.874 208.656 504.861 203.04 474.238 195.209C460.155 191.609 446.207 187.629 431.78 185.502C361.911 175.187 290.261 192.304 225.536 158.433C198.632 144.355 170.789 136.459 140.825 130.803C110.915 125.151 106.448 120.231 81.7342 105.042C54.1065 88.0598 34.2381 84.4716 4.0882 75.8342C-37.4059 63.9476 -69.5058 38.2575 -109.371 25.8683C-178.773 4.30413 -221.732 46.6495 -275.808 80.299L-320 106.509V131.352C-318.57 130.376 -317.443 129.102 -315.948 128.173C-269.316 99.2218 -216.244 36.2063 -159.483 32.5655C-110.428 29.4215 -77.7672 57.8757 -36.133 76.4654C-8.26013 88.9072 24.1609 91.87 50.3057 107.561C74.2434 121.926 86.9304 146.891 114.219 158.059C130.999 164.925 152.1 165.34 168.062 173.352C178.32 178.501 188.648 188.126 198.837 194.128C214.799 203.536 232.63 207.171 250.414 211.058C277.417 216.96 303.888 218.146 331.265 221.331C354.053 223.984 368.766 226.094 392.225 225.048C421.183 223.762 472.603 225.679 496.558 243.31C519.305 260.053 503.851 280.221 485.15 291.021C466.449 301.82 417.955 314.829 396.615 317.5C377.593 319.878 359.809 315.039 341.325 315.624C313.504 316.5 261.151 345.866 243.016 366.91C226.499 386.078 216.755 402.827 196.828 419.424C168.617 442.923 147.277 459.186 123.982 488.652C115.125 499.854 103.786 520.197 88.0923 523.172C58.4269 528.805 43.8015 494.542 22.2692 482.206C-6.35687 465.807 -40.8797 486.448 -71.8237 478.904C-78.2693 477.332 -85.0887 473.942 -91.4001 472.084C-139.194 457.994 -188.482 476.105 -234.338 451.63C-248.846 443.887 -260.874 432.468 -273.205 421.949C-287.17 410.027 -301.615 397.497 -315.399 385.272L-319.988 379.177V654.047C-316.281 655.479 -312.585 657.291 -309.105 659.19C-288.624 670.37 -267.973 681.052 -247.918 692.29C-216.647 709.816 -186.357 729.037 -154.549 745.383C-133.198 756.352 -111.111 766.286 -89.1815 776.186C-71.5785 784.134 -52.621 790.451 -36.6352 800.953C-32.6826 803.547 -26.3186 808.836 -27.2002 814.078C-28.4788 821.67 -33.7976 823.814 -32.8518 833.644C-31.1761 851.076 5.55377 872.156 19.5486 880.577C103.903 931.337 198.772 979.001 299.895 973.578C365.391 970.065 430.916 961.177 495.846 953.352C538.041 948.267 580.375 941.208 622.926 942.061C680.354 943.212 739.626 940.577 796.942 942.722C798.349 942.774 799.675 942.903 801 943.382V901.866C795.85 901.761 790.742 902.579 785.61 902.538C748.057 902.223 712.67 898.003 675.654 895.572C637.593 893.071 601.657 904.59 564.886 912.391C493.259 927.591 420.582 939.864 347.636 948.408C287.284 955.479 237.534 957.396 178.927 939.297C134.806 925.669 100.067 905.262 61.8483 881.635C51.8062 875.422 28.1777 858.592 31.9027 846.22C32.9186 842.836 36.7838 836.759 38.9615 833.971C44.9927 826.24 55.5836 820.659 44.4088 811.665C32.002 801.683 1.85791 794.069 -13.8476 788.844C-60.7073 773.258 -104.303 758.298 -148.641 736.967C-187.566 718.237 -224.897 695.913 -263.046 675.372C-272.551 670.253 -284.449 665.046 -293.178 659.617C-294.632 658.711 -299.495 656.554 -297.353 653.37C-295.321 650.348 -282.19 658.728 -273.076 663.398C-235.225 682.776 -197.993 704.13 -159.594 723.404C-118.765 743.892 -76.7047 758.403 -32.7876 770.699C2.78046 780.657 37.8464 789.545 73.4728 798.931C90.2759 803.361 112.147 806.686 127.228 814.943C129.154 815.995 132.033 818.707 131.811 820.986C131.478 824.487 122.814 830.003 119.784 831.651C111.703 836.052 101.281 840.178 93.8023 845.273C70.4484 861.187 94.538 879.794 109.245 890.178C144.212 914.863 194.528 931.577 237.149 935.802C283.465 940.396 333.075 931.858 379.135 924.594C420.366 918.089 460.406 911.012 500.931 901.212C529.522 894.298 557.611 885.632 585.613 876.539C631.672 861.578 670.872 845.297 720.896 850.288C745.698 852.765 769.379 857.505 794.525 859.463C796.539 859.62 798.997 859.492 801 859.1V812.553C792.423 813.342 784.074 811.069 775.579 810.642C698.47 806.75 636.197 830.167 566.667 856.938C510.944 878.397 453.091 893.808 393.97 904.841C346.527 913.695 297.694 922.256 248.966 920.766C217.181 919.796 184.602 912.105 156.157 897.302C152.257 895.274 144.107 891.125 141.006 888.565C137.521 885.684 129.265 877.17 127.292 873.365C125.453 869.818 124.746 867.381 126.527 863.565C130.935 854.115 150.179 848.084 159.561 844.426C185.215 834.421 213.923 825.638 236.431 809.415C236.431 809.415 241.382 805.716 243.349 802.507C245.556 798.907 246.052 796.681 245.334 795.243C244.377 793.332 240.506 791.895 237.826 792.28C211.705 796.009 177.748 794.273 150.313 793.081C87.0589 790.346 21.7321 772.539 -39.9106 758.946C-45.3287 757.754 -66.7325 751.297 -71.3683 749.678C-113.645 734.951 -146.434 721.796 -183.076 702.868C-204.124 691.998 -224.494 681.473 -245.174 670.048C-249.302 667.769 -254.019 665.56 -261.849 659.202V659.225ZM714.707 697.895C680.973 723.386 643.116 751.039 598.329 749.076C583.353 748.421 559.129 742.104 547.166 732.988C540.645 728.02 536.832 719.768 540.394 711.786C551.382 687.13 590.114 656.362 614.361 644.306C647.471 627.837 680.879 625.412 717.113 621.993C737.232 620.094 757.638 617.663 777.961 618.464C784.629 618.726 788.313 622.133 783.409 627.972C767.388 647.064 749.966 665.274 731.913 682.724L714.713 697.9L714.707 697.895ZM-293.809 439.796C-276.643 454.26 -261.037 467.73 -239.99 476.806C-205.875 491.521 -169.566 488.546 -134.593 497.102C-108.88 503.396 -87.5993 516.562 -60.1526 516.364C-52.4691 516.311 -44.6572 514.096 -36.9213 514.435C-24.1583 514.99 -11.5648 519.262 -3.30914 529.226C17.4758 554.314 0.234863 584.288 -16.2296 606.215C-38.194 635.469 -68.8519 642.885 -104 636.936C-143.088 630.321 -179.088 616.114 -215.252 600.487C-222.159 597.501 -223.928 595.982 -227.518 592.639C-239.47 581.524 -248.058 570.052 -255.952 555.477C-258.603 550.586 -259.975 545.309 -259.42 542.159C-259.356 541.791 -259.058 540.984 -258.708 540.856C-256.472 540.049 -254.469 540.885 -251.485 542.416C-244.322 546.086 -235.144 550.259 -227.77 553.268C-207.749 561.438 -193.019 563.682 -171.376 563.501C-161.812 563.425 -138.628 563.15 -157.538 550.896C-185.125 533.013 -220.028 538.717 -248.987 524.814C-259.309 519.858 -283.34 502.467 -288.466 492.625C-297.843 474.638 -304.137 455.271 -309.619 435.805C-309.987 434.496 -311.336 433.45 -311.68 431.574C-312.031 429.651 -311.762 427.676 -311.826 425.747C-311.336 425.735 -310.834 425.677 -310.355 425.841C-309.683 426.069 -302.911 432.696 -301.457 433.917C-299.221 435.793 -296.214 437.774 -293.814 439.796H-293.809Z" fill="#E1FB40"/>
</g>
<defs>
<clipPath id="clip0_2087_10">
<rect width="440" height="440" fill="white"/>
</clipPath>
</defs>
</svg>
