<svg width="79" height="96" viewBox="0 0 79 96" fill="none" xmlns="http://www.w3.org/2000/svg">
<path d="M72.587 48.5245C70.4898 49.2988 68.3691 50.0105 66.1705 50.4641C66.1159 50.5501 66.1003 50.6596 66.0301 50.7457C64.8996 52.1925 63.3403 54.3354 62.6074 56.0091C62.0149 57.3621 61.1494 61.2099 59.6837 61.7652C59.0444 62.0077 58.6155 61.5384 58.561 60.9284C58.5142 60.3653 58.8728 58.9497 59.0366 58.3475C59.6291 56.1577 60.7752 54.3589 61.9993 52.4819L61.8823 52.3646C60.9779 52.7009 60.0268 52.9511 59.1224 53.2874C57.1264 54.0226 57.0172 54.7812 55.6762 56.1342C53.1813 58.6603 49.4312 59.4502 46.64 61.5228C43.5681 63.8064 47.0922 69.2654 47.9888 72.0574C49.4701 76.6639 49.1973 81.4659 49.5715 86.2288C49.8054 89.1303 51.6688 91.6721 52.3861 94.3937C52.542 94.9881 52.6902 96.5601 51.6766 95.7936C50.8658 95.1758 49.5637 92.6262 49.0725 91.6408C48.02 89.5526 47.2949 87.9259 46.8973 85.5953C46.3515 82.3575 45.9305 79.2213 44.6441 76.1634C44.4881 75.7958 44.262 75.0997 43.9345 74.8729C43.7552 74.7478 43.42 74.5914 43.3576 74.912C43.2407 75.569 43.3888 76.7186 43.3576 77.4538C43.2251 80.5196 42.5312 83.8512 40.5898 86.2913C39.0695 88.2074 36.7929 90.3112 34.9217 91.9067C34.1108 92.5949 33.261 93.3614 32.1617 93.5256C31.2261 93.6664 31.117 92.9781 31.5224 92.2743C33.3312 89.1537 38.6017 86.3148 39.1085 82.5843C39.3579 80.7698 39.0539 78.799 38.7186 77.0158C38.1885 74.1612 37.4556 70.5245 36.2238 67.9046C35.6 66.575 33.7912 64.9483 32.5983 64.0802C29.7915 62.0389 26.8912 61.9138 24.7705 58.7073C23.7414 57.1509 23.8583 55.36 22.6733 53.8114C21.8936 52.7947 20.7085 51.4886 19.8431 50.4954C18.7672 49.2597 17.4651 48.2821 16.3892 47.1168C14.9858 45.5917 14.019 43.5818 12.6702 42.0802C12.0153 41.3528 11.4227 41.5171 11.4383 42.5416C11.4773 45.3884 13.1926 48.5558 13.5902 51.387C13.7695 52.6618 13.9722 53.7645 14.1828 55.0237C14.5882 57.4481 14.8143 60.9049 16.6153 62.735C16.8882 63.0087 17.2858 63.2355 17.5431 63.5014C18.0811 64.0567 18.4787 64.7919 19.1102 65.3159C20.3265 66.3169 21.9949 66.7549 23.1254 67.5995C23.4919 67.8733 24.0065 68.4286 23.6712 68.89C23.5075 69.1246 22.8136 69.2106 22.5329 69.195C21.956 69.1637 19.9523 68.5537 19.3207 68.3347C17.6523 67.7638 14.2061 66.0041 13.0522 64.7058C11.4695 62.9149 10.4404 58.4726 9.69971 56.1499C9.2631 54.7577 8.73291 53.4751 7.96884 52.2316C7.22817 51.8719 7.07225 52.8964 7.00988 53.4204C6.52649 57.8157 7.40751 63.9863 8.67056 68.2409C9.16174 69.8832 10.5027 71.7368 11.1421 73.4495C11.3058 73.8875 11.5241 74.5757 11.1577 74.9589C10.6275 75.522 9.76207 74.4662 9.44241 74.0752C5.81699 69.7581 3.72753 65.6052 3.08041 59.9273C2.72956 56.8928 2.34751 53.4282 2.23056 50.4015C2.16819 48.8061 2.21497 47.0073 2.23056 45.404C2.26175 43.2142 2.49564 40.9071 2.23056 38.7172C2.05124 37.2391 1.09225 35.7688 0.663436 34.2202C-0.973849 28.3546 0.273625 21.0109 6.04311 17.9373C8.64717 16.553 15.0949 14.9184 17.8705 15.81C19.7105 16.4044 20.2173 17.2569 22.4316 17.163C23.9831 17.0926 24.7238 16.334 26.1271 15.8726C27.7488 15.3408 29.4173 15.2704 31.0546 14.895C32.1617 14.6369 33.2064 14.1676 34.2902 13.8313C35.7481 13.3856 36.6604 13.2917 38.0248 12.4236C39.2644 11.6415 39.6542 11.2114 39.5607 9.66285C39.4905 8.41934 39.2566 8.4819 38.6095 7.61379C37.4322 6.02616 36.5278 4.19609 36.98 2.14703C37.362 0.402987 39.319 -0.637183 40.8627 0.43427C42.6559 1.69342 43.3342 3.67209 43.6929 5.74461C43.8332 6.57362 43.6851 7.00377 44.1762 7.79367C44.6284 8.52101 46.4451 9.7958 47.2559 10.093C47.9264 10.3354 48.6905 10.3745 49.3766 10.5779C51.0139 11.0628 52.5576 12.3532 54.0779 13.1666C55.4345 13.8939 57.0562 14.3788 58.2335 15.3799C59.2003 16.2089 60.0735 17.3585 61.0247 18.1876C61.9759 19.0166 63.0362 19.4154 63.9796 20.4556C66.0379 22.708 67.3789 24.2487 70.2247 25.6486C72.0101 26.5246 71.3942 24.9056 71.4566 23.8811C71.6047 21.3941 73.164 17.7574 76.2203 18.6333C78.5982 19.3216 77.7952 23.4353 76.8206 25.0308C76.384 25.7503 75.0118 27.0329 75.0508 27.7915C75.121 28.9725 76.267 30.1847 76.8284 31.1623C78.8789 34.6895 79.3935 37.1531 78.723 41.2434C78.3799 43.3393 77.1169 45.2242 75.5966 46.6475C75.7681 47.9145 75.6589 49.205 75.3158 50.4407C74.8013 52.302 74.0372 54.0617 72.8911 55.618C72.5715 56.0482 72.0803 56.4549 71.7528 56.8615C70.3183 58.6916 68.9928 60.8971 66.8955 62.0624C66.4121 62.3283 65.5701 62.8601 65.1569 62.3205C64.6267 61.6401 65.6871 60.8893 66.0769 60.3966C68.0027 57.9643 70.1623 56.275 71.4799 53.3656C72.205 51.7702 72.4311 50.2686 72.5169 48.5245H72.587ZM5.12311 33.9778C5.29464 33.8761 5.48176 33.0237 5.51294 32.7969C5.57532 32.3511 5.51295 31.8975 5.52075 31.4986C5.60651 29.0663 5.93397 26.7592 7.85973 25.0777C8.69396 24.3425 10.0116 23.8968 10.9628 24.6554C12.7716 26.0866 12.7794 28.9412 11.8984 30.8964C11.4384 31.9131 10.5339 32.6013 10.1831 33.5633C9.66073 35.0023 10.1831 34.8225 11.0407 35.5733C11.8983 36.3241 12.4129 37.4659 13.1146 38.3418C13.5512 38.8815 14.1749 39.3976 14.6038 39.9216C15.6797 41.259 16.5919 43.1829 17.5587 44.6454C18.7672 46.4833 20.2719 47.8363 21.6987 49.4865C21.9794 49.815 22.2366 50.3077 22.5017 50.6049C23.1488 51.3244 23.9909 51.8328 24.5678 52.6852C26.1427 55.0315 25.4722 57.4168 28.0373 59.1218C29.4641 60.0681 33.261 61.906 34.9217 61.7496C35.678 61.6792 35.9431 61.3429 35.7871 60.5764C35.6468 59.9039 35.062 59.5676 34.6566 59.0983C34.3136 58.6994 33.7834 57.9095 33.5417 57.4481C32.2631 55.0237 32.1773 50.9803 35.9119 51.3791C37.8766 51.5903 39.202 54.8907 39.1786 56.6347C39.163 57.4872 38.7264 57.6671 39.2254 58.59C39.5451 59.1765 40.3637 59.8491 41.0498 59.8335C45.1197 59.7161 48.8776 57.6124 52.3081 55.665C53.3919 55.0471 54.3274 54.6639 55.341 53.8662C56.7288 52.7713 57.563 52.1534 59.1769 51.3322C60.5102 50.6518 61.8277 50.1982 63.2857 49.8384C64.0264 48.6575 64.4396 47.195 64.7359 45.8342C65.7027 41.4545 65.5779 36.9966 66.9969 32.7187C67.3945 31.5064 68.2833 29.7858 68.1508 28.4954C67.9637 26.6966 64.8684 24.8274 63.7457 23.4588C63.2078 22.8097 62.8413 22.0354 62.2565 21.4176C61.0637 20.1584 59.5433 19.259 58.2647 18.1172C57.7501 17.6557 57.3291 17.0614 56.8535 16.6156C55.8244 15.6614 53.0722 15.1922 51.661 14.676C50.9437 14.4101 50.1875 13.9017 49.5793 13.6906C48.8386 13.4403 48.02 13.3386 47.9966 14.3475C47.981 15.0201 48.2539 16.0837 48.3085 16.8111C48.4956 19.1417 48.5891 20.7606 49.1271 23.0599C49.7742 25.8441 50.7098 29.9501 52.4485 32.1868C52.9397 32.8125 55.1695 35.237 55.7464 35.5654C56.1908 35.8157 57.0328 35.8939 57.5396 35.9174C58.0776 35.9408 59.1301 35.714 59.4966 36.0269C60.3464 36.7542 58.5844 37.4972 58.0308 37.6458C54.2573 38.639 50.3979 33.7275 48.4644 31.0215C47.5834 29.7858 45.8292 26.3603 44.3166 26.1101C43.498 25.9693 42.9366 27.2675 42.8041 27.9088C42.1414 31.0215 43.5525 34.9241 44.839 37.7396C46.0552 40.4065 46.9908 40.1719 49.2752 41.3685C49.9458 41.7204 51.9417 42.8544 51.4037 43.7617C50.9203 44.575 49.6962 43.5505 49.0959 43.3237C48.4956 43.0969 47.7705 42.9952 47.1702 42.7919C45.5485 42.2366 44.0671 41.126 43.1393 39.687C41.3617 36.9419 38.9447 31.9053 38.7264 28.6596C38.5159 25.4609 39.8258 22.4264 39.9271 19.2668C39.9427 18.7428 39.4905 17.4915 39.1475 17.0926C36.9176 14.5743 32.419 17.0066 29.7058 17.4524C28.7078 17.6166 27.7644 17.4446 26.7898 17.7574C24.6692 18.4378 22.1587 19.7126 19.9288 18.9149C18.9231 18.5551 18.2214 17.8591 17.1143 17.5853C14.2062 16.8658 10.7289 17.8591 8.27292 19.4858C7.28275 20.1349 5.62209 22.8097 5.20887 23.9515C4.31226 26.4542 3.47025 29.1211 3.86787 31.7958C3.93025 32.2025 4.39805 34.4236 5.13872 33.9934L5.12311 33.9778ZM75.2379 33.1488C75.1054 33.2505 75.0742 33.4069 75.0352 33.5555C74.0294 37.2547 74.3881 39.468 75.2769 43.1047C75.3003 43.2064 75.2769 43.3002 75.3938 43.3706C75.7291 42.479 76.3996 41.6813 76.5009 40.7194C76.6959 38.9362 76.7895 36.9497 76.2359 35.2213C76.1423 34.9398 75.4016 33.1488 75.2379 33.1488ZM67.605 48.2195C68.8057 47.8441 70.0454 47.4922 71.2304 47.0464C71.4487 46.9682 72.3531 46.6163 72.4389 46.4911C72.626 46.2252 72.4779 45.3962 72.3921 45.0599C72.2908 44.6845 71.7372 43.4566 71.4721 43.2142C71.0043 42.7684 70.1467 42.6902 69.7413 43.2533C69.4217 43.7069 69.1722 45.0443 68.9149 45.6543C68.5484 46.5068 67.9559 47.3592 67.5972 48.2195H67.605Z" fill="black"/>
</svg>
