<svg width="440" height="94" viewBox="0 0 440 94" fill="none" xmlns="http://www.w3.org/2000/svg">
<g clip-path="url(#clip0_2087_10)">
<path d="M-261.849 -220.775C-264.54 -222.961 -263.507 -225.497 -259.046 -222.645C-249.115 -216.287 -223.519 -204.955 -213.331 -199.661C-174.756 -179.598 -136.374 -160.927 -94.7455 -146.65C-39.3909 -127.663 18.2115 -117.419 76.03 -109.401C128.804 -102.084 176.201 -104.001 227.813 -118.19C239.858 -121.504 251.581 -125.355 264.082 -127.172C282.368 -129.825 320.201 -130.357 332.789 -114.193C340.647 -104.106 324.381 -91.3486 317.13 -86.0131C287.068 -63.9054 243.092 -46.882 208.167 -32.8098C198.65 -28.9761 171.232 -20.8297 169.562 -9.18854C168.202 0.331299 178.694 6.91168 186.039 10.6869C198.907 17.2964 221.35 23.7656 235.823 24.4143C293.502 27.0148 344.565 19.3826 400.883 7.25055C465.527 -6.6756 526.206 -29.5546 585.724 -58.0556C617.269 -73.1623 644.844 -85.61 679.583 -93.6747C711.461 -101.073 745.552 -107.437 777.623 -113.79C785.382 -115.326 793.282 -116.039 801 -117.746V-161.774C797.806 -162.265 795.57 -159.945 792.709 -159.069C781.861 -155.761 766.08 -152.681 754.829 -153.604C744.034 -154.493 742.084 -160.348 747.076 -169.523C754.059 -182.357 778.901 -205.563 791.413 -212.704C794.192 -214.288 797.993 -215.27 801 -216.491V-313.986C795.646 -311.012 791.162 -306.833 785.995 -303.531C746.095 -278.022 695.738 -278.864 651.202 -268.006C601.616 -255.915 564.396 -218.992 527.444 -186.523C516.654 -177.045 487.795 -155.188 482.166 -143.471C476.252 -131.158 490.428 -124.525 499.588 -120.148C516.339 -112.153 536.575 -107.56 552.73 -99.1212C557.804 -96.4681 562.335 -90.852 560.811 -84.8736C560.355 -83.097 554.184 -75.7454 552.479 -74.3428C534.135 -59.2478 511.195 -47.671 489.464 -38.0401C431.062 -12.1572 362.483 3.80267 298.622 8.05127C285.048 8.95709 277.154 9.44788 263.404 8.0921C257.28 7.48431 244.966 6.73633 238.924 5.57922C227.55 3.39941 210.811 -4.71783 225.127 -17.0837C233.786 -24.5639 247.389 -30.5013 257.618 -35.5038C279.775 -46.3385 301.979 -56.9395 323.92 -68.5105C341.109 -77.5745 388.027 -101.143 396.055 -117.699C400.235 -126.325 388.891 -131.357 382.504 -133.77C354.888 -144.184 317.218 -150.899 287.932 -152.95C267.766 -154.364 246.204 -147.702 227.807 -141.455C181.088 -125.583 135.676 -117.039 85.6226 -120.896C23.3844 -125.688 -35.9988 -136.224 -95.166 -155.667C-140.543 -170.581 -183.187 -191.801 -225.3 -214.101C-228.85 -215.983 -235.78 -220.068 -235.628 -224.194C-235.476 -228.32 -226.806 -223.995 -222.871 -222.195C-218.872 -220.36 -213.769 -216.859 -209.553 -214.773C-108.513 -164.86 -16.5158 -133.49 98.8292 -137.212C142.092 -138.609 178.402 -149.449 217.677 -166.058C223.201 -168.396 234.008 -173.696 239.694 -175.613C256.953 -181.428 282.193 -176.589 299.936 -173.778C351.618 -165.59 411.807 -148.818 462.964 -165.836C535.472 -189.954 577.62 -265.055 651.167 -286.28C673.867 -292.831 698.097 -294.59 720.978 -300.685C750.661 -308.592 778.983 -322.559 800.994 -344.182V-371.859C796.399 -367.347 792.196 -362.427 787.501 -358.003C757.223 -329.508 729.052 -321.203 689.637 -311.929C649.427 -302.468 626.739 -295.385 594.236 -269.695C573.988 -253.688 555.311 -235.578 534.783 -219.746C480.391 -177.781 433.981 -169.231 366.01 -178.915C336.204 -183.157 307.427 -193.519 278.368 -200.625C248.902 -207.836 219.166 -202.723 193.541 -187.774C143.897 -158.811 76.3686 -146.527 18.9997 -151.711C-58.2375 -158.689 -134.938 -187.084 -203.096 -221.242C-207.189 -223.294 -213.15 -226.303 -217.184 -228.501C-226.684 -233.678 -228.961 -240.814 -215.62 -235.846C-213.016 -234.876 -202.816 -230.476 -200.171 -229.208C-170.5 -214.96 -142.218 -202.565 -110.626 -192.414C-60.4562 -176.291 -9.29358 -161.833 44.1635 -164.901C74.9498 -166.666 117.489 -188.797 145.823 -202.15C191.731 -223.785 218.209 -243.753 271.777 -227.373C302.108 -218.098 330.144 -202.828 361.608 -195.897C414.306 -184.291 468.919 -187.955 515.428 -216.491C563.52 -246.003 597.675 -296.67 650.204 -318.708C681.2 -331.711 714.614 -334.796 744.378 -352.118C750.696 -355.794 759.156 -364.121 764.311 -366.757C765.782 -367.505 767.773 -367.26 768.223 -367.558C768.859 -367.978 768.637 -370.462 769.093 -371.099C769.373 -371.491 770.78 -371.643 771.434 -372.204C777.827 -377.644 783.041 -384.248 788.43 -390.425C792.569 -395.17 796.761 -399.916 801 -404.579V-449.239C798.729 -446.954 796.732 -443.915 794.811 -441.279C776.829 -416.565 762.303 -394.475 736.234 -376.633C711.286 -359.551 680.138 -352.463 653.508 -339.308C597.12 -311.45 564.086 -254.202 509.023 -224.796C447.533 -191.958 385.218 -200.409 324.148 -228.851C288.101 -245.641 253.251 -270.063 211.366 -264.868C181.911 -261.215 160.992 -251.497 136.236 -236.291C105.684 -217.514 69.7887 -191.362 33.8879 -184.636C4.21088 -179.078 -27.2585 -184.975 -56.0715 -191.684C-100.543 -202.045 -144.32 -215.527 -185.978 -233.988C-191.81 -236.571 -202.594 -240.767 -207.469 -243.923C-208.392 -244.519 -213.366 -248.113 -214.178 -248.855C-217.745 -252.099 -218.241 -255.453 -217.062 -257.761C-215.52 -260.777 -203.201 -255.622 -199.155 -253.495C-155.816 -230.704 -107.503 -218.274 -58.8447 -210.91C-42.1058 -208.38 -18.8278 -207.889 -2.64935 -212.395C11.1237 -216.228 28.8434 -224.947 41.7056 -231.382C59.7874 -240.416 75.0724 -248.008 92.8506 -257.697C115.895 -270.256 133.539 -288.29 159.007 -298.4C176.3 -305.267 207.553 -311.666 225.343 -306.062C231.626 -304.081 243.921 -299.318 249.999 -296.776C285.655 -281.868 314.999 -255.932 349.896 -238.897C423.601 -202.922 492.168 -211.787 552.497 -266.808C580.65 -292.486 604.529 -323.915 634.177 -347.951C654.939 -364.782 679.186 -376.879 701.034 -391.728C714.345 -400.775 727.067 -411.008 737.804 -423.484C749.919 -437.562 758.77 -452.552 769.315 -467.419C778.201 -479.949 787.647 -492.507 800.994 -500.806V-534.771C797.824 -533.871 794.928 -532.252 791.927 -530.955C748.874 -512.336 735.662 -475.145 706.528 -443.155C680.085 -414.122 648.791 -390.197 621.578 -361.194C603.438 -341.862 588.059 -320.677 570.403 -301.088C548.702 -277.011 524.852 -254.722 494.345 -241.994C461.282 -228.197 419.595 -228.103 387.098 -243.426C355.092 -258.521 322.688 -278.005 296.736 -301.416C282.42 -314.337 256.649 -347.139 240.541 -352.72C222.652 -358.92 196.781 -356.39 186.809 -375.675C183.651 -381.782 186.658 -394.194 188.794 -400.67C197.359 -426.634 218.74 -442.512 236.425 -461.809C247.95 -474.379 257.449 -487.967 270.977 -498.924C304.017 -525.689 328.071 -517.753 367.142 -520.284C390.835 -521.821 412.823 -530.055 435.272 -536.372C476.632 -548.008 538.735 -560.151 558.131 -603.344C563.637 -615.599 562.878 -629.648 556.455 -641.289C539.874 -671.344 504.861 -676.96 474.238 -684.791C460.155 -688.391 446.207 -692.371 431.78 -694.498C361.911 -704.813 290.261 -687.696 225.536 -721.567C198.632 -735.645 170.789 -743.541 140.825 -749.197C110.915 -754.849 106.448 -759.769 81.7342 -774.958C54.1065 -791.94 34.2381 -795.528 4.0882 -804.166C-37.4059 -816.052 -69.5058 -841.742 -109.371 -854.132C-178.773 -875.696 -221.732 -833.351 -275.808 -799.701L-320 -773.491V-748.648C-318.57 -749.624 -317.443 -750.898 -315.948 -751.827C-269.316 -780.778 -216.244 -843.794 -159.483 -847.434C-110.428 -850.579 -77.7672 -822.124 -36.133 -803.535C-8.26013 -791.093 24.1609 -788.13 50.3057 -772.439C74.2434 -758.074 86.9304 -733.109 114.219 -721.941C130.999 -715.075 152.1 -714.66 168.062 -706.648C178.32 -701.499 188.648 -691.874 198.837 -685.872C214.799 -676.464 232.63 -672.829 250.414 -668.942C277.417 -663.04 303.888 -661.854 331.265 -658.669C354.053 -656.016 368.766 -653.906 392.225 -654.952C421.183 -656.238 472.603 -654.321 496.558 -636.69C519.305 -619.947 503.851 -599.779 485.15 -588.979C466.449 -578.18 417.955 -565.171 396.615 -562.5C377.593 -560.122 359.809 -564.961 341.325 -564.376C313.504 -563.5 261.151 -534.134 243.016 -513.09C226.499 -493.922 216.755 -477.173 196.828 -460.576C168.617 -437.077 147.277 -420.814 123.982 -391.348C115.125 -380.146 103.786 -359.803 88.0923 -356.828C58.4269 -351.195 43.8015 -385.458 22.2692 -397.794C-6.35687 -414.193 -40.8797 -393.552 -71.8237 -401.096C-78.2693 -402.668 -85.0887 -406.058 -91.4001 -407.916C-139.194 -422.006 -188.482 -403.895 -234.338 -428.37C-248.846 -436.113 -260.874 -447.532 -273.205 -458.051C-287.17 -469.973 -301.615 -482.503 -315.399 -494.728L-319.988 -500.823V-225.953C-316.281 -224.521 -312.585 -222.709 -309.105 -220.81C-288.624 -209.63 -267.973 -198.948 -247.918 -187.71C-216.647 -170.184 -186.357 -150.963 -154.549 -134.617C-133.198 -123.648 -111.111 -113.714 -89.1815 -103.814C-71.5785 -95.8661 -52.621 -89.5488 -36.6352 -79.0472C-32.6826 -76.4525 -26.3186 -71.1637 -27.2002 -65.9216C-28.4788 -58.3304 -33.7976 -56.1857 -32.8518 -46.3561C-31.1761 -28.9236 5.55377 -7.84442 19.5486 0.576721C103.903 51.3374 198.772 99.0008 299.895 93.5776C365.391 90.0654 430.916 81.1767 495.846 73.3516C538.041 68.2674 580.375 61.2079 622.926 62.0612C680.354 63.2124 739.626 60.5768 796.942 62.7216C798.349 62.7741 799.675 62.9026 801 63.3818V21.8663C795.85 21.7611 790.742 22.5793 785.61 22.5384C748.057 22.2228 712.67 18.0035 675.654 15.5724C637.593 13.0712 601.657 24.5897 564.886 32.3914C493.259 47.5915 420.582 59.8638 347.636 68.4077C287.284 75.4789 237.534 77.3956 178.927 59.2969C134.806 45.6688 100.067 25.2617 61.8483 1.63452C51.8062 -4.57764 28.1777 -21.4082 31.9027 -33.7798C32.9186 -37.1635 36.7838 -43.2413 38.9615 -46.0288C44.9927 -53.7604 55.5836 -59.3413 44.4088 -68.3351C32.002 -78.3167 1.85791 -85.9313 -13.8476 -91.1558C-60.7073 -106.742 -104.303 -121.702 -148.641 -143.033C-187.566 -161.763 -224.897 -184.087 -263.046 -204.628C-272.551 -209.747 -284.449 -214.954 -293.178 -220.383C-294.632 -221.289 -299.495 -223.446 -297.353 -226.63C-295.321 -229.652 -282.19 -221.272 -273.076 -216.602C-235.225 -197.224 -197.993 -175.87 -159.594 -156.596C-118.765 -136.108 -76.7047 -121.597 -32.7876 -109.301C2.78046 -99.3433 37.8464 -90.4546 73.4728 -81.0692C90.2759 -76.6395 112.147 -73.3142 127.228 -65.0566C129.154 -64.0048 132.033 -61.2932 131.811 -59.014C131.478 -55.5135 122.814 -49.9969 119.784 -48.3489C111.703 -43.9484 101.281 -39.8224 93.8023 -34.7265C70.4484 -18.8134 94.538 -0.206299 109.245 10.1784C144.212 34.8633 194.528 51.577 237.149 55.8022C283.465 60.3955 333.075 51.8575 379.135 44.5935C420.366 38.0892 460.406 31.0121 500.931 21.2119C529.522 14.2985 557.611 5.6319 585.613 -3.4613C631.672 -18.4219 670.872 -34.7032 720.896 -29.7125C745.698 -27.2346 769.379 -22.4952 794.525 -20.5375C796.539 -20.3797 798.997 -20.5082 801 -20.8998V-67.447C792.423 -66.658 784.074 -68.9312 775.579 -69.3578C698.47 -73.2499 636.197 -49.8332 566.667 -23.062C510.944 -1.60297 453.091 13.8076 393.97 24.8409C346.527 33.6945 297.694 42.256 248.966 40.7657C217.181 39.7957 184.602 32.1049 156.157 17.3022C152.257 15.2744 144.107 11.1252 141.006 8.56549C137.521 5.68445 129.265 -2.8302 127.292 -6.63464C125.453 -10.1819 124.746 -12.6188 126.527 -16.4349C130.935 -25.8846 150.179 -31.9156 159.561 -35.5739C185.215 -45.5788 213.923 -54.3622 236.431 -70.5851C236.431 -70.5851 241.382 -74.2843 243.349 -77.4927C245.556 -81.0925 246.052 -83.3192 245.334 -84.7568C244.377 -86.6677 240.506 -88.1053 237.826 -87.7197C211.705 -83.9912 177.748 -85.7268 150.313 -86.9189C87.0589 -89.6539 21.7321 -107.461 -39.9106 -121.054C-45.3287 -122.246 -66.7325 -128.703 -71.3683 -130.322C-113.645 -145.049 -146.434 -158.204 -183.076 -177.132C-204.124 -188.002 -224.494 -198.527 -245.174 -209.952C-249.302 -212.231 -254.019 -214.44 -261.849 -220.798V-220.775ZM714.707 -182.105C680.973 -156.614 643.116 -128.961 598.329 -130.924C583.353 -131.579 559.129 -137.896 547.166 -147.012C540.645 -151.98 536.832 -160.232 540.394 -168.214C551.382 -192.87 590.114 -223.638 614.361 -235.694C647.471 -252.163 680.879 -254.588 717.113 -258.007C737.232 -259.906 757.638 -262.337 777.961 -261.536C784.629 -261.274 788.313 -257.867 783.409 -252.028C767.388 -232.936 749.966 -214.726 731.913 -197.276L714.713 -182.1L714.707 -182.105ZM-293.809 -440.204C-276.643 -425.74 -261.037 -412.27 -239.99 -403.194C-205.875 -388.479 -169.566 -391.454 -134.593 -382.898C-108.88 -376.604 -87.5993 -363.438 -60.1526 -363.636C-52.4691 -363.689 -44.6572 -365.904 -36.9213 -365.565C-24.1583 -365.01 -11.5648 -360.738 -3.30914 -350.774C17.4758 -325.686 0.234863 -295.712 -16.2296 -273.785C-38.194 -244.531 -68.8519 -237.115 -104 -243.064C-143.088 -249.679 -179.088 -263.886 -215.252 -279.513C-222.159 -282.499 -223.928 -284.018 -227.518 -287.361C-239.47 -298.476 -248.058 -309.948 -255.952 -324.523C-258.603 -329.414 -259.975 -334.691 -259.42 -337.841C-259.356 -338.209 -259.058 -339.016 -258.708 -339.144C-256.472 -339.951 -254.469 -339.115 -251.485 -337.584C-244.322 -333.914 -235.144 -329.741 -227.77 -326.732C-207.749 -318.562 -193.019 -316.318 -171.376 -316.499C-161.812 -316.575 -138.628 -316.85 -157.538 -329.104C-185.125 -346.987 -220.028 -341.283 -248.987 -355.186C-259.309 -360.142 -283.34 -377.533 -288.466 -387.375C-297.843 -405.362 -304.137 -424.729 -309.619 -444.195C-309.987 -445.504 -311.336 -446.55 -311.68 -448.426C-312.031 -450.349 -311.762 -452.324 -311.826 -454.253C-311.336 -454.265 -310.834 -454.323 -310.355 -454.159C-309.683 -453.931 -302.911 -447.304 -301.457 -446.083C-299.221 -444.207 -296.214 -442.226 -293.814 -440.204H-293.809Z" fill="#E1FB40"/>
</g>
<defs>
<clipPath id="clip0_2087_10">
<rect width="440" height="94" fill="white"/>
</clipPath>
</defs>
</svg>
