<svg width="1920" height="1796" viewBox="0 0 1920 1796" fill="none" xmlns="http://www.w3.org/2000/svg">
<g clip-path="url(#clip0_2045_132)">
<mask id="mask0_2045_132" style="mask-type:alpha" maskUnits="userSpaceOnUse" x="0" y="0" width="2113" height="1796">
<path d="M109.611 1203.4C104.537 1199.29 106.485 1194.52 114.893 1199.88C133.613 1211.85 181.859 1233.19 201.063 1243.15C273.774 1280.92 346.121 1316.07 424.588 1342.95C528.927 1378.7 637.503 1397.98 746.486 1413.08C845.962 1426.85 935.301 1423.24 1032.59 1396.53C1055.29 1390.29 1077.39 1383.04 1100.95 1379.62C1135.42 1374.63 1206.73 1373.63 1230.46 1404.06C1245.27 1423.05 1214.61 1447.06 1200.94 1457.11C1144.28 1498.73 1061.39 1530.78 995.554 1557.27C977.615 1564.49 925.935 1579.82 922.788 1601.74C920.224 1619.66 940 1632.05 953.844 1639.15C978.1 1651.6 1020.4 1663.78 1047.68 1665C1156.4 1669.89 1252.65 1655.53 1358.81 1632.69C1480.66 1606.47 1595.03 1563.4 1707.22 1509.74C1766.68 1481.3 1818.66 1457.87 1884.14 1442.68C1944.23 1428.76 2008.48 1416.77 2068.94 1404.82C2083.56 1401.92 2098.45 1400.58 2113 1397.37V1314.48C2106.98 1313.56 2102.77 1317.92 2097.37 1319.57C2076.93 1325.8 2047.18 1331.6 2025.97 1329.86C2005.62 1328.19 2001.95 1317.16 2011.36 1299.89C2024.52 1275.73 2071.35 1232.04 2094.93 1218.6C2100.17 1215.62 2107.33 1213.77 2113 1211.47V1027.93C2102.91 1033.53 2094.46 1041.39 2084.72 1047.61C2009.51 1095.63 1914.59 1094.05 1830.64 1114.49C1737.18 1137.25 1667.02 1206.76 1597.37 1267.89C1577.03 1285.73 1522.63 1326.88 1512.02 1348.94C1500.87 1372.12 1527.6 1384.61 1544.86 1392.85C1576.44 1407.9 1614.58 1416.54 1645.03 1432.43C1654.59 1437.42 1663.13 1448 1660.26 1459.25C1659.4 1462.6 1647.77 1476.44 1644.56 1479.08C1609.98 1507.5 1566.74 1529.29 1525.78 1547.42C1415.7 1596.15 1286.43 1626.19 1166.06 1634.19C1140.47 1635.9 1125.59 1636.82 1099.67 1634.27C1088.13 1633.13 1064.92 1631.72 1053.53 1629.54C1032.09 1625.44 1000.54 1610.15 1027.52 1586.87C1043.84 1572.79 1069.49 1561.61 1088.77 1552.2C1130.53 1531.8 1172.38 1511.84 1213.74 1490.06C1246.14 1472.99 1334.58 1428.62 1349.71 1397.46C1357.59 1381.22 1336.21 1371.74 1324.17 1367.2C1272.11 1347.59 1201.11 1334.95 1145.91 1331.09C1107.89 1328.43 1067.25 1340.97 1032.57 1352.73C944.512 1382.61 858.914 1398.7 764.568 1391.44C647.253 1382.42 535.321 1362.58 423.795 1325.98C338.263 1297.9 257.882 1257.95 178.503 1215.97C171.811 1212.43 158.748 1204.74 159.035 1196.97C159.321 1189.2 175.663 1197.34 183.081 1200.73C190.619 1204.19 200.238 1210.78 208.183 1214.7C398.637 1308.67 572.045 1367.73 789.461 1360.72C871.009 1358.09 939.45 1337.68 1013.48 1306.42C1023.89 1302.01 1044.26 1292.04 1054.98 1288.43C1087.51 1277.48 1135.09 1286.59 1168.53 1291.88C1265.95 1307.3 1379.4 1338.87 1475.83 1306.83C1612.5 1261.43 1691.95 1120.04 1830.58 1080.09C1873.36 1067.75 1919.04 1064.44 1962.16 1052.97C2018.11 1038.08 2071.5 1011.79 2112.99 971.079V918.974C2104.33 927.468 2096.4 936.731 2087.56 945.06C2030.48 998.705 1977.38 1014.34 1903.09 1031.8C1827.3 1049.61 1784.53 1062.94 1723.27 1111.31C1685.1 1141.44 1649.89 1175.54 1611.2 1205.34C1508.68 1284.35 1421.2 1300.44 1293.08 1282.21C1236.9 1274.22 1182.65 1254.72 1127.88 1241.34C1072.34 1227.76 1016.29 1237.39 967.986 1265.53C874.41 1320.06 747.125 1343.18 638.989 1333.42C493.402 1320.29 348.828 1266.83 220.355 1202.52C212.64 1198.66 201.404 1193 193.8 1188.86C175.894 1179.11 171.602 1165.68 196.749 1175.03C201.657 1176.86 220.883 1185.14 225.868 1187.53C281.796 1214.35 335.105 1237.69 394.654 1256.8C489.22 1287.15 585.658 1314.37 686.421 1308.59C744.45 1305.27 824.634 1263.61 878.041 1238.47C964.574 1197.74 1014.48 1160.15 1115.45 1190.98C1172.63 1208.44 1225.47 1237.19 1284.78 1250.24C1384.11 1272.09 1487.05 1265.19 1574.72 1211.47C1665.37 1155.91 1729.75 1060.52 1828.76 1019.04C1887.19 994.557 1950.17 988.748 2006.27 956.139C2018.18 949.218 2034.13 933.541 2043.84 928.579C2046.62 927.171 2050.37 927.633 2051.22 927.072C2052.42 926.28 2052 921.604 2052.86 920.405C2053.39 919.668 2056.04 919.382 2057.27 918.325C2069.32 908.083 2079.15 895.651 2089.31 884.022C2097.11 875.088 2105.01 866.155 2113 857.375V773.299C2108.72 777.601 2104.96 783.322 2101.33 788.284C2067.44 834.81 2040.06 876.397 1990.92 909.986C1943.9 942.144 1885.18 955.489 1834.99 980.255C1728.7 1032.7 1666.44 1140.47 1562.65 1195.84C1446.74 1257.65 1329.28 1241.75 1214.17 1188.2C1146.22 1156.59 1080.54 1110.62 1001.58 1120.4C946.064 1127.27 906.633 1145.57 859.971 1174.2C802.381 1209.54 734.722 1258.78 667.052 1271.44C611.113 1281.9 551.795 1270.8 497.485 1258.17C413.659 1238.67 331.143 1213.28 252.622 1178.53C241.628 1173.67 221.301 1165.77 212.112 1159.83C210.373 1158.7 200.997 1151.94 199.467 1150.54C192.743 1144.44 191.808 1138.12 194.031 1133.77C196.936 1128.1 220.157 1137.8 227.783 1141.81C309.474 1184.71 400.541 1208.11 492.258 1221.98C523.809 1226.74 567.687 1227.66 598.182 1219.18C624.143 1211.96 657.543 1195.55 681.788 1183.44C715.87 1166.43 744.682 1152.14 778.192 1133.9C821.629 1110.25 854.887 1076.3 902.891 1057.27C935.488 1044.34 994.398 1032.29 1027.93 1042.84C1039.77 1046.57 1062.95 1055.54 1074.41 1060.33C1141.61 1088.39 1196.92 1137.22 1262.7 1169.29C1401.63 1237.02 1530.87 1220.33 1644.59 1116.74C1697.66 1068.4 1742.67 1009.23 1798.55 963.983C1837.69 932.298 1883.39 909.524 1924.57 881.568C1949.66 864.537 1973.64 845.273 1993.88 821.784C2016.72 795.281 2033.4 767.061 2053.28 739.072C2070.03 715.484 2087.83 691.841 2112.99 676.219V612.276C2107.01 613.971 2101.55 617.018 2095.9 619.46C2014.75 654.512 1989.84 724.528 1934.93 784.752C1885.08 839.409 1826.1 884.451 1774.8 939.053C1740.61 975.447 1711.62 1015.33 1678.34 1052.21C1637.44 1097.53 1592.48 1139.5 1534.98 1163.46C1472.66 1189.43 1394.08 1189.61 1332.83 1160.76C1272.5 1132.34 1211.42 1095.66 1162.5 1051.59C1135.52 1027.27 1086.94 965.512 1056.58 955.005C1022.86 943.332 974.094 948.096 955.297 911.79C949.343 900.293 955.011 876.925 959.039 864.735C975.183 815.854 1015.48 785.962 1048.82 749.634C1070.54 725.969 1088.45 700.39 1113.95 679.761C1176.22 629.373 1221.57 644.313 1295.21 639.55C1339.87 636.656 1381.32 621.155 1423.63 609.262C1501.59 587.357 1618.65 564.495 1655.21 483.181C1665.59 460.11 1664.16 433.661 1652.05 411.746C1620.8 355.163 1554.8 344.59 1497.08 329.848C1470.53 323.071 1444.24 315.579 1417.05 311.574C1285.35 292.156 1150.3 324.38 1028.29 260.613C977.582 234.11 925.099 219.247 868.621 208.597C812.242 197.958 803.823 188.694 757.238 160.101C705.162 128.129 667.712 121.374 610.882 105.113C532.668 82.7357 472.162 34.3716 397.02 11.0478C266.202 -29.549 185.227 50.1703 83.2976 113.519L-8.7738e-05 162.862V209.631C2.69616 207.794 4.82025 205.395 7.63756 203.646C95.5352 149.143 195.571 30.51 302.563 23.6559C395.028 17.7369 456.59 71.3048 535.068 106.302C587.606 129.725 648.717 135.302 697.998 164.842C743.119 191.885 767.033 238.885 818.471 259.909C850.099 272.836 889.872 273.618 919.96 288.701C939.296 298.394 958.764 316.514 977.968 327.813C1008.06 345.526 1041.67 352.369 1075.19 359.685C1126.09 370.797 1175.98 373.03 1227.59 379.026C1270.54 384.021 1298.27 387.993 1342.49 386.023C1397.07 383.603 1494 387.212 1539.15 420.404C1582.03 451.924 1552.9 489.892 1517.65 510.223C1482.4 530.555 1390.99 555.045 1350.77 560.073C1314.91 564.55 1281.39 555.441 1246.55 556.541C1194.11 558.191 1095.42 613.475 1061.24 653.093C1030.11 689.179 1011.74 720.71 974.182 751.955C921.005 796.194 880.782 826.812 836.871 882.283C820.177 903.374 798.805 941.671 769.223 947.271C713.306 957.877 685.738 893.373 645.151 870.148C591.193 839.277 526.12 878.136 467.793 863.932C455.644 860.973 442.79 854.592 430.893 851.093C340.806 824.568 247.901 858.662 161.467 812.587C134.119 798.009 111.449 776.512 88.2057 756.708C61.8816 734.265 34.6549 710.677 8.67189 687.661L0.0219913 676.186V1193.66C7.01023 1196.35 13.9764 1199.76 20.5355 1203.34C59.1413 1224.39 98.0662 1244.5 135.869 1265.65C194.812 1298.65 251.907 1334.83 311.862 1365.61C352.108 1386.26 393.74 1404.96 435.075 1423.6C468.256 1438.56 503.989 1450.45 534.121 1470.22C541.572 1475.11 553.567 1485.06 551.905 1494.93C549.495 1509.22 539.47 1513.26 541.253 1531.77C544.411 1564.58 613.644 1604.27 640.023 1620.12C799.025 1715.68 977.847 1805.41 1168.45 1795.2C1291.91 1788.59 1415.42 1771.86 1537.81 1757.13C1617.34 1747.56 1697.14 1734.27 1777.34 1735.87C1885.59 1738.04 1997.31 1733.08 2105.35 1737.12C2108 1737.21 2110.5 1737.46 2113 1738.36V1660.2C2103.29 1660 2093.66 1661.54 2083.99 1661.47C2013.21 1660.87 1946.5 1652.93 1876.73 1648.35C1804.99 1643.64 1737.25 1665.33 1667.94 1680.02C1532.93 1708.63 1395.94 1731.74 1258.44 1747.82C1144.68 1761.13 1050.91 1764.74 940.44 1730.67C857.275 1705.01 791.794 1666.59 719.755 1622.11C700.826 1610.42 656.289 1578.73 663.31 1555.44C665.225 1549.07 672.51 1537.63 676.615 1532.38C687.983 1517.83 707.947 1507.32 686.883 1490.39C663.497 1471.6 606.678 1457.26 577.074 1447.43C488.747 1418.08 406.572 1389.92 322.999 1349.76C249.629 1314.5 179.262 1272.47 107.355 1233.8C89.4383 1224.17 67.01 1214.36 50.5574 1204.14C47.8172 1202.44 38.6499 1198.38 42.6887 1192.38C46.5185 1186.69 71.2689 1202.47 88.4478 1211.26C159.794 1247.74 229.973 1287.94 302.354 1324.23C379.312 1362.8 458.593 1390.12 541.374 1413.26C608.417 1432.01 674.513 1448.75 741.666 1466.41C773.339 1474.75 814.564 1481.01 842.99 1496.56C846.622 1498.54 852.047 1503.65 851.629 1507.94C851.002 1514.53 834.67 1524.91 828.959 1528.01C813.728 1536.3 794.083 1544.07 779.986 1553.66C735.966 1583.62 781.373 1618.65 809.094 1638.2C875.004 1684.67 969.846 1716.13 1050.18 1724.09C1137.49 1732.74 1231 1716.66 1317.82 1702.99C1395.53 1690.74 1471.01 1677.42 1547.39 1658.97C1601.29 1645.95 1654.23 1629.64 1707.01 1612.52C1793.83 1584.35 1867.72 1553.7 1962.01 1563.1C2008.76 1567.76 2053.4 1576.69 2100.8 1580.37C2104.59 1580.67 2109.23 1580.43 2113 1579.69V1492.06C2096.83 1493.55 2081.1 1489.27 2065.08 1488.46C1919.74 1481.14 1802.36 1525.22 1671.3 1575.62C1566.27 1616.02 1457.22 1645.03 1345.78 1665.8C1256.35 1682.47 1164.31 1698.59 1072.46 1695.78C1012.55 1693.95 951.137 1679.48 897.52 1651.61C890.169 1647.79 874.806 1639.98 868.962 1635.16C862.392 1629.74 846.831 1613.71 843.111 1606.55C839.645 1599.87 838.313 1595.28 841.67 1588.1C849.978 1570.31 886.251 1558.95 903.936 1552.06C952.293 1533.23 1006.4 1516.69 1048.83 1486.15C1048.83 1486.15 1058.16 1479.19 1061.87 1473.15C1066.03 1466.37 1066.97 1462.18 1065.61 1459.47C1063.81 1455.88 1056.51 1453.17 1051.46 1453.89C1002.22 1460.91 938.217 1457.65 886.504 1455.4C767.275 1450.25 644.139 1416.73 527.947 1391.14C517.734 1388.9 477.39 1376.74 468.652 1373.69C388.964 1345.97 327.159 1321.2 258.091 1285.57C218.418 1265.1 180.021 1245.29 141.041 1223.78C133.261 1219.49 124.368 1215.33 109.611 1203.36V1203.4ZM1950.34 1276.2C1886.76 1324.19 1815.4 1376.25 1730.98 1372.56C1702.75 1371.33 1657.09 1359.43 1634.54 1342.27C1622.25 1332.92 1615.06 1317.38 1621.78 1302.36C1642.49 1255.94 1715.5 1198.01 1761.2 1175.32C1823.61 1144.31 1886.58 1139.75 1954.88 1133.31C1992.8 1129.74 2031.27 1125.16 2069.57 1126.67C2082.14 1127.16 2089.09 1133.58 2079.84 1144.57C2049.64 1180.51 2016.8 1214.79 1982.78 1247.64L1950.36 1276.22L1950.34 1276.2ZM49.3687 790.308C81.7236 817.537 111.14 842.897 150.814 859.982C215.116 887.685 283.557 882.085 349.478 898.192C397.944 910.041 438.058 934.828 489.793 934.454C504.275 934.355 519 930.185 533.582 930.823C557.639 931.869 581.377 939.911 596.938 958.669C636.116 1005.9 603.618 1062.33 572.584 1103.61C531.183 1158.68 473.395 1172.64 407.144 1161.44C333.465 1148.99 265.608 1122.24 197.442 1092.83C184.423 1087.2 181.089 1084.34 174.321 1078.05C151.793 1057.12 135.605 1035.53 120.726 1008.09C115.73 998.881 113.143 988.946 114.189 983.016C114.31 982.323 114.871 980.805 115.531 980.563C119.746 979.044 123.521 980.618 129.145 983.5C142.648 990.409 159.948 998.265 173.847 1003.93C211.584 1019.31 239.35 1023.54 280.146 1023.19C298.172 1023.05 341.873 1022.53 306.228 999.464C254.229 965.798 188.44 976.536 133.855 950.363C114.398 941.033 69.1009 908.292 59.4384 889.764C41.7642 855.901 29.9007 819.441 19.567 782.794C18.8736 780.329 16.3314 778.36 15.6821 774.828C15.0218 771.209 15.5281 767.49 15.407 763.859C16.3315 763.837 17.2779 763.727 18.1803 764.036C19.4459 764.465 32.2119 776.941 34.9521 779.24C39.1671 782.772 44.8347 786.501 49.3578 790.308H49.3687Z" fill="#E1FB40"/>
</mask>
<g mask="url(#mask0_2045_132)">
<rect width="960" height="343" fill="#E1FB40"/>
<rect x="960" y="477" width="960" height="960" fill="#E1FB40"/>
<rect x="960" y="1437" width="960" height="359" fill="#E1FB40"/>
<rect y="1437" width="960" height="359" fill="#E1FB40"/>
</g>
</g>
<defs>
<clipPath id="clip0_2045_132">
<rect width="1920" height="1796" fill="white"/>
</clipPath>
</defs>
</svg>
