<svg width="1300" height="1800" viewBox="0 0 1300 1800" fill="none" xmlns="http://www.w3.org/2000/svg">
<mask id="mask0_2026_87" style="mask-type:alpha" maskUnits="userSpaceOnUse" x="0" y="0" width="1300" height="1800">
<g clip-path="url(#clip0_2026_87)">
<mask id="mask1_2026_87" style="mask-type:alpha" maskUnits="userSpaceOnUse" x="-1" y="-116" width="2430" height="2761">
<mask id="path-1-inside-1_2026_87" fill="white">
<path d="M1780.73 287.5C1775.86 280.782 1768.58 281.638 1774.56 292.378C1787.89 316.296 1808.56 375.356 1818.91 399.265C1858.15 489.798 1893.69 579.219 1916.05 673.153C1945.79 798.06 1950.96 923.181 1950.01 1047.61C1949.14 1161.19 1925.35 1258.86 1866.65 1359.03C1852.95 1382.41 1837.92 1404.84 1828.09 1429.93C1813.72 1466.64 1797.44 1545.11 1836.31 1579.56C1860.56 1601.07 1901.51 1573.73 1918.82 1561.37C1990.52 1510.09 2053.9 1427.25 2105.74 1361.75C2119.86 1343.9 2152.69 1291 2184.89 1293.47C2211.22 1295.5 2224.94 1320.69 2232.29 1337.91C2245.16 1368.07 2253.88 1418.08 2249.96 1448.54C2234.39 1569.91 2193.67 1672.29 2138.71 1783.31C2075.61 1910.75 1989.81 2025.35 1889.22 2134.67C1835.91 2192.61 1791.36 2243.65 1755.88 2311.83C1723.33 2374.4 1692.71 2442.1 1662.91 2505.61C1655.71 2520.97 1650.68 2537.05 1643.02 2552.24L1523.71 2529.76C1523.63 2522.86 1530.8 2519.39 1534.29 2513.88C1547.51 2493 1562.05 2461.72 1563.96 2437.83C1565.79 2414.91 1550.68 2407.86 1523.86 2413.57C1486.34 2421.55 1413.71 2461.4 1389.45 2483.79C1384.07 2488.77 1379.92 2496.18 1375.43 2501.81L1111.22 2452.02C1121.38 2442.4 1134.46 2435.2 1145.44 2426.13C1230.22 2356.11 1247.69 2250.87 1294.59 2163.73C1346.8 2066.7 1461.46 2008.09 1563.94 1947.76C1593.86 1930.15 1664.41 1881.24 1698.37 1875.51C1734.06 1869.49 1746.48 1902.38 1754.74 1923.69C1769.84 1962.63 1774.35 2007.1 1790.88 2045.03C1796.08 2056.94 1809.52 2069.24 1826.32 2069.12C1831.31 2069.08 1853.66 2059.99 1858.13 2057.16C1906.23 2026.69 1946.6 1984.86 1981.22 1944.55C2074.27 1836.21 2144.42 1701.63 2180.99 1570.89C2188.77 1543.1 2193.19 1526.92 2194.91 1497.61C2195.67 1484.55 2198.47 1458.54 2197.71 1445.37C2196.26 1420.59 2180.83 1381.6 2141.7 1405.08C2118.03 1419.28 2096.61 1444.56 2079.04 1463.3C2040.99 1503.88 2003.55 1544.68 1963.59 1584.44C1932.28 1615.58 1850.01 1701.2 1801.99 1709.45C1776.98 1713.74 1767.79 1687.56 1763.76 1673.04C1746.37 1610.24 1742.95 1528.41 1748.88 1466.41C1752.95 1423.71 1779.46 1382.24 1803.61 1347.14C1864.95 1258.01 1905.92 1167.86 1915.1 1061.71C1926.52 929.725 1921.26 800.748 1891.78 667.672C1869.17 565.612 1828.39 466.019 1784.48 366.979C1780.77 358.629 1772.42 342.119 1761.18 340.328C1749.94 338.536 1758.25 358.79 1761.59 367.9C1764.99 377.161 1772.48 389.57 1776.48 399.409C1872.11 635.199 1921.03 842.695 1865.7 1080.86C1844.94 1170.19 1801.32 1240.23 1740.91 1313.49C1732.41 1323.79 1713.81 1343.58 1706.38 1354.44C1683.85 1387.39 1687.07 1442.39 1687.72 1480.75C1689.64 1592.5 1711.48 1726.34 1645.3 1824.12C1551.5 1962.72 1331.45 2012.08 1245.08 2154.32C1218.42 2198.22 1204.15 2247.75 1178.66 2292.26C1145.58 2350 1096.63 2401.82 1029.4 2436.59L954.392 2422.45C968.42 2415.19 983.404 2408.95 997.234 2401.44C1086.33 2352.98 1119.88 2298.59 1160.48 2221.29C1201.89 2142.43 1229.99 2098.83 1312.35 2044.3C1363.67 2010.33 1420.08 1980.71 1471.03 1946.07C1606.09 1854.3 1647.46 1762.07 1647.89 1615.65C1648.08 1551.45 1631.29 1486.26 1623.43 1422.15C1615.45 1357.14 1640.97 1297.86 1691.53 1252.17C1789.49 1163.63 1849.27 1029.36 1857.72 907.308C1869.11 742.989 1822.24 568.849 1756.41 409.544C1752.46 399.978 1746.64 386.034 1742.27 376.515C1731.96 354.1 1713.52 345.717 1721.75 376.02C1723.36 381.935 1731.28 405.412 1733.68 411.564C1760.65 480.596 1783.15 545.789 1798.26 616.727C1822.28 729.381 1841.39 843.251 1812.11 952.945C1795.25 1016.12 1718.59 1093.35 1671.29 1145.51C1594.65 1230.01 1530.15 1274.92 1553.53 1394.77C1566.77 1462.64 1597.15 1528.79 1603.59 1597.82C1614.37 1713.43 1583.02 1825.22 1487.44 1907.45C1388.6 1992.47 1237.9 2037.68 1157.58 2135.75C1110.18 2193.63 1088.71 2261.59 1030.1 2314.7C1017.66 2325.97 991.771 2339.32 982.606 2348.71C980.002 2351.39 979.886 2355.66 978.902 2356.44C977.513 2357.55 970.869 2355.82 968.964 2356.44C967.793 2356.82 966.829 2359.67 965.052 2360.75C947.801 2371.28 927.86 2378.76 909.006 2386.82C894.523 2393.01 880.019 2399.31 865.719 2405.75L744.694 2382.94C751.777 2379.38 760.795 2376.78 768.691 2374.13C842.719 2349.32 908.28 2330.37 966.856 2285.22C1022.93 2242.02 1054.36 2180.82 1100.45 2132.11C1198.07 2028.98 1366.16 1989.46 1467.45 1889.88C1580.56 1778.66 1582.1 1644.65 1528.98 1503.02C1497.62 1419.42 1445.11 1334.41 1475.62 1249.89C1497.07 1190.45 1531.61 1151.87 1582.53 1108.12C1645.4 1054.12 1730.35 992.765 1762.66 921.479C1789.36 862.55 1785.72 794.041 1778.84 730.646C1768.21 632.794 1748.85 534.795 1715.16 438.664C1710.45 425.205 1703.31 400.618 1696.67 388.859C1695.41 386.635 1687.62 374.446 1685.93 372.378C1678.54 363.297 1669.64 360.551 1662.93 361.826C1654.15 363.494 1663.29 391.767 1667.46 401.274C1712.23 503.117 1726.96 610.021 1727.83 715.054C1728.12 751.185 1720.32 799.885 1701.76 831.256C1685.97 857.964 1655.39 890.392 1632.91 913.876C1601.34 946.895 1574.77 974.831 1541.54 1006.88C1498.46 1048.43 1442.67 1075.95 1405.28 1123.79C1379.89 1156.27 1350.29 1218.05 1358.5 1257.94C1361.4 1272.03 1369.49 1300.05 1373.99 1314C1400.41 1395.83 1459.18 1470.15 1491.66 1551.48C1560.24 1723.26 1509.32 1861.44 1336.55 1958.9C1255.92 2004.38 1161.38 2038.03 1084.61 2087.46C1030.86 2122.08 988.567 2166.36 939.756 2204.25C910.019 2227.34 877.299 2248.59 839.275 2264.56C796.372 2282.59 752.279 2293.36 707.854 2307.71C670.414 2319.8 632.675 2333.05 604.951 2356.59C604.951 2356.59 509.225 2345.38 512.908 2339.25C516.59 2333.11 522.113 2327.91 526.806 2322.32C594.15 2242.23 700.118 2233.72 798.237 2189.42C887.287 2149.21 964.398 2096.3 1053.67 2054.47C1113.17 2026.59 1176.62 2005.4 1236.63 1978.66C1310.39 1945.79 1380.14 1907.53 1426.6 1850.54C1476.96 1788.77 1493.57 1702.06 1464.79 1626.6C1436.44 1552.27 1396.35 1474.88 1343.09 1408.91C1313.69 1372.51 1234.9 1302.12 1226.1 1265.74C1216.31 1225.34 1233.32 1172.79 1184.97 1142.19C1169.66 1132.49 1134.84 1132.41 1116.45 1133.55C1042.73 1138.12 991.315 1174.51 932.085 1201.46C893.499 1219.03 852.953 1231.86 817.952 1254.42C732.459 1309.52 744.53 1363.64 722.347 1443.66C708.888 1492.19 677.95 1533.75 652.024 1577.24C604.27 1657.38 547 1780.44 422.342 1798.75C386.973 1803.95 349.198 1795.19 320.171 1775.88C245.226 1726.02 243.741 1650.28 234.531 1582.54C230.3 1551.39 224.986 1520.33 224.88 1489.22C224.335 1338.53 298.826 1198.15 232.424 1046.13C204.826 982.947 194.352 920.964 190.775 855.712C187.194 790.572 175.611 778.763 144.145 719.568C108.961 653.392 107.03 610.207 95.4497 543.044C79.5137 450.611 22.4862 370.68 4.54934 281.381C-26.6654 125.92 104.939 58.1346 217.34 -37.2288L305.702 -115.819L373.025 -103.131C369.819 -100.652 365.924 -98.9578 362.82 -96.3216C266.073 -14.0518 74.4862 64.2236 42.3549 180.503C14.5927 280.996 78.8911 363.505 112.937 459.654C135.72 524.02 131.032 593.012 163.299 655.441C192.836 712.6 255.515 751.756 275.075 814.257C287.101 852.688 279.949 896.816 295.4 934.131C305.328 958.111 327.36 984.523 339.629 1008.79C358.865 1046.82 361.721 1085.79 365.277 1124.79C370.68 1184 363.511 1239.71 361.404 1298.31C359.655 1347.1 359.601 1378.8 347.564 1427.09C332.721 1486.7 317.746 1594.7 356.129 1653.57C392.579 1709.46 453.294 1687.59 489.896 1654.19C526.498 1620.78 580.773 1526.49 596.381 1483.44C610.288 1445.07 604.151 1405.58 612.985 1367.41C626.273 1309.95 726.39 1215.99 790.531 1188.99C848.955 1164.4 898.166 1152.68 950.959 1119.68C1025.7 1072.96 1078.15 1036.85 1167.14 1003.42C1200.97 990.706 1260.55 977.496 1274.76 946.352C1301.67 887.486 1214.55 839.547 1189.57 788.431C1156.36 720.476 1225.83 659.165 1217.53 590.907C1215.79 576.689 1209.28 560.765 1206.72 546.679C1187.29 440.009 1255.7 346.674 1207.36 238.734C1192.07 204.583 1165.84 173.718 1142.17 142.681C1115.34 107.525 1087.06 71.0629 1059.33 36.1287L1044.61 23.4645L1789.5 163.849C1791.93 172.297 1795.39 180.914 1799.17 189.126C1821.43 237.464 1842.28 285.901 1864.87 333.382C1900.1 407.417 1940.3 480.277 1972.12 554.828C1993.47 604.869 2011.73 655.913 2029.96 706.611C2044.59 747.307 2054.27 789.991 2076.46 828.625C2081.94 838.177 2093.78 854.124 2108.33 854.966C2129.4 856.182 2137.3 846.207 2163.57 853.196C2210.15 865.587 2252.87 952.799 2270.2 986.228C2374.67 1187.72 2466.62 1409.52 2412.26 1617.22C2377.05 1751.74 2327.26 1883.58 2280.59 2014.72C2250.26 2099.95 2214.52 2184.45 2200.14 2273.45C2180.74 2393.56 2150.34 2515.58 2133.67 2635.97C2133.26 2638.92 2133.09 2641.75 2133.87 2644.75L2021.37 2623.55C2023.1 2612.78 2027.32 2602.56 2029.22 2591.86C2043.1 2513.54 2045.55 2437.73 2053.48 2359.45C2061.63 2278.95 2106.94 2210.04 2142.5 2137.5C2211.79 1996.18 2273.56 1851.19 2325.32 1703.73C2368.16 1581.72 2392.87 1479.16 2366.81 1347.94C2347.19 1249.14 2305.51 1166.42 2256.47 1074.81C2243.58 1050.73 2207.24 992.96 2172.25 994.394C2162.68 994.78 2144.69 999.721 2136.29 1002.83C2112.97 1011.43 2093.69 1030.63 2073.7 1002.77C2051.52 971.854 2042.71 905.226 2034.71 869.869C2010.85 764.379 1987.41 666.002 1947 562.828C1911.51 472.246 1865.66 383.147 1824.95 293.256C1814.81 270.858 1805.36 243.434 1794.08 222.494C1792.19 219.006 1788.26 207.782 1778.78 210.615C1769.8 213.301 1787.36 244.91 1796.44 266.264C1834.11 354.94 1877.37 443.338 1914.54 533.103C1954.05 628.545 1976.87 723.497 1992.96 821.182C2006 900.296 2016.33 977.819 2027.79 1056.76C2033.2 1094 2033.64 1141.22 2050.1 1176.82C2052.19 1181.37 2058.41 1188.74 2064.68 1189.45C2074.29 1190.54 2092.64 1175.33 2098.3 1169.86C2113.39 1155.29 2128.66 1135.71 2145.4 1122.74C2197.69 1082.26 2238.66 1141.9 2261.04 1177.82C2314.21 1263.2 2339.77 1376.46 2334.5 1467.33C2328.78 1566.07 2286.19 1664.97 2248.43 1757.12C2214.63 1839.61 2179.75 1919.34 2137.3 1998.68C2107.35 2054.65 2072.84 2108.69 2037.22 2162.32C1978.61 2250.55 1919.11 2323.82 1913.01 2430.48C1910 2483.37 1913.55 2535.08 1908.99 2588.42C1908.63 2592.69 1907.32 2597.74 1905.47 2601.71L1779.33 2577.93C1784.83 2560.49 1781.95 2541.95 1784.12 2524.05C1803.82 2361.57 1891.71 2243.92 1991.53 2112.88C2071.54 2007.86 2136 1895.32 2189.09 1777.91C2231.69 1683.69 2274.04 1586.42 2289.12 1484.24C2298.96 1417.59 2290.9 1345.86 2261.94 1279.1C2257.97 1269.94 2249.93 1250.86 2244.21 1243.1C2237.77 1234.37 2217.93 1212.84 2208.39 1206.79C2199.5 1201.15 2193.18 1198.44 2182.14 1200.2C2154.8 1204.54 2130.91 1241.52 2117.31 1259.18C2080.14 1307.46 2045.07 1362.72 1992.28 1401.28C1992.28 1401.28 1980.31 1409.7 1970.85 1412.16C1960.23 1414.91 1954 1414.81 1950.38 1412.58C1945.58 1409.61 1943.2 1400.82 1945.3 1395.44C1965.65 1342.97 1974.27 1271.41 1981.8 1213.7C1999.2 1080.65 1976.57 935.595 1963.91 800.354C1962.8 788.469 1953.7 740.622 1951.13 730.147C1927.81 634.635 1905.02 559.673 1868.1 473.741C1846.9 424.383 1826.36 376.61 1803.52 327.733C1798.96 317.978 1794.82 307.031 1780.66 287.488L1780.73 287.5ZM1502.46 2339.77C1584.77 2282.58 1674.56 2217.91 1686.81 2123.69C1690.91 2092.19 1683.29 2038.54 1663.28 2008.99C1652.38 1992.88 1631.51 1980.73 1608.48 1984.06C1537.35 1994.34 1438.78 2059.24 1396.6 2103.55C1338.98 2164.05 1319.31 2232.35 1295.83 2306.01C1282.79 2346.92 1268.2 2388.15 1262.39 2430.86C1260.49 2444.87 1268.28 2454.28 1286.02 2447.05C1344.05 2423.46 1400.23 2396.5 1454.6 2367.83L1502.47 2339.79L1502.46 2339.77ZM1198.62 108.913C1231.08 152.026 1261.47 191.387 1277.8 239.83C1304.3 318.347 1282 392.4 1291.46 469.558C1298.43 526.289 1325.77 577.307 1314.46 634.33C1311.31 650.295 1302.24 665.423 1300.12 681.697C1296.62 708.544 1303.26 736.937 1327.02 759.209C1386.86 815.282 1474.85 794.707 1540.72 771.637C1628.62 740.864 1660.74 680.842 1658.41 604.651C1655.81 519.916 1631.43 437.733 1603.27 354.484C1597.89 338.584 1594.47 334.126 1586.81 324.945C1561.38 294.394 1533.66 270.66 1497.26 246.787C1485.05 238.772 1471.28 233.221 1462.53 232.766C1461.51 232.712 1459.2 232.92 1458.72 233.583C1455.66 237.825 1457.14 242.42 1460.11 249.412C1467.25 266.196 1474.96 287.43 1480.22 304.315C1494.51 350.156 1494.81 381.96 1485.83 426.914C1481.87 446.78 1472.03 494.894 1446.24 449.276C1408.6 382.726 1437.75 312.996 1411.43 245.623C1402.05 221.608 1364.35 162.709 1339.69 147.013C1294.62 118.311 1244.61 95.3201 1194.01 73.9676C1190.6 72.5335 1188.3 69.1921 1183.35 67.5171C1178.28 65.806 1172.82 65.3562 1167.62 64.2376C1167.39 65.2523 1167.04 66.2676 1167.29 67.3476C1167.65 68.8615 1182.95 86.342 1185.69 89.9915C1189.89 95.6037 1194.08 102.874 1198.62 108.901L1198.62 108.913Z"/>
</mask>
<path d="M1780.73 287.5C1775.86 280.782 1768.58 281.638 1774.56 292.378C1787.89 316.296 1808.56 375.356 1818.91 399.265C1858.15 489.798 1893.69 579.219 1916.05 673.153C1945.79 798.06 1950.96 923.181 1950.01 1047.61C1949.14 1161.19 1925.35 1258.86 1866.65 1359.03C1852.95 1382.41 1837.92 1404.84 1828.09 1429.93C1813.72 1466.64 1797.44 1545.11 1836.31 1579.56C1860.56 1601.07 1901.51 1573.73 1918.82 1561.37C1990.52 1510.09 2053.9 1427.25 2105.74 1361.75C2119.86 1343.9 2152.69 1291 2184.89 1293.47C2211.22 1295.5 2224.94 1320.69 2232.29 1337.91C2245.16 1368.07 2253.88 1418.08 2249.96 1448.54C2234.39 1569.91 2193.67 1672.29 2138.71 1783.31C2075.61 1910.75 1989.81 2025.35 1889.22 2134.67C1835.91 2192.61 1791.36 2243.65 1755.88 2311.83C1723.33 2374.4 1692.71 2442.1 1662.91 2505.61C1655.71 2520.97 1650.68 2537.05 1643.02 2552.24L1523.71 2529.76C1523.63 2522.86 1530.8 2519.39 1534.29 2513.88C1547.51 2493 1562.05 2461.72 1563.96 2437.83C1565.79 2414.91 1550.68 2407.86 1523.86 2413.57C1486.34 2421.55 1413.71 2461.4 1389.45 2483.79C1384.07 2488.77 1379.92 2496.18 1375.43 2501.81L1111.22 2452.02C1121.38 2442.4 1134.46 2435.2 1145.44 2426.13C1230.22 2356.11 1247.69 2250.87 1294.59 2163.73C1346.8 2066.7 1461.46 2008.09 1563.94 1947.76C1593.86 1930.15 1664.41 1881.24 1698.37 1875.51C1734.06 1869.49 1746.48 1902.38 1754.74 1923.69C1769.84 1962.63 1774.35 2007.1 1790.88 2045.03C1796.08 2056.94 1809.52 2069.24 1826.32 2069.12C1831.31 2069.08 1853.66 2059.99 1858.13 2057.16C1906.23 2026.69 1946.6 1984.86 1981.22 1944.55C2074.27 1836.21 2144.42 1701.63 2180.99 1570.89C2188.77 1543.1 2193.19 1526.92 2194.91 1497.61C2195.67 1484.55 2198.47 1458.54 2197.71 1445.37C2196.26 1420.59 2180.83 1381.6 2141.7 1405.08C2118.03 1419.28 2096.61 1444.56 2079.04 1463.3C2040.99 1503.88 2003.55 1544.68 1963.59 1584.44C1932.28 1615.58 1850.01 1701.2 1801.99 1709.45C1776.98 1713.74 1767.79 1687.56 1763.76 1673.04C1746.37 1610.24 1742.95 1528.41 1748.88 1466.41C1752.95 1423.71 1779.46 1382.24 1803.61 1347.14C1864.95 1258.01 1905.92 1167.86 1915.1 1061.71C1926.52 929.725 1921.26 800.748 1891.78 667.672C1869.17 565.612 1828.39 466.019 1784.48 366.979C1780.77 358.629 1772.42 342.119 1761.18 340.328C1749.94 338.536 1758.25 358.79 1761.59 367.9C1764.99 377.161 1772.48 389.57 1776.48 399.409C1872.11 635.199 1921.03 842.695 1865.7 1080.86C1844.94 1170.19 1801.32 1240.23 1740.91 1313.49C1732.41 1323.79 1713.81 1343.58 1706.38 1354.44C1683.85 1387.39 1687.07 1442.39 1687.72 1480.75C1689.64 1592.5 1711.48 1726.34 1645.3 1824.12C1551.5 1962.72 1331.45 2012.08 1245.08 2154.32C1218.42 2198.22 1204.15 2247.75 1178.66 2292.26C1145.58 2350 1096.63 2401.82 1029.4 2436.59L954.392 2422.45C968.42 2415.19 983.404 2408.95 997.234 2401.44C1086.33 2352.98 1119.88 2298.59 1160.48 2221.29C1201.89 2142.43 1229.99 2098.83 1312.35 2044.3C1363.67 2010.33 1420.08 1980.71 1471.03 1946.07C1606.09 1854.3 1647.46 1762.07 1647.89 1615.65C1648.08 1551.45 1631.29 1486.26 1623.43 1422.15C1615.45 1357.14 1640.97 1297.86 1691.53 1252.17C1789.49 1163.63 1849.27 1029.36 1857.72 907.308C1869.11 742.989 1822.24 568.849 1756.41 409.544C1752.46 399.978 1746.64 386.034 1742.27 376.515C1731.96 354.1 1713.52 345.717 1721.75 376.02C1723.36 381.935 1731.28 405.412 1733.68 411.564C1760.65 480.596 1783.15 545.789 1798.26 616.727C1822.28 729.381 1841.39 843.251 1812.11 952.945C1795.25 1016.12 1718.59 1093.35 1671.29 1145.51C1594.65 1230.01 1530.15 1274.92 1553.53 1394.77C1566.77 1462.64 1597.15 1528.79 1603.59 1597.82C1614.37 1713.43 1583.02 1825.22 1487.44 1907.45C1388.6 1992.47 1237.9 2037.68 1157.58 2135.75C1110.18 2193.63 1088.71 2261.59 1030.1 2314.7C1017.66 2325.97 991.771 2339.32 982.606 2348.71C980.002 2351.39 979.886 2355.66 978.902 2356.44C977.513 2357.55 970.869 2355.82 968.964 2356.44C967.793 2356.82 966.829 2359.67 965.052 2360.75C947.801 2371.28 927.86 2378.76 909.006 2386.82C894.523 2393.01 880.019 2399.31 865.719 2405.75L744.694 2382.94C751.777 2379.38 760.795 2376.78 768.691 2374.13C842.719 2349.32 908.28 2330.37 966.856 2285.22C1022.93 2242.02 1054.36 2180.82 1100.45 2132.11C1198.07 2028.98 1366.16 1989.46 1467.45 1889.88C1580.56 1778.66 1582.1 1644.65 1528.98 1503.02C1497.62 1419.42 1445.11 1334.41 1475.62 1249.89C1497.07 1190.45 1531.61 1151.87 1582.53 1108.12C1645.4 1054.12 1730.35 992.765 1762.66 921.479C1789.36 862.55 1785.72 794.041 1778.84 730.646C1768.21 632.794 1748.85 534.795 1715.16 438.664C1710.45 425.205 1703.31 400.618 1696.67 388.859C1695.41 386.635 1687.62 374.446 1685.93 372.378C1678.54 363.297 1669.64 360.551 1662.93 361.826C1654.15 363.494 1663.29 391.767 1667.46 401.274C1712.23 503.117 1726.96 610.021 1727.83 715.054C1728.12 751.185 1720.32 799.885 1701.76 831.256C1685.97 857.964 1655.39 890.392 1632.91 913.876C1601.34 946.895 1574.77 974.831 1541.54 1006.88C1498.46 1048.43 1442.67 1075.95 1405.28 1123.79C1379.89 1156.27 1350.29 1218.05 1358.5 1257.94C1361.4 1272.03 1369.49 1300.05 1373.99 1314C1400.41 1395.83 1459.18 1470.15 1491.66 1551.48C1560.24 1723.26 1509.32 1861.44 1336.55 1958.9C1255.92 2004.38 1161.38 2038.03 1084.61 2087.46C1030.86 2122.08 988.567 2166.36 939.756 2204.25C910.019 2227.34 877.299 2248.59 839.275 2264.56C796.372 2282.59 752.279 2293.36 707.854 2307.71C670.414 2319.8 632.675 2333.05 604.951 2356.59C604.951 2356.59 509.225 2345.38 512.908 2339.25C516.59 2333.11 522.113 2327.91 526.806 2322.32C594.15 2242.23 700.118 2233.72 798.237 2189.42C887.287 2149.21 964.398 2096.3 1053.67 2054.47C1113.17 2026.59 1176.62 2005.4 1236.63 1978.66C1310.39 1945.79 1380.14 1907.53 1426.6 1850.54C1476.96 1788.77 1493.57 1702.06 1464.79 1626.6C1436.44 1552.27 1396.35 1474.88 1343.09 1408.91C1313.69 1372.51 1234.9 1302.12 1226.1 1265.74C1216.31 1225.34 1233.32 1172.79 1184.97 1142.19C1169.66 1132.49 1134.84 1132.41 1116.45 1133.55C1042.73 1138.12 991.315 1174.51 932.085 1201.46C893.499 1219.03 852.953 1231.86 817.952 1254.42C732.459 1309.52 744.53 1363.64 722.347 1443.66C708.888 1492.19 677.95 1533.75 652.024 1577.24C604.27 1657.38 547 1780.44 422.342 1798.75C386.973 1803.95 349.198 1795.19 320.171 1775.88C245.226 1726.02 243.741 1650.28 234.531 1582.54C230.3 1551.39 224.986 1520.33 224.88 1489.22C224.335 1338.53 298.826 1198.15 232.424 1046.13C204.826 982.947 194.352 920.964 190.775 855.712C187.194 790.572 175.611 778.763 144.145 719.568C108.961 653.392 107.03 610.207 95.4497 543.044C79.5137 450.611 22.4862 370.68 4.54934 281.381C-26.6654 125.92 104.939 58.1346 217.34 -37.2288L305.702 -115.819L373.025 -103.131C369.819 -100.652 365.924 -98.9578 362.82 -96.3216C266.073 -14.0518 74.4862 64.2236 42.3549 180.503C14.5927 280.996 78.8911 363.505 112.937 459.654C135.72 524.02 131.032 593.012 163.299 655.441C192.836 712.6 255.515 751.756 275.075 814.257C287.101 852.688 279.949 896.816 295.4 934.131C305.328 958.111 327.36 984.523 339.629 1008.79C358.865 1046.82 361.721 1085.79 365.277 1124.79C370.68 1184 363.511 1239.71 361.404 1298.31C359.655 1347.1 359.601 1378.8 347.564 1427.09C332.721 1486.7 317.746 1594.7 356.129 1653.57C392.579 1709.46 453.294 1687.59 489.896 1654.19C526.498 1620.78 580.773 1526.49 596.381 1483.44C610.288 1445.07 604.151 1405.58 612.985 1367.41C626.273 1309.95 726.39 1215.99 790.531 1188.99C848.955 1164.4 898.166 1152.68 950.959 1119.68C1025.7 1072.96 1078.15 1036.85 1167.14 1003.42C1200.97 990.706 1260.55 977.496 1274.76 946.352C1301.67 887.486 1214.55 839.547 1189.57 788.431C1156.36 720.476 1225.83 659.165 1217.53 590.907C1215.79 576.689 1209.28 560.765 1206.72 546.679C1187.29 440.009 1255.7 346.674 1207.36 238.734C1192.07 204.583 1165.84 173.718 1142.17 142.681C1115.34 107.525 1087.06 71.0629 1059.33 36.1287L1044.61 23.4645L1789.5 163.849C1791.93 172.297 1795.39 180.914 1799.17 189.126C1821.43 237.464 1842.28 285.901 1864.87 333.382C1900.1 407.417 1940.3 480.277 1972.12 554.828C1993.47 604.869 2011.73 655.913 2029.96 706.611C2044.59 747.307 2054.27 789.991 2076.46 828.625C2081.94 838.177 2093.78 854.124 2108.33 854.966C2129.4 856.182 2137.3 846.207 2163.57 853.196C2210.15 865.587 2252.87 952.799 2270.2 986.228C2374.67 1187.72 2466.62 1409.52 2412.26 1617.22C2377.05 1751.74 2327.26 1883.58 2280.59 2014.72C2250.26 2099.95 2214.52 2184.45 2200.14 2273.45C2180.74 2393.56 2150.34 2515.58 2133.67 2635.97C2133.26 2638.92 2133.09 2641.75 2133.87 2644.75L2021.37 2623.55C2023.1 2612.78 2027.32 2602.56 2029.22 2591.86C2043.1 2513.54 2045.55 2437.73 2053.48 2359.45C2061.63 2278.95 2106.94 2210.04 2142.5 2137.5C2211.79 1996.18 2273.56 1851.19 2325.32 1703.73C2368.16 1581.72 2392.87 1479.16 2366.81 1347.94C2347.19 1249.14 2305.51 1166.42 2256.47 1074.81C2243.58 1050.73 2207.24 992.96 2172.25 994.394C2162.68 994.78 2144.69 999.721 2136.29 1002.83C2112.97 1011.43 2093.69 1030.63 2073.7 1002.77C2051.52 971.854 2042.71 905.226 2034.71 869.869C2010.85 764.379 1987.41 666.002 1947 562.828C1911.51 472.246 1865.66 383.147 1824.95 293.256C1814.81 270.858 1805.36 243.434 1794.08 222.494C1792.19 219.006 1788.26 207.782 1778.78 210.615C1769.8 213.301 1787.36 244.91 1796.44 266.264C1834.11 354.94 1877.37 443.338 1914.54 533.103C1954.05 628.545 1976.87 723.497 1992.96 821.182C2006 900.296 2016.33 977.819 2027.79 1056.76C2033.2 1094 2033.64 1141.22 2050.1 1176.82C2052.19 1181.37 2058.41 1188.74 2064.68 1189.45C2074.29 1190.54 2092.64 1175.33 2098.3 1169.86C2113.39 1155.29 2128.66 1135.71 2145.4 1122.74C2197.69 1082.26 2238.66 1141.9 2261.04 1177.82C2314.21 1263.2 2339.77 1376.46 2334.5 1467.33C2328.78 1566.07 2286.19 1664.97 2248.43 1757.12C2214.63 1839.61 2179.75 1919.34 2137.3 1998.68C2107.35 2054.65 2072.84 2108.69 2037.22 2162.32C1978.61 2250.55 1919.11 2323.82 1913.01 2430.48C1910 2483.37 1913.55 2535.08 1908.99 2588.42C1908.63 2592.69 1907.32 2597.74 1905.47 2601.71L1779.33 2577.93C1784.83 2560.49 1781.95 2541.95 1784.12 2524.05C1803.82 2361.57 1891.71 2243.92 1991.53 2112.88C2071.54 2007.86 2136 1895.32 2189.09 1777.91C2231.69 1683.69 2274.04 1586.42 2289.12 1484.24C2298.96 1417.59 2290.9 1345.86 2261.94 1279.1C2257.97 1269.94 2249.93 1250.86 2244.21 1243.1C2237.77 1234.37 2217.93 1212.84 2208.39 1206.79C2199.5 1201.15 2193.18 1198.44 2182.14 1200.2C2154.8 1204.54 2130.91 1241.52 2117.31 1259.18C2080.14 1307.46 2045.07 1362.72 1992.28 1401.28C1992.28 1401.28 1980.31 1409.7 1970.85 1412.16C1960.23 1414.91 1954 1414.81 1950.38 1412.58C1945.58 1409.61 1943.2 1400.82 1945.3 1395.44C1965.65 1342.97 1974.27 1271.41 1981.8 1213.7C1999.2 1080.65 1976.57 935.595 1963.91 800.354C1962.8 788.469 1953.7 740.622 1951.13 730.147C1927.81 634.635 1905.02 559.673 1868.1 473.741C1846.9 424.383 1826.36 376.61 1803.52 327.733C1798.96 317.978 1794.82 307.031 1780.66 287.488L1780.73 287.5ZM1502.46 2339.77C1584.77 2282.58 1674.56 2217.91 1686.81 2123.69C1690.91 2092.19 1683.29 2038.54 1663.28 2008.99C1652.38 1992.88 1631.51 1980.73 1608.48 1984.06C1537.35 1994.34 1438.78 2059.24 1396.6 2103.55C1338.98 2164.05 1319.31 2232.35 1295.83 2306.01C1282.79 2346.92 1268.2 2388.15 1262.39 2430.86C1260.49 2444.87 1268.28 2454.28 1286.02 2447.05C1344.05 2423.46 1400.23 2396.5 1454.6 2367.83L1502.47 2339.79L1502.46 2339.77ZM1198.62 108.913C1231.08 152.026 1261.47 191.387 1277.8 239.83C1304.3 318.347 1282 392.4 1291.46 469.558C1298.43 526.289 1325.77 577.307 1314.46 634.33C1311.31 650.295 1302.24 665.423 1300.12 681.697C1296.62 708.544 1303.26 736.937 1327.02 759.209C1386.86 815.282 1474.85 794.707 1540.72 771.637C1628.62 740.864 1660.74 680.842 1658.41 604.651C1655.81 519.916 1631.43 437.733 1603.27 354.484C1597.89 338.584 1594.47 334.126 1586.81 324.945C1561.38 294.394 1533.66 270.66 1497.26 246.787C1485.05 238.772 1471.28 233.221 1462.53 232.766C1461.51 232.712 1459.2 232.92 1458.72 233.583C1455.66 237.825 1457.14 242.42 1460.11 249.412C1467.25 266.196 1474.96 287.43 1480.22 304.315C1494.51 350.156 1494.81 381.96 1485.83 426.914C1481.87 446.78 1472.03 494.894 1446.24 449.276C1408.6 382.726 1437.75 312.996 1411.43 245.623C1402.05 221.608 1364.35 162.709 1339.69 147.013C1294.62 118.311 1244.61 95.3201 1194.01 73.9676C1190.6 72.5335 1188.3 69.1921 1183.35 67.5171C1178.28 65.806 1172.82 65.3562 1167.62 64.2376C1167.39 65.2523 1167.04 66.2676 1167.29 67.3476C1167.65 68.8615 1182.95 86.342 1185.69 89.9915C1189.89 95.6037 1194.08 102.874 1198.62 108.901L1198.62 108.913Z" fill="#FEF2CE" stroke="black" stroke-width="2" mask="url(#path-1-inside-1_2026_87)"/>
</mask>
<g mask="url(#mask1_2026_87)">
<path d="M2002.36 -118.12C2002.36 -118.12 2394.72 1446.97 1644.52 1780.61C894.311 2114.25 -407.114 1952.02 -407.114 1952.02L52.2983 -485.637L2002.36 -118.12Z" fill="#FEF2CE"/>
</g>
</g>
</mask>
<g mask="url(#mask0_2026_87)">
<path d="M0 0H349V548H1300V1800H0V0Z" fill="#FEF2CE"/>
</g>
<defs>
<clipPath id="clip0_2026_87">
<rect width="1300" height="1800" fill="white"/>
</clipPath>
</defs>
</svg>
