<svg width="1300" height="1820" viewBox="0 0 1300 1820" fill="none" xmlns="http://www.w3.org/2000/svg">
<mask id="mask0_2026_87" style="mask-type:alpha" maskUnits="userSpaceOnUse" x="0" y="0" width="1300" height="1820">
<g clip-path="url(#clip0_2026_87)">
<mask id="mask1_2026_87" style="mask-type:alpha" maskUnits="userSpaceOnUse" x="-1" y="-96" width="2430" height="2761">
<mask id="path-1-inside-1_2026_87" fill="white">
<path d="M1780.72 307.496C1775.86 300.778 1768.58 301.634 1774.56 312.374C1787.89 336.292 1808.56 395.352 1818.91 419.261C1858.15 509.794 1893.69 599.215 1916.05 693.149C1945.79 818.056 1950.96 943.178 1950.01 1067.61C1949.14 1181.19 1925.35 1278.86 1866.65 1379.03C1852.95 1402.41 1837.91 1424.84 1828.09 1449.93C1813.72 1486.63 1797.44 1565.11 1836.31 1599.56C1860.56 1621.07 1901.51 1593.73 1918.82 1581.36C1990.52 1530.08 2053.9 1447.25 2105.74 1381.75C2119.86 1363.9 2152.69 1310.99 2184.89 1313.46C2211.22 1315.49 2224.94 1340.69 2232.29 1357.91C2245.15 1388.06 2253.88 1438.08 2249.96 1468.53C2234.38 1589.91 2193.67 1692.29 2138.7 1803.31C2075.61 1930.74 1989.8 2045.35 1889.22 2154.67C1835.91 2212.61 1791.36 2263.64 1755.88 2331.83C1723.33 2394.4 1692.71 2462.1 1662.91 2525.61C1655.7 2540.97 1650.67 2557.05 1643.02 2572.24L1523.71 2549.75C1523.63 2542.86 1530.79 2539.39 1534.29 2533.88C1547.51 2512.99 1562.05 2481.72 1563.96 2457.83C1565.79 2434.91 1550.68 2427.86 1523.86 2433.56C1486.34 2441.54 1413.71 2481.4 1389.45 2503.79C1384.07 2508.76 1379.92 2516.17 1375.43 2521.81L1111.22 2472.02C1121.38 2462.39 1134.46 2455.19 1145.44 2446.12C1230.22 2376.11 1247.69 2270.87 1294.58 2183.72C1346.8 2086.69 1461.46 2028.08 1563.94 1967.76C1593.86 1950.14 1664.41 1901.24 1698.37 1895.51C1734.06 1889.49 1746.47 1922.38 1754.74 1943.68C1769.84 1982.63 1774.35 2027.09 1790.88 2065.03C1796.08 2076.94 1809.52 2089.24 1826.32 2089.12C1831.31 2089.08 1853.66 2079.99 1858.13 2077.16C1906.23 2046.69 1946.6 2004.85 1981.22 1964.54C2074.27 1856.21 2144.42 1721.63 2180.99 1590.88C2188.77 1563.09 2193.19 1546.91 2194.91 1517.6C2195.67 1504.55 2198.47 1478.54 2197.7 1465.37C2196.26 1440.58 2180.83 1401.6 2141.7 1425.08C2118.03 1439.28 2096.61 1464.56 2079.04 1483.3C2040.98 1523.88 2003.55 1564.68 1963.58 1604.43C1932.28 1635.58 1850 1721.19 1801.99 1729.45C1776.97 1733.74 1767.79 1707.56 1763.75 1693.03C1746.37 1630.24 1742.94 1548.4 1748.87 1486.4C1752.95 1443.71 1779.46 1402.24 1803.61 1367.14C1864.95 1278 1905.91 1187.85 1915.1 1081.71C1926.52 949.721 1921.26 820.744 1891.78 687.668C1869.16 585.608 1828.39 486.015 1784.47 386.975C1780.77 378.625 1772.42 362.115 1761.17 360.324C1749.93 358.533 1758.25 378.787 1761.59 387.896C1764.99 397.157 1772.48 409.566 1776.48 419.405C1872.1 655.195 1921.03 862.691 1865.7 1100.86C1844.94 1190.19 1801.32 1260.23 1740.91 1333.49C1732.41 1343.79 1713.8 1363.57 1706.38 1374.43C1683.85 1407.38 1687.06 1462.39 1687.72 1500.75C1689.64 1612.5 1711.48 1746.34 1645.3 1844.12C1551.5 1982.71 1331.44 2032.08 1245.08 2174.32C1218.42 2218.22 1204.15 2267.75 1178.65 2312.26C1145.58 2370 1096.62 2421.81 1029.39 2456.58L954.39 2442.45C968.419 2435.19 983.402 2428.95 997.232 2421.44C1086.33 2372.97 1119.88 2318.58 1160.48 2241.28C1201.89 2162.43 1229.98 2118.82 1312.35 2064.29C1363.67 2030.33 1420.08 2000.7 1471.03 1966.06C1606.09 1874.29 1647.46 1782.06 1647.88 1635.65C1648.08 1571.45 1631.29 1506.26 1623.43 1442.15C1615.44 1377.14 1640.96 1317.86 1691.53 1272.16C1789.49 1183.63 1849.26 1049.35 1857.72 927.304C1869.11 762.985 1822.24 588.845 1756.41 429.54C1752.46 419.974 1746.64 406.03 1742.27 396.511C1731.96 374.096 1713.52 365.713 1721.75 396.016C1723.36 401.931 1731.28 425.408 1733.68 431.56C1760.65 500.592 1783.15 565.785 1798.26 636.723C1822.28 749.377 1841.39 863.247 1812.11 972.941C1795.25 1036.12 1718.59 1113.35 1671.29 1165.5C1594.65 1250 1530.15 1294.91 1553.53 1414.77C1566.76 1482.64 1597.15 1548.79 1603.59 1617.81C1614.37 1733.42 1583.02 1845.22 1487.44 1927.44C1388.6 2012.46 1237.9 2057.67 1157.57 2155.75C1110.18 2213.62 1088.71 2281.59 1030.09 2334.69C1017.66 2345.96 991.77 2359.32 982.605 2368.7C980.001 2371.38 979.885 2375.65 978.901 2376.43C977.511 2377.54 970.867 2375.81 968.962 2376.44C967.791 2376.82 966.828 2379.67 965.051 2380.75C947.799 2391.27 927.858 2398.75 909.005 2406.81C894.522 2413 880.018 2419.31 865.717 2425.75L744.692 2402.94C751.775 2399.38 760.794 2396.77 768.689 2394.12C842.717 2369.32 908.279 2350.37 966.854 2305.22C1022.93 2262.02 1054.36 2200.81 1100.45 2152.11C1198.07 2048.97 1366.16 2009.46 1467.45 1909.87C1580.56 1798.66 1582.1 1664.65 1528.98 1523.02C1497.62 1439.42 1445.11 1354.41 1475.62 1269.89C1497.07 1210.45 1531.61 1171.87 1582.53 1128.11C1645.4 1074.11 1730.35 1012.76 1762.66 941.475C1789.36 882.546 1785.72 814.037 1778.84 750.642C1768.21 652.79 1748.84 554.791 1715.16 458.66C1710.44 445.201 1703.3 420.614 1696.66 408.855C1695.41 406.631 1687.62 394.442 1685.93 392.374C1678.54 383.293 1669.64 380.547 1662.93 381.822C1654.15 383.49 1663.28 411.763 1667.46 421.27C1712.23 523.113 1726.96 630.017 1727.83 735.05C1728.12 771.181 1720.32 819.881 1701.76 851.252C1685.97 877.96 1655.39 910.388 1632.91 933.872C1601.33 966.891 1574.77 994.827 1541.54 1026.88C1498.46 1068.43 1442.67 1095.94 1405.28 1143.78C1379.89 1176.27 1350.29 1238.05 1358.5 1277.94C1361.4 1292.03 1369.49 1320.05 1373.99 1334C1400.41 1415.82 1459.18 1490.14 1491.66 1571.47C1560.24 1743.25 1509.32 1881.43 1336.55 1978.9C1255.92 2024.38 1161.38 2058.03 1084.61 2107.46C1030.86 2142.07 988.566 2186.36 939.755 2224.25C910.018 2247.33 877.297 2268.59 839.274 2284.56C796.371 2302.59 752.277 2313.35 707.852 2327.7C670.413 2339.8 632.674 2353.05 604.95 2376.59C604.95 2376.59 509.224 2365.38 512.906 2359.24C516.589 2353.1 522.111 2347.9 526.804 2342.32C594.148 2262.22 700.117 2253.72 798.235 2209.42C887.285 2169.21 964.396 2116.3 1053.67 2074.47C1113.17 2046.59 1176.61 2025.4 1236.62 1998.66C1310.39 1965.79 1380.14 1927.53 1426.6 1870.54C1476.96 1808.77 1493.57 1722.05 1464.79 1646.59C1436.44 1572.27 1396.35 1494.87 1343.08 1428.9C1313.68 1392.51 1234.9 1322.12 1226.1 1285.74C1216.31 1245.34 1233.32 1192.79 1184.97 1162.18C1169.65 1152.49 1134.84 1152.41 1116.45 1153.55C1042.73 1158.12 991.314 1194.51 932.084 1221.46C893.498 1239.03 852.951 1251.86 817.951 1274.42C732.458 1329.51 744.529 1383.63 722.346 1463.66C708.887 1512.18 677.948 1553.74 652.023 1597.24C604.268 1677.38 546.999 1800.44 422.341 1818.74C386.971 1823.94 349.197 1815.19 320.169 1795.88C245.224 1746.02 243.739 1670.27 234.53 1602.54C230.298 1571.39 224.984 1540.33 224.879 1509.21C224.333 1358.53 298.824 1218.14 232.423 1066.13C204.825 1002.94 194.351 940.96 190.774 875.708C187.192 810.568 175.61 798.759 144.144 739.564C108.959 673.388 107.029 630.203 95.4482 563.041C79.5122 470.607 22.4848 390.677 4.54788 301.377C-26.6669 145.916 104.938 78.1307 217.338 -17.2327L305.701 -95.823L373.023 -83.1351C369.817 -80.6564 365.923 -78.9617 362.819 -76.3255C266.071 5.94426 74.4848 84.2197 42.3534 200.499C14.5912 300.992 78.8896 383.502 112.936 479.65C135.719 544.017 131.031 613.008 163.298 675.437C192.835 732.596 255.513 771.752 275.073 834.253C287.1 872.684 279.947 916.812 295.399 954.127C305.327 978.107 327.359 1004.52 339.627 1028.79C358.863 1066.82 361.719 1105.79 365.275 1144.78C370.678 1204 363.51 1259.7 361.402 1318.31C359.654 1367.09 359.599 1398.79 347.563 1447.08C332.719 1506.7 317.744 1614.7 356.128 1673.56C392.578 1729.46 453.293 1707.59 489.895 1674.18C526.497 1640.78 580.772 1546.49 596.38 1503.44C610.287 1465.06 604.149 1425.58 612.984 1387.4C626.272 1329.95 726.388 1235.98 790.53 1208.99C848.954 1184.4 898.164 1172.67 950.957 1139.67C1025.7 1092.96 1078.15 1056.85 1167.14 1023.41C1200.97 1010.7 1260.54 997.493 1274.76 966.348C1301.66 907.482 1214.55 859.543 1189.56 808.427C1156.35 740.472 1225.83 679.161 1217.52 610.903C1215.79 596.685 1209.28 580.761 1206.72 566.676C1187.29 460.005 1255.7 366.67 1207.36 258.731C1192.07 224.579 1165.84 193.714 1142.17 162.677C1115.34 127.522 1087.05 91.059 1059.33 56.1248L1044.61 43.4606L1789.5 183.845C1791.92 192.293 1795.38 200.91 1799.17 209.122C1821.43 257.46 1842.28 305.897 1864.87 353.378C1900.09 427.414 1940.3 500.273 1972.12 574.824C1993.47 624.865 2011.73 675.909 2029.95 726.607C2044.59 767.304 2054.27 809.987 2076.46 848.622C2081.94 858.173 2093.78 874.12 2108.33 874.962C2129.4 876.178 2137.3 866.203 2163.57 873.192C2210.15 885.583 2252.87 972.795 2270.2 1006.22C2374.67 1207.72 2466.62 1429.51 2412.26 1637.21C2377.05 1771.74 2327.26 1903.57 2280.59 2034.72C2250.26 2119.94 2214.52 2204.45 2200.14 2293.45C2180.73 2413.56 2150.34 2535.58 2133.67 2655.97C2133.26 2658.92 2133.09 2661.74 2133.87 2664.75L2021.36 2643.54C2023.1 2632.77 2027.32 2622.56 2029.22 2611.86C2043.1 2533.54 2045.54 2457.73 2053.48 2379.44C2061.63 2298.95 2106.94 2230.04 2142.5 2157.49C2211.79 2016.18 2273.56 1871.18 2325.32 1723.72C2368.16 1601.72 2392.87 1499.15 2366.81 1367.93C2347.19 1269.14 2305.51 1186.42 2256.47 1094.8C2243.58 1070.73 2207.24 1012.96 2172.25 1014.39C2162.68 1014.78 2144.69 1019.72 2136.28 1022.83C2112.97 1031.43 2093.69 1050.62 2073.7 1022.77C2051.52 991.85 2042.7 925.222 2034.71 889.865C2010.85 784.376 1987.41 685.998 1947 582.824C1911.51 492.242 1865.65 403.143 1824.95 313.252C1814.81 290.854 1805.36 263.43 1794.07 242.49C1792.19 239.002 1788.25 227.778 1778.78 230.611C1769.8 233.297 1787.36 264.906 1796.44 286.26C1834.1 374.937 1877.37 463.334 1914.54 553.1C1954.04 648.541 1976.87 743.493 1992.96 841.178C2006 920.292 2016.33 997.815 2027.79 1076.76C2033.2 1113.99 2033.63 1161.21 2050.1 1196.82C2052.19 1201.36 2058.41 1208.74 2064.67 1209.44C2074.29 1210.54 2092.64 1195.32 2098.29 1189.86C2113.39 1175.29 2128.66 1155.7 2145.4 1142.74C2197.69 1102.26 2238.66 1161.9 2261.03 1197.81C2314.21 1283.2 2339.77 1396.46 2334.5 1487.32C2328.78 1586.07 2286.18 1684.96 2248.43 1777.12C2214.63 1859.61 2179.75 1939.33 2137.29 2018.67C2107.34 2074.65 2072.84 2128.68 2037.21 2182.32C1978.6 2270.54 1919.11 2343.82 1913.01 2450.48C1910 2503.37 1913.55 2555.07 1908.99 2608.41C1908.63 2612.68 1907.32 2617.73 1905.47 2621.7L1779.33 2597.93C1784.83 2580.48 1781.95 2561.94 1784.12 2544.05C1803.82 2381.57 1891.71 2263.92 1991.53 2132.88C2071.54 2027.86 2135.99 1915.32 2189.08 1797.91C2231.69 1703.68 2274.04 1606.42 2289.12 1504.24C2298.96 1437.59 2290.89 1365.86 2261.94 1299.09C2257.97 1289.94 2249.93 1270.86 2244.2 1263.1C2237.76 1254.37 2217.93 1232.84 2208.39 1226.79C2199.5 1221.15 2193.17 1218.43 2182.13 1220.19C2154.8 1224.54 2130.9 1261.51 2117.31 1279.17C2080.14 1327.46 2045.07 1382.72 1992.28 1421.28C1992.28 1421.28 1980.31 1429.69 1970.85 1432.15C1960.23 1434.91 1954 1434.8 1950.38 1432.57C1945.58 1429.6 1943.2 1420.81 1945.3 1415.43C1965.65 1362.97 1974.27 1291.41 1981.8 1233.7C1999.2 1100.65 1976.57 955.591 1963.91 820.35C1962.8 808.465 1953.7 760.619 1951.13 750.143C1927.8 654.631 1905.02 579.669 1868.1 493.737C1846.89 444.379 1826.36 396.606 1803.51 347.729C1798.96 337.974 1794.82 327.027 1780.66 307.485L1780.72 307.496ZM1502.46 2359.77C1584.77 2302.57 1674.56 2237.91 1686.81 2143.69C1690.91 2112.18 1683.29 2058.54 1663.28 2028.99C1652.38 2012.87 1631.51 2000.73 1608.48 2004.06C1537.35 2014.34 1438.78 2079.24 1396.6 2123.55C1338.98 2184.05 1319.3 2252.34 1295.83 2326.01C1282.79 2366.91 1268.2 2408.14 1262.39 2450.85C1260.49 2464.86 1268.28 2474.27 1286.02 2467.05C1344.05 2443.45 1400.23 2416.49 1454.6 2387.83L1502.47 2359.78L1502.46 2359.77ZM1198.62 128.909C1231.08 172.022 1261.46 211.383 1277.8 259.826C1304.3 338.344 1282 412.396 1291.46 489.554C1298.43 546.285 1325.77 597.303 1314.46 654.326C1311.3 670.291 1302.24 685.419 1300.12 701.693C1296.62 728.54 1303.26 756.934 1327.02 779.205C1386.86 835.278 1474.85 814.703 1540.72 791.633C1628.62 760.86 1660.74 700.839 1658.41 624.647C1655.81 539.912 1631.43 457.729 1603.27 374.48C1597.89 358.58 1594.46 354.122 1586.81 344.941C1561.38 314.39 1533.66 290.656 1497.26 266.783C1485.04 258.768 1471.28 253.217 1462.53 252.762C1461.51 252.708 1459.2 252.916 1458.72 253.579C1455.65 257.821 1457.13 262.416 1460.11 269.408C1467.25 286.192 1474.96 307.426 1480.22 324.311C1494.51 370.152 1494.81 401.957 1485.83 446.91C1481.87 466.776 1472.03 514.89 1446.24 469.272C1408.6 402.722 1437.75 332.992 1411.43 265.619C1402.05 241.604 1364.35 182.705 1339.69 167.009C1294.62 138.307 1244.61 115.316 1194 93.9637C1190.6 92.5296 1188.3 89.1882 1183.35 87.5132C1178.27 85.8021 1172.82 85.3523 1167.61 84.2336C1167.39 85.2484 1167.04 86.2637 1167.29 87.3437C1167.64 88.8576 1182.95 106.338 1185.69 109.988C1189.89 115.6 1194.08 122.87 1198.62 128.897L1198.62 128.909Z"/>
</mask>
<path d="M1780.72 307.496C1775.86 300.778 1768.58 301.634 1774.56 312.374C1787.89 336.292 1808.56 395.352 1818.91 419.261C1858.15 509.794 1893.69 599.215 1916.05 693.149C1945.79 818.056 1950.96 943.178 1950.01 1067.61C1949.14 1181.19 1925.35 1278.86 1866.65 1379.03C1852.95 1402.41 1837.91 1424.84 1828.09 1449.93C1813.72 1486.63 1797.44 1565.11 1836.31 1599.56C1860.56 1621.07 1901.51 1593.73 1918.82 1581.36C1990.52 1530.08 2053.9 1447.25 2105.74 1381.75C2119.86 1363.9 2152.69 1310.99 2184.89 1313.46C2211.22 1315.49 2224.94 1340.69 2232.29 1357.91C2245.15 1388.06 2253.88 1438.08 2249.96 1468.53C2234.38 1589.91 2193.67 1692.29 2138.7 1803.31C2075.61 1930.74 1989.8 2045.35 1889.22 2154.67C1835.91 2212.61 1791.36 2263.64 1755.88 2331.83C1723.33 2394.4 1692.71 2462.1 1662.91 2525.61C1655.7 2540.97 1650.67 2557.05 1643.02 2572.24L1523.71 2549.75C1523.63 2542.86 1530.79 2539.39 1534.29 2533.88C1547.51 2512.99 1562.05 2481.72 1563.96 2457.83C1565.79 2434.91 1550.68 2427.86 1523.86 2433.56C1486.34 2441.54 1413.71 2481.4 1389.45 2503.79C1384.07 2508.76 1379.92 2516.17 1375.43 2521.81L1111.22 2472.02C1121.38 2462.39 1134.46 2455.19 1145.44 2446.12C1230.22 2376.11 1247.69 2270.87 1294.58 2183.72C1346.8 2086.69 1461.46 2028.08 1563.94 1967.76C1593.86 1950.14 1664.41 1901.24 1698.37 1895.51C1734.06 1889.49 1746.47 1922.38 1754.74 1943.68C1769.84 1982.63 1774.35 2027.09 1790.88 2065.03C1796.08 2076.94 1809.52 2089.24 1826.32 2089.12C1831.31 2089.08 1853.66 2079.99 1858.13 2077.16C1906.23 2046.69 1946.6 2004.85 1981.22 1964.54C2074.27 1856.21 2144.42 1721.63 2180.99 1590.88C2188.77 1563.09 2193.19 1546.91 2194.91 1517.6C2195.67 1504.55 2198.47 1478.54 2197.7 1465.37C2196.26 1440.58 2180.83 1401.6 2141.7 1425.08C2118.03 1439.28 2096.61 1464.56 2079.04 1483.3C2040.98 1523.88 2003.55 1564.68 1963.58 1604.43C1932.28 1635.58 1850 1721.19 1801.99 1729.45C1776.97 1733.74 1767.79 1707.56 1763.75 1693.03C1746.37 1630.24 1742.94 1548.4 1748.87 1486.4C1752.95 1443.71 1779.46 1402.24 1803.61 1367.14C1864.95 1278 1905.91 1187.85 1915.1 1081.71C1926.52 949.721 1921.26 820.744 1891.78 687.668C1869.16 585.608 1828.39 486.015 1784.47 386.975C1780.77 378.625 1772.42 362.115 1761.17 360.324C1749.93 358.533 1758.25 378.787 1761.59 387.896C1764.99 397.157 1772.48 409.566 1776.48 419.405C1872.1 655.195 1921.03 862.691 1865.7 1100.86C1844.94 1190.19 1801.32 1260.23 1740.91 1333.49C1732.41 1343.79 1713.8 1363.57 1706.38 1374.43C1683.85 1407.38 1687.06 1462.39 1687.72 1500.75C1689.64 1612.5 1711.48 1746.34 1645.3 1844.12C1551.5 1982.71 1331.44 2032.08 1245.08 2174.32C1218.42 2218.22 1204.15 2267.75 1178.65 2312.26C1145.58 2370 1096.62 2421.81 1029.39 2456.58L954.39 2442.45C968.419 2435.19 983.402 2428.95 997.232 2421.44C1086.33 2372.97 1119.88 2318.58 1160.48 2241.28C1201.89 2162.43 1229.98 2118.82 1312.35 2064.29C1363.67 2030.33 1420.08 2000.7 1471.03 1966.06C1606.09 1874.29 1647.46 1782.06 1647.88 1635.65C1648.08 1571.45 1631.29 1506.26 1623.43 1442.15C1615.44 1377.14 1640.96 1317.86 1691.53 1272.16C1789.49 1183.63 1849.26 1049.35 1857.72 927.304C1869.11 762.985 1822.24 588.845 1756.41 429.54C1752.46 419.974 1746.64 406.03 1742.27 396.511C1731.96 374.096 1713.52 365.713 1721.75 396.016C1723.36 401.931 1731.28 425.408 1733.68 431.56C1760.65 500.592 1783.15 565.785 1798.26 636.723C1822.28 749.377 1841.39 863.247 1812.11 972.941C1795.25 1036.12 1718.59 1113.35 1671.29 1165.5C1594.65 1250 1530.15 1294.91 1553.53 1414.77C1566.76 1482.64 1597.15 1548.79 1603.59 1617.81C1614.37 1733.42 1583.02 1845.22 1487.44 1927.44C1388.6 2012.46 1237.9 2057.67 1157.57 2155.75C1110.18 2213.62 1088.71 2281.59 1030.09 2334.69C1017.66 2345.96 991.77 2359.32 982.605 2368.7C980.001 2371.38 979.885 2375.65 978.901 2376.43C977.511 2377.54 970.867 2375.81 968.962 2376.44C967.791 2376.82 966.828 2379.67 965.051 2380.75C947.799 2391.27 927.858 2398.75 909.005 2406.81C894.522 2413 880.018 2419.31 865.717 2425.75L744.692 2402.94C751.775 2399.38 760.794 2396.77 768.689 2394.12C842.717 2369.32 908.279 2350.37 966.854 2305.22C1022.93 2262.02 1054.36 2200.81 1100.45 2152.11C1198.07 2048.97 1366.16 2009.46 1467.45 1909.87C1580.56 1798.66 1582.1 1664.65 1528.98 1523.02C1497.62 1439.42 1445.11 1354.41 1475.62 1269.89C1497.07 1210.45 1531.61 1171.87 1582.53 1128.11C1645.4 1074.11 1730.35 1012.76 1762.66 941.475C1789.36 882.546 1785.72 814.037 1778.84 750.642C1768.21 652.79 1748.84 554.791 1715.16 458.66C1710.44 445.201 1703.3 420.614 1696.66 408.855C1695.41 406.631 1687.62 394.442 1685.93 392.374C1678.54 383.293 1669.64 380.547 1662.93 381.822C1654.15 383.49 1663.28 411.763 1667.46 421.27C1712.23 523.113 1726.96 630.017 1727.83 735.05C1728.12 771.181 1720.32 819.881 1701.76 851.252C1685.97 877.96 1655.39 910.388 1632.91 933.872C1601.33 966.891 1574.77 994.827 1541.54 1026.88C1498.46 1068.43 1442.67 1095.94 1405.28 1143.78C1379.89 1176.27 1350.29 1238.05 1358.5 1277.94C1361.4 1292.03 1369.49 1320.05 1373.99 1334C1400.41 1415.82 1459.18 1490.14 1491.66 1571.47C1560.24 1743.25 1509.32 1881.43 1336.55 1978.9C1255.92 2024.38 1161.38 2058.03 1084.61 2107.46C1030.86 2142.07 988.566 2186.36 939.755 2224.25C910.018 2247.33 877.297 2268.59 839.274 2284.56C796.371 2302.59 752.277 2313.35 707.852 2327.7C670.413 2339.8 632.674 2353.05 604.95 2376.59C604.95 2376.59 509.224 2365.38 512.906 2359.24C516.589 2353.1 522.111 2347.9 526.804 2342.32C594.148 2262.22 700.117 2253.72 798.235 2209.42C887.285 2169.21 964.396 2116.3 1053.67 2074.47C1113.17 2046.59 1176.61 2025.4 1236.62 1998.66C1310.39 1965.79 1380.14 1927.53 1426.6 1870.54C1476.96 1808.77 1493.57 1722.05 1464.79 1646.59C1436.44 1572.27 1396.35 1494.87 1343.08 1428.9C1313.68 1392.51 1234.9 1322.12 1226.1 1285.74C1216.31 1245.34 1233.32 1192.79 1184.97 1162.18C1169.65 1152.49 1134.84 1152.41 1116.45 1153.55C1042.73 1158.12 991.314 1194.51 932.084 1221.46C893.498 1239.03 852.951 1251.86 817.951 1274.42C732.458 1329.51 744.529 1383.63 722.346 1463.66C708.887 1512.18 677.948 1553.74 652.023 1597.24C604.268 1677.38 546.999 1800.44 422.341 1818.74C386.971 1823.94 349.197 1815.19 320.169 1795.88C245.224 1746.02 243.739 1670.27 234.53 1602.54C230.298 1571.39 224.984 1540.33 224.879 1509.21C224.333 1358.53 298.824 1218.14 232.423 1066.13C204.825 1002.94 194.351 940.96 190.774 875.708C187.192 810.568 175.61 798.759 144.144 739.564C108.959 673.388 107.029 630.203 95.4482 563.041C79.5122 470.607 22.4848 390.677 4.54788 301.377C-26.6669 145.916 104.938 78.1307 217.338 -17.2327L305.701 -95.823L373.023 -83.1351C369.817 -80.6564 365.923 -78.9617 362.819 -76.3255C266.071 5.94426 74.4848 84.2197 42.3534 200.499C14.5912 300.992 78.8896 383.502 112.936 479.65C135.719 544.017 131.031 613.008 163.298 675.437C192.835 732.596 255.513 771.752 275.073 834.253C287.1 872.684 279.947 916.812 295.399 954.127C305.327 978.107 327.359 1004.52 339.627 1028.79C358.863 1066.82 361.719 1105.79 365.275 1144.78C370.678 1204 363.51 1259.7 361.402 1318.31C359.654 1367.09 359.599 1398.79 347.563 1447.08C332.719 1506.7 317.744 1614.7 356.128 1673.56C392.578 1729.46 453.293 1707.59 489.895 1674.18C526.497 1640.78 580.772 1546.49 596.38 1503.44C610.287 1465.06 604.149 1425.58 612.984 1387.4C626.272 1329.95 726.388 1235.98 790.53 1208.99C848.954 1184.4 898.164 1172.67 950.957 1139.67C1025.7 1092.96 1078.15 1056.85 1167.14 1023.41C1200.97 1010.7 1260.54 997.493 1274.76 966.348C1301.66 907.482 1214.55 859.543 1189.56 808.427C1156.35 740.472 1225.83 679.161 1217.52 610.903C1215.79 596.685 1209.28 580.761 1206.72 566.676C1187.29 460.005 1255.7 366.67 1207.36 258.731C1192.07 224.579 1165.84 193.714 1142.17 162.677C1115.34 127.522 1087.05 91.059 1059.33 56.1248L1044.61 43.4606L1789.5 183.845C1791.92 192.293 1795.38 200.91 1799.17 209.122C1821.43 257.46 1842.28 305.897 1864.87 353.378C1900.09 427.414 1940.3 500.273 1972.12 574.824C1993.47 624.865 2011.73 675.909 2029.95 726.607C2044.59 767.304 2054.27 809.987 2076.46 848.622C2081.94 858.173 2093.78 874.12 2108.33 874.962C2129.4 876.178 2137.3 866.203 2163.57 873.192C2210.15 885.583 2252.87 972.795 2270.2 1006.22C2374.67 1207.72 2466.62 1429.51 2412.26 1637.21C2377.05 1771.74 2327.26 1903.57 2280.59 2034.72C2250.26 2119.94 2214.52 2204.45 2200.14 2293.45C2180.73 2413.56 2150.34 2535.58 2133.67 2655.97C2133.26 2658.92 2133.09 2661.74 2133.87 2664.75L2021.36 2643.54C2023.1 2632.77 2027.32 2622.56 2029.22 2611.86C2043.1 2533.54 2045.54 2457.73 2053.48 2379.44C2061.63 2298.95 2106.94 2230.04 2142.5 2157.49C2211.79 2016.18 2273.56 1871.18 2325.32 1723.72C2368.16 1601.72 2392.87 1499.15 2366.81 1367.93C2347.19 1269.14 2305.51 1186.42 2256.47 1094.8C2243.58 1070.73 2207.24 1012.96 2172.25 1014.39C2162.68 1014.78 2144.69 1019.72 2136.28 1022.83C2112.97 1031.43 2093.69 1050.62 2073.7 1022.77C2051.52 991.85 2042.7 925.222 2034.71 889.865C2010.85 784.376 1987.41 685.998 1947 582.824C1911.51 492.242 1865.65 403.143 1824.95 313.252C1814.81 290.854 1805.36 263.43 1794.07 242.49C1792.19 239.002 1788.25 227.778 1778.78 230.611C1769.8 233.297 1787.36 264.906 1796.44 286.26C1834.1 374.937 1877.37 463.334 1914.54 553.1C1954.04 648.541 1976.87 743.493 1992.96 841.178C2006 920.292 2016.33 997.815 2027.79 1076.76C2033.2 1113.99 2033.63 1161.21 2050.1 1196.82C2052.19 1201.36 2058.41 1208.74 2064.67 1209.44C2074.29 1210.54 2092.64 1195.32 2098.29 1189.86C2113.39 1175.29 2128.66 1155.7 2145.4 1142.74C2197.69 1102.26 2238.66 1161.9 2261.03 1197.81C2314.21 1283.2 2339.77 1396.46 2334.5 1487.32C2328.78 1586.07 2286.18 1684.96 2248.43 1777.12C2214.63 1859.61 2179.75 1939.33 2137.29 2018.67C2107.34 2074.65 2072.84 2128.68 2037.21 2182.32C1978.6 2270.54 1919.11 2343.82 1913.01 2450.48C1910 2503.37 1913.55 2555.07 1908.99 2608.41C1908.63 2612.68 1907.32 2617.73 1905.47 2621.7L1779.33 2597.93C1784.83 2580.48 1781.95 2561.94 1784.12 2544.05C1803.82 2381.57 1891.71 2263.92 1991.53 2132.88C2071.54 2027.86 2135.99 1915.32 2189.08 1797.91C2231.69 1703.68 2274.04 1606.42 2289.12 1504.24C2298.96 1437.59 2290.89 1365.86 2261.94 1299.09C2257.97 1289.94 2249.93 1270.86 2244.2 1263.1C2237.76 1254.37 2217.93 1232.84 2208.39 1226.79C2199.5 1221.15 2193.17 1218.43 2182.13 1220.19C2154.8 1224.54 2130.9 1261.51 2117.31 1279.17C2080.14 1327.46 2045.07 1382.72 1992.28 1421.28C1992.28 1421.28 1980.31 1429.69 1970.85 1432.15C1960.23 1434.91 1954 1434.8 1950.38 1432.57C1945.58 1429.6 1943.2 1420.81 1945.3 1415.43C1965.65 1362.97 1974.27 1291.41 1981.8 1233.7C1999.2 1100.65 1976.57 955.591 1963.91 820.35C1962.8 808.465 1953.7 760.619 1951.13 750.143C1927.8 654.631 1905.02 579.669 1868.1 493.737C1846.89 444.379 1826.36 396.606 1803.51 347.729C1798.96 337.974 1794.82 327.027 1780.66 307.485L1780.72 307.496ZM1502.46 2359.77C1584.77 2302.57 1674.56 2237.91 1686.81 2143.69C1690.91 2112.18 1683.29 2058.54 1663.28 2028.99C1652.38 2012.87 1631.51 2000.73 1608.48 2004.06C1537.35 2014.34 1438.78 2079.24 1396.6 2123.55C1338.98 2184.05 1319.3 2252.34 1295.83 2326.01C1282.79 2366.91 1268.2 2408.14 1262.39 2450.85C1260.49 2464.86 1268.28 2474.27 1286.02 2467.05C1344.05 2443.45 1400.23 2416.49 1454.6 2387.83L1502.47 2359.78L1502.46 2359.77ZM1198.62 128.909C1231.08 172.022 1261.46 211.383 1277.8 259.826C1304.3 338.344 1282 412.396 1291.46 489.554C1298.43 546.285 1325.77 597.303 1314.46 654.326C1311.3 670.291 1302.24 685.419 1300.12 701.693C1296.62 728.54 1303.26 756.934 1327.02 779.205C1386.86 835.278 1474.85 814.703 1540.72 791.633C1628.62 760.86 1660.74 700.839 1658.41 624.647C1655.81 539.912 1631.43 457.729 1603.27 374.48C1597.89 358.58 1594.46 354.122 1586.81 344.941C1561.38 314.39 1533.66 290.656 1497.26 266.783C1485.04 258.768 1471.28 253.217 1462.53 252.762C1461.51 252.708 1459.2 252.916 1458.72 253.579C1455.65 257.821 1457.13 262.416 1460.11 269.408C1467.25 286.192 1474.96 307.426 1480.22 324.311C1494.51 370.152 1494.81 401.957 1485.83 446.91C1481.87 466.776 1472.03 514.89 1446.24 469.272C1408.6 402.722 1437.75 332.992 1411.43 265.619C1402.05 241.604 1364.35 182.705 1339.69 167.009C1294.62 138.307 1244.61 115.316 1194 93.9637C1190.6 92.5296 1188.3 89.1882 1183.35 87.5132C1178.27 85.8021 1172.82 85.3523 1167.61 84.2336C1167.39 85.2484 1167.04 86.2637 1167.29 87.3437C1167.64 88.8576 1182.95 106.338 1185.69 109.988C1189.89 115.6 1194.08 122.87 1198.62 128.897L1198.62 128.909Z" fill="#FEF2CE" stroke="black" stroke-width="2" mask="url(#path-1-inside-1_2026_87)"/>
</mask>
<g mask="url(#mask1_2026_87)">
<path d="M2002.36 -118.124C2002.36 -118.124 2394.72 1446.96 1644.51 1780.6C894.31 2114.24 -407.115 1952.02 -407.115 1952.02L52.2966 -485.641L2002.36 -118.124Z" fill="#FEF2CE"/>
</g>
</g>
</mask>
<g mask="url(#mask0_2026_87)">
<path d="M0 0H349V554.089H1300V1820H0V0Z" fill="#FEF2CE"/>
</g>
<defs>
<clipPath id="clip0_2026_87">
<rect width="1300" height="1820" fill="white"/>
</clipPath>
</defs>
</svg>
