<svg width="79" height="21" viewBox="0 0 79 21" fill="none" xmlns="http://www.w3.org/2000/svg">
<path d="M44.9212 0L44.8649 6.64385C45.3363 6.46029 45.7827 6.22874 46.2729 6.09315C54.7712 3.73391 56.4817 18.3525 48.1169 20.3154C46.0768 20.7931 43.073 20.5219 41.0434 19.9733C40.647 19.8669 40.7555 19.6061 40.768 19.2223C40.9224 14.8501 40.9349 10.4299 40.8243 6.05143C40.7972 5.01887 40.9933 2.97878 40.2611 2.18402C39.8961 1.78977 39.3704 1.80229 38.8906 1.67087V1.17441L44.9191 0.00208598L44.9212 0ZM44.8711 7.61592L44.9212 19.3371L44.9754 19.4539C47.9792 20.2486 49.016 16.5982 49.2413 14.339C49.5208 11.5313 49.0118 6.19328 44.8691 7.61592H44.8711Z" fill="black"/>
<path d="M15.9819 0.394531L16.0987 5.92447C15.9214 5.97453 15.2602 6.26031 15.1579 6.13098C14.6636 4.66871 13.9731 3.03747 12.5526 2.2594C11.0235 1.42292 9.08565 2.01117 7.42312 1.77337L7.3668 1.813L7.19367 9.77102C7.29588 9.91495 7.77148 9.77102 7.93419 9.76476C8.49949 9.74807 9.13154 9.78145 9.69267 9.70427C10.938 9.53322 11.4678 8.13144 11.6285 7.03838L12.4566 6.98415V13.6843L11.6285 13.6301C11.4595 12.5203 10.9755 11.1436 9.69893 10.9579L7.16863 10.8453L7.22287 14.1704C7.41269 15.497 7.07685 18.5238 8.62465 19.1308C8.97927 19.2706 10.0661 19.3186 10.2392 19.4479C10.3581 19.5376 10.2663 19.9944 10.2955 20.1592H0.00745681C0.0366606 19.9882 -0.0572086 19.5522 0.0637783 19.4479C0.228571 19.3081 1.30285 19.2497 1.6971 19.0349C3.01336 18.3152 2.81102 14.9755 2.84856 13.6551C2.91532 11.2145 2.932 8.77392 2.84856 6.33332C2.80476 5.07965 2.94035 2.36787 1.76594 1.62317C1.24027 1.28942 0.664541 1.28733 0.0616923 1.22475L0.00745681 0.394531H15.984H15.9819Z" fill="black"/>
<path d="M20.2914 5.69644C24.0984 5.3752 27.0208 7.19001 27.7801 11.0157C28.8231 16.2557 25.8944 20.9366 20.2163 20.557C11.8849 20.0021 12.0935 6.3869 20.2894 5.69644H20.2914ZM20.7483 6.60385C19.6344 6.6852 19.0899 7.75114 18.8104 8.70234C18.1116 11.0866 18.0428 16.8836 19.6802 18.8819C20.6273 20.0376 22.0916 19.7768 22.8155 18.5524C23.9711 16.5999 23.8835 11.7687 23.3578 9.5868C23.0554 8.33104 22.3169 6.4912 20.7483 6.60593V6.60385Z" fill="black"/>
<path d="M67.3781 12.4342H58.9925C58.9111 12.4842 58.9132 12.5468 58.9049 12.6302C58.7985 13.5356 59.199 15.2502 59.6162 16.0721C60.9762 18.7547 64.4682 19.2157 66.7919 17.4968L67.1445 17.8702C67.1883 18.0371 66.5813 18.6629 66.4394 18.7943C63.9383 21.0889 59.71 21.1661 57.1443 18.9383C53.3937 15.6799 54.1029 8.32686 58.7734 6.2534C60.4965 5.48784 62.9558 5.39814 64.61 6.37021C66.7002 7.59886 67.3447 10.1584 67.3781 12.4362V12.4342ZM63.1623 11.291C63.1707 10.077 63.1352 8.55215 62.5553 7.45701C61.8795 6.18039 60.6988 6.42445 59.975 7.51124C59.2282 8.63142 59.0217 10.0999 58.9069 11.4141L63.1623 11.2931V11.291Z" fill="black"/>
<path d="M78.2268 10.0969L77.6114 10.2763C77.1087 8.7202 76.2618 6.85742 74.3969 6.69888C73.0243 6.58207 72.0252 7.62297 72.1691 8.98303C72.3652 10.8437 75.7194 11.5425 77.0941 12.4103C78.8004 13.4867 79.324 15.1179 78.8109 17.0704C77.6949 21.3195 71.5934 21.0025 68.3684 19.7071L68.3184 15.5518L68.9129 15.412C69.5762 17.3124 70.759 19.4088 73.089 19.2481C74.5575 19.148 75.5964 17.7024 75.0227 16.2965C74.1445 14.1438 69.6179 14.6986 68.7126 11.4695C67.9408 8.70977 69.7347 6.41102 72.3902 5.82903C74.205 5.4306 76.4412 5.72056 78.1517 6.4131L78.2268 10.099V10.0969Z" fill="black"/>
<path d="M28.0938 20.1607V19.4223C28.6841 19.3555 29.2536 19.3451 29.6186 18.8152C30.1443 18.0538 29.9962 16.3413 30.0233 15.4151C30.065 13.9674 30.1318 12.4968 30.0859 11.0429C30.0629 10.3441 30.0275 8.6565 29.677 8.10163C29.3057 7.51547 28.7008 7.56762 28.1021 7.43203L28.0979 6.87507L34.1222 5.6798V8.85884C34.844 7.04195 36.5336 5.39402 38.6363 5.62765C38.8324 5.64851 39.744 5.88632 39.7502 6.10117L38.3317 9.85594C37.4577 9.38868 36.64 9.1175 35.6283 9.19886C35.2278 9.23014 34.3788 9.47629 34.1494 9.82256C34.0597 9.96024 34.02 10.5422 34.0075 10.7613C33.9241 12.4321 33.9992 14.2073 34.0701 15.8719C34.1035 16.6708 34.0367 18.1999 34.4977 18.8528C34.9587 19.5057 35.8244 19.3513 36.5128 19.4243V20.1628H28.0979L28.0938 20.1607Z" fill="black"/>
</svg>
