<svg width="111" height="33" viewBox="0 0 111 33" fill="none" xmlns="http://www.w3.org/2000/svg">
<path d="M15.0023 32.4556C2.70178 31.5188 -4.27198 17.4346 2.87668 6.97685C9.68109 -2.97837 24.5676 -2.11322 30.2609 8.50685C35.8007 18.8409 28.7652 31.7177 17.2219 32.4549H15.0023V32.4556ZM8.8288 10.2948H13.6149V26.3546C15.2772 26.7102 16.9463 26.7102 18.6093 26.3546V10.2948H23.3954C23.6258 8.79992 23.723 7.28538 23.3551 5.80246L8.83296 5.81019C8.54841 7.29592 8.54355 8.81046 8.82949 10.2948H8.8288Z" fill="black"/>
<path d="M110.999 17.9379V21.8652C110.491 21.8005 109.779 21.9537 109.3 21.8652C109.223 21.8511 109.171 21.8293 109.127 21.7598V18.1832C109.127 18.0869 108.908 17.602 108.838 17.4937C108.212 16.5309 106.92 16.5309 106.295 17.4937C106.224 17.602 106.006 18.0869 106.006 18.1832V21.7598L105.902 21.8652H104.064V15.2026H105.556L105.904 15.7648C108.004 14.1168 110.495 15.5013 111.001 17.9372L110.999 17.9379Z" fill="black"/>
<path d="M72.9896 21.7961V19.973H73.9953C74.0675 19.973 74.3458 19.8332 74.4291 19.7805C75.2147 19.2864 75.2175 18.1999 74.4804 17.6594C74.3118 17.5357 73.912 17.3783 73.7177 17.3783H70.2148V11.0664H73.5095C73.59 11.0664 74.0973 11.221 74.2153 11.2639C75.5604 11.7488 76.3717 13.113 76.2516 14.5404C76.2065 15.0773 75.9706 15.5159 75.7707 15.9959C77.4593 17.4198 77.3649 20.1923 75.4389 21.3625C75.2626 21.4693 74.502 21.7961 74.3416 21.7961H72.9889H72.9896ZM72.1568 15.3437H73.1625C73.2152 15.3437 73.5872 15.1919 73.6629 15.1483C74.3923 14.728 74.4957 13.6569 73.8169 13.139C73.7663 13.1003 73.3963 12.8888 73.3707 12.8888H72.1568V15.343V15.3437Z" fill="black"/>
<path d="M63.485 10.4336V15.6231C65.2375 14.4058 67.6722 15.1164 68.5613 17.0477C68.6702 17.2838 68.8951 17.9508 68.8951 18.1827V21.7593L68.791 21.8647H66.8838V18.3936C66.8838 18.2931 66.7228 17.825 66.6672 17.7006C66.1571 16.5642 64.5129 16.4264 63.8015 17.4511C63.7432 17.5347 63.485 18.0576 63.485 18.1131V21.76L63.3809 21.8654H61.5084L61.4043 21.76V10.4343H63.485V10.4336Z" fill="black"/>
<path d="M46.0753 11.0664V13.2402H43.1618L43.0576 21.8657H41.0116V13.2402H38.0293V11.0664H46.0753Z" fill="black"/>
<path d="M53.2216 19.1273H48.2966C48.7721 20.3417 50.0165 20.6566 51.0242 19.8399L52.3866 20.8407C49.4848 24.0357 44.5044 20.1787 46.8815 16.5396C48.9525 13.3692 53.8677 15.4383 53.2216 19.128V19.1273ZM51.4184 17.9353C50.9173 16.314 48.7852 16.3062 48.2973 17.9353H51.4184Z" fill="black"/>
<path d="M99.1931 15.0114C101.961 14.894 103.947 17.675 102.547 20.2276C101.29 22.5216 97.7675 22.6228 96.3468 20.442C94.8025 18.0714 96.4717 15.1267 99.1931 15.0114ZM99.0494 16.7614C97.0679 17.1015 97.3622 20.5425 99.5803 20.3134C101.799 20.0842 101.473 16.3453 99.0494 16.7614Z" fill="black"/>
<path d="M80.2708 15.1992V18.8812C80.2708 18.9241 80.5102 19.4259 80.5602 19.5004C81.1265 20.3529 82.3286 20.3529 82.8949 19.5004C82.9449 19.4259 83.1844 18.9241 83.1844 18.8812V15.3046L83.2885 15.1992H85.0916L85.1957 15.3046V18.8109C85.1957 19.6227 84.4205 20.7696 83.809 21.2665C82.2266 22.5534 79.9106 22.0937 78.8542 20.3831C78.7321 20.1856 78.3281 19.3401 78.3281 19.1616V15.1992H80.2701H80.2708Z" fill="black"/>
<path d="M88.387 10.4336V21.7593L88.2829 21.864H86.4791L86.375 21.7593V10.4336H88.387Z" fill="black"/>
<path d="M91.5083 10.4336H89.5664V21.8647H91.5083V10.4336Z" fill="black"/>
<path d="M59.3934 17.2339C58.6209 16.7448 57.9831 16.5564 57.128 17.0111C55.2381 18.0175 56.6054 20.8407 58.6466 20.23C58.9492 20.1393 59.14 19.9228 59.3934 19.8294L60.1284 21.3734C58.1975 22.7207 55.2819 21.8654 54.5587 19.5637C53.5023 16.2015 57.5507 13.6777 60.2193 15.725L59.3927 17.2339H59.3934Z" fill="black"/>
<path d="M94.6997 15.1992H92.7578V21.8618H94.6997V15.1992Z" fill="black"/>
<path d="M94.6997 11.0664H92.7578V13.2402H94.6997V11.0664Z" fill="black"/>
</svg>
