<svg width="62" height="23" viewBox="0 0 62 23" fill="none" xmlns="http://www.w3.org/2000/svg">
<path d="M6.2532 5.7371H0L0 0H19.4343V5.7371H13.1798V22.475H6.2532V5.7371ZM20.5098 0H39.4064V5.7371H27.4369V8.50452H39.4064V13.9031H27.4369V16.7379H39.4064V22.475H20.5098V0ZM40.5488 0H51.9135C59.3784 0 62 5.53465 62 11.2042C62 18.0883 58.368 22.475 50.5683 22.475H40.5488V0ZM47.4759 16.7379H50.1645C54.4681 16.7379 55.0748 13.229 55.0748 11.1368C55.0748 9.71888 54.604 5.80465 49.6268 5.80465H47.407L47.4759 16.7379Z" fill="black"/>
</svg>
