<svg width="8" height="11" viewBox="0 0 8 11" fill="none" xmlns="http://www.w3.org/2000/svg">
<path d="M4.18164 0.5C4.18164 0.223858 3.95778 0 3.68164 0C3.4055 0 3.18164 0.223858 3.18164 0.5H3.68164L4.18164 0.5ZM3.32809 10.8536C3.52335 11.0488 3.83993 11.0488 4.03519 10.8536L7.21717 7.67157C7.41244 7.47631 7.41244 7.15973 7.21717 6.96447C7.02191 6.7692 6.70533 6.7692 6.51007 6.96447L3.68164 9.79289L0.853214 6.96447C0.657951 6.7692 0.341369 6.7692 0.146107 6.96447C-0.0491554 7.15973 -0.0491554 7.47631 0.146107 7.67157L3.32809 10.8536ZM3.68164 0.5H3.18164L3.18164 10.5H3.68164H4.18164L4.18164 0.5L3.68164 0.5Z" fill="#1E1E1E"/>
</svg>
