<svg width="440" height="260" viewBox="0 0 440 260" fill="none" xmlns="http://www.w3.org/2000/svg">
<g clip-path="url(#clip0_2091_2)">
<mask id="mask0_2091_2" style="mask-type:alpha" maskUnits="userSpaceOnUse" x="-119" y="-80" width="694" height="355">
<path d="M420.181 274.745V191.004L-14.9656 115.739L-119 -9.35925L-91.0007 -80L574.05 127.298V274.745H420.181Z" fill="#D9D9D9"/>
</mask>
<g mask="url(#mask0_2091_2)">
<path d="M-220.968 544.741C-223.418 542.754 -222.477 540.448 -218.417 543.041C-209.378 548.821 -186.081 559.121 -176.808 563.934C-141.698 582.171 -106.764 599.144 -68.8746 612.122C-18.4921 629.382 33.9364 638.694 86.5615 645.983C134.595 652.634 177.735 650.891 224.711 637.993C235.674 634.981 246.345 631.48 257.722 629.828C274.366 627.416 308.801 626.933 320.258 641.627C327.41 650.796 312.605 662.393 306.005 667.243C278.643 687.339 238.618 702.814 206.829 715.606C198.167 719.091 173.212 726.496 171.693 737.078C170.454 745.732 180.004 751.714 186.689 755.146C198.401 761.154 218.828 767.035 232.002 767.624C284.499 769.988 330.976 763.05 382.236 752.022C441.073 739.363 496.302 718.565 550.473 692.657C579.185 678.925 604.283 667.609 635.902 660.278C664.917 653.553 695.945 647.768 725.136 641.993C732.198 640.596 739.388 639.948 746.413 638.397V598.374C743.506 597.928 741.471 600.037 738.867 600.833C728.994 603.84 714.63 606.64 704.39 605.801C694.564 604.993 692.789 599.67 697.332 591.33C703.688 579.664 726.299 558.569 737.687 552.077C740.217 550.637 743.676 549.745 746.413 548.635V460.009C741.54 462.713 737.459 466.512 732.756 469.513C696.44 492.701 650.606 491.936 610.07 501.807C564.938 512.798 531.061 546.361 497.428 575.876C487.608 584.493 461.341 604.361 456.218 615.012C450.835 626.205 463.737 632.235 472.075 636.214C487.321 643.481 505.74 647.656 520.443 655.327C525.061 657.739 529.185 662.844 527.798 668.279C527.384 669.894 521.767 676.577 520.215 677.852C503.518 691.573 482.639 702.097 462.86 710.852C409.704 734.38 347.285 748.888 289.16 752.75C276.805 753.573 269.62 754.019 257.105 752.787C251.531 752.235 240.324 751.555 234.824 750.503C224.472 748.521 209.236 741.142 222.266 729.902C230.147 723.102 242.529 717.705 251.839 713.157C272.006 703.308 292.215 693.672 312.186 683.153C327.83 674.914 370.534 653.489 377.841 638.439C381.646 630.598 371.32 626.024 365.507 623.831C340.371 614.364 306.085 608.26 279.43 606.396C261.075 605.11 241.45 611.166 224.706 616.845C182.183 631.273 140.85 639.04 95.2924 635.534C38.6446 631.177 -15.4047 621.599 -69.2573 603.925C-110.558 590.368 -149.372 571.079 -187.702 550.807C-190.933 549.097 -197.241 545.383 -197.103 541.633C-196.965 537.883 -189.073 541.814 -185.492 543.45C-181.852 545.118 -177.207 548.3 -173.37 550.196C-81.4052 595.569 2.32837 624.085 107.313 620.702C146.69 619.432 179.738 609.578 215.486 594.48C220.513 592.355 230.349 587.537 235.525 585.794C251.233 580.509 274.206 584.907 290.356 587.462C337.396 594.905 392.178 610.151 438.74 594.682C504.735 572.758 543.097 504.489 610.038 485.195C630.7 479.24 652.753 477.641 673.579 472.1C700.595 464.913 726.374 452.216 746.408 432.561V407.401C742.226 411.503 738.399 415.976 734.127 419.997C706.568 445.9 680.928 453.449 645.053 461.879C608.455 470.48 587.804 476.918 558.221 500.271C539.792 514.822 522.792 531.285 504.108 545.676C454.602 583.823 412.361 591.595 350.495 582.793C323.366 578.936 297.173 569.517 270.725 563.058C243.905 556.502 216.841 561.151 193.518 574.739C148.332 601.067 86.8697 612.234 34.6538 607.522C-35.6459 601.179 -105.457 575.366 -167.493 544.316C-171.218 542.451 -176.644 539.715 -180.316 537.718C-188.962 533.011 -191.034 526.525 -178.891 531.04C-176.521 531.922 -167.238 535.922 -164.831 537.075C-137.825 550.027 -112.083 561.294 -83.3289 570.521C-37.6652 585.178 8.90186 598.321 57.5573 595.532C85.5784 593.928 124.297 573.81 150.086 561.671C191.87 542.005 215.969 523.853 264.726 538.743C292.332 547.174 317.85 561.055 346.488 567.355C394.453 577.906 444.16 574.575 486.492 548.635C530.264 521.807 561.351 475.75 609.162 455.717C637.374 443.897 667.786 441.092 694.877 425.346C700.627 422.005 708.327 414.435 713.02 412.039C714.359 411.359 716.171 411.582 716.58 411.311C717.159 410.929 716.957 408.671 717.372 408.092C717.627 407.736 718.908 407.598 719.503 407.088C725.322 402.142 730.067 396.139 734.972 390.524C738.74 386.211 742.555 381.897 746.413 377.658V337.061C744.346 339.138 742.529 341.901 740.78 344.296C724.413 366.762 711.192 386.843 687.464 403.061C664.757 418.589 636.407 425.033 612.169 436.991C560.846 462.315 530.779 514.354 480.662 541.086C424.695 570.936 367.978 563.254 312.393 537.399C279.584 522.137 247.864 499.937 209.741 504.659C182.932 507.98 163.892 516.814 141.36 530.637C113.552 547.705 80.8808 571.478 48.2047 577.592C21.1933 582.644 -7.44946 577.284 -33.6743 571.185C-74.1515 561.767 -113.996 549.511 -151.912 532.73C-157.221 530.382 -167.036 526.567 -171.473 523.699C-172.313 523.157 -176.84 519.89 -177.579 519.215C-180.826 516.267 -181.278 513.217 -180.204 511.119C-178.801 508.378 -167.589 513.063 -163.906 514.997C-124.46 535.715 -80.4858 547.014 -36.1985 553.708C-20.9631 556.008 0.22406 556.454 14.9493 552.359C27.4852 548.874 43.6133 540.948 55.3201 535.099C71.7778 526.886 85.6899 519.985 101.871 511.178C122.846 499.761 138.905 483.368 162.085 474.177C177.825 467.935 206.271 462.118 222.463 467.213C228.181 469.014 239.372 473.343 244.904 475.654C277.357 489.206 304.066 512.782 335.828 528.267C402.913 560.97 465.321 552.911 520.231 502.896C545.855 479.553 567.59 450.984 594.575 429.134C613.471 413.835 635.541 402.838 655.426 389.34C667.542 381.116 679.121 371.814 688.894 360.472C699.92 347.675 707.977 334.049 717.574 320.534C725.662 309.145 734.26 297.729 746.408 290.185V259.31C743.522 260.128 740.886 261.6 738.155 262.779C698.969 279.704 686.943 313.512 660.426 342.591C636.359 368.983 607.876 390.731 583.107 417.096C566.596 434.67 552.599 453.927 536.529 471.734C516.777 493.62 495.069 513.881 467.303 525.452C437.209 537.994 399.267 538.079 369.689 524.15C340.557 510.428 311.064 492.717 287.443 471.436C274.413 459.691 250.957 429.873 236.296 424.799C220.013 419.163 196.467 421.463 187.39 403.932C184.516 398.381 187.252 387.098 189.197 381.212C196.993 357.609 216.453 343.176 232.549 325.634C243.039 314.207 251.685 301.856 263.998 291.896C294.07 267.565 315.964 274.779 351.526 272.479C373.09 271.082 393.103 263.597 413.535 257.854C451.18 247.278 507.706 236.239 525.359 196.975C530.37 185.835 529.679 173.064 523.834 162.482C508.742 135.161 476.874 130.056 449.001 122.937C436.184 119.665 423.489 116.047 410.358 114.114C346.764 104.737 281.55 120.297 222.638 89.5071C198.151 76.7097 172.809 69.5328 145.537 64.3904C118.313 59.2534 114.248 54.7804 91.7533 40.9737C66.6072 25.5361 48.5234 22.2744 21.0817 14.4228C-16.6854 3.61752 -45.902 -19.7354 -82.1863 -30.9975C-145.355 -50.6 -184.455 -12.1069 -233.674 18.4814L-273.896 42.3071V64.8898C-272.594 64.0026 -271.569 62.8446 -270.208 61.9999C-227.765 35.6827 -179.46 -21.6001 -127.797 -24.9096C-83.1482 -27.7677 -53.4213 -1.90198 -15.5268 14.9965C9.84253 26.3064 39.3514 28.9998 63.1478 43.2633C84.9354 56.321 96.4828 79.0152 121.321 89.1671C136.593 95.409 155.798 95.7862 170.327 103.069C179.664 107.75 189.064 116.499 198.337 121.955C212.866 130.508 229.095 133.812 245.282 137.344C269.859 142.71 293.953 143.788 318.871 146.684C339.612 149.095 353.003 151.013 374.355 150.062C400.713 148.893 447.513 150.636 469.317 166.663C490.021 181.883 475.954 200.216 458.933 210.033C441.912 219.85 397.774 231.675 378.351 234.103C361.038 236.265 344.851 231.867 328.027 232.398C302.705 233.195 255.054 259.889 238.549 279.019C223.515 296.443 214.646 311.668 196.509 326.755C170.832 348.116 151.409 362.9 130.206 389.685C122.144 399.869 111.824 418.361 97.5403 421.065C70.5396 426.186 57.2278 395.04 37.6296 383.825C11.5748 368.919 -19.8472 387.682 -48.0117 380.824C-53.8784 379.395 -60.0852 376.314 -65.8297 374.624C-109.331 361.816 -154.192 378.279 -195.928 356.031C-209.134 348.992 -220.081 338.612 -231.304 329.05C-244.015 318.213 -257.162 306.823 -269.709 295.71L-273.886 290.169V540.034C-270.511 541.336 -267.147 542.982 -263.98 544.709C-245.338 554.871 -226.543 564.582 -208.289 574.798C-179.827 590.73 -152.257 608.202 -123.307 623.06C-103.873 633.031 -83.77 642.062 -63.8104 651.062C-47.7885 658.286 -30.5338 664.029 -15.9839 673.575C-12.3862 675.934 -6.59393 680.741 -7.39636 685.507C-8.56012 692.407 -13.4012 694.357 -12.5403 703.292C-11.0152 719.139 22.4156 738.3 35.1534 745.955C111.931 792.098 198.279 835.425 290.318 830.496C349.931 827.303 409.571 819.223 468.669 812.11C507.073 807.488 545.606 801.071 584.334 801.846C636.603 802.893 690.552 800.497 742.72 802.447C744.001 802.494 745.207 802.611 746.413 803.047V765.308C741.726 765.213 737.076 765.956 732.405 765.919C698.225 765.632 666.017 761.797 632.326 759.587C597.683 757.313 564.975 767.784 531.507 774.876C466.315 788.693 400.165 799.849 333.771 807.615C278.84 814.043 233.559 815.786 180.216 799.334C140.058 786.945 108.439 768.395 73.6536 746.917C64.5135 741.27 43.0074 725.97 46.3978 714.724C47.3224 711.648 50.8405 706.124 52.8226 703.59C58.312 696.561 67.9517 691.488 57.7805 683.313C46.4882 674.239 19.0517 667.317 4.7569 662.568C-37.8937 648.4 -77.5737 634.8 -117.929 615.411C-153.357 598.385 -187.336 578.091 -222.058 559.419C-230.709 554.765 -241.539 550.032 -249.483 545.097C-250.807 544.273 -255.233 542.313 -253.283 539.418C-251.434 536.671 -239.482 544.289 -231.187 548.534C-196.736 566.149 -162.848 585.561 -127.898 603.081C-90.7367 621.706 -52.4542 634.896 -12.4819 646.073C19.8914 655.125 51.8076 663.205 84.2339 671.737C99.5278 675.764 119.434 678.786 133.16 686.293C134.914 687.249 137.534 689.714 137.332 691.786C137.029 694.968 129.143 699.983 126.385 701.481C119.03 705.481 109.545 709.231 102.737 713.864C81.4812 728.329 103.407 745.244 116.793 754.684C148.619 777.123 194.416 792.316 233.208 796.157C275.365 800.332 320.518 792.571 362.441 785.968C399.969 780.055 436.412 773.622 473.297 764.713C499.32 758.429 524.886 750.551 550.372 742.285C592.295 728.685 627.973 713.885 673.504 718.422C696.078 720.674 717.632 724.982 740.52 726.762C742.353 726.905 744.59 726.789 746.413 726.433V684.12C738.607 684.837 731.008 682.771 723.276 682.383C653.093 678.845 596.413 700.131 533.128 724.467C482.411 743.974 429.754 757.982 375.944 768.012C332.762 776.06 288.315 783.843 243.964 782.488C215.034 781.606 185.382 774.615 159.492 761.159C155.942 759.316 148.523 755.544 145.702 753.217C142.529 750.598 135.015 742.858 133.219 739.4C131.545 736.175 130.902 733.96 132.523 730.491C136.535 721.901 154.05 716.419 162.59 713.093C185.94 703.999 212.069 696.014 232.555 681.267C232.555 681.267 237.061 677.905 238.852 674.988C240.86 671.716 241.312 669.692 240.658 668.385C239.787 666.648 236.264 665.341 233.825 665.692C210.049 669.081 179.143 667.503 154.172 666.419C96.5997 663.933 37.1407 647.747 -18.9651 635.39C-23.8965 634.306 -43.3778 628.436 -47.5972 626.965C-86.0762 613.578 -115.92 601.62 -149.271 584.413C-168.428 574.532 -186.969 564.965 -205.791 554.579C-209.548 552.507 -213.842 550.499 -220.968 544.719V544.741ZM667.871 579.892C637.167 603.065 602.71 628.203 561.946 626.418C548.316 625.823 526.268 620.08 515.379 611.793C509.443 607.277 505.973 599.776 509.215 592.52C519.216 570.107 554.469 542.138 576.539 531.178C606.675 516.208 637.082 514.004 670.061 510.896C688.373 509.169 706.946 506.96 725.444 507.687C731.512 507.926 734.866 511.023 730.402 516.33C715.82 533.686 699.963 550.239 683.532 566.102L667.877 579.898L667.871 579.892ZM-250.057 345.274C-234.434 358.422 -220.23 370.667 -201.072 378.917C-170.022 392.293 -136.974 389.589 -105.143 397.366C-81.7399 403.088 -62.3702 415.056 -37.3889 414.876C-30.3956 414.828 -23.2853 412.815 -16.2443 413.123C-4.62775 413.627 6.83472 417.511 14.3488 426.568C33.2668 449.374 17.5745 476.621 2.58881 496.553C-17.4026 523.146 -45.3068 529.888 -77.2974 524.48C-112.875 518.466 -145.641 505.552 -178.557 491.347C-184.843 488.632 -186.453 487.251 -189.722 484.212C-200.599 474.108 -208.416 463.68 -215.601 450.431C-218.014 445.985 -219.262 441.188 -218.758 438.324C-218.699 437.99 -218.428 437.257 -218.109 437.14C-216.074 436.407 -214.251 437.166 -211.536 438.558C-205.015 441.894 -196.662 445.687 -189.95 448.423C-171.728 455.85 -158.321 457.89 -138.622 457.725C-129.917 457.656 -108.815 457.406 -126.027 446.266C-151.136 430.011 -182.904 435.195 -209.261 422.557C-218.657 418.053 -240.529 402.243 -245.195 393.297C-253.729 376.946 -259.458 359.341 -264.448 341.646C-264.783 340.456 -266.01 339.505 -266.324 337.799C-266.643 336.052 -266.398 334.256 -266.457 332.503C-266.01 332.492 -265.553 332.439 -265.117 332.588C-264.506 332.795 -258.342 338.819 -257.019 339.93C-254.983 341.635 -252.247 343.436 -250.063 345.274H-250.057Z" fill="#DDCADA"/>
</g>
</g>
<defs>
<clipPath id="clip0_2091_2">
<rect width="440" height="260" fill="white"/>
</clipPath>
</defs>
</svg>
