<svg width="1266" height="600" viewBox="0 0 1266 600" fill="none" xmlns="http://www.w3.org/2000/svg">
<g clip-path="url(#clip0_2057_216)">
<mask id="mask0_2057_216" style="mask-type:alpha" maskUnits="userSpaceOnUse" x="-86" y="-102" width="1446" height="741">
<path d="M1038.96 638.15V463.43L131.061 306.396L-86 45.3869L-27.5812 -102L1360 330.514V638.15H1038.96Z" fill="#D9D9D9"/>
</mask>
<g mask="url(#mask0_2057_216)">
<path d="M-298.748 1201.48C-303.859 1197.33 -301.897 1192.52 -293.426 1197.93C-274.566 1209.99 -225.959 1231.48 -206.611 1241.52C-133.357 1279.57 -60.4684 1314.99 18.5848 1342.06C123.704 1378.07 233.093 1397.5 342.891 1412.71C443.11 1426.59 533.118 1422.95 631.13 1396.04C654.004 1389.76 676.267 1382.45 700.005 1379.01C734.731 1373.97 806.577 1372.96 830.482 1403.62C845.406 1422.75 814.516 1446.95 800.745 1457.07C743.656 1499 660.146 1531.29 593.821 1557.98C575.749 1565.25 523.682 1580.7 520.511 1602.78C517.928 1620.83 537.852 1633.31 551.8 1640.47C576.237 1653.01 618.857 1665.28 646.342 1666.51C755.875 1671.44 852.845 1656.96 959.794 1633.95C1082.55 1607.54 1197.79 1564.15 1310.81 1510.09C1370.72 1481.44 1423.08 1457.83 1489.05 1442.54C1549.59 1428.51 1614.33 1416.44 1675.23 1404.39C1689.97 1401.47 1704.97 1400.12 1719.62 1396.88V1313.38C1713.56 1312.45 1709.31 1316.85 1703.88 1318.51C1683.28 1324.78 1653.31 1330.62 1631.95 1328.87C1611.45 1327.19 1607.74 1316.08 1617.22 1298.68C1630.48 1274.34 1677.66 1230.33 1701.42 1216.78C1706.7 1213.78 1713.91 1211.92 1719.62 1209.6V1024.69C1709.46 1030.33 1700.94 1038.26 1691.13 1044.52C1615.36 1092.9 1519.73 1091.3 1435.16 1111.9C1340.99 1134.83 1270.31 1204.86 1200.14 1266.44C1179.65 1284.42 1124.84 1325.87 1114.15 1348.09C1102.92 1371.45 1129.84 1384.03 1147.24 1392.33C1179.05 1407.49 1217.48 1416.2 1248.16 1432.21C1257.79 1437.24 1266.39 1447.89 1263.5 1459.23C1262.64 1462.6 1250.92 1476.54 1247.68 1479.2C1212.84 1507.83 1169.28 1529.79 1128.01 1548.06C1017.1 1597.15 886.872 1627.42 765.598 1635.47C739.82 1637.19 724.83 1638.12 698.719 1635.55C687.088 1634.4 663.705 1632.98 652.23 1630.78C630.631 1626.65 598.844 1611.25 626.03 1587.8C642.473 1573.61 668.306 1562.35 687.732 1552.87C729.808 1532.32 771.974 1512.21 813.64 1490.26C846.281 1473.07 935.38 1428.37 950.625 1396.97C958.564 1380.61 937.021 1371.07 924.891 1366.49C872.448 1346.74 800.912 1334.01 745.297 1330.12C707.001 1327.43 666.056 1340.07 631.119 1351.92C542.398 1382.02 456.16 1398.22 361.108 1390.91C242.916 1381.82 130.146 1361.84 17.7863 1324.96C-68.385 1296.68 -149.367 1256.43 -229.341 1214.13C-236.082 1210.57 -249.243 1202.82 -248.954 1194.99C-248.666 1187.17 -232.201 1195.37 -224.728 1198.78C-217.134 1202.26 -207.443 1208.9 -199.438 1212.86C-7.55944 1307.53 167.145 1367.02 386.187 1359.96C468.345 1357.31 537.298 1336.75 611.883 1305.25C622.371 1300.82 642.894 1290.77 653.693 1287.13C686.468 1276.1 734.398 1285.28 768.093 1290.61C866.239 1306.14 980.539 1337.95 1077.69 1305.68C1215.38 1259.93 1295.42 1117.49 1435.09 1077.24C1478.2 1064.81 1524.21 1061.48 1567.66 1049.92C1624.03 1034.92 1677.81 1008.43 1719.61 967.421V914.928C1710.89 923.485 1702.91 932.817 1693.99 941.208C1636.49 995.252 1582.99 1011 1508.14 1028.59C1431.78 1046.54 1388.7 1059.97 1326.98 1108.69C1288.52 1139.05 1253.06 1173.4 1214.07 1203.43C1110.78 1283.02 1022.65 1299.24 893.569 1280.87C836.968 1272.82 782.318 1253.17 727.136 1239.69C671.178 1226.02 614.71 1235.71 566.047 1264.07C471.771 1319 343.534 1342.3 234.589 1332.46C87.9142 1319.23 -57.741 1265.37 -187.175 1200.59C-194.948 1196.7 -206.268 1190.99 -213.929 1186.82C-231.968 1177 -236.292 1163.47 -210.958 1172.89C-206.013 1174.73 -186.643 1183.08 -181.621 1185.48C-125.274 1212.51 -71.567 1236.01 -11.573 1255.27C83.701 1285.85 180.86 1313.27 282.376 1307.45C340.84 1304.1 421.623 1262.13 475.43 1236.8C562.61 1195.77 612.892 1157.9 714.619 1188.96C772.218 1206.55 825.459 1235.52 885.209 1248.66C985.284 1270.67 1089 1263.72 1177.32 1209.6C1268.64 1153.63 1333.51 1057.53 1433.26 1015.73C1492.12 991.073 1555.58 985.221 1612.1 952.369C1624.1 945.397 1640.16 929.603 1649.95 924.604C1652.75 923.185 1656.53 923.651 1657.38 923.086C1658.59 922.288 1658.17 917.577 1659.03 916.369C1659.56 915.626 1662.24 915.338 1663.48 914.274C1675.62 903.955 1685.52 891.43 1695.75 879.715C1703.61 870.715 1711.58 861.715 1719.62 852.87V768.168C1715.31 772.501 1711.52 778.265 1707.87 783.264C1673.72 830.137 1646.14 872.034 1596.63 905.872C1549.26 938.27 1490.1 951.715 1439.54 976.665C1332.45 1029.5 1269.72 1138.08 1165.16 1193.85C1048.38 1256.13 930.047 1240.1 814.073 1186.16C745.619 1154.32 679.438 1108 599.897 1117.85C543.961 1124.78 504.235 1143.21 457.225 1172.05C399.204 1207.66 331.039 1257.26 262.862 1270.02C206.505 1280.56 146.744 1269.38 92.0276 1256.65C7.57491 1237 -75.5584 1211.43 -154.667 1176.42C-165.743 1171.52 -186.222 1163.56 -195.48 1157.57C-197.232 1156.44 -206.678 1149.63 -208.219 1148.22C-214.994 1142.07 -215.936 1135.71 -213.696 1131.33C-210.769 1125.61 -187.375 1135.38 -179.691 1139.42C-97.3896 1182.65 -5.64125 1206.22 86.7612 1220.19C118.549 1224.99 162.754 1225.92 193.477 1217.37C219.633 1210.1 253.283 1193.56 277.708 1181.36C312.046 1164.22 341.073 1149.83 374.834 1131.45C418.596 1107.63 452.102 1073.43 500.465 1054.25C533.306 1041.23 592.657 1029.09 626.44 1039.72C638.371 1043.48 661.721 1052.51 673.263 1057.33C740.973 1085.61 796.699 1134.8 862.968 1167.11C1002.94 1235.34 1133.15 1218.52 1247.71 1114.17C1301.18 1065.47 1346.52 1005.86 1402.82 960.272C1442.25 928.35 1488.3 905.407 1529.79 877.243C1555.07 860.085 1579.23 840.678 1599.61 817.014C1622.62 790.313 1639.43 761.883 1659.45 733.686C1676.33 709.922 1694.27 686.103 1719.61 670.364V605.946C1713.59 607.652 1708.09 610.723 1702.4 613.183C1620.64 648.496 1595.55 719.033 1540.22 779.706C1490 834.77 1430.58 880.147 1378.9 935.156C1344.45 971.821 1315.25 1012 1281.72 1049.15C1240.51 1094.82 1195.21 1137.09 1137.28 1161.23C1074.49 1187.4 995.329 1187.58 933.617 1158.52C872.836 1129.89 811.301 1092.93 762.017 1048.53C734.831 1024.03 685.891 961.812 655.301 951.227C621.329 939.467 572.201 944.267 553.264 907.69C547.265 896.108 552.975 872.566 557.033 860.285C573.299 811.04 613.901 780.925 647.484 744.326C669.371 720.485 687.41 694.715 713.1 673.933C775.843 623.17 821.523 638.221 895.72 633.422C940.713 630.507 982.468 614.89 1025.1 602.908C1103.64 580.841 1221.58 557.809 1258.41 475.889C1268.87 452.646 1267.43 426 1255.23 403.922C1223.74 346.918 1157.25 336.266 1099.1 321.414C1072.35 314.586 1045.87 307.038 1018.47 303.004C885.786 283.441 749.721 315.905 626.806 251.664C575.716 224.963 522.84 209.989 465.939 199.26C409.138 188.542 400.657 179.209 353.724 150.402C301.258 118.193 263.527 111.388 206.272 95.0057C127.474 72.4613 66.5155 23.737 -9.18926 0.239406C-140.985 -40.6597 -222.566 39.6533 -325.258 103.474L-409.178 153.184V200.302C-406.462 198.451 -404.322 196.034 -401.484 194.272C-312.929 139.363 -212.144 19.8466 -104.352 12.9414C-11.196 6.97835 50.8269 60.9452 129.891 96.2027C182.822 119.8 244.391 125.42 294.04 155.179C339.498 182.423 363.591 229.773 415.414 250.954C447.279 263.978 487.349 264.765 517.662 279.961C537.143 289.725 556.756 307.98 576.104 319.363C606.417 337.208 640.277 344.102 674.05 351.473C725.329 362.668 775.599 364.918 827.588 370.958C870.862 375.99 898.802 379.992 943.352 378.008C998.345 375.569 1095.99 379.205 1141.48 412.645C1184.68 444.4 1155.33 482.65 1119.82 503.132C1084.31 523.615 992.214 548.288 951.689 553.353C915.567 557.864 881.794 548.687 846.692 549.795C793.86 551.458 694.439 607.154 660.002 647.066C628.636 683.421 610.131 715.187 572.29 746.665C518.715 791.233 478.191 822.079 433.952 877.964C417.133 899.211 395.601 937.794 365.798 943.435C309.463 954.12 281.689 889.136 240.798 865.738C186.437 834.637 120.877 873.785 62.1139 859.476C49.8734 856.494 36.9233 850.066 24.9378 846.541C-65.8237 819.818 -159.424 854.167 -246.504 807.748C-274.056 793.062 -296.896 771.404 -320.313 751.453C-346.834 728.842 -374.264 705.079 -400.442 681.892L-409.156 670.331V1191.66C-402.116 1194.37 -395.097 1197.81 -388.489 1201.41C-349.595 1222.61 -310.379 1242.87 -272.293 1264.19C-212.909 1297.43 -155.388 1333.88 -94.9835 1364.88C-54.4369 1385.69 -12.4933 1404.53 29.151 1423.31C62.5795 1438.38 98.5803 1450.36 128.938 1470.28C136.444 1475.2 148.529 1485.23 146.855 1495.17C144.427 1509.57 134.326 1513.64 136.122 1532.28C139.304 1565.35 209.055 1605.33 235.632 1621.3C395.823 1717.57 575.982 1807.97 768.015 1797.68C892.394 1791.02 1016.83 1774.16 1140.13 1759.32C1220.26 1749.68 1300.65 1736.29 1381.46 1737.91C1490.51 1740.09 1603.07 1735.09 1711.92 1739.16C1714.59 1739.26 1717.11 1739.51 1719.62 1740.41V1661.67C1709.85 1661.48 1700.14 1663.03 1690.4 1662.95C1619.08 1662.35 1551.88 1654.35 1481.59 1649.74C1409.31 1644.99 1341.07 1666.84 1271.24 1681.64C1135.22 1710.47 997.203 1733.74 858.677 1749.95C744.067 1763.36 649.591 1766.99 538.296 1732.67C454.508 1706.82 388.538 1668.11 315.96 1623.3C296.89 1611.52 252.019 1579.6 259.093 1556.14C261.022 1549.72 268.362 1538.19 272.497 1532.9C283.951 1518.24 304.063 1507.66 282.842 1490.6C259.281 1471.67 202.037 1457.22 172.212 1447.31C83.2242 1417.75 0.434659 1389.38 -83.7631 1348.92C-157.683 1313.4 -228.576 1271.06 -301.021 1232.1C-319.071 1222.39 -341.667 1212.52 -358.243 1202.22C-361.003 1200.5 -370.239 1196.41 -366.17 1190.37C-362.312 1184.64 -337.376 1200.53 -320.069 1209.39C-248.189 1246.14 -177.485 1286.64 -104.563 1323.2C-27.029 1362.06 52.8448 1389.58 136.244 1412.9C203.789 1431.79 270.38 1448.64 338.035 1466.45C369.944 1474.85 411.478 1481.15 440.117 1496.82C443.775 1498.81 449.242 1503.95 448.82 1508.28C448.188 1514.91 431.735 1525.38 425.98 1528.5C410.635 1536.85 390.844 1544.67 376.641 1554.34C332.292 1584.52 378.038 1619.81 405.967 1639.51C472.37 1686.33 567.921 1718.02 648.859 1726.04C736.816 1734.75 831.025 1718.56 918.494 1704.78C996.793 1692.44 1072.83 1679.02 1149.79 1660.43C1204.08 1647.32 1257.42 1630.88 1310.6 1613.64C1398.07 1585.26 1472.51 1554.38 1567.51 1563.85C1614.61 1568.55 1659.58 1577.54 1707.33 1581.25C1711.15 1581.55 1715.82 1581.31 1719.62 1580.56V1492.28C1703.34 1493.78 1687.48 1489.47 1671.35 1488.66C1524.92 1481.28 1406.66 1525.69 1274.62 1576.46C1168.8 1617.16 1058.94 1646.39 946.667 1667.32C856.571 1684.11 763.836 1700.35 671.3 1697.52C610.94 1695.68 549.073 1681.09 495.055 1653.02C487.648 1649.17 472.17 1641.3 466.283 1636.45C459.664 1630.98 443.986 1614.84 440.239 1607.62C436.746 1600.89 435.405 1596.27 438.786 1589.03C447.157 1571.11 483.701 1559.67 501.519 1552.73C550.237 1533.76 604.754 1517.1 647.495 1486.33C647.495 1486.33 656.897 1479.31 660.634 1473.23C664.825 1466.4 665.767 1462.18 664.404 1459.45C662.585 1455.83 655.234 1453.1 650.145 1453.83C600.54 1460.9 536.056 1457.61 483.956 1455.35C363.835 1450.16 239.778 1416.39 122.717 1390.61C112.428 1388.35 71.7821 1376.1 62.9787 1373.03C-17.3052 1345.1 -79.5721 1320.15 -149.157 1284.25C-189.127 1263.63 -227.811 1243.67 -267.082 1222C-274.921 1217.68 -283.88 1213.49 -298.748 1201.43V1201.48ZM1555.75 1274.82C1491.69 1323.17 1419.8 1375.61 1334.75 1371.89C1306.31 1370.65 1260.31 1358.67 1237.59 1341.38C1225.2 1331.95 1217.96 1316.3 1224.73 1301.16C1245.59 1254.4 1319.15 1196.05 1365.19 1173.18C1428.07 1141.95 1491.51 1137.35 1560.32 1130.86C1598.53 1127.26 1637.28 1122.65 1675.87 1124.17C1688.54 1124.67 1695.53 1131.13 1686.22 1142.2C1655.79 1178.41 1622.71 1212.95 1588.43 1246.04L1555.76 1274.83L1555.75 1274.82ZM-359.44 785.303C-326.843 812.735 -297.207 838.284 -257.237 855.497C-192.453 883.406 -123.5 877.764 -57.0867 893.991C-8.25782 905.928 32.1557 930.9 84.2775 930.523C98.8686 930.423 113.703 926.222 128.394 926.865C152.631 927.918 176.547 936.02 192.224 954.918C231.696 1002.5 198.955 1059.35 167.688 1100.94C125.977 1156.42 67.7573 1170.49 1.01111 1159.2C-73.219 1146.66 -141.584 1119.71 -210.259 1090.07C-223.376 1084.41 -226.735 1081.53 -233.554 1075.19C-256.25 1054.11 -272.559 1032.35 -287.549 1004.71C-292.583 995.429 -295.189 985.421 -294.135 979.447C-294.013 978.748 -293.448 977.219 -292.783 976.975C-288.536 975.445 -284.733 977.03 -279.068 979.934C-265.464 986.895 -248.034 994.809 -234.031 1000.52C-196.012 1016.01 -168.038 1020.27 -126.937 1019.92C-108.776 1019.78 -64.7483 1019.26 -100.66 996.017C-153.048 962.1 -219.329 972.918 -274.322 946.55C-293.925 937.151 -339.561 904.166 -349.295 885.5C-367.102 851.385 -379.054 814.653 -389.465 777.733C-390.163 775.25 -392.725 773.266 -393.379 769.708C-394.044 766.062 -393.534 762.315 -393.656 758.658C-392.725 758.636 -391.771 758.525 -390.862 758.835C-389.587 759.267 -376.726 771.836 -373.965 774.153C-369.718 777.711 -364.008 781.468 -359.451 785.303H-359.44Z" fill="#DDCADA"/>
</g>
</g>
<defs>
<clipPath id="clip0_2057_216">
<rect width="1266" height="600" fill="white"/>
</clipPath>
</defs>
</svg>
